<svg xmlns="http://www.w3.org/2000/svg" viewBox="0 0 1218.16 164.09"><defs><style>.cls-1{fill:#ffe9d3;}.cls-2{fill:#6b93c3;}</style></defs><g id="bg"><rect class="cls-1" width="1219.75" height="5892.95"/></g><g id="Layer_3" data-name="Layer 3"><path class="cls-2" d="M325.17,88.78c1.14,0,2.22.6,1.14,1-3.72,1.44-14,2.64-14,10,0,9.84,19.8,10,19.8-5.82,0-6.6,6.3-7.32,6.3,1.2,0,3.48,1.14,5,3.78,4v2.76a5.35,5.35,0,0,1-5.34,5.34H316.59a5.35,5.35,0,0,1-5.34-5.34V89.74a1,1,0,0,1,1.08-1Zm11.7-23.52a5.2,5.2,0,0,1,5.34,5.16v2.52a5.35,5.35,0,0,1-5.34,5.34h-9.54A5.35,5.35,0,0,1,322,72.94V70.42a5.2,5.2,0,0,1,5.34-5.16Zm-6,18.54a4.32,4.32,0,1,1,4.32,4.26A4.3,4.3,0,0,1,330.87,83.8Z"/><path class="cls-2" d="M378.09,66.22V78.4c0,28.86.3,28.86-2.4,28.86H348.15a5.35,5.35,0,0,1-5.34-5.34V99.16c2.64,1,3.78-.54,3.78-4,0-8.52,6.3-7.8,6.3-1.2,0,11,7.92,17.76,17.1,7.38,5.46-6.18,8.34-17.52,6.84-24.84-1.92-9.36-10.08-8.82-13.8-10.26-1.08-.36,0-1,1.14-1H377A1,1,0,0,1,378.09,66.22ZM363,70.42v2.52a5.35,5.35,0,0,1-5.34,5.34h-9.54a5.35,5.35,0,0,1-5.34-5.34V70.42a5.2,5.2,0,0,1,5.34-5.16h9.54A5.2,5.2,0,0,1,363,70.42ZM345.51,83.8a4.32,4.32,0,1,1,4.32,4.26A4.3,4.3,0,0,1,345.51,83.8Z"/><path class="cls-2" d="M414.68,90.22v11.7a5.34,5.34,0,0,1-5.33,5.34H384a5.35,5.35,0,0,1-5.34-5.34V91.72a2,2,0,0,1,2-1.92h11.88c2.16,0,1.44,1,0,1.62-6.3,2.64-15.78,2.46-12.48,10,2.4,5.4,21.54,9.6,21.54-4.08V90.22a5.2,5.2,0,0,1,5.16-5.34h2.52A5.34,5.34,0,0,1,414.68,90.22Zm.67-19.62V81.28a2,2,0,0,1-2,1.92H401.43c-2.16,0-1.44-1,0-1.62,6.3-2.64,15.78-2.94,12.48-10.5-3.06-7-24.42-6.24-24.42,9.24,0,6.6-6.3,7.32-6.3-1.2,0-3.48-1.14-5.1-3.78-4.08V70.6a5.35,5.35,0,0,1,5.34-5.34H410A5.35,5.35,0,0,1,415.35,70.6ZM394.53,88.66a4.29,4.29,0,1,1,4.32-4.26A4.29,4.29,0,0,1,394.53,88.66Z"/><path class="cls-2" d="M445.59,70.42v2.52a5.35,5.35,0,0,1-5.34,5.34H421a5.35,5.35,0,0,1-5.34-5.34V70.42A5.2,5.2,0,0,1,421,65.26h19.26A5.2,5.2,0,0,1,445.59,70.42Zm-8,28.68v8.16l-5.34-.06h-.42a.89.89,0,0,1-.42.06h-2.52l-5.34.06V99.16c2.64,1,3.78-.54,3.78-4a11.31,11.31,0,0,1,.48-3.48c1.2-4.44,6-4,6,3.42C433.77,98.56,434.91,100.12,437.55,99.1ZM426.27,83.68a4.32,4.32,0,1,1,4.32,4.26A4.3,4.3,0,0,1,426.27,83.68Z"/><path class="cls-2" d="M518.12,72.94v29a5.35,5.35,0,0,1-5.34,5.34H487.52a5.36,5.36,0,0,1-5.34-5.34V99.16c2.65,1,3.79-.54,3.79-4,0-8.52,6.29-7.8,6.29-1.2,0,15.84,24.78,17.52,24.78.12,0-9.24.42-15.78-10.32-15.78h-19.2a5.36,5.36,0,0,1-5.34-5.34V70.42a5.21,5.21,0,0,1,5.34-5.16h25.26a5.2,5.2,0,0,1,5.34,5.16ZM484.89,83.8a4.32,4.32,0,1,1,4.31,4.26A4.3,4.3,0,0,1,484.89,83.8Z"/><path class="cls-2" d="M557.06,99.16v2.76a5.35,5.35,0,0,1-5.34,5.34H524.07a5.35,5.35,0,0,1-5.34-5.34V99.16c2.63,1,3.78-.54,3.78-4,0-8.52,6.29-7.8,6.29-1.2,0,8.1,4.08,12.6,9.13,12.6S547,102,547,93.94c0-6.6,6.3-7.32,6.3,1.2C553.28,98.62,554.42,100.18,557.06,99.16ZM521.12,72.94V70.42a5.2,5.2,0,0,1,5.34-5.16h22.8a5.2,5.2,0,0,1,5.34,5.16v2.52a5.35,5.35,0,0,1-5.34,5.34h-22.8A5.35,5.35,0,0,1,521.12,72.94Zm4.63,6.54a4.29,4.29,0,1,1-4.32,4.32A4.3,4.3,0,0,1,525.75,79.48Zm24.29,0a4.29,4.29,0,1,1-4.32,4.32A4.3,4.3,0,0,1,550,79.48Z"/><path class="cls-2" d="M629.66,90.22v11.7a5.35,5.35,0,0,1-5.34,5.34H599a5.35,5.35,0,0,1-5.34-5.34V91.72a2,2,0,0,1,2-1.92h11.88c2.16,0,1.44,1,0,1.62-6.3,2.64-15.78,2.46-12.48,10,2.4,5.4,21.54,9.6,21.54-4.08V90.22a5.2,5.2,0,0,1,5.16-5.34h2.52A5.35,5.35,0,0,1,629.66,90.22Zm.66-19.62V81.28a2,2,0,0,1-2,1.92H616.4c-2.16,0-1.44-1,0-1.62,6.3-2.64,15.78-2.94,12.48-10.5-3.06-7-24.42-6.24-24.42,9.24,0,6.6-6.3,7.32-6.3-1.2,0-3.48-1.14-5.1-3.78-4.08V70.6a5.35,5.35,0,0,1,5.34-5.34H625A5.35,5.35,0,0,1,630.32,70.6ZM609.5,88.66a4.29,4.29,0,1,1,4.32-4.26A4.29,4.29,0,0,1,609.5,88.66Z"/><path class="cls-2" d="M669,99.16v2.76a5.35,5.35,0,0,1-5.34,5.34H636a5.35,5.35,0,0,1-5.34-5.34V99.16c2.64,1,3.78-.54,3.78-4,0-8.52,6.3-7.8,6.3-1.2,0,8.1,4.08,12.6,9.12,12.6s9.06-4.5,9.06-12.6c0-6.6,6.3-7.32,6.3,1.2C665.18,98.62,666.32,100.18,669,99.16ZM633,72.94V70.42a5.2,5.2,0,0,1,5.34-5.16h22.8a5.2,5.2,0,0,1,5.34,5.16v2.52a5.35,5.35,0,0,1-5.34,5.34h-22.8A5.35,5.35,0,0,1,633,72.94Zm4.62,6.54a4.29,4.29,0,1,1-4.32,4.32A4.3,4.3,0,0,1,637.64,79.48Zm24.3,0a4.29,4.29,0,1,1-4.32,4.32A4.3,4.3,0,0,1,661.94,79.48Z"/><path class="cls-2" d="M676.52,65.26a5.2,5.2,0,0,1,5.34,5.16v2.52a5.35,5.35,0,0,1-5.34,5.34H674.9a5.35,5.35,0,0,1-5.34-5.34V70.42a5.2,5.2,0,0,1,5.34-5.16Zm14.94,42H674.84a5.4,5.4,0,0,1-5.22-4.14c2.58.78,3.66-4.56,3.66-8,0-8.52,6.3-7.8,6.3-1.2,0,7.62,5,12.24,11.88,12.24ZM672.2,83.8a4.32,4.32,0,1,1,4.32,4.26A4.3,4.3,0,0,1,672.2,83.8Zm9.24-18.72c16,0,24.36,2.16,24.36,42.18h-13c0-18.36-.24-41.88-12.42-41.34Zm15,0c16,0,24.36,2.16,24.36,42.18H708.56c0-18.36-1-41.88-13.2-41.34Z"/><path class="cls-2" d="M757.34,70.42v2.52A5.35,5.35,0,0,1,752,78.28H726.74a5.35,5.35,0,0,1-5.34-5.34V70.42a5.2,5.2,0,0,1,5.34-5.16H752A5.2,5.2,0,0,1,757.34,70.42Zm0,20.82v10.68a5.35,5.35,0,0,1-5.34,5.34H726.74a5.35,5.35,0,0,1-5.34-5.34V99.16c2.64,1,3.78-.54,3.78-4,0-8.52,6.3-7.8,6.3-1.2,0,15.84,21.36,14.52,24.42,7.5,3.3-7.56-6.18-7.86-12.48-10.5-1.44-.6-2.16-1.62,0-1.62H755.3A2,2,0,0,1,757.34,91.24Zm-5-9.06V83.8c0,1.86-2,3.36-4.44,3.36H726.74c-2.46,0-4.5-1.5-4.5-3.36V82.18c0-1.8,2-3.24,4.5-3.24h21.18C750.38,78.94,752.36,80.38,752.36,82.18Z"/><path class="cls-2" d="M787.88,70.42v2.52a5.35,5.35,0,0,1-5.34,5.34H763.28a5.35,5.35,0,0,1-5.34-5.34V70.42a5.2,5.2,0,0,1,5.34-5.16h19.26A5.2,5.2,0,0,1,787.88,70.42Zm-8,28.68v8.16l-5.34-.06h-.42a.89.89,0,0,1-.42.06h-2.52l-5.34.06V99.16c2.64,1,3.78-.54,3.78-4a11.31,11.31,0,0,1,.48-3.48c1.2-4.44,6-4,6,3.42C776.06,98.56,777.2,100.12,779.84,99.1ZM768.56,83.68a4.32,4.32,0,1,1,4.32,4.26A4.3,4.3,0,0,1,768.56,83.68Z"/><path class="cls-2" d="M788.48,72.94V70.42a5.2,5.2,0,0,1,5.34-5.16h1.92a5.2,5.2,0,0,1,5.34,5.16v2.52a5.35,5.35,0,0,1-5.34,5.34h-1.92A5.35,5.35,0,0,1,788.48,72.94Zm14,29,.12,5.34H788.48v-8.1c2.64,1,3.78-.54,3.78-4,0-4.32,1.62-6.3,3.24-6.3s3.24,2,3.24,6.3c0,3.48,1.14,5,3.78,4Zm-2.7-18.12a4.32,4.32,0,1,1-4.32-4.32A4.29,4.29,0,0,1,799.82,83.8Zm7.26,4.5h-1.74c-2.46,0-4.5-1.5-4.5-3.36V83.32c0-1.8,2-3.24,4.5-3.24h1.74c2.46,0,4.44,1.44,4.44,3.24v1.62C811.52,86.8,809.54,88.3,807.08,88.3Zm16.62,18.9h-5.88a.89.89,0,0,1-.42.06h-7.86v-8.1c2.64,1,3.78-.54,3.78-4a11.31,11.31,0,0,1,.48-3.48c1.2-4.44,6-4,6,3.42,0,3.48,1.14,5,3.78,4v2.76Zm0-36.78v2.52a5.35,5.35,0,0,1-5.34,5.34h-1.92a5.35,5.35,0,0,1-5.34-5.34V70.42a5.2,5.2,0,0,1,5.34-5.16h1.92A5.2,5.2,0,0,1,823.7,70.42ZM812.36,83.8a4.32,4.32,0,1,1,4.32,4.26A4.3,4.3,0,0,1,812.36,83.8Z"/><path class="cls-2" d="M838.52,99.1v8.16h-14v-8.1c2.64,1,3.78-.54,3.78-4a11.31,11.31,0,0,1,.48-3.48c1.2-4.44,6-4,6,3.42C834.74,98.56,835.88,100.12,838.52,99.1ZM825.2,82.66V80.14A5.2,5.2,0,0,1,830.54,75h1.92a5.2,5.2,0,0,1,5.34,5.16v2.52A5.35,5.35,0,0,1,832.46,88h-1.92A5.35,5.35,0,0,1,825.2,82.66Zm2.1-13.08a4.32,4.32,0,1,1,4.32,4.26A4.3,4.3,0,0,1,827.3,69.58Z"/><path class="cls-2" d="M846.08,65.26a5.2,5.2,0,0,1,5.34,5.16v2.52a5.35,5.35,0,0,1-5.34,5.34h-1.62a5.35,5.35,0,0,1-5.34-5.34V70.42a5.2,5.2,0,0,1,5.34-5.16Zm14.94,42H844.4a5.4,5.4,0,0,1-5.22-4.14c2.58.78,3.66-4.56,3.66-8,0-8.52,6.3-7.8,6.3-1.2,0,7.62,5,12.24,11.88,12.24ZM841.76,83.8a4.32,4.32,0,1,1,4.32,4.26A4.3,4.3,0,0,1,841.76,83.8ZM851,65.08c16,0,24.36,2.16,24.36,42.18h-13c0-18.36-.24-41.88-12.42-41.34Z"/><path class="cls-2" d="M911.9,70.42v2.52a5.35,5.35,0,0,1-5.34,5.34H881.3A5.35,5.35,0,0,1,876,72.94V70.42a5.2,5.2,0,0,1,5.34-5.16h25.26A5.2,5.2,0,0,1,911.9,70.42Zm0,9.9v21.6a5.35,5.35,0,0,1-5.34,5.34H881.3a5.35,5.35,0,0,1-5.34-5.34V99.16c2.64,1,3.78-.54,3.78-4,0-8.52,6.3-7.8,6.3-1.2,0,15.84,24.78,17.52,24.78.12,0-9.24-10.26-12.3-14-13.74-1.08-.36,0-1,1.14-1h12.84A1,1,0,0,1,911.9,80.32ZM878.66,83.8A4.32,4.32,0,1,1,883,88.06,4.3,4.3,0,0,1,878.66,83.8Z"/><path class="cls-2" d="M915.86,104.2a3.52,3.52,0,0,1,3.54-3.72,3.72,3.72,0,0,1,0,7.44A3.52,3.52,0,0,1,915.86,104.2Zm1.5-8.58-.84-28.8h5.76l-.84,28.8Z"/></g></svg>