<svg xmlns="http://www.w3.org/2000/svg" viewBox="0 0 1215.06 172.96"><defs><style>.cls-1{fill:#ffe9d3;}</style></defs><g id="bg"><rect class="cls-1" y="-5308.85" width="1219.75" height="5892.95"/></g><g id="Layer_7" data-name="Layer 7"><rect x="428.03" y="22.3" width="362.58" height="128.23" rx="38"/><path class="cls-1" d="M451.1,77.51c0-3.75,3.59-8.39,10.58-8.39,2.3,0,4.89,1,5.43,1s1-.51,1.77-.51c1.22,0,4,2.78,4,5.8a2.28,2.28,0,0,1-2.13,2.45c-2.41,0-3.81-4.11-7.56-4.11-1.11,0-2.3.51-2.3,1.8,0,2.85,4.93,2.09,9.11,4.86a6.64,6.64,0,0,1,3.35,6c0,4.21-3.46,9-11.85,9-2.37,0-6.44-.61-8.49-1.73-1.73-1-2.56-4.78-2.56-6.62,0-1,.43-1.94,1.51-1.94,2.56,0,2.13,5.72,8.75,5.72.79,0,2.77-.4,2.77-1.76,0-2.6-4.93-2-8.93-5.15A8.29,8.29,0,0,1,451.1,77.51Z"/><path class="cls-1" d="M489.43,69.62a18.83,18.83,0,0,0,6.09-.71c2.05,0,2.91,3.52,2.91,5.11,0,1.18-.46,2.59-1.87,2.59-2.84,0-.54-3.46-7.38-3.46-4,0-3.6.72-3.6,4.86,0,2.09.11,2.16,2.31,2.16,2.73,0,.68-4,3.24-4,2.08,0,2.23,4.06,2.23,5.47s-.25,5.79-2.41,5.79,0-3.78-3.64-3.78c-1.51,0-1.48,1.37-1.48,2.52,0,5.26.36,5,4.14,5,7.38,0,5.29-5.08,8.25-5.08,1.15,0,1.72,1.3,1.72,2.3,0,2.45-1.94,6.84-3.38,6.84-.25,0-.83-.1-1.58-.21s-1.8-.18-3-.18H477.16c-2.38,0-2.41-1.08-2.41-1.55,0-2,2.45-.4,2.7-4.21a65.27,65.27,0,0,0,.11-12.42c-.26-5.51-3-2.66-3-5.22,0-2.2,3-1.84,4.5-1.84Z"/><path class="cls-1" d="M515.57,69.62a18.72,18.72,0,0,0,6.08-.71c2.05,0,2.92,3.52,2.92,5.11,0,1.18-.47,2.59-1.87,2.59-2.85,0-.54-3.46-7.38-3.46-4,0-3.6.72-3.6,4.86,0,2.09.11,2.16,2.3,2.16,2.74,0,.69-4,3.24-4,2.09,0,2.23,4.06,2.23,5.47s-.25,5.79-2.41,5.79,0-3.78-3.63-3.78c-1.52,0-1.48,1.37-1.48,2.52,0,5.26.36,5,4.14,5,7.38,0,5.29-5.08,8.24-5.08,1.15,0,1.73,1.3,1.73,2.3,0,2.45-1.94,6.84-3.38,6.84-.26,0-.83-.1-1.59-.21s-1.8-.18-3-.18H503.3c-2.38,0-2.42-1.08-2.42-1.55,0-2,2.45-.4,2.7-4.21a65.27,65.27,0,0,0,.11-12.42c-.25-5.51-3-2.66-3-5.22,0-2.2,3-1.84,4.5-1.84Z"/><path class="cls-1" d="M555.6,69.62a12.43,12.43,0,0,0,2.81-.25,4.41,4.41,0,0,1,1.47-.25c1.41,0,4.32,2.77,4.32,6.66,0,1.8-.93,3-2.77,3-3.13,0-3.09-4.25-4.93-4.25-1.4,0-1.26,1.94-1.26,2.23v11c0,4.29,3.31,2.23,3.31,4.75,0,1.12-.68,2.7-7.41,2.7-1.84,0-8.57.08-8.57-2.7,0-1.9,2.23-1.15,2.95-2.52a14.25,14.25,0,0,0,.54-3.81l.29-8c.14-3.78-.61-3.74-1.12-3.74-1.62,0-2.41,4.25-5.32,4.25a2.4,2.4,0,0,1-2.23-2.59c0-3.06,2.59-7.06,4.64-7.06a9.86,9.86,0,0,1,1.33.25,18.3,18.3,0,0,0,3.1.25Z"/><path class="cls-1" d="M591.42,88.92c0,1.08.14,1.62,1.12,2.16.72.39,1.22.61,1.22,1.51s-.07,2.66-7.16,2.66c-1.59,0-6.19,0-6.19-2.44-.15-2.78,2.52.28,2.52-7,0-2-.44-1.88-2.24-1.88-5,0-4.57.15-4.57,3.39,0,4.93,2.23,3,2.23,5.29,0,2.52-5.25,2.66-7,2.66s-6.66-.14-6.66-2.59a1.72,1.72,0,0,1,1.15-1.51c1.3-.61,1.77-.5,1.77-8,0-9.57-.15-8.78-1.48-9.5-.54-.29-1.19-.61-1.19-1.33,0-2.77,6-3.06,8-3.06,1.51,0,5.69.18,5.69,2.34,0,1.11-.61,1.51-1.44,2s-1.12.94-1.12,4.14c0,2,.94,1.77,2.67,1.77h1.83c2.38,0,2.31-.36,2.31-1.48,0-3.92-.62-4.17-1.08-4.43-.69-.39-1.34-.72-1.34-1.65,0-.69-.14-2.7,7-2.7,1.69,0,6.48,0,6.48,2.55a1.79,1.79,0,0,1-1.11,1.7c-1.08.46-1.48.36-1.48,6.08Z"/><path class="cls-1" d="M609.89,69.62a18.72,18.72,0,0,0,6.08-.71c2,0,2.92,3.52,2.92,5.11,0,1.18-.47,2.59-1.87,2.59-2.85,0-.54-3.46-7.38-3.46-4,0-3.6.72-3.6,4.86,0,2.09.11,2.16,2.3,2.16,2.74,0,.68-4,3.24-4,2.09,0,2.23,4.06,2.23,5.47s-.25,5.79-2.41,5.79,0-3.78-3.64-3.78c-1.51,0-1.47,1.37-1.47,2.52,0,5.26.36,5,4.14,5,7.38,0,5.29-5.08,8.24-5.08,1.15,0,1.73,1.3,1.73,2.3,0,2.45-1.94,6.84-3.38,6.84-.26,0-.83-.1-1.59-.21s-1.8-.18-3-.18h-14.8c-2.37,0-2.41-1.08-2.41-1.55,0-2,2.45-.4,2.7-4.21A65.27,65.27,0,0,0,598,76.68c-.25-5.51-3-2.66-3-5.22,0-2.2,3-1.84,4.5-1.84Z"/><path class="cls-1" d="M648.8,90.11a2.15,2.15,0,0,0,2.2-2.24c0-3-3.78-.07-3.78-3.38,0-2.63,5.44-2.81,7.27-2.81,6.77,0,7.16,1.91,7.16,2.95A1.84,1.84,0,0,1,660,86.36c-.94.11-1,.29-1.26,1.23-1.4,5.25-6.48,7.77-11.59,7.77-7.63,0-14.29-5.29-14.29-13.24,0-7.6,6.44-13,14.14-13,3.17,0,4.9,1,5.84,1,.64,0,1.58-.54,2.23-.54,2.23,0,3.56,3.67,3.56,5.51s-.9,3.56-2.84,3.56c-3.57,0-3.57-5-8.46-5-3.13,0-5.15,2.59-5.15,6.41C642.18,87.44,646.5,90.11,648.8,90.11Z"/><path class="cls-1" d="M662.88,82.15c0-7.63,6.09-13,13.93-13,9.94,0,13.75,8.75,13.75,13.39,0,7.74-6.84,12.85-14.18,12.85C668.79,95.36,662.88,89.82,662.88,82.15Zm12.28-7.67c-2,0-3,2.09-3,3.85,0,3.07,2.16,11.67,6,11.67,2.2,0,3.13-1.91,3.13-3.85C681.31,82.87,679.37,74.48,675.16,74.48Z"/><path class="cls-1" d="M698.81,81.86c1.12-2.48,2.59-5.65,2.59-8.49,0-2.49,1.15-4.36,4.36-4.36s5.11,3.21,6.51,5.58c.61,1,6.05,12.06,7.34,15,1.19,2.74,3.14,1.08,3.14,3.13,0,2.63-5.11,2.52-6.91,2.52-5.15,0-8.25,0-8.25-2.26,0-1.73,2.2-1.08,2.2-2.34,0-1.62-.9-1.77-6.7-1.77-1.87,0-3,.07-3,1.84,0,1.4,2.31.47,2.31,2.34,0,2.16-3.89,2.19-5.33,2.19-5.15,0-5.61-1-5.61-2.12,0-1.69,1.94-1.19,3-2.48a20.49,20.49,0,0,0,2.09-3.86Zm7.56,2.59c.36,0,1.44.08,1.44-.46a12.89,12.89,0,0,0-1.33-2.92c-.33-.57-.94-1.91-1.73-1.91s-1.48,2.16-1.62,2.56a12.23,12.23,0,0,0-.76,2.23c0,.61.9.5,1.3.5Z"/><path class="cls-1" d="M726.74,94.86c-1.15,0-3,.07-3-1.59,0-2.23,2.8-.36,2.91-4.53.07-2.63.07-4.93.07-7.06s-.18-4.17-.25-6.19c-.07-3-3.24-1.44-3.24-3.49,0-2.63,5.65-2.77,7.42-2.77,7.2,0,7.56,1.22,7.56,2.45,0,2.08-2.85.5-2.85,3.88V87c0,2.59.44,3.85,3,3.85,6.12,0,4-5,6.34-5,1.62,0,2.23,1.73,2.23,3.09,0,2.81-2,6.41-3.67,6.41a10,10,0,0,1-1.8-.25,12.79,12.79,0,0,0-2.7-.25Z"/><path class="cls-1" d="M748.13,77.51c0-3.75,3.6-8.39,10.58-8.39,2.3,0,4.9,1,5.44,1s1-.51,1.76-.51c1.22,0,4,2.78,4,5.8a2.28,2.28,0,0,1-2.12,2.45c-2.42,0-3.82-4.11-7.56-4.11-1.12,0-2.31.51-2.31,1.8,0,2.85,4.93,2.09,9.11,4.86a6.64,6.64,0,0,1,3.35,6c0,4.21-3.46,9-11.84,9-2.38,0-6.45-.61-8.5-1.73-1.73-1-2.56-4.78-2.56-6.62,0-1,.44-1.94,1.52-1.94,2.55,0,2.12,5.72,8.74,5.72.8,0,2.77-.4,2.77-1.76,0-2.6-4.93-2-8.92-5.15A8.27,8.27,0,0,1,748.13,77.51Z"/></g></svg>