<?xml version="1.0" encoding="utf-8"?>
<!-- Generator: Adobe Illustrator 25.2.1, SVG Export Plug-In . SVG Version: 6.00 Build 0)  -->
<svg version="1.1" xmlns="http://www.w3.org/2000/svg" xmlns:xlink="http://www.w3.org/1999/xlink" x="0px" y="0px"
	 viewBox="0 0 209.1 211.3" style="enable-background:new 0 0 209.1 211.3;" xml:space="preserve">
<style type="text/css">
	.st0{fill-rule:evenodd;clip-rule:evenodd;fill:#73B2FF;}
	.st1{fill:none;stroke:#ffdcd2;stroke-width:4;stroke-miterlimit:10;}
	.st2{fill:none;stroke:#ffdcd2;stroke-width:4;stroke-miterlimit:10;stroke-dasharray:3.9414,3.9414;}
	.st3{fill:none;stroke:#ffdcd2;stroke-width:4;stroke-miterlimit:10;stroke-dasharray:4.7138,4.7138;}
	.st4{clip-path:url(#SVGID_2_);}
	.st5{fill:none;stroke:#000000;stroke-miterlimit:10;}
	.st6{fill:none;stroke:#000000;stroke-miterlimit:10;stroke-dasharray:2.0101,2.0101;}
	.st7{fill:none;stroke:#000000;stroke-miterlimit:10;stroke-dasharray:2.0268,2.0268;}
	.st8{clip-path:url(#SVGID_2_);fill:none;stroke:#000000;stroke-width:0.24;stroke-miterlimit:10;}
	.st9{clip-path:url(#SVGID_2_);fill:#ffdcd2;stroke:#000000;stroke-width:0.3;stroke-miterlimit:10;}
	.st10{clip-path:url(#SVGID_2_);fill:none;stroke:#ffdcd2;stroke-width:0.125;stroke-miterlimit:10;}
	
		.st11{clip-path:url(#SVGID_2_);fill:none;stroke:#999999;stroke-width:0.1;stroke-linecap:square;stroke-linejoin:bevel;stroke-miterlimit:10;}
	.st12{clip-path:url(#SVGID_2_);fill:#FFFFFF;stroke:#000000;stroke-width:0.25;stroke-miterlimit:10;}
	.st13{clip-path:url(#SVGID_2_);fill:#73B3FF;stroke:#000000;stroke-width:0.5;stroke-miterlimit:10;}
	.st14{fill:#FFFFFF;stroke:#000000;stroke-width:0.25;stroke-miterlimit:10;}
	.st15{fill:#FFFFFF;stroke:#000000;stroke-width:0.3;stroke-miterlimit:10;}
	.st16{clip-path:url(#SVGID_2_);fill:none;stroke:#000000;stroke-miterlimit:10;}
	.st17{clip-path:url(#SVGID_2_);fill:#E4FAFF;}
	.st18{fill:#FFFFFF;}
	.st19{clip-path:url(#SVGID_2_);fill:none;stroke:#000000;stroke-width:3;stroke-miterlimit:10;}
	.st20{fill:#5BA3A5;}
	.st21{fill-rule:evenodd;clip-rule:evenodd;fill:#5BA3A5;}
	.st22{fill:#73B2FF;}
	.st23{fill:none;}
	.st24{fill-rule:evenodd;clip-rule:evenodd;fill:#FFFFFF;}
	.st25{fill:none;stroke:#000000;stroke-width:3.0888;stroke-miterlimit:10;stroke-dasharray:8.6882,8.6882;}
	.st26{clip-path:url(#SVGID_4_);}
	.st27{fill:#1E1E1E;}
	.st28{fill:#666666;}
	.st29{fill:#E0E0E0;}
	.st30{fill:#DADADA;}
	.st31{fill:#8C8C8C;}
	.st32{fill:#B7B7B7;}
	.st33{fill:#878787;}
	.st34{fill:#9B9B9B;}
	.st35{fill:#333333;}
	.st36{fill:#2B2B2B;}
	.st37{fill:#AAAAAA;}
	.st38{fill:#7E7E7E;}
	.st39{fill:#CCCCCC;}
	.st40{fill:#D6D6D6;}
	.st41{fill:#AEAEAE;}
	.st42{fill:#ABABAB;}
	.st43{fill:#474747;}
	.st44{fill:#1C1C1C;}
	.st45{fill:#ECECEC;}
	.st46{fill:#6F6F6F;}
	.st47{fill:#9E9E9E;}
	.st48{fill:#949494;}
	.st49{fill:#9D9D9D;}
	.st50{fill:#747474;}
	.st51{fill:#A7A7A7;}
	.st52{fill:#A5A5A5;}
	.st53{fill:#4B4B4B;}
	.st54{fill:#808080;}
	.st55{fill:#F6F6F6;}
	.st56{fill:#2C2C2C;}
	.st57{fill:#8B8B8B;}
	.st58{fill:#686868;}
	.st59{fill:#D0D0D0;}
	.st60{fill:#616161;}
	.st61{fill:#727272;}
	.st62{fill:#898989;}
	.st63{fill:#B1B1B1;}
	.st64{fill:#D9D9D9;}
	.st65{fill:#252525;}
	.st66{fill:#636363;}
	.st67{fill:#BCBCBC;}
	.st68{fill:#BFBFBF;}
	.st69{fill:#575757;}
	.st70{fill:#E3E3E3;}
	.st71{fill:#C7C7C7;}
	.st72{fill:#5F5F5F;}
	.st73{fill:#EBEBEB;}
	.st74{fill:#8F8F8F;}
	.st75{fill:#909090;}
	.st76{fill:#D2D2D2;}
	.st77{fill:#515151;}
	.st78{fill:#585858;}
	.st79{fill:#696969;}
	.st80{fill:#3C3C3C;}
	.st81{fill:#A8A8A8;}
	.st82{fill:#444444;}
	.st83{fill:#505050;}
	.st84{fill:#4E4E4E;}
	.st85{fill:#C4C4C4;}
	.st86{fill:#BEBEBE;}
	.st87{fill:#A1A1A1;}
	.st88{fill:#929292;}
	.st89{fill:#B8B8B8;}
	.st90{fill:#D4D4D4;}
	.st91{fill:#979797;}
	.st92{fill:#525252;}
	.st93{fill:#969696;}
	.st94{fill:#B0B0B0;}
	.st95{fill:#D3D3D3;}
	.st96{fill:#7A7A7A;}
	.st97{fill:#B4B4B4;}
	.st98{fill:#CFCFCF;}
	.st99{fill:#939393;}
	.st100{fill:#B9B9B9;}
	.st101{fill:#BBBBBB;}
	.st102{fill:#424242;}
	.st103{fill:#D5D5D5;}
	.st104{fill:#C8C8C8;}
	.st105{fill:#CDCDCD;}
	.st106{fill:#989898;}
	.st107{fill:#393939;}
	.st108{fill:#464646;}
	.st109{fill:#5C5C5C;}
	.st110{fill:#BDBDBD;}
	.st111{fill:#858585;}
	.st112{fill:#6E6E6E;}
	.st113{fill:#757575;}
	.st114{fill:#404040;}
	.st115{fill:#7B7B7B;}
	.st116{fill:#787878;}
	.st117{fill:#828282;}
	.st118{fill:#0F0F0F;}
	.st119{fill:#191919;}
	.st120{fill:#101010;}
	.st121{fill:#232323;}
	.st122{fill:#656565;}
	.st123{fill:#2D2D2D;}
	.st124{fill:#5D5D5D;}
	.st125{fill:#2E2E2E;}
	.st126{fill:#4A4A4A;}
	.st127{fill:#494949;}
	.st128{fill:#6A6A6A;}
	.st129{fill:#353535;}
	.st130{fill:#5A5A5A;}
	.st131{fill:#323232;}
	.st132{fill:#050505;}
	.st133{fill:#434343;}
	.st134{fill:#3B3B3B;}
	.st135{fill:#3E3E3E;}
	.st136{fill:#484848;}
	.st137{fill:#555555;}
	.st138{fill:#383838;}
	.st139{fill:#3A3A3A;}
	.st140{fill:#242424;}
	.st141{fill:#767676;}
	.st142{fill:#565656;}
	.st143{fill:#E8E8E8;}
	.st144{fill:#D7D7D7;}
	.st145{fill:#848484;}
	.st146{fill:#DFDFDF;}
	.st147{fill:#B5B5B5;}
	.st148{fill:#8E8E8E;}
	.st149{fill:#C0C0C0;}
	.st150{fill:#7C7C7C;}
	.st151{fill:#737373;}
	.st152{fill:#9C9C9C;}
	.st153{fill:#B3B3B3;}
	.st154{fill:#B2B2B2;}
	.st155{fill:#B6B6B6;}
	.st156{fill:#343434;}
	.st157{fill:#1B1B1B;}
	.st158{fill:#9A9A9A;}
	.st159{fill:#7F7F7F;}
	.st160{fill:#A0A0A0;}
	.st161{fill:#A4A4A4;}
	.st162{fill:#3F3F3F;}
	.st163{fill:#ACACAC;}
	.st164{fill:#868686;}
	.st165{fill:#9F9F9F;}
	.st166{fill:#454545;}
	.st167{fill:#999999;}
	.st168{fill:#626262;}
	.st169{fill:#959595;}
	.st170{fill:#6B6B6B;}
	.st171{fill:#5B5B5B;}
	.st172{fill:#3D3D3D;}
	.st173{fill:#414141;}
	.st174{fill:#888888;}
	.st175{fill:#6C6C6C;}
	.st176{fill:#C5C5C5;}
	.st177{fill:#C1C1C1;}
	.st178{fill:#7D7D7D;}
	.st179{fill:#111111;}
	.st180{fill:#313131;}
	.st181{fill:#2F2F2F;}
	.st182{fill:#707070;}
	.st183{fill:#6D6D6D;}
	.st184{fill:#ADADAD;}
	.st185{fill:#797979;}
	.st186{fill:#717171;}
	.st187{fill:#818181;}
	.st188{fill:#676767;}
	.st189{fill:#131313;}
	.st190{fill:#545454;}
	.st191{fill:#5E5E5E;}
	.st192{fill:#373737;}
	.st193{fill:#646464;}
	.st194{fill:#E5E5E5;}
	.st195{fill:#DCDCDC;}
	.st196{fill:#A6A6A6;}
	.st197{fill:#A2A2A2;}
	.st198{fill:#C9C9C9;}
	.st199{fill:#777777;}
	.st200{fill:#4C4C4C;}
	.st201{fill:#A3A3A3;}
	.st202{fill:#262626;}
	.st203{fill:#C3C3C3;}
	.st204{fill:#CBCBCB;}
	.st205{fill:#070707;}
	.st206{fill:#595959;}
	.st207{fill:#D8D8D8;}
	.st208{fill:#A9A9A9;}
	.st209{fill:#141414;}
	.st210{fill:#838383;}
	.st211{fill:#AFAFAF;}
	.st212{fill:#CECECE;}
	.st213{fill:#919191;}
	.st214{fill:#8A8A8A;}
	.st215{fill:#212121;}
	.st216{fill:#FEFEFE;}
	.st217{fill:#DBDBDB;}
	.st218{fill:none;stroke:#FFFFFF;stroke-width:2;stroke-miterlimit:10;}
	.st219{fill:none;stroke:#FFFFFF;stroke-width:2;stroke-miterlimit:10;stroke-dasharray:3.9752,3.9752;}
	.st220{clip-path:url(#SVGID_6_);}
	.st221{fill:none;stroke:#000000;stroke-miterlimit:10;stroke-dasharray:1.9951,1.9951;}
	.st222{fill:none;stroke:#000000;stroke-miterlimit:10;stroke-dasharray:2.0116,2.0116;}
	.st223{clip-path:url(#SVGID_6_);fill:none;stroke:#000000;stroke-width:0.24;stroke-miterlimit:10;}
	.st224{fill:none;stroke:#B1E0B7;stroke-width:0.5;stroke-miterlimit:10;}
	.st225{fill:none;stroke:#B1E0B7;stroke-width:0.5;stroke-miterlimit:10;stroke-dasharray:2.0468,2.0468;}
	.st226{fill:none;stroke:#B1E0B7;stroke-width:0.5;stroke-miterlimit:10;stroke-dasharray:1.9818,1.9818;}
	.st227{fill:none;stroke:#B1E0B7;stroke-width:0.5;stroke-miterlimit:10;stroke-dasharray:2.0095,2.0095;}
	.st228{fill:none;stroke:#B1E0B7;stroke-width:0.5;stroke-miterlimit:10;stroke-dasharray:1.9699,1.9699;}
	.st229{fill:none;stroke:#E0B0E2;stroke-width:0.5;stroke-miterlimit:10;}
	.st230{fill:none;stroke:#E0B0E2;stroke-width:0.5;stroke-miterlimit:10;stroke-dasharray:2.0318,2.0318;}
	.st231{fill:none;stroke:#E0B0E2;stroke-width:0.5;stroke-miterlimit:10;stroke-dasharray:1.9953,1.9953;}
	.st232{fill:none;stroke:#E0B0E2;stroke-width:0.5;stroke-miterlimit:10;stroke-dasharray:1.9958,1.9958;}
	.st233{fill:none;stroke:#E0B0E2;stroke-width:0.5;stroke-miterlimit:10;stroke-dasharray:2.0663,2.0663;}
	.st234{fill:none;stroke:#E0B0E2;stroke-width:0.5;stroke-miterlimit:10;stroke-dasharray:2.2215,2.2215;}
	.st235{fill:none;stroke:#E0B0E2;stroke-width:0.5;stroke-miterlimit:10;stroke-dasharray:2.052,2.052;}
	.st236{clip-path:url(#SVGID_6_);fill:#FFFFFF;stroke:#000000;stroke-width:0.3;stroke-miterlimit:10;}
	.st237{clip-path:url(#SVGID_6_);fill:none;stroke:#000000;stroke-width:0.125;stroke-miterlimit:10;}
	
		.st238{clip-path:url(#SVGID_6_);fill:none;stroke:#999999;stroke-width:0.1;stroke-linecap:square;stroke-linejoin:bevel;stroke-miterlimit:10;}
	.st239{clip-path:url(#SVGID_6_);fill:#FFFFFF;stroke:#000000;stroke-width:0.25;stroke-miterlimit:10;}
	.st240{clip-path:url(#SVGID_6_);fill:#73B3FF;stroke:#000000;stroke-width:0.5;stroke-miterlimit:10;}
	.st241{clip-path:url(#SVGID_6_);fill:none;stroke:#000000;stroke-miterlimit:10;}
	.st242{clip-path:url(#SVGID_6_);fill:#E4FAFF;}
	.st243{clip-path:url(#SVGID_6_);fill:#73B3FF;stroke:#FF0000;stroke-miterlimit:10;}
	.st244{clip-path:url(#SVGID_6_);fill:none;stroke:#FF0000;stroke-miterlimit:10;}
	.st245{fill:#FFFFFF;stroke:#FF0000;stroke-miterlimit:10;}
	.st246{clip-path:url(#SVGID_6_);fill:none;stroke:#000000;stroke-width:3;stroke-miterlimit:10;}
	.st247{clip-path:url(#SVGID_26_);}
	.st248{clip-path:url(#SVGID_26_);fill:none;stroke:#000000;stroke-width:0.24;stroke-miterlimit:10;}
	.st249{clip-path:url(#SVGID_26_);fill:#FFFFFF;stroke:#000000;stroke-width:0.3;stroke-miterlimit:10;}
	.st250{clip-path:url(#SVGID_26_);fill:none;stroke:#000000;stroke-width:0.125;stroke-miterlimit:10;}
	
		.st251{clip-path:url(#SVGID_26_);fill:none;stroke:#999999;stroke-width:0.1;stroke-linecap:square;stroke-linejoin:bevel;stroke-miterlimit:10;}
	.st252{clip-path:url(#SVGID_26_);fill:#FFFFFF;stroke:#000000;stroke-width:0.25;stroke-miterlimit:10;}
	.st253{clip-path:url(#SVGID_26_);fill:#73B3FF;stroke:#000000;stroke-width:0.5;stroke-miterlimit:10;}
	.st254{clip-path:url(#SVGID_26_);fill:none;stroke:#000000;stroke-miterlimit:10;}
	.st255{clip-path:url(#SVGID_26_);fill:#E4FAFF;}
	.st256{clip-path:url(#SVGID_26_);fill:none;stroke:#000000;stroke-width:3;stroke-miterlimit:10;}
	.st257{fill-rule:evenodd;clip-rule:evenodd;fill:#FFFFFF;stroke:#5BA3A5;stroke-width:1.5;stroke-miterlimit:10;}
</style>
<g id="color">
</g>
<g id="map">
</g>
<g id="Layer_1">
	<g>
		<defs>
			<rect id="SVGID_5_" x="11.24" y="-1033.58" width="1478.45" height="942.29"/>
		</defs>
		<clipPath id="SVGID_2_">
			<use xlink:href="#SVGID_5_"  style="overflow:visible;"/>
		</clipPath>
		<polygon class="st10" points="-77.15,388.25 -74.48,393.35 -65.66,410.37 -63.92,413.74 -62.19,417.21 -56.06,429.15 
			-53.84,433.55 -44.02,453.01 -42.16,456.71 -41.23,458.56 -38.11,464.59 -36.83,467.13 -31.62,477.56 -29.89,481.03 
			-22.35,495.98 -16.44,507.44 -15.76,508.37 -15.18,509.06 -14.93,509.3 -14.03,510.1 -13.1,510.68 -11.92,511.26 -10.88,511.61 
			-9.73,511.85 -8.45,511.85 -7.29,511.85 -6.84,511.61 7.29,504.66 59.53,477.79 89.54,462.38 92.43,461 111.08,451.38 
			148.84,432.15 161,425.91 164.95,423.93 225.76,393.24 230.61,390.69 240.82,385.47 265.25,372.97 275.1,367.86 291.77,359.29 
			338.57,334.97 351.42,328.84 356.17,326.51 358.03,325.6 361.27,323.98 362.43,323.51 363.36,322.69 364.29,321.89 365.09,320.96 
			365.67,319.92 366.15,318.87 366.48,317.72 366.7,316.56 366.83,315.28 366.6,314.12 366.6,313.78 366.38,312.96 365.9,311.81 
			345.86,272.08 345.29,271.04 340.66,262 331.03,243.59 317.26,216.83 306.73,195.64 304.06,190.19 303.48,189.38 303.36,189.26 
			302.65,188.33 302.2,187.98 301.85,187.53 300.82,186.83 299.76,186.37 298.73,185.91 297.58,185.67 296.42,185.67 295.26,185.67 
			294.08,185.91 293.63,186.13 293.05,186.37 268.72,198.88 240.92,213.12 237.57,214.85 217.76,224.93 202.81,232.7 170.86,249.03 
			167.49,250.78 143.51,263.04 137.73,266.06 137.25,266.29 125.79,272.08 123.37,273.35 84.34,293.28 80.97,294.89 79.46,295.71 
			76.12,297.44 62.79,304.17 16.92,327.57 -2.19,337.4 -5.33,339.03 -38.46,356.05 -74.13,374.59 -75.16,375.28 -75.99,376.1 
			-76.67,377.14 -77.37,378.07 -77.83,379.23 -78.18,380.38 -78.53,381.54 -78.53,382.7 -78.53,383.85 -78.4,385.01 -78.08,386.16 
			-77.6,387.33 		"/>
		<polygon class="st10" points="-30.34,-37.19 -36.95,-33.82 -37.4,-33.59 -38.91,-32.77 -49.92,-27.11 -54.32,-24.91 
			-59.78,-22.12 -87.45,-7.88 -92.78,-5.21 -97.99,-2.55 -101.71,-0.57 -112.11,4.76 -125.33,11.58 -129.51,13.67 -139.21,18.64 
			-177.44,38.11 -185.92,42.51 -194.46,46.91 -203.74,51.66 -208.94,54.33 -216.83,58.37 -222.39,61.16 -233.4,66.83 -233.98,67.18 
			-234.78,67.65 -235.49,68.34 -236.17,69.03 -236.64,69.96 -236.99,70.89 -237.22,71.81 -237.32,72.85 -237.22,73.78 
			-236.87,74.83 -236.39,75.64 -236.29,76.1 -223.42,101.59 -220.08,108.18 -219.6,109.23 -219.37,109.58 -217.76,112.7 
			-204.89,138.06 -203.03,141.65 -201.07,145.6 -200.85,146.18 -197.25,153.02 -188.1,170.96 -185.31,176.41 -183.8,179.41 
			-173.85,198.99 -173.62,199.57 -173.5,199.92 -172.92,200.73 -172.24,201.43 -171.44,202.01 -170.61,202.35 -169.68,202.59 
			-168.65,202.7 -167.72,202.7 -166.79,202.46 -165.86,202.12 -165.05,201.66 -135.74,187.18 -105.53,171.66 -103.09,170.39 
			-102.03,169.92 -76.67,156.6 -73.33,154.86 -67.52,151.85 -57.21,146.63 -49.8,142.94 -33.48,134.72 -32.33,134.13 -26.65,131.12 
			-23.18,129.39 -19.81,127.64 -3.92,119.53 13.1,110.85 17.95,108.42 36.37,98.92 45.3,94.4 64.85,84.2 77.02,77.96 81.55,75.64 
			96.25,68.1 98.34,67.07 99.97,66.25 110.73,60.69 115.48,58.26 123.6,53.98 143.28,43.89 165.76,32.66 191.47,19.34 205.47,11.93 
			206.08,11.58 206.98,11.12 207.81,10.42 208.39,9.73 208.97,8.8 209.29,7.87 209.54,6.83 209.54,5.91 207.46,1.74 199.92,-13.44 
			191.24,-30.69 186.59,-40.08 185.34,-42.63 169.58,-72.62 158.69,-94.64 157.18,-97.64 156.03,-100.08 145.82,-120.11 
			145.49,-120.8 145.37,-120.93 144.67,-121.73 143.99,-122.31 143.16,-122.78 142.23,-123.12 141.32,-123.36 140.39,-123.47 
			139.34,-123.36 138.41,-123.12 137.15,-122.43 120.01,-113.74 98.46,-102.63 94.29,-100.42 91.05,-98.8 78.88,-92.78 
			75.06,-90.93 72.62,-89.76 66.49,-86.76 65.46,-86.18 63.47,-85.25 58.27,-82.58 27.93,-67.3 19.81,-63.13 15.99,-61.04 
			1.16,-53.4 -20.61,-42.16 -24.33,-40.31 		"/>
		<polygon class="st10" points="-157.99,230.39 -145.02,255.4 -135.87,273.35 -134.13,276.83 -131.34,282.27 -129.38,286.09 
			-128.1,288.64 -123.25,298.26 -121.84,300.92 -110.38,323.27 -110.03,323.85 -108.77,326.4 -97.41,348.76 -95.09,353.27 
			-94.39,354.55 -93.94,355.47 -93.23,356.18 -92.56,356.75 -91.63,357.21 -90.7,357.56 -89.77,357.8 -88.84,357.8 -87.8,357.68 
			-86.87,357.45 -86.07,356.98 -70.54,348.99 -66.36,346.9 -49.34,338.1 -39.62,333.24 -36.47,331.73 -24.08,325.6 -19.23,323.27 
			-11.59,319.22 6.49,309.95 10.66,307.87 17.5,304.28 49.22,287.71 52.71,285.98 57.11,283.67 76.57,273.81 77.37,273.47 
			79.94,272.19 91.75,266.06 102.06,260.84 110.73,256.44 151.63,235.48 183.7,218.91 185.21,218.22 187.65,216.94 204.79,208.26 
			210.22,205.48 223.67,198.64 229.93,195.4 233.17,193.78 252.86,183.82 266.53,176.87 270.13,175.14 282.17,169.1 283.2,168.41 
			284.25,167.72 284.25,167.6 285.06,166.79 285.76,165.75 286.44,164.7 286.92,163.55 287.27,162.28 287.5,161 287.5,159.84 
			287.37,158.57 287.02,157.29 286.79,156.84 278.12,139.69 273.24,129.97 272.31,128.22 253.08,90.93 247.53,79.92 241.52,68.23 
			236.19,57.8 227.84,40.65 225.05,35.21 224.7,34.63 224.48,34.29 223.67,33.59 222.74,32.9 222.74,32.78 221.81,32.32 
			220.78,31.85 219.73,31.63 218.69,31.5 217.54,31.5 216.48,31.63 215.45,31.97 214.97,32.21 188.45,45.29 164.83,57.68 
			161.71,59.3 161.13,59.66 138.18,71.01 97.53,91.86 93.49,93.94 71.34,105.28 69.38,106.21 63.02,109.58 20.86,131.35 
			16.34,133.66 2.79,140.61 -10.66,147.45 -15.99,150.23 -45.75,165.28 -48.87,166.9 -52.11,168.53 -97.53,191.93 -102.16,194.37 
			-105.17,195.86 -155.2,221.69 -156.96,222.51 -157.64,223.09 -158.21,223.66 -158.79,224.36 -159.14,225.17 -159.27,226.09 
			-159.37,226.91 -159.14,227.84 -158.92,228.64 		"/>
		<polyline class="st11" points="21.88,50.81 35.82,44.04 35.84,44.08 		"/>
		<polyline class="st11" points="126.79,162.03 157.94,224.74 144.66,231.65 112.56,169.3 		"/>
		<polyline class="st11" points="35.66,211.5 3.44,147.16 19.1,139.31 50.98,203.87 		"/>
		<polyline class="st11" points="125.83,45.08 125.83,45.08 111.12,52.62 79.84,-9.39 81.04,-10.06 		"/>
		<polyline class="st11" points="81.64,184.98 95.21,177.89 126.91,240.67 111.78,248.39 88.35,202.23 73.08,209.89 		"/>
		<polygon class="st11" points="157.31,28.85 140.65,37.51 109.27,-24.21 123.29,-31.39 125.29,-32.41 		"/>
		<polyline class="st11" points="111.12,52.62 96.15,60.33 64.63,-1.69 		"/>
		<polyline class="st11" points="35.66,211.5 50.98,203.87 66.07,195.78 73.08,209.89 		"/>
		<polyline class="st11" points="-35.52,-27.05 -0.96,-44.89 29.82,15.94 22.98,19.33 		"/>
		<polyline class="st11" points="21.88,50.81 40.85,88.81 33.34,92.82 1.62,30.39 22.98,19.33 		"/>
		<polyline class="st11" points="-0.96,-44.89 17.86,-54.54 48.65,6.4 35.5,13.06 		"/>
		<polyline class="st11" points="4.29,227.5 -28.06,163.31 -11.91,155.06 20.27,219.38 		"/>
		<polyline class="st11" points="125.29,-32.41 140.44,-39.86 148.67,-24.02 172.01,21.49 157.31,28.85 		"/>
		<polyline class="st11" points="143.68,153.45 143.69,153.45 143.7,153.49 174.21,215.86 174.4,216.26 160.29,223.64 
			129.15,160.83 		"/>
		<polyline class="st11" points="67.68,-3.24 64.63,-1.69 48.65,6.4 		"/>
		<polyline class="st11" points="181.03,-40.71 204.06,4.79 172.01,21.49 		"/>
		<polyline class="st11" points="96.15,60.33 80.19,68.54 48.65,6.4 		"/>
		<polyline class="st11" points="173.76,138.18 190.51,129.68 221.88,192.17 204.85,200.86 		"/>
		<polyline class="st11" points="29.82,15.94 35.5,13.06 67.2,75.23 55.14,81.36 35.82,44.04 22.98,19.33 		"/>
		<polyline class="st11" points="19.1,139.31 35.5,130.89 64.93,193.36 66.07,195.78 		"/>
		<polyline class="st11" points="35.5,130.89 50.04,123.49 81.64,184.98 64.93,193.36 		"/>
		<polyline class="st11" points="230.73,90.53 206.92,43.2 220.72,36.37 243.91,83.46 		"/>
		<polygon class="st11" points="204.85,200.86 190.27,208.32 157.26,146.53 173.76,138.18 		"/>
		<polyline class="st11" points="190.51,129.68 205.46,122.09 236.17,184.87 221.88,192.17 		"/>
		<polyline class="st11" points="113.16,91.27 126.96,84.24 157.26,146.53 143.7,153.44 143.68,153.45 		"/>
		<polygon class="st11" points="212.13,100.06 200.17,106.35 176.77,58.98 190.81,51.68 213.75,99.14 		"/>
		<polyline class="st11" points="173.76,138.18 142.83,76.11 159.26,67.73 183.08,115.06 190.51,129.68 		"/>
		<polyline class="st11" points="95.21,177.89 96.05,177.46 96.05,177.46 		"/>
		<polygon class="st11" points="112.56,169.3 96.05,177.46 64.55,115.89 98.3,98.84 129.15,160.83 126.79,162.03 		"/>
		<polyline class="st11" points="111.78,248.39 96.35,256.19 73.08,209.89 		"/>
		<polyline class="st11" points="140.65,37.51 125.83,45.08 94.82,-16.94 99.61,-19.4 109.27,-24.21 		"/>
		<polyline class="st11" points="98.3,98.84 113.16,91.27 143.68,153.45 129.15,160.83 		"/>
		<polyline class="st11" points="-13.7,37.97 18.25,100.41 1.92,108.8 -29.73,46.08 		"/>
		<polyline class="st11" points="190.27,208.32 174.44,216.24 174.4,216.26 		"/>
		<line class="st11" x1="190.81" y1="51.68" x2="206.92" y2="43.2"/>
		<line class="st11" x1="33.34" y1="92.82" x2="18.25" y2="100.41"/>
		<line class="st11" x1="200.17" y1="106.35" x2="183.08" y2="115.06"/>
		<line class="st11" x1="159.26" y1="67.73" x2="176.77" y2="58.98"/>
		<line class="st11" x1="55.14" y1="81.36" x2="40.85" y2="88.81"/>
		<line class="st11" x1="1.92" y1="108.8" x2="-13.37" y2="116.68"/>
		<line class="st11" x1="80.2" y1="68.54" x2="67.2" y2="75.23"/>
		<line class="st11" x1="-11.91" y1="155.06" x2="3.44" y2="147.16"/>
		<line class="st11" x1="1.62" y1="30.39" x2="-3.5" y2="32.92"/>
		<line class="st11" x1="205.46" y1="122.09" x2="219.82" y2="114.91"/>
		<line class="st11" x1="126.96" y1="84.24" x2="142.83" y2="76.11"/>
		<line class="st11" x1="50.04" y1="123.49" x2="64.55" y2="115.89"/>
		<polygon class="st12" points="132.65,0.45 138.18,11.34 144.35,8.18 154.98,29.03 155.03,29.14 153.03,30.18 152.08,32.04 
			149.47,33.37 147.76,33.02 145.54,34.15 141.22,36.36 140.9,36.52 140.61,35.95 130.16,15.42 130.42,15.27 127.73,9.97 
			124.66,3.98 127.15,2.7 125.93,0.3 124.54,-2.45 131.84,-6.16 132.01,-6.25 134.85,-0.68 		"/>
		<polygon class="st12" points="204.35,111.15 207.24,116.76 209.73,115.46 211.36,118.59 209.47,119.58 200.76,124.03 
			200.99,124.52 189.46,130.43 181.96,115.81 185.87,113.81 185.58,113.26 186.33,112.89 189.69,111.18 189.95,111.7 201.57,105.73 
					"/>
		<polygon class="st12" points="126.74,124.15 126.31,124.38 123.87,125.62 126.11,130.03 123.09,131.56 116.06,135.15 
			115.45,133.94 113.74,130.58 113.34,130.78 98.62,101.91 98.51,101.68 99.17,101.34 106.53,97.6 106.76,97.45 111.83,94.87 		"/>
		<polyline class="st12" points="206.84,42.75 213.41,39.48 216.57,37.86 218.74,39.25 220.42,38.38 236,68.52 234.9,69.08 
			235.42,70.11 236.02,69.8 236.87,71.39 242.51,82.34 243.06,83.41 241.01,84.45 230.23,90.01 229.63,88.79 223.49,76.98 
			226.96,75.15 226.59,74.43 223.52,76.02 		"/>
		<polygon class="st12" points="54.03,173 52.7,173.67 50.03,175 49.77,175.11 43.49,178.24 42.79,178.59 34.69,162.32 
			32.08,163.62 21.02,141.09 20.87,140.8 21.63,140.42 28.78,136.86 29.01,136.75 34.31,134.11 34.57,133.97 		"/>
		<polygon class="st12" points="14.07,23.76 14.33,24.25 -3.33,33.89 -4.55,31.66 -9.94,21.79 -9.59,21.61 -9.33,21.47 0.58,16.05 
			1.73,15.42 4.51,20.51 10.51,17.24 		"/>
		<polygon class="st12" points="91.36,16.89 83.83,20.6 79.37,11.97 86.67,8.18 87.27,7.89 91.79,16.66 		"/>
		<polyline class="st12" points="91.36,16.89 94.48,22.92 109.37,51.76 109.37,51.79 108.82,52.08 104.36,54.37 104.33,54.48 
			103.66,56.94 98.83,59.43 96.6,58.39 95.93,58.73 95.9,58.65 84.99,37.51 87.56,36.15 80.44,22.33 83.83,20.6 		"/>
		<polygon class="st12" points="38.6,180.71 38.05,180.96 37.44,181.25 34.28,182.87 31.16,184.44 31.04,184.5 32.22,186.85 
			29.56,188.17 28.37,185.86 27.13,186.49 18.9,170.22 16.53,171.44 5.27,149.14 5.21,149.05 6.34,148.51 13.4,144.91 13.55,144.85 
			18.85,142.16 19.08,142.08 		"/>
		<polyline class="st12" points="66.08,74.38 61.9,76.52 61.5,76.72 62.14,77.96 56.03,81.09 55.33,79.79 53.91,80.52 53.65,79.99 
			43.6,59.52 45.43,58.6 44.48,56.77 44.85,56.57 41.23,49.47 39.03,50.6 37.06,46.78 39.21,45.68 38.68,44.66 47.51,40.14 
			48.15,41.42 54.55,53.9 55.39,53.47 		"/>
		<polygon class="st12" points="201.51,159.01 203.19,158.18 218.36,188.67 219.67,191.3 219.32,191.48 214.28,193.97 
			215.49,196.43 209.04,199.64 207.85,197.27 206.32,198.05 196.33,177.95 196.01,177.32 196.85,176.91 199.86,175.4 193.98,163.56 
			192.24,164.4 190.91,161.73 190.27,160.4 189.81,159.51 198.12,155.37 200.24,159.65 		"/>
		<polyline class="st12" points="189.61,85.76 187.9,86.65 186.07,87.58 188.74,92.73 188.54,92.85 179.44,97.51 179.42,97.51 
			179.36,97.42 164.53,68.58 163.95,67.45 166.04,66.38 165.63,63.72 168.64,62.18 171.34,63.66 172.64,62.99 176.81,60.85 		"/>
		<polygon class="st12" points="129.18,167.38 126.89,168.63 124.97,169.64 124.71,169.15 118.75,172.39 117.39,169.85 
			116.52,168.25 126.68,162.78 		"/>
		<polygon class="st12" points="190.19,53.99 202.98,78.89 202.44,79.18 204.43,83.09 204.75,83.73 205.07,84.34 204.84,84.45 
			195.48,89.26 193.2,90.44 190.56,85.29 189.61,85.76 176.81,60.85 181.3,58.53 183.27,57.52 183.15,54.71 186.02,53.27 
			188.65,54.77 		"/>
		<polyline class="st12" points="160.91,-0.11 161.32,-0.31 168.41,13.59 172.03,20.71 171.34,21.07 167.34,23.09 165.6,23.96 
			164.91,24.33 164.44,25.84 161.55,27.29 159.81,26.94 159.32,27.17 157.64,28.04 157.5,27.75 146.93,7.05 150.28,5.34 		"/>
		<polygon class="st12" points="160.71,123.34 164.41,130.58 163.32,131.13 165.14,134.69 155.12,139.85 154.77,140.02 
			154.48,139.5 128.07,87.69 131.17,86.1 130.39,84.57 132.97,83.26 133.08,81.21 137.57,78.89 139.54,79.73 141.66,78.66 
			158.88,112.11 155.73,113.73 		"/>
		<polyline class="st12" points="154.48,139.5 144.17,144.8 142.61,141.79 141.95,142.13 138.41,135.27 133.2,125.17 131.58,126 
			130.3,126.67 113.51,94.06 113.19,93.43 115.54,92.21 115.88,90.21 120.31,87.92 121.99,88.91 124.31,87.69 125.12,89.23 
			128.07,87.69 		"/>
		<polygon class="st12" points="137.89,37.28 138.04,37.54 137.51,37.8 136.96,40.47 132.71,42.61 130.33,41.57 129.75,41.85 
			125.26,44.14 110.53,15.47 112.35,14.55 109.31,8.55 110.5,7.98 120.43,2.91 		"/>
		<polygon class="st12" points="158.62,71.39 180.57,114.22 181.35,115.75 173.16,119.95 170.53,114.83 166.96,116.63 166.7,116.1 
			161.46,105.88 160.85,104.69 157.46,98.12 155.32,99.22 144.35,77.79 145.07,77.41 145.3,76.78 146.11,74.46 150.22,72.35 
			152.98,73.36 158.25,70.64 		"/>
		<polygon class="st12" points="56.72,214.01 48.04,218.35 46.33,214.87 42.68,207.55 51.37,203.2 		"/>
		<polygon class="st12" points="233.19,181.14 232.75,181.37 233.22,182.3 233.16,182.35 228.06,184.93 227.66,185.11 
			227.11,187.59 223.63,189.39 220.1,188.84 219.67,187.97 201.45,152.04 200.18,149.55 212.34,143.38 213.73,142.68 		"/>
		<polygon class="st12" points="98.6,202.07 96.16,197.3 101.06,194.81 101.49,195.64 102.36,195.18 104.19,198.77 103.32,199.21 
			103.49,199.55 		"/>
		<polygon class="st12" points="85.39,159.39 85.36,159.39 75.6,164.4 73.72,160.7 73,159.3 69.67,160.99 66.13,154.09 
			69.09,152.58 65.01,144.62 61.85,146.22 51.57,126.18 52.2,125.86 59.88,121.92 60.86,121.43 65.44,119.08 65.5,119.05 
			83.33,153.95 82.76,154.24 		"/>
		<polyline class="st12" points="53.65,79.99 52.41,80.66 53.34,82.51 47.49,85.49 46.65,83.85 45,84.68 42.3,86.07 41.29,86.59 
			40.88,86.8 39.84,84.71 40.19,84.51 30,64.58 31.04,64.06 28.26,58.65 35.79,54.82 37.9,53.73 40.65,59.09 42.82,57.99 
			43.6,59.52 		"/>
		<polygon class="st12" points="0.95,-34.82 2.46,-31.84 3.99,-32.65 4.48,-31.67 4.89,-31.87 11.49,-18.9 1.56,-13.83 11.52,5.72 
			9.73,6.64 -1.37,12.29 -11.21,-7.55 -13.7,-6.18 -22.19,-22.84 -23.05,-22.37 -24.96,-26.1 -23.78,-30.01 -17.7,-33.12 
			-14.8,-32.16 -10.08,-34.56 -8.98,-38.13 -4.35,-40.47 -0.18,-39.05 1.76,-35.23 		"/>
		<polygon class="st12" points="157,221.62 157.46,222.52 155.5,223.5 156.45,225.38 151.04,228.13 150.08,226.31 149.07,226.83 
			145.22,228.8 144.98,228.92 144.78,228.48 130.59,200.68 135.52,198.16 138.53,196.63 142.15,194.78 143.07,194.31 		"/>
		<polygon class="st12" points="44.18,213.13 42.62,213.89 40.07,215.13 38.94,215.68 36.54,210.79 41.81,208.21 		"/>
		<polygon class="st12" points="160.91,-0.11 150.28,5.34 144.26,-6.47 146.98,-7.87 144.75,-12.21 144.43,-12.84 151.01,-16.2 
			153.53,-11.28 154.86,-11.98 		"/>
		<polygon class="st12" points="223.52,76.02 217.15,79.33 216.51,81.12 213.12,82.86 211.44,82.28 209.96,83.03 209.53,82.19 
			209.21,82.36 208.14,80.34 193.61,52.22 195.31,51.36 195.57,48.43 198.79,46.78 206.84,42.75 		"/>
		<polygon class="st12" points="113.48,134.95 117.59,143.09 119.53,146.88 118.26,147.52 109.48,151.98 109.22,151.43 
			105.02,153.54 99.72,143.12 98.36,143.81 90.72,128.75 88.03,123.46 81.37,110.28 83.07,109.41 83.39,109.27 90.14,105.82 
			90.95,105.45 96.31,102.72 96.95,102.37 97.09,102.64 		"/>
		<polyline class="st12" points="125.26,44.14 120.69,46.49 120.46,46.57 119.88,49.27 115.51,51.49 112.99,50.43 112.44,50.71 
			112.23,50.28 97.84,21.93 98.51,21.59 98.34,21.27 95.93,16.52 105.86,11.48 108.44,16.55 110.09,15.7 110.53,15.47 		"/>
		<polygon class="st12" points="186.74,205.55 186.48,205.66 183.64,207.2 182.86,207.63 182.02,208.1 182.75,209.46 177.04,212.56 
			176.32,211.22 173.62,212.67 163.08,193.24 166.53,191.39 161.29,181.72 159.7,182.59 156.77,177.2 168.61,170.77 171.08,175.35 
			171.86,174.91 188.07,204.83 		"/>
		<polygon class="st12" points="121.68,192.2 116.96,194.46 115.97,194.92 110.09,197.73 108.44,198.51 99.17,179.14 112.44,172.8 
					"/>
		<polygon class="st12" points="-20.01,67.77 -17.58,72.49 -16.91,72.14 -0.06,105.07 0.95,107.07 -3.77,109.5 -3.97,109.59 
			-5.07,112.31 -9.16,114.39 -13.04,113.17 -14.08,111.12 -23.55,92.64 -20.65,91.17 -30.24,72.49 -27.86,71.28 -25.57,70.09 
			-22.85,68.7 -20.45,67.48 -20.22,67.37 		"/>
		<polygon class="st12" points="183.12,173.78 185.84,178.88 185.9,179 186.57,180.21 186.62,180.3 187.81,182.53 190.27,181.2 
			194.24,179.05 198.96,187.77 196.3,189.22 200.96,197.84 199.63,198.57 198.99,200.31 198.88,200.6 195.78,202.25 193.61,201.82 
			193.31,201.96 195.14,205.37 195.46,205.93 191.72,207.92 191.43,207.4 189.73,204.19 188.8,204.71 179.33,187.16 179.73,186.96 
			174.26,176.77 175.33,176.19 182.37,172.39 		"/>
		<polygon class="st12" points="20.38,22.31 30.63,41.19 29.68,41.68 26.06,43.51 26.43,44.14 16.3,49.76 13.61,51.27 12.65,51.79 
			3.27,34.79 3.99,34.38 2.31,31.35 19.95,21.53 		"/>
		<polygon class="st12" points="0.2,68.49 14.47,96.09 15.92,98.87 14.79,102.32 10.83,104.37 8.05,103.36 7.9,103.3 2.78,105.94 
			2.75,105.97 1.82,104.17 -14.37,72.87 -1.1,66 		"/>
		<polygon class="st12" points="172.23,215.36 167.34,217.85 166.7,218.17 167.43,219.63 160.85,222.92 160.16,221.5 158.28,222.43 
			157.7,221.3 147.33,200.65 151.24,198.69 144.43,185.07 154.83,179.83 155.64,179.43 173.39,214.79 		"/>
		<polygon class="st12" points="131.17,209.75 141.42,230.11 141.66,230.57 141.31,230.74 141.42,230.97 136.93,233.23 
			136.47,233.46 135.69,236.39 132.56,237.95 131.72,237.64 129.84,236.97 129.35,237.23 129.06,236.65 128.48,236.94 
			114.87,209.87 114.41,208.97 126.48,202.88 129.49,208.88 130.48,208.39 		"/>
		<polygon class="st12" points="19.28,180.85 26.35,194.78 18.01,199.01 17.08,197.18 13.55,190.17 10.45,191.74 3.47,177.95 
			1.13,179.14 -9.94,157.01 -9.99,156.87 -9.04,156.38 -2.18,152.9 -1.8,152.7 3.35,150.1 3.65,149.95 		"/>
		<polygon class="st12" points="9.96,201 10.74,202.54 -1.45,208.73 -2.12,209.08 -6.64,200.19 -5.04,199.38 -11.99,185.77 
			-14.37,186.96 -25.46,164.92 -24.56,164.46 -17.47,160.84 -17,160.61 -12.08,158.11 -11.94,158.03 		"/>
		<polygon class="st12" points="15.34,60.96 16.53,60.3 31.88,90.56 31.79,90.59 28.23,92.41 29.13,94.15 29.74,95.34 20.59,100 
			19.02,96.9 18.47,97.19 17.25,94.76 9.87,80.23 10.36,79.96 6.4,72.11 6.63,71.97 4.02,67.02 10.33,63.63 8.86,60.88 12.77,58.77 
			14.27,61.52 		"/>
		<polygon class="st12" points="93.96,59.61 94.08,59.78 93.62,60.01 89.39,62.18 89.19,62.76 88.6,64.62 83.62,67.16 80.38,66.12 
			79.98,66 69.52,45.45 72.21,44.05 71,41.68 60.78,21.59 70.04,16.87 72.33,15.7 76.99,24.91 76.44,25.21 		"/>
		<polygon class="st12" points="50.09,126.93 68.89,163.15 71.06,167.33 70.22,167.76 58.17,174.01 52.87,163.76 56.2,162.05 
			55.33,160.35 52.58,159.74 49.05,152.96 46.99,154.04 36.16,133.18 36.08,132.98 36.48,132.78 37.35,129.83 41.81,127.51 
			44.45,128.58 44.56,128.52 49.22,126.09 49.57,125.92 		"/>
		<polygon class="st12" points="126.16,240.24 123.85,241.43 117.39,244.72 115.88,245.48 111.22,247.85 97.26,219.36 97.9,219.04 
			95.47,214.3 108.27,207.75 108.38,207.69 110.84,212.47 111.68,212.03 		"/>
		<polygon class="st12" points="185,-18.12 185.81,-16.55 187.49,-15.97 189.61,-11.86 189.2,-9.95 195.95,3.22 193.29,4.59 
			192.13,6.27 191.69,6.47 193.49,9.94 190.74,11.36 188.94,7.89 188.45,8.15 188.04,8.15 186.45,8.12 186.02,8.32 185.26,9.68 
			181.35,11.68 180.17,11.34 180.05,11.39 179.79,11.51 178.34,13.51 174.66,15.39 172.73,15.16 171.19,15.94 170.47,16.31 
			168.93,13.33 158.88,-6.18 169.92,-11.86 170.53,-12.15 175.04,-14.5 184.4,-19.3 		"/>
		<polygon class="st12" points="66.83,45.68 67.49,45.33 78.59,67.05 78.99,67.83 77.31,68.7 78.04,70.09 71.93,73.21 71.2,71.77 
			70.42,72.17 66.08,74.38 55.39,53.47 54.61,51.99 56.84,50.86 54.61,46.52 62.23,42.63 64.4,46.89 		"/>
		<polygon class="st17" points="2446.73,-37.77 2442.48,-37.21 2438.21,-36.82 2433.94,-36.4 2429.65,-36.29 2425.37,-36.52 
			2421.08,-36.58 2416.8,-36.47 2412.51,-36.69 2408.24,-36.99 2403.98,-37.54 2399.74,-38.18 2395.58,-39.18 2391.9,-41.34 
			2388.99,-44.48 2386.06,-47.61 2383.03,-50.65 2380.17,-53.84 2377.44,-57.15 2375.32,-60.86 2374.65,-65.07 2375.11,-69.33 
			2375.62,-73.59 2375.59,-77.87 2374.49,-82 2372.27,-85.66 2369.44,-88.88 2366.41,-91.91 2363.04,-94.55 2359.44,-96.88 
			2355.9,-99.31 2352.41,-101.8 2348.55,-103.03 2345.93,-99.75 2345.09,-95.56 2345.07,-91.27 2345.58,-87.02 2346.29,-82.79 
			2346.56,-78.51 2345.57,-74.37 2343.5,-70.62 2341.85,-66.66 2339.55,-63.09 2336.94,-59.71 2332.98,-58.16 2328.92,-56.77 
			2324.86,-55.4 2320.94,-53.66 2317.14,-51.69 2313.8,-49.01 2309.94,-47.14 2305.82,-45.99 2301.63,-45.07 2297.48,-44.01 
			2293.39,-42.71 2289.22,-41.71 2284.95,-41.54 2280.69,-42.08 2276.66,-43.49 2272.74,-45.24 2268.67,-46.58 2264.56,-47.79 
			2260.38,-48.77 2256.2,-49.74 2252.04,-50.78 2247.97,-52.1 2244.19,-54.12 2241.08,-57.04 2237.59,-59.43 2233.47,-60.64 
			2229.28,-61.55 2225.06,-62.29 2220.88,-63.24 2216.73,-64.32 2212.64,-65.6 2208.72,-67.34 2204.94,-69.38 2201.18,-71.44 
			2197.56,-73.72 2194.9,-77.05 2193.37,-81.04 2192.15,-85.13 2188.91,-87.89 2188.65,-91.94 2185.3,-94.56 2181.36,-96.25 
			2177.39,-97.86 2173.34,-99.28 2169.15,-100.13 2164.89,-99.87 2161.08,-97.97 2158.15,-94.85 2156.03,-91.13 2155.16,-86.96 
			2155.25,-82.68 2155.3,-78.39 2155.64,-74.11 2155.92,-69.84 2153.05,-67.36 2148.98,-68.66 2146.22,-71.19 2147.15,-75.35 
			2144.16,-77.87 2140.37,-76.09 2138.59,-72.26 2138.86,-68.02 2141.01,-64.35 2144.21,-61.51 2147.13,-58.37 2149.85,-55.06 
			2152.96,-52.11 2155.26,-48.53 2154.56,-44.45 2151.77,-41.22 2148.34,-38.64 2144.75,-36.29 2141.23,-33.84 2137.66,-31.48 
			2133.91,-29.39 2130,-27.64 2125.97,-28.3 2124.83,-32.33 2125.05,-36.61 2124.5,-40.83 2122.43,-44.57 2120.49,-48.34 
			2122.49,-51.99 2126.21,-54.07 2127.53,-57.69 2124.43,-60.51 2120.29,-61.58 2117.47,-64.6 2114.18,-67.03 2111.54,-64.22 
			2111.2,-59.95 2109.56,-56.27 2106.37,-58.78 2102.69,-60.51 2099.76,-57.55 2097.68,-53.8 2094.75,-50.71 2090.88,-48.88 
			2086.79,-47.58 2082.8,-46.03 2078.89,-44.26 2074.68,-43.78 2070.74,-42.92 2070.27,-38.74 2070.61,-34.46 2070.17,-30.21 
			2067.93,-26.61 2065.14,-23.35 2062.29,-20.15 2058.98,-17.43 2055.32,-15.19 2051.47,-13.32 2047.44,-11.84 2043.3,-10.74 
			2039.19,-9.53 2034.99,-8.64 2030.77,-7.89 2026.55,-7.12 2022.37,-6.17 2018.14,-5.46 2013.86,-5.15 2009.64,-4.49 2005.7,-2.79 
			2001.73,-1.2 1997.5,-0.54 1993.22,-0.7 1989.03,-1.57 1985.12,-3.29 1982.67,-6.66 1983.84,-10.72 1985.84,-14.51 
			1987.68,-18.38 1988.75,-22.53 1988.85,-26.8 1986.9,-30.53 1983.02,-32.06 1979.41,-29.98 1976.46,-26.88 1972.39,-27.13 
			1968.45,-28.81 1964.25,-29.65 1959.97,-29.54 1955.99,-28.05 1953.59,-24.59 1952.75,-20.39 1951.79,-16.22 1949.67,-12.53 
			1946.01,-10.39 1941.77,-9.82 1937.58,-10.55 1933.95,-12.81 1930,-11.88 1926.99,-8.83 1923.5,-6.35 1919.51,-4.8 1915.39,-3.61 
			1911.36,-2.15 1907.57,-0.16 1904.02,2.25 1900.71,4.97 1897.55,7.87 1894.42,10.81 1891.3,13.75 1888.04,16.53 1884.48,18.92 
			1880.45,20.32 1876.25,19.87 1872.61,17.62 1869.35,14.85 1867.09,11.22 1865.86,7.13 1865.79,2.85 1866.45,-1.38 1867.79,-5.45 
			1869.23,-9.49 1869.69,-13.72 1867.06,-16.95 1863.4,-19.16 1859.26,-20.23 1855.01,-19.84 1850.83,-18.86 1846.67,-17.82 
			1842.61,-16.45 1838.51,-15.2 1834.43,-13.87 1830.25,-13.08 1826.21,-14.44 1822.33,-16.27 1818.42,-18.03 1814.45,-19.66 
			1810.36,-20.96 1806.15,-21.7 1801.86,-21.74 1797.58,-21.55 1793.3,-21.78 1789.05,-22.36 1785.26,-24.27 1782.33,-27.39 
			1779.66,-30.75 1776.8,-33.94 1773.39,-36.49 1769.18,-36.99 1765.05,-35.87 1761.04,-34.37 1756.98,-32.98 1752.83,-31.9 
			1748.65,-30.92 1744.44,-30.15 1740.21,-29.44 1736.15,-28.1 1732.89,-25.36 1730.81,-21.63 1728.91,-17.79 1726.01,-14.66 
			1722.28,-12.57 1718.14,-11.48 1713.87,-11.13 1709.58,-10.96 1705.31,-10.64 1701.02,-10.58 1696.77,-11.09 1693.72,-13.78 
			1693.94,-18.02 1695.11,-22.14 1694.75,-26.28 1691.01,-28.19 1686.81,-29.02 1682.67,-30.16 1678.57,-31.4 1674.3,-31.49 
			1670.19,-30.31 1666.65,-27.94 1664.13,-24.49 1662.88,-20.41 1662.84,-16.13 1663.67,-11.93 1665.04,-7.87 1666.57,-3.86 
			1668.1,0.15 1669.2,4.29 1670.41,8.4 1671.93,12.41 1673.51,16.4 1675.63,20.11 1677.78,23.8 1677.84,28.06 1677.79,32.34 
			1678.11,36.61 1678.01,40.9 1677.41,45.14 1675.89,49.14 1674.57,53.18 1675.1,57.43 1675.38,61.71 1676.86,65.68 1679.65,68.91 
			1683.61,70.32 1687.21,72.27 1689.27,75.95 1693.05,77.96 1695.26,81.25 1691.76,83.38 1687.63,84.51 1683.52,85.7 1680.01,83.64 
			1677.21,80.42 1673.84,77.77 1671.08,74.49 1668.48,71.08 1665.59,67.92 1662.74,64.71 1659.1,62.49 1655.05,61.07 1651.21,59.21 
			1647.99,56.39 1645.45,52.94 1643.44,49.16 1642.34,45.02 1641.67,40.79 1640.57,36.65 1638.4,32.97 1635.21,30.12 1631.86,27.45 
			1628.57,24.7 1625.31,21.91 1622.05,19.13 1618.18,17.36 1614.02,18.06 1609.87,19.07 1605.66,19.87 1602.25,22.37 1600.24,26.14 
			1599.01,30.25 1599.21,34.47 1595.65,36.29 1591.39,35.97 1587.18,35.11 1582.92,34.64 1578.65,34.38 1574.65,32.91 
			1571.08,30.54 1567.61,28.01 1563.89,25.9 1559.65,25.67 1555.57,26.94 1551.38,27.29 1547.66,25.2 1544.4,22.41 1541.68,19.1 
			1539.3,15.54 1537.11,11.85 1535.25,7.99 1533.64,4.01 1531.79,0.15 1529.64,-3.56 1527.13,-7.04 1524.13,-10.1 1520.54,-12.43 
			1516.5,-13.81 1512.25,-14.38 1507.97,-14.64 1503.69,-14.92 1499.42,-15.29 1495.16,-14.87 1490.99,-13.85 1486.85,-12.74 
			1482.83,-11.25 1479.13,-9.09 1475.77,-6.44 1472.59,-3.56 1469.46,-0.62 1465.87,1.68 1462.09,0.48 1460.68,-3.43 1460.73,-7.7 
			1458.94,-11.56 1455.25,-13.36 1451.32,-11.75 1447.82,-9.27 1444.23,-6.92 1440.67,-4.54 1437.51,-1.64 1434.66,1.56 
			1431.88,4.82 1429.25,8.21 1426.94,11.82 1425.09,15.69 1423.38,19.62 1422.27,23.75 1422.89,27.9 1426.92,28.15 1430.65,26.05 
			1434.15,23.58 1437.33,20.7 1440.49,17.81 1443.96,15.29 1447.98,14.87 1446.52,18.55 1443.51,21.6 1441.2,25.2 1439.18,28.98 
			1437.09,32.73 1435.25,36.6 1433.5,40.52 1431.76,44.44 1430.16,48.42 1428.54,52.39 1426.69,56.26 1424.75,60.08 1422.82,63.91 
			1420.91,67.75 1418.26,71.11 1414.91,73.78 1411.28,76.06 1407.55,78.17 1403.8,80.26 1400.43,82.9 1397.64,86.15 1395.04,89.56 
			1392.38,92.93 1389.84,96.38 1387.6,100.04 1385.57,103.82 1383.66,107.65 1381.92,111.57 1380.35,115.57 1379.11,119.67 
			1378.45,123.9 1377.69,128.12 1377.43,132.39 1377.97,136.64 1378.68,140.87 1379.31,145.11 1379.74,149.38 1380.09,153.66 
			1380.38,157.94 1380.61,162.22 1380.33,166.49 1379.45,170.69 1377.98,174.71 1374.94,177.61 1370.74,178.24 1366.46,177.91 
			1362.39,178.93 1360.45,182.61 1360.79,186.88 1361.91,191.01 1363.58,194.96 1364.66,199.07 1361.51,201.32 1357.26,200.78 
			1353.04,200.02 1348.77,199.65 1344.53,200.17 1340.84,202.28 1338.36,205.76 1336.85,209.77 1335.63,213.88 1335.01,218.1 
			1335.67,222.34 1333.71,225.6 1329.46,225.2 1325.3,224.18 1321.1,223.31 1316.83,223.34 1312.6,224.09 1308.42,225.03 
			1304.38,226.45 1300.64,228.55 1297.21,231.12 1294.13,234.1 1291.15,237.18 1288.01,240.1 1284.37,242.36 1280.65,244.49 
			1276.84,246.45 1272.9,248.16 1268.91,249.72 1264.82,251 1260.61,251.75 1256.79,250.2 1255.03,246.32 1254.09,242.14 
			1253.29,237.93 1252.53,233.71 1251.97,229.45 1251.47,225.19 1250.93,220.94 1250.37,216.69 1249.88,212.43 1249.31,208.17 
			1248.56,203.95 1247.28,199.87 1244.63,196.54 1241.02,194.25 1237.07,192.58 1233.07,191.04 1229.07,189.49 1225.13,187.79 
			1221.72,185.26 1221.35,181.19 1221.95,177.07 1220.2,173.17 1217.43,169.91 1214.21,167.07 1210.95,164.29 1208.06,161.13 
			1206.07,157.34 1204.86,153.23 1203.94,149.04 1203.05,144.85 1202.29,140.63 1201.73,136.38 1201.36,132.11 1201.17,127.82 
			1200.7,123.56 1199.51,119.45 1196.6,116.42 1192.4,116.09 1188.28,117.26 1184.35,118.99 1180.57,121.01 1176.89,123.2 
			1173.27,125.52 1169.86,128.11 1166.74,131.05 1164.06,134.39 1161.91,138.09 1160.17,142.02 1158.37,145.91 1156.23,149.62 
			1153.89,153.22 1151.54,156.8 1149.23,160.42 1146.75,163.91 1143.98,167.19 1140.79,170.04 1136.99,172.01 1132.87,173.17 
			1128.77,174.42 1124.82,176.1 1121.45,178.71 1118.99,182.22 1117.56,186.24 1117.22,190.51 1117.22,194.8 1117.21,199.09 
			1117.13,203.38 1116.55,207.62 1115.35,211.73 1113.73,215.71 1111.9,219.58 1109.71,223.27 1107.18,226.73 1104.34,229.94 
			1101.17,232.83 1097.97,235.68 1095,238.77 1092.39,242.17 1089.94,245.69 1087.66,249.32 1085.33,252.92 1082.46,256.1 
			1078.75,258.22 1074.67,259.53 1070.44,260.17 1066.15,260.38 1061.87,260.67 1057.62,261.24 1053.39,261.92 1049.22,262.9 
			1045.12,264.16 1041.16,265.8 1037.33,267.74 1033.7,270.02 1030.35,272.69 1027.26,275.67 1024.03,278.48 1020.48,280.88 
			1016.63,282.75 1012.67,284.41 1008.77,286.19 1004.87,287.98 1000.97,289.76 997.02,291.42 993.01,292.95 988.96,294.35 
			984.8,295.41 980.53,295.68 976.29,295.11 972.35,293.45 968.94,290.85 965.6,288.17 961.93,285.97 957.89,284.54 953.64,284.17 
			949.46,285.08 945.53,286.8 941.82,288.94 937.98,290.85 934.49,293.32 931.13,295.97 927.62,298.44 924.09,300.87 920.58,303.34 
			917.13,305.88 913.8,308.59 910.38,311.17 907.09,313.93 903.8,316.67 900.46,319.36 897.21,322.16 894.11,325.13 891.09,328.17 
			888.09,331.24 884.91,334.11 881.4,336.57 877.36,337.89 873.08,337.78 868.85,338.26 865.42,340.8 861.58,342.7 857.62,344.35 
			853.62,345.87 849.49,347.03 845.43,348.42 841.52,350.16 837.62,351.96 833.91,354.11 830.11,356.08 825.92,356.93 
			822.61,359.42 821.83,363.61 821.63,367.9 821.41,372.18 820.42,376.33 816.68,377.76 812.79,376.03 809.33,373.49 806.43,370.34 
			804.14,366.72 801.94,363.04 799.73,359.36 797.49,355.71 795.22,352.07 792.58,348.72 790.31,351.1 790.01,355.38 788.63,359.42 
			786.51,363.15 784.58,366.97 782.94,370.94 781.25,374.88 779.58,378.83 778.58,382.98 779.3,387.18 780.97,391.13 782.66,395.06 
			783.03,399.31 781.65,403.34 779.16,406.82 776.01,409.71 772.15,411.55 767.94,412.18 764,410.67 761.52,407.21 759.93,403.23 
			758.71,399.12 756.95,395.22 754.5,391.7 751.76,388.4 748.74,385.36 745.55,382.5 742.52,379.46 739.55,376.37 736.69,373.18 
			733.83,369.98 730.77,366.97 727.18,364.65 723.45,362.53 719.93,360.09 716.32,357.78 715.21,354.44 718.13,351.32 
			721.35,348.47 724.63,345.72 728.01,343.07 731.34,340.37 734.39,337.37 736.61,333.73 735.32,330.08 731.12,329.36 
			726.84,329.16 722.68,330.12 718.88,332.09 715.16,334.24 711.37,336.25 707.68,338.43 704.02,340.67 700.47,343.06 
			696.78,345.26 692.79,346.82 688.75,348.23 684.68,349.6 680.5,350.55 676.23,350.77 672,351.3 668.11,353.1 664.34,355.14 
			660.23,355.22 656.29,353.72 652.12,354.62 648.64,357.06 646.77,360.89 645.03,364.81 642.72,368.41 639.84,371.59 
			636.74,374.54 633.63,377.5 630.69,377.68 631.94,373.58 632,369.33 630.22,365.46 627.6,362.06 625.06,358.61 623.35,354.69 
			622.46,350.5 621.59,346.41 617.46,346.11 613.32,347.24 609.19,348.37 604.98,349.2 600.7,349.34 596.77,347.83 594.54,344.23 
			593.74,340.02 593.67,335.74 593.88,331.45 593.75,327.17 591.44,323.81 587.2,323.39 582.93,323.73 578.65,324.07 574.37,324.28 
			570.09,324.47 565.8,324.67 561.52,324.87 557.24,325.24 553.02,325.95 549.18,327.76 547.63,331.63 548.03,335.89 549.05,340.06 
			550.35,344.15 551.78,348.19 553.27,352.21 554.66,356.27 555.87,360.38 556.82,364.56 557.19,368.83 555.97,372.87 
			552.62,375.47 548.49,376.56 544.21,376.84 539.93,376.68 535.65,376.42 531.36,376.31 527.07,376.42 522.8,376.83 518.62,377.76 
			514.55,379.11 510.31,379.67 506.02,379.74 501.77,380.22 497.94,382.08 494.79,384.99 491.8,388.06 487.87,389.6 483.89,391.06 
			480.63,393.85 477.79,397.05 475.61,400.74 473.76,404.61 471.99,408.52 469.99,412.31 467.61,415.87 464.89,419.19 461.58,421.9 
			457.64,423.56 453.43,424.36 449.22,425.16 445.17,426.55 441.36,428.52 437.72,430.79 434.5,433.6 432.39,437.31 431.36,441.46 
			430.84,445.72 430.1,449.94 428.67,453.98 426.5,457.67 423.9,461.08 420.9,464.14 417.65,466.94 414.39,469.72 411.03,472.39 
			407.54,474.87 403.99,477.29 400.32,479.51 396.56,481.56 392.68,483.4 388.8,485.22 384.95,487.1 381.11,489.02 377.27,490.94 
			373.46,492.9 369.63,494.84 365.78,496.71 361.83,498.39 357.82,499.91 353.83,501.48 349.78,502.9 345.67,504.11 341.61,505.48 
			337.66,507.16 333.77,508.97 329.91,510.84 326.08,512.77 322.23,514.66 318.35,516.48 314.43,518.23 310.43,519.78 
			306.44,521.35 302.48,523 298.49,524.57 294.55,526.25 290.8,528.34 286.99,530.3 283,531.86 278.98,533.37 274.91,534.71 
			270.67,535.18 266.66,533.8 263.76,530.67 261.55,527 259.43,523.28 257.3,519.55 255.3,515.76 253.35,511.94 251.43,508.1 
			249.43,504.31 247.28,500.6 245.03,496.95 242.82,493.27 240.66,489.57 238.68,485.77 236.82,481.9 234.86,478.08 232.85,474.3 
			230.77,470.55 228.56,466.87 226.21,463.28 223.31,460.15 219.41,458.5 215.25,459.33 211.76,461.79 208.83,464.92 205.96,468.11 
			202.66,470.82 198.87,472.83 195.06,474.8 191.32,476.91 187.69,479.18 184.09,481.51 180.65,484.08 177.49,486.97 174.17,489.69 
			170.48,491.85 166.29,492.48 162.35,490.91 159.28,487.93 156.42,484.73 153.3,481.8 149.82,479.29 146.38,476.73 143.1,473.97 
			139.59,471.52 135.49,470.49 131.3,471.38 127.2,472.63 123.13,473.98 119.09,475.43 115.07,476.93 111.07,478.46 107.04,479.94 
			102.98,481.31 98.94,482.76 94.93,484.27 90.9,485.74 86.87,487.2 82.76,488.45 78.53,489.09 76,486.73 78.51,483.29 
			81.36,480.09 83.54,476.45 81.38,473.2 77.26,472.05 73.14,470.84 68.93,470.08 65.12,468.13 60.99,467.13 56.81,467.98 
			52.92,469.79 49.14,471.8 45.35,473.8 41.44,475.57 37.53,477.33 33.67,479.2 29.76,480.96 25.79,482.58 21.66,483.71 
			17.43,484.44 13.21,485.21 8.93,485.47 4.74,486.32 0.62,487.51 -3.55,488.54 -7.76,489.31 -12.01,489.92 -16.28,490.14 
			-20.33,488.77 -24.47,487.69 -28.71,488.1 -32.67,489.71 -35.84,492.57 -37.94,496.29 -39.06,500.42 -40.91,504.25 -44.07,507.14 
			-47.66,509.47 -51.63,511.08 -55.85,511.81 -60.13,512.05 -64.4,512.42 -68.64,513.05 -72.86,512.52 -75.97,509.67 -78.75,506.45 
			-82.96,506.14 -86.97,504.71 -90.45,502.23 -93.13,498.89 -95.97,495.69 -99.82,493.89 -104.07,493.32 -108.35,493.14 
			-112.63,492.83 -116.84,492.12 -120.26,489.57 -124.35,488.29 -128.14,486.29 -131.91,484.26 -135.9,482.69 -139.95,481.29 
			-143.99,479.84 -147.83,477.94 -151.97,476.84 -156.21,476.28 -160.14,477.72 -162.9,481 -165.83,484.13 -168.45,487.51 
			-170.13,491.45 -172.46,494.87 -176.68,495.52 -180.87,496.4 -185.16,496.62 -189.41,497.14 -193.52,498.36 -197.53,499.87 
			-201.38,501.76 -204.85,504.26 -207.99,507.19 -210.96,510.27 -212.44,514.25 -212.93,518.51 -214.83,522.3 -218.12,525.03 
			-221.64,527.49 -224.91,530.25 -227.97,533.26 -231.17,536.11 -234.65,538.61 -238.06,541.21 -240.6,544.61 2446.73,544.61 		"/>
		<g class="st4">
		</g>
		<polygon style="clip-path:url(#SVGID_2_);fill:none;stroke:#FF0000;stroke-miterlimit:10;" points="2446.73,-37.77 
			2442.48,-37.21 2438.21,-36.82 2433.94,-36.4 2429.65,-36.29 2425.37,-36.52 2421.08,-36.58 2416.8,-36.47 2412.51,-36.69 
			2408.24,-36.99 2403.98,-37.54 2399.74,-38.18 2395.58,-39.18 2391.9,-41.34 2388.99,-44.48 2386.06,-47.61 2383.03,-50.65 
			2380.17,-53.84 2377.44,-57.15 2375.32,-60.86 2374.65,-65.07 2375.11,-69.33 2375.62,-73.59 2375.59,-77.87 2374.49,-82 
			2372.27,-85.66 2369.44,-88.88 2366.41,-91.91 2363.04,-94.55 2359.44,-96.88 2355.9,-99.31 2352.41,-101.8 2348.55,-103.03 
			2345.93,-99.75 2345.09,-95.56 2345.07,-91.27 2345.58,-87.02 2346.29,-82.79 2346.56,-78.51 2345.57,-74.37 2343.5,-70.62 
			2341.85,-66.66 2339.55,-63.09 2336.94,-59.71 2332.98,-58.16 2328.92,-56.77 2324.86,-55.4 2320.94,-53.66 2317.14,-51.69 
			2313.8,-49.01 2309.94,-47.14 2305.82,-45.99 2301.63,-45.07 2297.48,-44.01 2293.39,-42.71 2289.22,-41.71 2284.95,-41.54 
			2280.69,-42.08 2276.66,-43.49 2272.74,-45.24 2268.67,-46.58 2264.56,-47.79 2260.38,-48.77 2256.2,-49.74 2252.04,-50.78 
			2247.97,-52.1 2244.19,-54.12 2241.08,-57.04 2237.59,-59.43 2233.47,-60.64 2229.28,-61.55 2225.06,-62.29 2220.88,-63.24 
			2216.73,-64.32 2212.64,-65.6 2208.72,-67.34 2204.94,-69.38 2201.18,-71.44 2197.56,-73.72 2194.9,-77.05 2193.37,-81.04 
			2192.15,-85.13 2188.91,-87.89 2188.65,-91.94 2185.3,-94.56 2181.36,-96.25 2177.39,-97.86 2173.34,-99.28 2169.15,-100.13 
			2164.89,-99.87 2161.08,-97.97 2158.15,-94.85 2156.03,-91.13 2155.16,-86.96 2155.25,-82.68 2155.3,-78.39 2155.64,-74.11 
			2155.92,-69.84 2153.05,-67.36 2148.98,-68.66 2146.22,-71.19 2147.15,-75.35 2144.16,-77.87 2140.37,-76.09 2138.59,-72.26 
			2138.86,-68.02 2141.01,-64.35 2144.21,-61.51 2147.13,-58.37 2149.85,-55.06 2152.96,-52.11 2155.26,-48.53 2154.56,-44.45 
			2151.77,-41.22 2148.34,-38.64 2144.75,-36.29 2141.23,-33.84 2137.66,-31.48 2133.91,-29.39 2130,-27.64 2125.97,-28.3 
			2124.83,-32.33 2125.05,-36.61 2124.5,-40.83 2122.43,-44.57 2120.49,-48.34 2122.49,-51.99 2126.21,-54.07 2127.53,-57.69 
			2124.43,-60.51 2120.29,-61.58 2117.47,-64.6 2114.18,-67.03 2111.54,-64.22 2111.2,-59.95 2109.56,-56.27 2106.37,-58.78 
			2102.69,-60.51 2099.76,-57.55 2097.68,-53.8 2094.75,-50.71 2090.88,-48.88 2086.79,-47.58 2082.8,-46.03 2078.89,-44.26 
			2074.68,-43.78 2070.74,-42.92 2070.27,-38.74 2070.61,-34.46 2070.17,-30.21 2067.93,-26.61 2065.14,-23.35 2062.29,-20.15 
			2058.98,-17.43 2055.32,-15.19 2051.47,-13.32 2047.44,-11.84 2043.3,-10.74 2039.19,-9.53 2034.99,-8.64 2030.77,-7.89 
			2026.55,-7.12 2022.37,-6.17 2018.14,-5.46 2013.86,-5.15 2009.64,-4.49 2005.7,-2.79 2001.73,-1.2 1997.5,-0.54 1993.22,-0.7 
			1989.03,-1.57 1985.12,-3.29 1982.67,-6.66 1983.84,-10.72 1985.84,-14.51 1987.68,-18.38 1988.75,-22.53 1988.85,-26.8 
			1986.9,-30.53 1983.02,-32.06 1979.41,-29.98 1976.46,-26.88 1972.39,-27.13 1968.45,-28.81 1964.25,-29.65 1959.97,-29.54 
			1955.99,-28.05 1953.59,-24.59 1952.75,-20.39 1951.79,-16.22 1949.67,-12.53 1946.01,-10.39 1941.77,-9.82 1937.58,-10.55 
			1933.95,-12.81 1930,-11.88 1926.99,-8.83 1923.5,-6.35 1919.51,-4.8 1915.39,-3.61 1911.36,-2.15 1907.57,-0.16 1904.02,2.25 
			1900.71,4.97 1897.55,7.87 1894.42,10.81 1891.3,13.75 1888.04,16.53 1884.48,18.92 1880.45,20.32 1876.25,19.87 1872.61,17.62 
			1869.35,14.85 1867.09,11.22 1865.86,7.13 1865.79,2.85 1866.45,-1.38 1867.79,-5.45 1869.23,-9.49 1869.69,-13.72 
			1867.06,-16.95 1863.4,-19.16 1859.26,-20.23 1855.01,-19.84 1850.83,-18.86 1846.67,-17.82 1842.61,-16.45 1838.51,-15.2 
			1834.43,-13.87 1830.25,-13.08 1826.21,-14.44 1822.33,-16.27 1818.42,-18.03 1814.45,-19.66 1810.36,-20.96 1806.15,-21.7 
			1801.86,-21.74 1797.58,-21.55 1793.3,-21.78 1789.05,-22.36 1785.26,-24.27 1782.33,-27.39 1779.66,-30.75 1776.8,-33.94 
			1773.39,-36.49 1769.18,-36.99 1765.05,-35.87 1761.04,-34.37 1756.98,-32.98 1752.83,-31.9 1748.65,-30.92 1744.44,-30.15 
			1740.21,-29.44 1736.15,-28.1 1732.89,-25.36 1730.81,-21.63 1728.91,-17.79 1726.01,-14.66 1722.28,-12.57 1718.14,-11.48 
			1713.87,-11.13 1709.58,-10.96 1705.31,-10.64 1701.02,-10.58 1696.77,-11.09 1693.72,-13.78 1693.94,-18.02 1695.11,-22.14 
			1694.75,-26.28 1691.01,-28.19 1686.81,-29.02 1682.67,-30.16 1678.57,-31.4 1674.3,-31.49 1670.19,-30.31 1666.65,-27.94 
			1664.13,-24.49 1662.88,-20.41 1662.84,-16.13 1663.67,-11.93 1665.04,-7.87 1666.57,-3.86 1668.1,0.15 1669.2,4.29 1670.41,8.4 
			1671.93,12.41 1673.51,16.4 1675.63,20.11 1677.78,23.8 1677.84,28.06 1677.79,32.34 1678.11,36.61 1678.01,40.9 1677.41,45.14 
			1675.89,49.14 1674.57,53.18 1675.1,57.43 1675.38,61.71 1676.86,65.68 1679.65,68.91 1683.61,70.32 1687.21,72.27 1689.27,75.95 
			1693.05,77.96 1695.26,81.25 1691.76,83.38 1687.63,84.51 1683.52,85.7 1680.01,83.64 1677.21,80.42 1673.84,77.77 1671.08,74.49 
			1668.48,71.08 1665.59,67.92 1662.74,64.71 1659.1,62.49 1655.05,61.07 1651.21,59.21 1647.99,56.39 1645.45,52.94 1643.44,49.16 
			1642.34,45.02 1641.67,40.79 1640.57,36.65 1638.4,32.97 1635.21,30.12 1631.86,27.45 1628.57,24.7 1625.31,21.91 1622.05,19.13 
			1618.18,17.36 1614.02,18.06 1609.87,19.07 1605.66,19.87 1602.25,22.37 1600.24,26.14 1599.01,30.25 1599.21,34.47 
			1595.65,36.29 1591.39,35.97 1587.18,35.11 1582.92,34.64 1578.65,34.38 1574.65,32.91 1571.08,30.54 1567.61,28.01 1563.89,25.9 
			1559.65,25.67 1555.57,26.94 1551.38,27.29 1547.66,25.2 1544.4,22.41 1541.68,19.1 1539.3,15.54 1537.11,11.85 1535.25,7.99 
			1533.64,4.01 1531.79,0.15 1529.64,-3.56 1527.13,-7.04 1524.13,-10.1 1520.54,-12.43 1516.5,-13.81 1512.25,-14.38 
			1507.97,-14.64 1503.69,-14.92 1499.42,-15.29 1495.16,-14.87 1490.99,-13.85 1486.85,-12.74 1482.83,-11.25 1479.13,-9.09 
			1475.77,-6.44 1472.59,-3.56 1469.46,-0.62 1465.87,1.68 1462.09,0.48 1460.68,-3.43 1460.73,-7.7 1458.94,-11.56 1455.25,-13.36 
			1451.32,-11.75 1447.82,-9.27 1444.23,-6.92 1440.67,-4.54 1437.51,-1.64 1434.66,1.56 1431.88,4.82 1429.25,8.21 1426.94,11.82 
			1425.09,15.69 1423.38,19.62 1422.27,23.75 1422.89,27.9 1426.92,28.15 1430.65,26.05 1434.15,23.58 1437.33,20.7 1440.49,17.81 
			1443.96,15.29 1447.98,14.87 1446.52,18.55 1443.51,21.6 1441.2,25.2 1439.18,28.98 1437.09,32.73 1435.25,36.6 1433.5,40.52 
			1431.76,44.44 1430.16,48.42 1428.54,52.39 1426.69,56.26 1424.75,60.08 1422.82,63.91 1420.91,67.75 1418.26,71.11 
			1414.91,73.78 1411.28,76.06 1407.55,78.17 1403.8,80.26 1400.43,82.9 1397.64,86.15 1395.04,89.56 1392.38,92.93 1389.84,96.38 
			1387.6,100.04 1385.57,103.82 1383.66,107.65 1381.92,111.57 1380.35,115.57 1379.11,119.67 1378.45,123.9 1377.69,128.12 
			1377.43,132.39 1377.97,136.64 1378.68,140.87 1379.31,145.11 1379.74,149.38 1380.09,153.66 1380.38,157.94 1380.61,162.22 
			1380.33,166.49 1379.45,170.69 1377.98,174.71 1374.94,177.61 1370.74,178.24 1366.46,177.91 1362.39,178.93 1360.45,182.61 
			1360.79,186.88 1361.91,191.01 1363.58,194.96 1364.66,199.07 1361.51,201.32 1357.26,200.78 1353.04,200.02 1348.77,199.65 
			1344.53,200.17 1340.84,202.28 1338.36,205.76 1336.85,209.77 1335.63,213.88 1335.01,218.1 1335.67,222.34 1333.71,225.6 
			1329.46,225.2 1325.3,224.18 1321.1,223.31 1316.83,223.34 1312.6,224.09 1308.42,225.03 1304.38,226.45 1300.64,228.55 
			1297.21,231.12 1294.13,234.1 1291.15,237.18 1288.01,240.1 1284.37,242.36 1280.65,244.49 1276.84,246.45 1272.9,248.16 
			1268.91,249.72 1264.82,251 1260.61,251.75 1256.79,250.2 1255.03,246.32 1254.09,242.14 1253.29,237.93 1252.53,233.71 
			1251.97,229.45 1251.47,225.19 1250.93,220.94 1250.37,216.69 1249.88,212.43 1249.31,208.17 1248.56,203.95 1247.28,199.87 
			1244.63,196.54 1241.02,194.25 1237.07,192.58 1233.07,191.04 1229.07,189.49 1225.13,187.79 1221.72,185.26 1221.35,181.19 
			1221.95,177.07 1220.2,173.17 1217.43,169.91 1214.21,167.07 1210.95,164.29 1208.06,161.13 1206.07,157.34 1204.86,153.23 
			1203.94,149.04 1203.05,144.85 1202.29,140.63 1201.73,136.38 1201.36,132.11 1201.17,127.82 1200.7,123.56 1199.51,119.45 
			1196.6,116.42 1192.4,116.09 1188.28,117.26 1184.35,118.99 1180.57,121.01 1176.89,123.2 1173.27,125.52 1169.86,128.11 
			1166.74,131.05 1164.06,134.39 1161.91,138.09 1160.17,142.02 1158.37,145.91 1156.23,149.62 1153.89,153.22 1151.54,156.8 
			1149.23,160.42 1146.75,163.91 1143.98,167.19 1140.79,170.04 1136.99,172.01 1132.87,173.17 1128.77,174.42 1124.82,176.1 
			1121.45,178.71 1118.99,182.22 1117.56,186.24 1117.22,190.51 1117.22,194.8 1117.21,199.09 1117.13,203.38 1116.55,207.62 
			1115.35,211.73 1113.73,215.71 1111.9,219.58 1109.71,223.27 1107.18,226.73 1104.34,229.94 1101.17,232.83 1097.97,235.68 
			1095,238.77 1092.39,242.17 1089.94,245.69 1087.66,249.32 1085.33,252.92 1082.46,256.1 1078.75,258.22 1074.67,259.53 
			1070.44,260.17 1066.15,260.38 1061.87,260.67 1057.62,261.24 1053.39,261.92 1049.22,262.9 1045.12,264.16 1041.16,265.8 
			1037.33,267.74 1033.7,270.02 1030.35,272.69 1027.26,275.67 1024.03,278.48 1020.48,280.88 1016.63,282.75 1012.67,284.41 
			1008.77,286.19 1004.87,287.98 1000.97,289.76 997.02,291.42 993.01,292.95 988.96,294.35 984.8,295.41 980.53,295.68 
			976.29,295.11 972.35,293.45 968.94,290.85 965.6,288.17 961.93,285.97 957.89,284.54 953.64,284.17 949.46,285.08 945.53,286.8 
			941.82,288.94 937.98,290.85 934.49,293.32 931.13,295.97 927.62,298.44 924.09,300.87 920.58,303.34 917.13,305.88 913.8,308.59 
			910.38,311.17 907.09,313.93 903.8,316.67 900.46,319.36 897.21,322.16 894.11,325.13 891.09,328.17 888.09,331.24 884.91,334.11 
			881.4,336.57 877.36,337.89 873.08,337.78 868.85,338.26 865.42,340.8 861.58,342.7 857.62,344.35 853.62,345.87 849.49,347.03 
			845.43,348.42 841.52,350.16 837.62,351.96 833.91,354.11 830.11,356.08 825.92,356.93 822.61,359.42 821.83,363.61 821.63,367.9 
			821.41,372.18 820.42,376.33 816.68,377.76 812.79,376.03 809.33,373.49 806.43,370.34 804.14,366.72 801.94,363.04 
			799.73,359.36 797.49,355.71 795.22,352.07 792.58,348.72 790.31,351.1 790.01,355.38 788.63,359.42 786.51,363.15 784.58,366.97 
			782.94,370.94 781.25,374.88 779.58,378.83 778.58,382.98 779.3,387.18 780.97,391.13 782.66,395.06 783.03,399.31 781.65,403.34 
			779.16,406.82 776.01,409.71 772.15,411.55 767.94,412.18 764,410.67 761.52,407.21 759.93,403.23 758.71,399.12 756.95,395.22 
			754.5,391.7 751.76,388.4 748.74,385.36 745.55,382.5 742.52,379.46 739.55,376.37 736.69,373.18 733.83,369.98 730.77,366.97 
			727.18,364.65 723.45,362.53 719.93,360.09 716.32,357.78 715.21,354.44 718.13,351.32 721.35,348.47 724.63,345.72 
			728.01,343.07 731.34,340.37 734.39,337.37 736.61,333.73 735.32,330.08 731.12,329.36 726.84,329.16 722.68,330.12 
			718.88,332.09 715.16,334.24 711.37,336.25 707.68,338.43 704.02,340.67 700.47,343.06 696.78,345.26 692.79,346.82 
			688.75,348.23 684.68,349.6 680.5,350.55 676.23,350.77 672,351.3 668.11,353.1 664.34,355.14 660.23,355.22 656.29,353.72 
			652.12,354.62 648.64,357.06 646.77,360.89 645.03,364.81 642.72,368.41 639.84,371.59 636.74,374.54 633.63,377.5 630.69,377.68 
			631.94,373.58 632,369.33 630.22,365.46 627.6,362.06 625.06,358.61 623.35,354.69 622.46,350.5 621.59,346.41 617.46,346.11 
			613.32,347.24 609.19,348.37 604.98,349.2 600.7,349.34 596.77,347.83 594.54,344.23 593.74,340.02 593.67,335.74 593.88,331.45 
			593.75,327.17 591.44,323.81 587.2,323.39 582.93,323.73 578.65,324.07 574.37,324.28 570.09,324.47 565.8,324.67 561.52,324.87 
			557.24,325.24 553.02,325.95 549.18,327.76 547.63,331.63 548.03,335.89 549.05,340.06 550.35,344.15 551.78,348.19 
			553.27,352.21 554.66,356.27 555.87,360.38 556.82,364.56 557.19,368.83 555.97,372.87 552.62,375.47 548.49,376.56 
			544.21,376.84 539.93,376.68 535.65,376.42 531.36,376.31 527.07,376.42 522.8,376.83 518.62,377.76 514.55,379.11 510.31,379.67 
			506.02,379.74 501.77,380.22 497.94,382.08 494.79,384.99 491.8,388.06 487.87,389.6 483.89,391.06 480.63,393.85 477.79,397.05 
			475.61,400.74 473.76,404.61 471.99,408.52 469.99,412.31 467.61,415.87 464.89,419.19 461.58,421.9 457.64,423.56 453.43,424.36 
			449.22,425.16 445.17,426.55 441.36,428.52 437.72,430.79 434.5,433.6 432.39,437.31 431.36,441.46 430.84,445.72 430.1,449.94 
			428.67,453.98 426.5,457.67 423.9,461.08 420.9,464.14 417.65,466.94 414.39,469.72 411.03,472.39 407.54,474.87 403.99,477.29 
			400.32,479.51 396.56,481.56 392.68,483.4 388.8,485.22 384.95,487.1 381.11,489.02 377.27,490.94 373.46,492.9 369.63,494.84 
			365.78,496.71 361.83,498.39 357.82,499.91 353.83,501.48 349.78,502.9 345.67,504.11 341.61,505.48 337.66,507.16 333.77,508.97 
			329.91,510.84 326.08,512.77 322.23,514.66 318.35,516.48 314.43,518.23 310.43,519.78 306.44,521.35 302.48,523 298.49,524.57 
			294.55,526.25 290.8,528.34 286.99,530.3 283,531.86 278.98,533.37 274.91,534.71 270.67,535.18 266.66,533.8 263.76,530.67 
			261.55,527 259.43,523.28 257.3,519.55 255.3,515.76 253.35,511.94 251.43,508.1 249.43,504.31 247.28,500.6 245.03,496.95 
			242.82,493.27 240.66,489.57 238.68,485.77 236.82,481.9 234.86,478.08 232.85,474.3 230.77,470.55 228.56,466.87 226.21,463.28 
			223.31,460.15 219.41,458.5 215.25,459.33 211.76,461.79 208.83,464.92 205.96,468.11 202.66,470.82 198.87,472.83 195.06,474.8 
			191.32,476.91 187.69,479.18 184.09,481.51 180.65,484.08 177.49,486.97 174.17,489.69 170.48,491.85 166.29,492.48 
			162.35,490.91 159.28,487.93 156.42,484.73 153.3,481.8 149.82,479.29 146.38,476.73 143.1,473.97 139.59,471.52 135.49,470.49 
			131.3,471.38 127.2,472.63 123.13,473.98 119.09,475.43 115.07,476.93 111.07,478.46 107.04,479.94 102.98,481.31 98.94,482.76 
			94.93,484.27 90.9,485.74 86.87,487.2 82.76,488.45 78.53,489.09 76,486.73 78.51,483.29 81.36,480.09 83.54,476.45 81.38,473.2 
			77.26,472.05 73.14,470.84 68.93,470.08 65.12,468.13 60.99,467.13 56.81,467.98 52.92,469.79 49.14,471.8 45.35,473.8 
			41.44,475.57 37.53,477.33 33.67,479.2 29.76,480.96 25.79,482.58 21.66,483.71 17.43,484.44 13.21,485.21 8.93,485.47 
			4.74,486.32 0.62,487.51 -3.55,488.54 -7.76,489.31 -12.01,489.92 -16.28,490.14 -20.33,488.77 -24.47,487.69 -28.71,488.1 
			-32.67,489.71 -35.84,492.57 -37.94,496.29 -39.06,500.42 -40.91,504.25 -44.07,507.14 -47.66,509.47 -51.63,511.08 
			-55.85,511.81 -60.13,512.05 -64.4,512.42 -68.64,513.05 -72.86,512.52 -75.97,509.67 -78.75,506.45 -82.96,506.14 -86.97,504.71 
			-90.45,502.23 -93.13,498.89 -95.97,495.69 -99.82,493.89 -104.07,493.32 -108.35,493.14 -112.63,492.83 -116.84,492.12 
			-120.26,489.57 -124.35,488.29 -128.14,486.29 -131.91,484.26 -135.9,482.69 -139.95,481.29 -143.99,479.84 -147.83,477.94 
			-151.97,476.84 -156.21,476.28 -160.14,477.72 -162.9,481 -165.83,484.13 -168.45,487.51 -170.13,491.45 -172.46,494.87 
			-176.68,495.52 -180.87,496.4 -185.16,496.62 -189.41,497.14 -193.52,498.36 -197.53,499.87 -201.38,501.76 -204.85,504.26 
			-207.99,507.19 -210.96,510.27 -212.44,514.25 -212.93,518.51 -214.83,522.3 -218.12,525.03 -221.64,527.49 -224.91,530.25 
			-227.97,533.26 -231.17,536.11 -234.65,538.61 -238.06,541.21 -240.6,544.61 2446.73,544.61 		"/>
		<g class="st4">
		</g>
		<rect x="-847.92" y="-1427.85" class="st19" width="3294.65" height="1972.46"/>
	</g>
	<g>
		<path class="st18" d="M14.43,83.47c0.48,0.29,1.09,0.31,1.59,0.04c3.71-1.98,6.16-2.4,7.55-2.4c3.13,0,4.57,0.72,6.11,1.49
			c1.47,0.73,3.13,1.56,6,1.56c5.72,0,9.36-2.56,9.52-2.66c0.42-0.3,0.67-0.79,0.67-1.31V65.84c0-0.6-0.34-1.15-0.87-1.43
			c-0.53-0.28-1.18-0.23-1.67,0.11c-0.03,0.02-3.01,2.07-7.65,2.07c-2.1,0-3.19-0.54-4.56-1.22c-1.71-0.86-3.66-1.82-7.54-1.82
			c-2.57,0-5.62,0.93-9.07,2.78c-0.53,0.28-0.85,0.83-0.85,1.42v14.34C13.65,82.65,13.95,83.17,14.43,83.47z M16.87,68.72
			c3.24-1.6,5.41-1.96,6.7-1.96c3.13,0,4.57,0.72,6.11,1.49c1.47,0.73,3.13,1.56,6,1.56c2.93,0,5.32-0.67,6.97-1.34v10.79
			c-1.13,0.6-3.62,1.67-6.97,1.67c-2.1,0-3.19-0.54-4.56-1.22c-1.71-0.86-3.66-1.82-7.54-1.82c-1.96,0-4.21,0.55-6.7,1.63V68.72z"/>
		<circle class="st18" cx="29.76" cy="73.85" r="3.22"/>
		<path class="st18" d="M72.44,48.08c8.44,0,15.3-6.86,15.3-15.3s-6.86-15.3-15.3-15.3s-15.3,6.86-15.3,15.3
			S64.01,48.08,72.44,48.08z M72.44,20.7c6.66,0,12.08,5.42,12.08,12.08s-5.42,12.08-12.08,12.08s-12.08-5.42-12.08-12.08
			S65.78,20.7,72.44,20.7z"/>
		<path class="st18" d="M68.54,37.65c0.34,0,0.69-0.11,0.98-0.33l4.62-3.56c0.4-0.3,0.59-0.76,0.6-1.22
			c0.07-0.18,0.11-0.36,0.11-0.57v-6.44c0-0.89-0.72-1.61-1.61-1.61c-0.89,0-1.61,0.72-1.61,1.61v6.09l-4.09,3.14
			c-0.7,0.54-0.84,1.55-0.29,2.26C67.58,37.43,68.06,37.65,68.54,37.65z"/>
		<path class="st18" d="M165.41,86.33l6.16,6.16c0.31,0.31,0.73,0.47,1.14,0.47s0.82-0.16,1.14-0.47l18.18-18.18
			c0.17-0.17,0.3-0.38,0.38-0.61l3.13-9.08c0.2-0.57,0.06-1.21-0.37-1.65c-0.42-0.44-1.06-0.6-1.64-0.41l-9.29,2.92
			c-0.25,0.08-0.47,0.21-0.66,0.4l-18.18,18.18C164.78,84.68,164.78,85.7,165.41,86.33z M185.58,68.44l5.87-1.84l-1.97,5.71
			l-16.77,16.77l-3.88-3.88L185.58,68.44z"/>
		<path class="st18" d="M96.25,133.08l-6.81-8.29c-0.71-0.87-1.81-1.31-2.93-1.23c-6.51,0.5-12.57,3.6-16.8,8.64l-12.79,15.27
			c-1.39,1.66-3.99,1.5-5.17-0.31l-12.47-19.13l-0.02,0.01l-3.89-6.85c-1.31-2.3-3.66-3.81-6.29-4.05l-4.73-0.42
			c-1.04-0.09-1.97-0.68-2.5-1.58l-1.69-2.89c-0.89-1.52-2.49-2.37-4.13-2.37c-0.78,0-1.56,0.19-2.29,0.59
			c-2.31,1.26-3.16,4.14-1.92,6.46l10.22,19.04l20.89,38.69c2.05,3.8,6.02,6.17,10.34,6.17c3.08,0,6.03-1.21,8.23-3.36l5.81-5.7
			c-1.65-10.54,0.61-18.99,0.71-19.37c0.24-0.86,1.12-1.36,1.98-1.12c0.86,0.24,1.36,1.12,1.13,1.98c-0.02,0.08-1.9,7.17-0.88,16.17
			c0.73,2.28,4.47,14.89,2.95,27.77c-0.24,2.04,1.3,3.85,3.35,3.85h25.71v-64.42C99.99,136.19,97.84,135.03,96.25,133.08z
			 M15.27,113.29c0.23-0.13,0.48-0.19,0.74-0.19c0.56,0,1.07,0.29,1.35,0.77l1.69,2.89c1.05,1.8,2.92,2.99,5,3.17l4.73,0.42
			c1.58,0.14,2.99,1.05,3.78,2.43l2.2,3.88l-11.32,5.13l-8.8-16.39C14.24,114.64,14.52,113.7,15.27,113.29z"/>
		<path class="st18" d="M132.84,122.7c5.18,0,6.57-4.17,6.94-6.24c0.12-0.68,0.41-1.33,0.91-1.81c3.44-3.3,1.7-7.02,0.42-8.89
			c-0.55-0.8-0.73-1.81-0.47-2.75c1.45-5.29,0.94-10.37-3.47-12.96c-3.89-2.29-5.86-6.32-6.48-7.8c-0.06-0.16-0.12-0.32-0.19-0.48
			c-0.02-0.06-0.03-0.1-0.03-0.1s0,0.01,0,0.02c-4.45-10.3-14.69-17.51-26.62-17.51c-10.32,0-19.35,5.42-24.48,13.54l0,0
			c-0.02,0.04-0.04,0.07-0.06,0.11c-0.58,0.93-1.13,1.89-1.6,2.88c-1.35,2.48-2.45,4.38-4.97,6.3l0,0
			c-2.74,2.23-5.83,6.08-6.35,12.33c-0.07,0.8-0.44,1.53-1.08,2.01c-2.37,1.76-7.85,6.79-4.74,13.81c0.26,0.6,0.37,1.24,0.23,1.88
			c-0.33,1.57-0.42,4.86,3.83,6.73c3.67,1.61,8.22-0.94,9.97-2.09c0.48-0.31,1.03-0.47,1.6-0.46c2.3,0.06,8.26,0.45,10.6-4.63
			c4.79,3.49,10.67,5.57,17.04,5.57c5.99,0,11.56-1.82,16.18-4.94C122.5,120.28,126.89,122.7,132.84,122.7z M78.74,98.89
			c19.09-1.31,27.4-9.84,31-17.03c3.02,3.91,8.77,7.9,19.65,8.04c0.14,1.08,0.23,2.17,0.23,3.28c0,14.21-11.56,25.77-25.77,25.77
			C91.61,118.95,81.35,110.36,78.74,98.89z"/>
		<path class="st18" d="M122.71,48.93c0.29,0.47,0.81,0.76,1.37,0.76h38.52c0.56,0,1.08-0.29,1.37-0.76
			c0.29-0.48,0.32-1.07,0.07-1.57l-5.43-10.93V17.48c0-0.89-0.72-1.61-1.61-1.61h-27.38c-0.89,0-1.61,0.72-1.61,1.61v19.05
			l-5.38,10.83C122.39,47.86,122.42,48.46,122.71,48.93z M131.24,19.09h24.16v16.11h-24.16V19.09z M130.68,38.42h25.33l4,8.05
			h-33.33L130.68,38.42z"/>
		<path class="st18" d="M150.57,40.03h-14.5c-0.89,0-1.61,0.72-1.61,1.61c0,0.89,0.72,1.61,1.61,1.61h14.5
			c0.89,0,1.61-0.72,1.61-1.61C152.18,40.75,151.46,40.03,150.57,40.03z"/>
		<path class="st18" d="M194.4,110.46c-0.73-0.4-1.51-0.59-2.29-0.59c-1.65,0-3.25,0.85-4.13,2.37l-1.69,2.89
			c-0.53,0.9-1.46,1.49-2.5,1.58l-4.73,0.42c-2.64,0.23-4.99,1.75-6.29,4.05l-3.94,6.95l0.01,0l-12.4,19.02
			c-1.18,1.81-3.78,1.97-5.17,0.31l-12.79-15.27c-4.22-5.04-10.29-8.14-16.8-8.64c-1.12-0.09-2.22,0.36-2.93,1.23l-6.8,8.29
			c-1.71,2.08-4.04,3.28-6.47,3.61v64.35h26.17c2.05,0,3.59-1.81,3.35-3.85c-1.32-11.25,1.36-22.28,2.55-26.43
			c1.38-9.63-0.69-17.42-0.71-17.51c-0.24-0.86,0.27-1.74,1.13-1.98c0.86-0.24,1.74,0.27,1.98,1.12c0.11,0.38,2.33,8.73,0.74,19.18
			l6.01,5.89c2.2,2.15,5.15,3.36,8.22,3.36c4.32,0,8.29-2.37,10.34-6.17l20.85-38.68l10.22-19.04
			C197.56,114.61,196.7,111.72,194.4,110.46z M126.4,160.83h-9.66c-0.89,0-1.61-0.72-1.61-1.61c0-0.89,0.72-1.61,1.61-1.61h9.66
			c0.89,0,1.61,0.72,1.61,1.61C128.02,160.11,127.29,160.83,126.4,160.83z M179.34,120.35l4.73-0.42c2.08-0.18,3.94-1.37,5-3.17
			l1.69-2.89c0.28-0.48,0.79-0.77,1.35-0.77c0.26,0,0.51,0.06,0.74,0.19c0.75,0.41,1.03,1.35,0.63,2.11l-8.8,16.39l-11.32-5.13
			l2.2-3.88C176.35,121.4,177.76,120.49,179.34,120.35z"/>
		<path class="st18" d="M186.67,88.06c-0.16-0.55-0.31-1.07-0.46-1.57c-0.26-0.85-1.15-1.33-2.01-1.08
			c-0.85,0.26-1.34,1.16-1.08,2.01c0.14,0.48,0.3,0.99,0.45,1.53c0.2,0.71,0.85,1.17,1.55,1.17c0.15,0,0.3-0.02,0.45-0.06
			C186.42,89.81,186.91,88.92,186.67,88.06z"/>
		<path class="st18" d="M188.35,105.88c0.05,0,0.09,0,0.14-0.01c0.89-0.08,1.54-0.86,1.47-1.74c-0.05-0.55-0.11-1.1-0.17-1.66
			c-0.11-0.88-0.9-1.53-1.79-1.4c-0.88,0.11-1.51,0.91-1.4,1.79c0.06,0.52,0.12,1.04,0.16,1.54
			C186.82,105.25,187.53,105.88,188.35,105.88z"/>
		<path class="st18" d="M185.52,96.66c0.17,0.76,0.83,1.27,1.57,1.27c0.11,0,0.23-0.01,0.34-0.04c0.87-0.19,1.42-1.05,1.23-1.92
			c-0.12-0.54-0.23-1.07-0.36-1.59c-0.2-0.87-1.06-1.41-1.93-1.21c-0.87,0.2-1.41,1.06-1.21,1.93
			C185.29,95.62,185.41,96.14,185.52,96.66z"/>
		<path class="st18" d="M164.44,52.84c0.36,0.39,0.71,0.78,1.06,1.18c0.32,0.36,0.76,0.54,1.2,0.54c0.38,0,0.76-0.13,1.07-0.41
			c0.66-0.59,0.72-1.61,0.13-2.27c-0.36-0.41-0.73-0.81-1.1-1.21c-0.6-0.66-1.62-0.7-2.27-0.09
			C163.87,51.17,163.83,52.19,164.44,52.84z"/>
		<path class="st18" d="M170.45,60.16c0.32,0.43,0.81,0.66,1.3,0.66c0.33,0,0.66-0.1,0.95-0.31c0.72-0.53,0.87-1.53,0.35-2.25
			c-0.32-0.44-0.65-0.88-0.98-1.31c-0.54-0.71-1.55-0.85-2.26-0.31c-0.71,0.54-0.85,1.55-0.31,2.26
			C169.83,59.32,170.14,59.74,170.45,60.16z"/>
		<path class="st18" d="M174.52,66.29c0.3,0.5,0.84,0.78,1.38,0.78c0.28,0,0.57-0.07,0.83-0.23c0.76-0.46,1.01-1.45,0.55-2.21
			l-0.56-0.92c-0.47-0.76-1.46-0.99-2.22-0.52c-0.76,0.47-0.99,1.46-0.52,2.22L174.52,66.29z"/>
		<path class="st18" d="M114.57,27.09c0.52,0.07,1.04,0.14,1.56,0.21c0.08,0.01,0.16,0.02,0.24,0.02c0.79,0,1.47-0.58,1.59-1.37
			c0.13-0.88-0.48-1.7-1.36-1.83c-0.54-0.08-1.09-0.15-1.63-0.22c-0.89-0.09-1.69,0.51-1.8,1.4
			C113.06,26.17,113.69,26.97,114.57,27.09z"/>
		<path class="st18" d="M98.69,26.6c0.03,0,0.07,0,0.11,0c0.52-0.03,1.05-0.06,1.58-0.08c0.89-0.04,1.58-0.79,1.54-1.68
			c-0.04-0.89-0.77-1.62-1.68-1.54c-0.55,0.02-1.1,0.05-1.64,0.09c-0.89,0.06-1.56,0.82-1.5,1.71C97.14,25.94,97.85,26.6,98.69,26.6
			z"/>
		<path class="st18" d="M122.34,28.46l1.01,0.24c0.13,0.03,0.25,0.04,0.38,0.04c0.73,0,1.39-0.5,1.57-1.23
			c0.21-0.87-0.33-1.74-1.19-1.94l-1.05-0.24c-0.86-0.2-1.73,0.34-1.93,1.21C120.93,27.4,121.48,28.26,122.34,28.46z"/>
		<path class="st18" d="M90.69,27.49c0.08,0,0.17-0.01,0.26-0.02c0.52-0.08,1.04-0.16,1.57-0.24c0.88-0.13,1.49-0.94,1.36-1.82
			c-0.13-0.88-0.95-1.51-1.82-1.36c-0.54,0.08-1.08,0.16-1.62,0.25c-0.88,0.14-1.48,0.97-1.34,1.85
			C89.23,26.93,89.92,27.49,90.69,27.49z"/>
		<path class="st18" d="M106.69,26.46c0.53,0.02,1.06,0.04,1.58,0.07c0.03,0,0.06,0,0.08,0c0.85,0,1.56-0.67,1.61-1.53
			c0.04-0.89-0.64-1.65-1.53-1.69c-0.55-0.03-1.09-0.05-1.64-0.07c-0.83-0.08-1.63,0.67-1.66,1.56
			C105.11,25.69,105.81,26.44,106.69,26.46z"/>
		<path class="st18" d="M39.9,56.41c0.46,0,0.92-0.2,1.24-0.58c0.34-0.4,0.68-0.8,1.02-1.2c0.59-0.67,0.51-1.69-0.16-2.27
			c-0.67-0.58-1.68-0.51-2.27,0.16c-0.36,0.41-0.72,0.83-1.07,1.25c-0.57,0.68-0.48,1.7,0.2,2.27
			C39.17,56.29,39.54,56.41,39.9,56.41z"/>
		<path class="st18" d="M45.36,50.5c0.41,0,0.82-0.15,1.13-0.46c0.37-0.37,0.75-0.74,1.13-1.1c0.65-0.61,0.67-1.63,0.06-2.28
			c-0.61-0.65-1.63-0.67-2.28-0.06c-0.4,0.38-0.79,0.76-1.18,1.14c-0.63,0.63-0.64,1.65-0.01,2.28
			C44.53,50.34,44.95,50.5,45.36,50.5z"/>
		<path class="st18" d="M35.03,62.83c0.51,0,1.02-0.25,1.33-0.7c0.3-0.43,0.6-0.86,0.9-1.29c0.52-0.72,0.35-1.73-0.37-2.25
			c-0.72-0.52-1.73-0.36-2.25,0.37c-0.32,0.45-0.64,0.9-0.95,1.35c-0.5,0.73-0.31,1.74,0.42,2.24
			C34.4,62.74,34.72,62.83,35.03,62.83z"/>
		<path class="st18" d="M51.36,45.13c0.36,0,0.71-0.12,1.01-0.36c0.41-0.33,0.82-0.66,1.24-0.99c0.7-0.55,0.82-1.56,0.27-2.26
			c-0.55-0.7-1.56-0.82-2.26-0.27c-0.43,0.34-0.86,0.68-1.28,1.02c-0.69,0.56-0.8,1.57-0.24,2.27
			C50.43,44.93,50.89,45.13,51.36,45.13z"/>
		<path class="st18" d="M18.91,101.89c-0.05,0.54-0.1,1.09-0.14,1.63c-0.07,0.89,0.6,1.66,1.48,1.73c0.04,0,0.08,0,0.12,0
			c0.83,0,1.54-0.64,1.6-1.49c0.04-0.53,0.08-1.05,0.13-1.58c0.08-0.89-0.57-1.67-1.45-1.75C19.77,100.34,19,101.01,18.91,101.89z"
			/>
		<path class="st18" d="M24.68,88.23c0.14-0.51,0.29-1.02,0.44-1.52c0.25-0.85-0.24-1.75-1.09-2c-0.85-0.25-1.75,0.24-2,1.09
			c-0.15,0.52-0.3,1.05-0.45,1.57c-0.24,0.86,0.27,1.74,1.12,1.98c0.14,0.04,0.29,0.06,0.43,0.06
			C23.84,89.41,24.48,88.94,24.68,88.23z"/>
		<path class="st18" d="M22.96,95.93c0.09-0.52,0.19-1.04,0.28-1.55c0.17-0.87-0.4-1.72-1.27-1.89c-0.87-0.17-1.72,0.4-1.89,1.27
			c-0.11,0.54-0.2,1.08-0.3,1.62c-0.15,0.88,0.44,1.71,1.31,1.86c0.09,0.02,0.19,0.02,0.28,0.02
			C22.14,97.27,22.82,96.71,22.96,95.93z"/>
	</g>
</g>
<g id="Layer_4">
</g>
</svg>
