<?xml version="1.0" encoding="utf-8"?>
<!-- Generator: Adobe Illustrator 25.2.1, SVG Export Plug-In . SVG Version: 6.00 Build 0)  -->
<svg version="1.1" xmlns="http://www.w3.org/2000/svg" xmlns:xlink="http://www.w3.org/1999/xlink" x="0px" y="0px"
	 viewBox="0 0 209.1 220.7" style="enable-background:new 0 0 209.1 220.7;" xml:space="preserve">
<style type="text/css">
	.st0{fill-rule:evenodd;clip-rule:evenodd;fill:#73B2FF;}
	.st1{fill:none;stroke:#FFFFFF;stroke-width:4;stroke-miterlimit:10;}
	.st2{fill:none;stroke:#FFFFFF;stroke-width:4;stroke-miterlimit:10;stroke-dasharray:3.9414,3.9414;}
	.st3{fill:none;stroke:#FFFFFF;stroke-width:4;stroke-miterlimit:10;stroke-dasharray:4.7138,4.7138;}
	.st4{clip-path:url(#SVGID_2_);}
	.st5{fill:none;stroke:#000000;stroke-miterlimit:10;}
	.st6{fill:none;stroke:#000000;stroke-miterlimit:10;stroke-dasharray:2.0101,2.0101;}
	.st7{fill:none;stroke:#000000;stroke-miterlimit:10;stroke-dasharray:2.0268,2.0268;}
	.st8{clip-path:url(#SVGID_2_);fill:none;stroke:#000000;stroke-width:0.24;stroke-miterlimit:10;}
	.st9{clip-path:url(#SVGID_2_);fill:#FFFFFF;stroke:#000000;stroke-width:0.3;stroke-miterlimit:10;}
	.st10{clip-path:url(#SVGID_2_);fill:none;stroke:#000000;stroke-width:0.125;stroke-miterlimit:10;}
	
		.st11{clip-path:url(#SVGID_2_);fill:none;stroke:#999999;stroke-width:0.1;stroke-linecap:square;stroke-linejoin:bevel;stroke-miterlimit:10;}
	.st12{clip-path:url(#SVGID_2_);fill:#FFFFFF;stroke:#000000;stroke-width:0.25;stroke-miterlimit:10;}
	.st13{clip-path:url(#SVGID_2_);fill:#73B3FF;stroke:#000000;stroke-width:0.5;stroke-miterlimit:10;}
	.st14{fill:#FFFFFF;stroke:#000000;stroke-width:0.25;stroke-miterlimit:10;}
	.st15{fill:#FFFFFF;stroke:#000000;stroke-width:0.3;stroke-miterlimit:10;}
	.st16{clip-path:url(#SVGID_2_);fill:none;stroke:#000000;stroke-miterlimit:10;}
	.st17{clip-path:url(#SVGID_2_);fill:#E4FAFF;}
	.st18{fill:#FFFFFF;}
	.st19{clip-path:url(#SVGID_2_);fill:none;stroke:#000000;stroke-width:3;stroke-miterlimit:10;}
	.st20{fill:#5BA3A5;}
	.st21{fill-rule:evenodd;clip-rule:evenodd;fill:#5BA3A5;}
	.st22{fill:#73B2FF;}
	.st23{fill:none;}
	.st24{fill-rule:evenodd;clip-rule:evenodd;fill:#FFFFFF;}
	.st25{fill:none;stroke:#000000;stroke-width:3.0888;stroke-miterlimit:10;stroke-dasharray:8.6882,8.6882;}
	.st26{clip-path:url(#SVGID_4_);}
	.st27{fill:#1E1E1E;}
	.st28{fill:#666666;}
	.st29{fill:#E0E0E0;}
	.st30{fill:#DADADA;}
	.st31{fill:#8C8C8C;}
	.st32{fill:#B7B7B7;}
	.st33{fill:#878787;}
	.st34{fill:#9B9B9B;}
	.st35{fill:#333333;}
	.st36{fill:#2B2B2B;}
	.st37{fill:#AAAAAA;}
	.st38{fill:#7E7E7E;}
	.st39{fill:#CCCCCC;}
	.st40{fill:#D6D6D6;}
	.st41{fill:#AEAEAE;}
	.st42{fill:#ABABAB;}
	.st43{fill:#474747;}
	.st44{fill:#1C1C1C;}
	.st45{fill:#ECECEC;}
	.st46{fill:#6F6F6F;}
	.st47{fill:#9E9E9E;}
	.st48{fill:#949494;}
	.st49{fill:#9D9D9D;}
	.st50{fill:#747474;}
	.st51{fill:#A7A7A7;}
	.st52{fill:#A5A5A5;}
	.st53{fill:#4B4B4B;}
	.st54{fill:#808080;}
	.st55{fill:#F6F6F6;}
	.st56{fill:#2C2C2C;}
	.st57{fill:#8B8B8B;}
	.st58{fill:#686868;}
	.st59{fill:#D0D0D0;}
	.st60{fill:#616161;}
	.st61{fill:#727272;}
	.st62{fill:#898989;}
	.st63{fill:#B1B1B1;}
	.st64{fill:#D9D9D9;}
	.st65{fill:#252525;}
	.st66{fill:#636363;}
	.st67{fill:#BCBCBC;}
	.st68{fill:#BFBFBF;}
	.st69{fill:#575757;}
	.st70{fill:#E3E3E3;}
	.st71{fill:#C7C7C7;}
	.st72{fill:#5F5F5F;}
	.st73{fill:#EBEBEB;}
	.st74{fill:#8F8F8F;}
	.st75{fill:#909090;}
	.st76{fill:#D2D2D2;}
	.st77{fill:#515151;}
	.st78{fill:#585858;}
	.st79{fill:#696969;}
	.st80{fill:#3C3C3C;}
	.st81{fill:#A8A8A8;}
	.st82{fill:#444444;}
	.st83{fill:#505050;}
	.st84{fill:#4E4E4E;}
	.st85{fill:#C4C4C4;}
	.st86{fill:#BEBEBE;}
	.st87{fill:#A1A1A1;}
	.st88{fill:#929292;}
	.st89{fill:#B8B8B8;}
	.st90{fill:#D4D4D4;}
	.st91{fill:#979797;}
	.st92{fill:#525252;}
	.st93{fill:#969696;}
	.st94{fill:#B0B0B0;}
	.st95{fill:#D3D3D3;}
	.st96{fill:#7A7A7A;}
	.st97{fill:#B4B4B4;}
	.st98{fill:#CFCFCF;}
	.st99{fill:#939393;}
	.st100{fill:#B9B9B9;}
	.st101{fill:#BBBBBB;}
	.st102{fill:#424242;}
	.st103{fill:#D5D5D5;}
	.st104{fill:#C8C8C8;}
	.st105{fill:#CDCDCD;}
	.st106{fill:#989898;}
	.st107{fill:#393939;}
	.st108{fill:#464646;}
	.st109{fill:#5C5C5C;}
	.st110{fill:#BDBDBD;}
	.st111{fill:#858585;}
	.st112{fill:#6E6E6E;}
	.st113{fill:#757575;}
	.st114{fill:#404040;}
	.st115{fill:#7B7B7B;}
	.st116{fill:#787878;}
	.st117{fill:#828282;}
	.st118{fill:#0F0F0F;}
	.st119{fill:#191919;}
	.st120{fill:#101010;}
	.st121{fill:#232323;}
	.st122{fill:#656565;}
	.st123{fill:#2D2D2D;}
	.st124{fill:#5D5D5D;}
	.st125{fill:#2E2E2E;}
	.st126{fill:#4A4A4A;}
	.st127{fill:#494949;}
	.st128{fill:#6A6A6A;}
	.st129{fill:#353535;}
	.st130{fill:#5A5A5A;}
	.st131{fill:#323232;}
	.st132{fill:#050505;}
	.st133{fill:#434343;}
	.st134{fill:#3B3B3B;}
	.st135{fill:#3E3E3E;}
	.st136{fill:#484848;}
	.st137{fill:#555555;}
	.st138{fill:#383838;}
	.st139{fill:#3A3A3A;}
	.st140{fill:#242424;}
	.st141{fill:#767676;}
	.st142{fill:#565656;}
	.st143{fill:#E8E8E8;}
	.st144{fill:#D7D7D7;}
	.st145{fill:#848484;}
	.st146{fill:#DFDFDF;}
	.st147{fill:#B5B5B5;}
	.st148{fill:#8E8E8E;}
	.st149{fill:#C0C0C0;}
	.st150{fill:#7C7C7C;}
	.st151{fill:#737373;}
	.st152{fill:#9C9C9C;}
	.st153{fill:#B3B3B3;}
	.st154{fill:#B2B2B2;}
	.st155{fill:#B6B6B6;}
	.st156{fill:#343434;}
	.st157{fill:#1B1B1B;}
	.st158{fill:#9A9A9A;}
	.st159{fill:#7F7F7F;}
	.st160{fill:#A0A0A0;}
	.st161{fill:#A4A4A4;}
	.st162{fill:#3F3F3F;}
	.st163{fill:#ACACAC;}
	.st164{fill:#868686;}
	.st165{fill:#9F9F9F;}
	.st166{fill:#454545;}
	.st167{fill:#999999;}
	.st168{fill:#626262;}
	.st169{fill:#959595;}
	.st170{fill:#6B6B6B;}
	.st171{fill:#5B5B5B;}
	.st172{fill:#3D3D3D;}
	.st173{fill:#414141;}
	.st174{fill:#888888;}
	.st175{fill:#6C6C6C;}
	.st176{fill:#C5C5C5;}
	.st177{fill:#C1C1C1;}
	.st178{fill:#7D7D7D;}
	.st179{fill:#111111;}
	.st180{fill:#313131;}
	.st181{fill:#2F2F2F;}
	.st182{fill:#707070;}
	.st183{fill:#6D6D6D;}
	.st184{fill:#ADADAD;}
	.st185{fill:#797979;}
	.st186{fill:#717171;}
	.st187{fill:#818181;}
	.st188{fill:#676767;}
	.st189{fill:#131313;}
	.st190{fill:#545454;}
	.st191{fill:#5E5E5E;}
	.st192{fill:#373737;}
	.st193{fill:#646464;}
	.st194{fill:#E5E5E5;}
	.st195{fill:#DCDCDC;}
	.st196{fill:#A6A6A6;}
	.st197{fill:#A2A2A2;}
	.st198{fill:#C9C9C9;}
	.st199{fill:#777777;}
	.st200{fill:#4C4C4C;}
	.st201{fill:#A3A3A3;}
	.st202{fill:#262626;}
	.st203{fill:#C3C3C3;}
	.st204{fill:#CBCBCB;}
	.st205{fill:#070707;}
	.st206{fill:#595959;}
	.st207{fill:#D8D8D8;}
	.st208{fill:#A9A9A9;}
	.st209{fill:#141414;}
	.st210{fill:#838383;}
	.st211{fill:#AFAFAF;}
	.st212{fill:#CECECE;}
	.st213{fill:#919191;}
	.st214{fill:#8A8A8A;}
	.st215{fill:#212121;}
	.st216{fill:#FEFEFE;}
	.st217{fill:#DBDBDB;}
	.st218{fill:none;stroke:#FFFFFF;stroke-width:2;stroke-miterlimit:10;}
	.st219{fill:none;stroke:#FFFFFF;stroke-width:2;stroke-miterlimit:10;stroke-dasharray:3.9752,3.9752;}
	.st220{clip-path:url(#SVGID_6_);}
	.st221{fill:none;stroke:#000000;stroke-miterlimit:10;stroke-dasharray:1.9951,1.9951;}
	.st222{fill:none;stroke:#000000;stroke-miterlimit:10;stroke-dasharray:2.0116,2.0116;}
	.st223{clip-path:url(#SVGID_6_);fill:none;stroke:#000000;stroke-width:0.24;stroke-miterlimit:10;}
	.st224{fill:none;stroke:#B1E0B7;stroke-width:0.5;stroke-miterlimit:10;}
	.st225{fill:none;stroke:#B1E0B7;stroke-width:0.5;stroke-miterlimit:10;stroke-dasharray:2.0468,2.0468;}
	.st226{fill:none;stroke:#B1E0B7;stroke-width:0.5;stroke-miterlimit:10;stroke-dasharray:1.9818,1.9818;}
	.st227{fill:none;stroke:#B1E0B7;stroke-width:0.5;stroke-miterlimit:10;stroke-dasharray:2.0095,2.0095;}
	.st228{fill:none;stroke:#B1E0B7;stroke-width:0.5;stroke-miterlimit:10;stroke-dasharray:1.9699,1.9699;}
	.st229{fill:none;stroke:#E0B0E2;stroke-width:0.5;stroke-miterlimit:10;}
	.st230{fill:none;stroke:#E0B0E2;stroke-width:0.5;stroke-miterlimit:10;stroke-dasharray:2.0318,2.0318;}
	.st231{fill:none;stroke:#E0B0E2;stroke-width:0.5;stroke-miterlimit:10;stroke-dasharray:1.9953,1.9953;}
	.st232{fill:none;stroke:#E0B0E2;stroke-width:0.5;stroke-miterlimit:10;stroke-dasharray:1.9958,1.9958;}
	.st233{fill:none;stroke:#E0B0E2;stroke-width:0.5;stroke-miterlimit:10;stroke-dasharray:2.0663,2.0663;}
	.st234{fill:none;stroke:#E0B0E2;stroke-width:0.5;stroke-miterlimit:10;stroke-dasharray:2.2215,2.2215;}
	.st235{fill:none;stroke:#E0B0E2;stroke-width:0.5;stroke-miterlimit:10;stroke-dasharray:2.052,2.052;}
	.st236{clip-path:url(#SVGID_6_);fill:#FFFFFF;stroke:#000000;stroke-width:0.3;stroke-miterlimit:10;}
	.st237{clip-path:url(#SVGID_6_);fill:none;stroke:#000000;stroke-width:0.125;stroke-miterlimit:10;}
	
		.st238{clip-path:url(#SVGID_6_);fill:none;stroke:#999999;stroke-width:0.1;stroke-linecap:square;stroke-linejoin:bevel;stroke-miterlimit:10;}
	.st239{clip-path:url(#SVGID_6_);fill:#FFFFFF;stroke:#000000;stroke-width:0.25;stroke-miterlimit:10;}
	.st240{clip-path:url(#SVGID_6_);fill:#73B3FF;stroke:#000000;stroke-width:0.5;stroke-miterlimit:10;}
	.st241{clip-path:url(#SVGID_6_);fill:none;stroke:#000000;stroke-miterlimit:10;}
	.st242{clip-path:url(#SVGID_6_);fill:#E4FAFF;}
	.st243{clip-path:url(#SVGID_6_);fill:#73B3FF;stroke:#FF0000;stroke-miterlimit:10;}
	.st244{clip-path:url(#SVGID_6_);fill:none;stroke:#FF0000;stroke-miterlimit:10;}
	.st245{fill:#FFFFFF;stroke:#FF0000;stroke-miterlimit:10;}
	.st246{clip-path:url(#SVGID_6_);fill:none;stroke:#000000;stroke-width:3;stroke-miterlimit:10;}
	.st247{clip-path:url(#SVGID_26_);}
	.st248{clip-path:url(#SVGID_26_);fill:none;stroke:#000000;stroke-width:0.24;stroke-miterlimit:10;}
	.st249{clip-path:url(#SVGID_26_);fill:#FFFFFF;stroke:#000000;stroke-width:0.3;stroke-miterlimit:10;}
	.st250{clip-path:url(#SVGID_26_);fill:none;stroke:#000000;stroke-width:0.125;stroke-miterlimit:10;}
	
		.st251{clip-path:url(#SVGID_26_);fill:none;stroke:#999999;stroke-width:0.1;stroke-linecap:square;stroke-linejoin:bevel;stroke-miterlimit:10;}
	.st252{clip-path:url(#SVGID_26_);fill:#FFFFFF;stroke:#000000;stroke-width:0.25;stroke-miterlimit:10;}
	.st253{clip-path:url(#SVGID_26_);fill:#73B3FF;stroke:#000000;stroke-width:0.5;stroke-miterlimit:10;}
	.st254{clip-path:url(#SVGID_26_);fill:none;stroke:#000000;stroke-miterlimit:10;}
	.st255{clip-path:url(#SVGID_26_);fill:#E4FAFF;}
	.st256{clip-path:url(#SVGID_26_);fill:none;stroke:#000000;stroke-width:3;stroke-miterlimit:10;}
	.st257{fill-rule:evenodd;clip-rule:evenodd;fill:#FFFFFF;stroke:#5BA3A5;stroke-width:1.5;stroke-miterlimit:10;}
</style>
<g id="color">
</g>
<g id="map">
</g>
<g id="Layer_1">
	<g transform="matrix(1,0,0,1,-5.57067,-2.5)">
		<g transform="matrix(1.05972,0,0,1.05972,20.8601,-8.21132)">
			<g transform="matrix(1.14022,0,0,1.14022,-28.857,-5.61308)">
				<path class="st257" d="M70.8,138.78c0,0,7.86,0.26,9.63,0.58c2.05,0.36,4.96,0.63,8.27,2.37c0.37,0.19,2.82,2.06,3.67,4.47
					c0.9,2.55-0.62,7.91-2.05,14.27c-0.99,4.37-2.47,12.01-3.48,12.98c-3.16,3.01-7.54,6.28-14.47,6.07
					c-9.57-0.28-12.98-1.66-16.27-6.09c-0.91-1.23-3.38-11.67-4.77-19.46c-1.16-6.5-0.48-8.82,0.1-9.64
					c1.39-1.99,4.58-3.58,5.76-3.95c0.94-0.29,6.17-1.16,7.16-1.27C66.26,138.9,70.8,138.78,70.8,138.78z M161.86,114.77
					c-2.54,4.07-9.06,5.57-11.95,5.47c-6.14-0.22-13.75-5.31-14.28-13.99c-0.41-6.78,4.94-15.41,14.5-15.78
					c5.12-0.19,9.51,3.07,9.51,3.07l-4.14-19.54c-0.51,0.14-2.22,0.31-2.99,0.24c-2.74-0.24-4.05-3.38-4.36-4.63
					c-0.29-1.19-0.54-2.31,0.89-3.57c1.06-0.92,5.36-2.45,5.36-2.45c0.37-0.09,1.57-0.22,2.13-0.07c0.52,0.14,1.22,0.62,1.55,0.92
					c0.99,0.9,1.79,3.55,1.85,3.78c0.08,0.32,1.22,4.84,1.61,6.36c1.15,4.5,4.35,15.41,6.59,25.24c2.31,10.1,3.65,19.08,3.65,19.08
					s0.78,5.77,0.92,7.32l0.01,0.05c0.19,2.16,0.24,4.48,0.19,6.21c-0.05,1.4-1.22,7.5-2.05,10.99c-0.8,3.35-3.84,13.43-4.37,14.17
					c-0.53,0.75-4.48,3.34-6.33,4.13l-0.01,0.01c-0.84,0.36-3.77,1.79-8.07,1.81c-5.59,0.03-8.06-1.5-9.61-2.16
					c0,0-5.06-2.65-5.79-3.56c-0.41-0.52-0.45-1.06-0.58-1.9c0,0-1.69,9.02-2.96,11.48c-0.87,1.69-9.9,6.09-14,6.04
					c-4.58-0.05-8.83-1.49-11.62-2.5c-1.95-0.71-4.06-1.76-5.11-3.54c-1.22-2.07-1.47-5.91-2.2-8.85
					c-0.95-3.23-3.88-12.25-3.5-17.48c0.22-2.95,3.07-4.85,3.44-5.12c2.19-1.65,4.95-1.96,7.54-2.46c2.79-0.54,6.13-0.75,9.22-0.76
					c0.43,0,6.85,0.14,9.82,0.58c0.38,0.06,3.71,0.62,4.05,0.69c-0.07-1.07,0.03-2.14,0.23-3.19c0.37-2.06,1.8-3.58,2.56-4.29
					c1.21-1.14,2.83-1.72,4.39-2.24c3.23-1.09,10.05-1.6,12.64-1.56c4.71,0.08,10.7,1.09,11.35,1.19L161.86,114.77L161.86,114.77z
					 M47.74,128.18c0.24,0,6.94,0.35,8,0.5c0.83,1.5,1.89,2.88,3.14,4.06c1.52,1.45,3.32,2.62,5.27,3.42
					c0.8,0.33,1.63,0.59,2.48,0.79c-0.21,0.01-5.16,0.59-5.53,0.65c-1.28,0.17-2.56,0.38-3.8,0.71c-1.25,0.34-4.29,0.9-6.88,4.15
					c-0.74,0.94-1.67,2.16-1.94,4.45c-0.55,4.75,2.76,15.11,3.37,17.56c-0.19,0.05-6.35,0.22-8.73-0.14
					c-9.53-1.43-9.09-4.3-9.25-4.86c-1.38-4.82-4.63-16.95-4.94-21.7c-0.14-2.04,0.45-5.25,3.05-6.82c2.02-1.22,5.58-1.85,7.99-2.16
					C42.45,128.49,47.34,128.18,47.74,128.18z M92.32,160.14c0,0,1.97-8.17,2.08-9.15c0.4-3.49-0.05-6.1-1.15-7.59
					c-0.47-0.63-2.46-3.61-6.92-4.89c-2.79-0.8-10.71-1.61-11.56-1.65c1.67,0.07,5.89-2.67,7.41-4.13c1.47-1.4,2.69-3.07,3.57-4.9
					c0.66-1.37,1.13-2.82,1.4-4.32c1.38-0.12,6.66-0.2,7.08-0.2c1.04,0.02,8.84,0.96,8.84,0.96c1.14,1.6,2.64,2.88,4.17,4.12
					c1.89,1.53,5.46,2.49,5.7,2.54c-1.47,0.1-8.24,1.06-9.56,1.43c-1.3,0.37-4.39,1.72-5.83,3.27c-1.59,1.71-2.43,3.31-2.63,4.42
					c-0.43,2.35,0,5.69,0.44,7.33c0.05,0.18,3,11.76,3,11.76C97.96,159.28,92.32,160.14,92.32,160.14z M70.09,105.83
					c7.92,0.06,15.36,5.95,15.36,14.4c0.01,7.99-6.27,15.32-14.92,15.22c-7.41-0.08-15.06-6.18-15.05-14.49
					C55.49,114.41,60.48,105.76,70.09,105.83z M133.07,109.82c0.28,0.97,1.1,4.16,0.32,8.1c-0.36,1.83-1.2,3.5-2,5.18
					c-2.41,5.02-8.65,7.33-10.3,7.77c0.49,0.02,7.8,0.84,7.8,0.84c0.02-0.15,0.18-2.68,2.13-5.3c1.2-1.62,3.42-3.29,6.42-3.98
					c2.72-0.62,6.78-1.09,7.53-1.15l0.02,0c-0.22-0.07-4.19-1.24-6.65-4.1c-2.84-3.29-4.15-6.92-4.26-7.32
					C133.74,109.85,133.41,109.83,133.07,109.82z M116.32,99.74c9.19-0.01,15.38,6.79,15.49,14.15c0.12,8.31-5.4,15.56-14.97,15.56
					c-9.58,0-15-9.08-14.91-14.54C102.06,107.7,107.36,99.75,116.32,99.74z M45.9,98.26c7.35-0.7,12.02,5.23,13.15,7.58
					c0.27,0.55,0.5,1.13,0.68,1.71c-0.95,1.28-3.18,3.02-4.88,7.12c-1.13,2.72-1.21,7.31-0.99,8.56c-0.65,0.39-1.32,0.73-2.03,1
					c-1.21,0.48-3.1,0.94-4.7,0.93c-3.14-0.02-6.45-0.39-9.55-3.26c-2.92-2.69-4.07-5.34-4.6-9.31
					C32.54,109.17,34.81,99.31,45.9,98.26z M100.67,119.38c-0.98,0.7-2.04,1.29-3.16,1.75c-0.29,0.12-0.59,0.23-0.89,0.33
					c1.71,0.1,3.41,0.29,5.1,0.58C101.3,121.18,100.94,120.3,100.67,119.38z M78.26,105.5c0.05-0.47,0.71-7.15,6.88-10.41
					c5.33-2.82,10.96-2.23,15.54,1.68c2.77,2.36,3.71,5.48,3.91,6.14c-1.2,1.27-2.2,2.72-2.96,4.29c-0.78,1.63-1.3,3.38-1.53,5.17
					c-0.21,1.63-0.18,3.29,0.09,4.91c-1.07,0.87-3.64,2.42-6.29,2.88c-3.08,0.54-6.49-0.55-6.49-0.55l-0.01,0
					c-0.04-0.7-1.02-5.18-1.73-6.6C84.06,109.81,81.44,107.15,78.26,105.5z M118.92,85.53c5.42-6.87,14.17-6.79,19.29-2.61
					c2.93,2.4,4.49,6.23,4.71,7.12l-0.04,0.02c-0.5,0.25-4.57,3.22-5.82,4.73c-4.19,5.03-3.6,11.07-3.58,11.49
					c-0.55,0.15-1.12,0.27-1.69,0.36c-0.79-1.49-1.8-2.87-3-4.06c-1.49-1.49-3.25-2.69-5.18-3.54c-2.06-0.9-4.29-1.38-6.54-1.41
					h-0.01C116.91,97.21,114.56,91.06,118.92,85.53z M59.23,57.08c1.13-2.25,4.85-3.62,6.53-2.93c1.79,0.74,2.69,4.08,2.69,4.08
					c0.02,0.07,6.58,25.63,6.58,25.63s2.86,15.98,2.8,16.11c-0.65,1.3-1.11,2.7-1.37,4.13c-0.04,0.19-0.06,0.39-0.09,0.58
					c-1.06-0.39-2.16-0.68-3.28-0.85c-0.78-0.12-4.36-0.12-5.14,0c-1.58,0.24-3.12,0.71-4.57,1.38c-0.65,0.3-1.27,0.65-1.87,1.03
					c0,0-0.55-0.93-0.79-1.42c-0.53-1.06-1.18-2.06-1.93-2.97c0,0,1.84-0.1,2.76-0.13c2.66-0.09,7.86,0.8,8.39,0.88l-0.08-7.41
					c-0.33,0.4-3.19,4.31-9.32,4.41c-6.18,0.1-11.8-5.41-11.81-12.19c-0.01-5.7,4.79-11.75,11.69-11.97
					c4.29-0.14,7.65,2.62,7.65,2.62s-2.96-14.01-3.34-15.77c-0.45,0.12-1.41,0.67-2.25,0.31C61.11,62.01,58.06,59.4,59.23,57.08z
					 M110.79,98.76c-1.34-0.12-5.78-0.2-6.08-0.2c0.29,0.45,1.25,2.39,1.44,2.9C107.45,100.39,110.68,98.8,110.79,98.76z
					 M75.42,77.48c0.11-0.02,6.08-0.71,8.66-0.76c2.29-0.04,7.11,0.51,7.11,0.51c-0.44,1.05-0.75,2.14-0.94,3.26
					c-0.26,1.54-0.27,3.12-0.03,4.67c0.23,1.5,0.69,2.96,1.37,4.31c0.34,0.68,0.73,1.33,1.17,1.95c-0.29-0.02-2.7,0.03-3.42,0.14
					c-1.44,0.22-2.85,0.65-4.18,1.27c-2.14,1-4.03,2.5-5.51,4.33C79.03,93.31,75.93,79.45,75.42,77.48z M92.07,83.39
					c0.01-5.06,3.69-13.32,13.2-13.18c8.83,0.13,11.84,8.31,12.16,10.61c0.14,1.03,0.22,2.08,0.13,3.12
					c-0.6,0.78-1.13,1.62-1.57,2.51c-0.65,1.3-1.11,2.7-1.37,4.13c-0.04,0.22-0.07,0.43-0.1,0.65c0,0-2.3,2.46-4.43,3.33
					c-3.58,1.47-7.61,0.94-8.03,0.85c-1.15-1.04-2.45-1.92-3.86-2.58c-0.8-0.37-1.64-0.68-2.49-0.91
					C94.67,90.88,92.06,87.68,92.07,83.39z M140.4,82.06c1.33,1.25,2.44,2.74,3.26,4.38c0.45,0.91,0.81,1.86,1.08,2.84
					c0.52-0.18,1.05-0.34,1.59-0.47c1.38-0.34,2.81-0.5,4.24-0.48c0-0.03,0.04-2.07-0.61-2.81c-0.17-0.19-0.92-1.07-1.86-1.65
					C145.53,82.32,140.99,82.12,140.4,82.06z M110.48,31.71c0,0-1.86,0.34-2.63-0.09c-1.47-0.81-2.34-2.16-2.2-3.38
					c0.33-2.73,3.95-2.97,5.98-2.51c1.58,0.36,1.77,2.78,1.77,2.78c0.22,0.97,7.21,29.94,7.57,32.79c0.33,2.66,0.61,6.96,0.5,8.03
					c-0.26,2.59-1.96,9.02-2.31,10.2c-0.27-1.15-0.69-2.27-1.22-3.32c-1.91-3.74-6.4-7.26-10.9-7.86c-0.68-0.09-4.17,0.01-4.85,0.06
					c-3.71,0.28-6.1,2.55-7.03,3.36c-0.12-0.4-0.38-2.56-0.38-2.56l0,0c0.35-0.9,0.59-1.84,0.69-2.8c0,0,1.92-1.83,3.88-2.77
					c1.07-0.51,4.81-0.83,7.24-0.87c2.54-0.04,7.41,0.55,7.98,0.64l-0.06-5.82c-0.58,0.69-2.41,3.22-7.41,3.45
					c-5,0.23-9.23-4.89-9.24-8.74c-0.01-3.13,1.27-9.66,8.86-10.06c3.3-0.17,6.38,1.88,6.38,1.88
					C112.52,41.37,110.78,33.1,110.48,31.71z M134.53,56.56c7.51,0.09,11.67,6.29,11.58,10.64c-0.12,5.97-4.4,11.07-11.16,11.23
					c-6.16,0.15-11.46-4.91-11.58-10.42C123.2,60.65,129.97,56.51,134.53,56.56z M75.42,77.48L75.42,77.48L75.42,77.48L75.42,77.48
					L75.42,77.48z M91.18,77.23L91.18,77.23L91.18,77.23z M83.59,56.02c6.49-0.08,9.66,5.35,9.8,9.24c0.18,5.09-4.48,9.28-9.48,9.39
					c-6.09,0.13-10.1-4.67-10.21-8.85C73.54,59.64,78.88,56.07,83.59,56.02z"/>
			</g>
		</g>
	</g>
</g>
<g id="Layer_4">
</g>
</svg>
