<?xml version="1.0" encoding="utf-8"?>
<!-- Generator: Adobe Illustrator 25.2.1, SVG Export Plug-In . SVG Version: 6.00 Build 0)  -->
<svg version="1.1" xmlns="http://www.w3.org/2000/svg" xmlns:xlink="http://www.w3.org/1999/xlink" x="0px" y="0px"
	 viewBox="0 0 185.65 197.94" style="enable-background:new 0 0 185.65 197.94;" xml:space="preserve">
<style type="text/css">
	.st0{fill-rule:evenodd;clip-rule:evenodd;fill:#73B2FF;}
	.st1{fill:none;stroke:#FFFFFF;stroke-width:4;stroke-miterlimit:10;}
	.st2{fill:none;stroke:#FFFFFF;stroke-width:4;stroke-miterlimit:10;stroke-dasharray:3.9414,3.9414;}
	.st3{fill:none;stroke:#FFFFFF;stroke-width:4;stroke-miterlimit:10;stroke-dasharray:4.7138,4.7138;}
	.st4{clip-path:url(#SVGID_2_);}
	.st5{fill:none;stroke:#000000;stroke-miterlimit:10;}
	.st6{fill:none;stroke:#000000;stroke-miterlimit:10;stroke-dasharray:2.0101,2.0101;}
	.st7{fill:none;stroke:#000000;stroke-miterlimit:10;stroke-dasharray:2.0268,2.0268;}
	.st8{clip-path:url(#SVGID_2_);fill:none;stroke:#000000;stroke-width:0.24;stroke-miterlimit:10;}
	.st9{clip-path:url(#SVGID_2_);fill:#FFFFFF;stroke:#000000;stroke-width:0.3;stroke-miterlimit:10;}
	.st10{clip-path:url(#SVGID_2_);fill:none;stroke:#000000;stroke-width:0.125;stroke-miterlimit:10;}
	
		.st11{clip-path:url(#SVGID_2_);fill:none;stroke:#999999;stroke-width:0.1;stroke-linecap:square;stroke-linejoin:bevel;stroke-miterlimit:10;}
	.st12{clip-path:url(#SVGID_2_);fill:#FFFFFF;stroke:#000000;stroke-width:0.25;stroke-miterlimit:10;}
	.st13{clip-path:url(#SVGID_2_);fill:#73B3FF;stroke:#000000;stroke-width:0.5;stroke-miterlimit:10;}
	.st14{fill:#FFFFFF;stroke:#000000;stroke-width:0.25;stroke-miterlimit:10;}
	.st15{fill:#FFFFFF;stroke:#000000;stroke-width:0.3;stroke-miterlimit:10;}
	.st16{clip-path:url(#SVGID_2_);fill:none;stroke:#000000;stroke-miterlimit:10;}
	.st17{clip-path:url(#SVGID_2_);fill:#E4FAFF;}
	.st18{fill:#FFFFFF;}
	.st19{clip-path:url(#SVGID_2_);fill:none;stroke:#000000;stroke-width:3;stroke-miterlimit:10;}
	.st20{fill:#5BA3A5;}
	.st21{fill-rule:evenodd;clip-rule:evenodd;fill:#5BA3A5;}
	.st22{fill:#73B2FF;}
	.st23{fill:none;}
	.st24{fill-rule:evenodd;clip-rule:evenodd;fill:#FFFFFF;}
	.st25{fill:none;stroke:#000000;stroke-width:3.0888;stroke-miterlimit:10;stroke-dasharray:8.6882,8.6882;}
	.st26{clip-path:url(#SVGID_4_);}
	.st27{fill:#1E1E1E;}
	.st28{fill:#666666;}
	.st29{fill:#E0E0E0;}
	.st30{fill:#DADADA;}
	.st31{fill:#8C8C8C;}
	.st32{fill:#B7B7B7;}
	.st33{fill:#878787;}
	.st34{fill:#9B9B9B;}
	.st35{fill:#333333;}
	.st36{fill:#2B2B2B;}
	.st37{fill:#AAAAAA;}
	.st38{fill:#7E7E7E;}
	.st39{fill:#CCCCCC;}
	.st40{fill:#D6D6D6;}
	.st41{fill:#AEAEAE;}
	.st42{fill:#ABABAB;}
	.st43{fill:#474747;}
	.st44{fill:#1C1C1C;}
	.st45{fill:#ECECEC;}
	.st46{fill:#6F6F6F;}
	.st47{fill:#9E9E9E;}
	.st48{fill:#949494;}
	.st49{fill:#9D9D9D;}
	.st50{fill:#747474;}
	.st51{fill:#A7A7A7;}
	.st52{fill:#A5A5A5;}
	.st53{fill:#4B4B4B;}
	.st54{fill:#808080;}
	.st55{fill:#F6F6F6;}
	.st56{fill:#2C2C2C;}
	.st57{fill:#8B8B8B;}
	.st58{fill:#686868;}
	.st59{fill:#D0D0D0;}
	.st60{fill:#616161;}
	.st61{fill:#727272;}
	.st62{fill:#898989;}
	.st63{fill:#B1B1B1;}
	.st64{fill:#D9D9D9;}
	.st65{fill:#252525;}
	.st66{fill:#636363;}
	.st67{fill:#BCBCBC;}
	.st68{fill:#BFBFBF;}
	.st69{fill:#575757;}
	.st70{fill:#E3E3E3;}
	.st71{fill:#C7C7C7;}
	.st72{fill:#5F5F5F;}
	.st73{fill:#EBEBEB;}
	.st74{fill:#8F8F8F;}
	.st75{fill:#909090;}
	.st76{fill:#D2D2D2;}
	.st77{fill:#515151;}
	.st78{fill:#585858;}
	.st79{fill:#696969;}
	.st80{fill:#3C3C3C;}
	.st81{fill:#A8A8A8;}
	.st82{fill:#444444;}
	.st83{fill:#505050;}
	.st84{fill:#4E4E4E;}
	.st85{fill:#C4C4C4;}
	.st86{fill:#BEBEBE;}
	.st87{fill:#A1A1A1;}
	.st88{fill:#929292;}
	.st89{fill:#B8B8B8;}
	.st90{fill:#D4D4D4;}
	.st91{fill:#979797;}
	.st92{fill:#525252;}
	.st93{fill:#969696;}
	.st94{fill:#B0B0B0;}
	.st95{fill:#D3D3D3;}
	.st96{fill:#7A7A7A;}
	.st97{fill:#B4B4B4;}
	.st98{fill:#CFCFCF;}
	.st99{fill:#939393;}
	.st100{fill:#B9B9B9;}
	.st101{fill:#BBBBBB;}
	.st102{fill:#424242;}
	.st103{fill:#D5D5D5;}
	.st104{fill:#C8C8C8;}
	.st105{fill:#CDCDCD;}
	.st106{fill:#989898;}
	.st107{fill:#393939;}
	.st108{fill:#464646;}
	.st109{fill:#5C5C5C;}
	.st110{fill:#BDBDBD;}
	.st111{fill:#858585;}
	.st112{fill:#6E6E6E;}
	.st113{fill:#757575;}
	.st114{fill:#404040;}
	.st115{fill:#7B7B7B;}
	.st116{fill:#787878;}
	.st117{fill:#828282;}
	.st118{fill:#0F0F0F;}
	.st119{fill:#191919;}
	.st120{fill:#101010;}
	.st121{fill:#232323;}
	.st122{fill:#656565;}
	.st123{fill:#2D2D2D;}
	.st124{fill:#5D5D5D;}
	.st125{fill:#2E2E2E;}
	.st126{fill:#4A4A4A;}
	.st127{fill:#494949;}
	.st128{fill:#6A6A6A;}
	.st129{fill:#353535;}
	.st130{fill:#5A5A5A;}
	.st131{fill:#323232;}
	.st132{fill:#050505;}
	.st133{fill:#434343;}
	.st134{fill:#3B3B3B;}
	.st135{fill:#3E3E3E;}
	.st136{fill:#484848;}
	.st137{fill:#555555;}
	.st138{fill:#383838;}
	.st139{fill:#3A3A3A;}
	.st140{fill:#242424;}
	.st141{fill:#767676;}
	.st142{fill:#565656;}
	.st143{fill:#E8E8E8;}
	.st144{fill:#D7D7D7;}
	.st145{fill:#848484;}
	.st146{fill:#DFDFDF;}
	.st147{fill:#B5B5B5;}
	.st148{fill:#8E8E8E;}
	.st149{fill:#C0C0C0;}
	.st150{fill:#7C7C7C;}
	.st151{fill:#737373;}
	.st152{fill:#9C9C9C;}
	.st153{fill:#B3B3B3;}
	.st154{fill:#B2B2B2;}
	.st155{fill:#B6B6B6;}
	.st156{fill:#343434;}
	.st157{fill:#1B1B1B;}
	.st158{fill:#9A9A9A;}
	.st159{fill:#7F7F7F;}
	.st160{fill:#A0A0A0;}
	.st161{fill:#A4A4A4;}
	.st162{fill:#3F3F3F;}
	.st163{fill:#ACACAC;}
	.st164{fill:#868686;}
	.st165{fill:#9F9F9F;}
	.st166{fill:#454545;}
	.st167{fill:#999999;}
	.st168{fill:#626262;}
	.st169{fill:#959595;}
	.st170{fill:#6B6B6B;}
	.st171{fill:#5B5B5B;}
	.st172{fill:#3D3D3D;}
	.st173{fill:#414141;}
	.st174{fill:#888888;}
	.st175{fill:#6C6C6C;}
	.st176{fill:#C5C5C5;}
	.st177{fill:#C1C1C1;}
	.st178{fill:#7D7D7D;}
	.st179{fill:#111111;}
	.st180{fill:#313131;}
	.st181{fill:#2F2F2F;}
	.st182{fill:#707070;}
	.st183{fill:#6D6D6D;}
	.st184{fill:#ADADAD;}
	.st185{fill:#797979;}
	.st186{fill:#717171;}
	.st187{fill:#818181;}
	.st188{fill:#676767;}
	.st189{fill:#131313;}
	.st190{fill:#545454;}
	.st191{fill:#5E5E5E;}
	.st192{fill:#373737;}
	.st193{fill:#646464;}
	.st194{fill:#E5E5E5;}
	.st195{fill:#DCDCDC;}
	.st196{fill:#A6A6A6;}
	.st197{fill:#A2A2A2;}
	.st198{fill:#C9C9C9;}
	.st199{fill:#777777;}
	.st200{fill:#4C4C4C;}
	.st201{fill:#A3A3A3;}
	.st202{fill:#262626;}
	.st203{fill:#C3C3C3;}
	.st204{fill:#CBCBCB;}
	.st205{fill:#070707;}
	.st206{fill:#595959;}
	.st207{fill:#D8D8D8;}
	.st208{fill:#A9A9A9;}
	.st209{fill:#141414;}
	.st210{fill:#838383;}
	.st211{fill:#AFAFAF;}
	.st212{fill:#CECECE;}
	.st213{fill:#919191;}
	.st214{fill:#8A8A8A;}
	.st215{fill:#212121;}
	.st216{fill:#FEFEFE;}
	.st217{fill:#DBDBDB;}
	.st218{fill:none;stroke:#FFFFFF;stroke-width:2;stroke-miterlimit:10;}
	.st219{fill:none;stroke:#FFFFFF;stroke-width:2;stroke-miterlimit:10;stroke-dasharray:3.9752,3.9752;}
	.st220{clip-path:url(#SVGID_6_);}
	.st221{fill:none;stroke:#000000;stroke-miterlimit:10;stroke-dasharray:1.9951,1.9951;}
	.st222{fill:none;stroke:#000000;stroke-miterlimit:10;stroke-dasharray:2.0116,2.0116;}
	.st223{clip-path:url(#SVGID_6_);fill:none;stroke:#000000;stroke-width:0.24;stroke-miterlimit:10;}
	.st224{fill:none;stroke:#B1E0B7;stroke-width:0.5;stroke-miterlimit:10;}
	.st225{fill:none;stroke:#B1E0B7;stroke-width:0.5;stroke-miterlimit:10;stroke-dasharray:2.0468,2.0468;}
	.st226{fill:none;stroke:#B1E0B7;stroke-width:0.5;stroke-miterlimit:10;stroke-dasharray:1.9818,1.9818;}
	.st227{fill:none;stroke:#B1E0B7;stroke-width:0.5;stroke-miterlimit:10;stroke-dasharray:2.0095,2.0095;}
	.st228{fill:none;stroke:#B1E0B7;stroke-width:0.5;stroke-miterlimit:10;stroke-dasharray:1.9699,1.9699;}
	.st229{fill:none;stroke:#E0B0E2;stroke-width:0.5;stroke-miterlimit:10;}
	.st230{fill:none;stroke:#E0B0E2;stroke-width:0.5;stroke-miterlimit:10;stroke-dasharray:2.0318,2.0318;}
	.st231{fill:none;stroke:#E0B0E2;stroke-width:0.5;stroke-miterlimit:10;stroke-dasharray:1.9953,1.9953;}
	.st232{fill:none;stroke:#E0B0E2;stroke-width:0.5;stroke-miterlimit:10;stroke-dasharray:1.9958,1.9958;}
	.st233{fill:none;stroke:#E0B0E2;stroke-width:0.5;stroke-miterlimit:10;stroke-dasharray:2.0663,2.0663;}
	.st234{fill:none;stroke:#E0B0E2;stroke-width:0.5;stroke-miterlimit:10;stroke-dasharray:2.2215,2.2215;}
	.st235{fill:none;stroke:#E0B0E2;stroke-width:0.5;stroke-miterlimit:10;stroke-dasharray:2.052,2.052;}
	.st236{clip-path:url(#SVGID_6_);fill:#FFFFFF;stroke:#000000;stroke-width:0.3;stroke-miterlimit:10;}
	.st237{clip-path:url(#SVGID_6_);fill:none;stroke:#000000;stroke-width:0.125;stroke-miterlimit:10;}
	
		.st238{clip-path:url(#SVGID_6_);fill:none;stroke:#999999;stroke-width:0.1;stroke-linecap:square;stroke-linejoin:bevel;stroke-miterlimit:10;}
	.st239{clip-path:url(#SVGID_6_);fill:#FFFFFF;stroke:#000000;stroke-width:0.25;stroke-miterlimit:10;}
	.st240{clip-path:url(#SVGID_6_);fill:#73B3FF;stroke:#000000;stroke-width:0.5;stroke-miterlimit:10;}
	.st241{clip-path:url(#SVGID_6_);fill:none;stroke:#000000;stroke-miterlimit:10;}
	.st242{clip-path:url(#SVGID_6_);fill:#E4FAFF;}
	.st243{clip-path:url(#SVGID_6_);fill:#73B3FF;stroke:#FF0000;stroke-miterlimit:10;}
	.st244{clip-path:url(#SVGID_6_);fill:none;stroke:#FF0000;stroke-miterlimit:10;}
	.st245{fill:#FFFFFF;stroke:#FF0000;stroke-miterlimit:10;}
	.st246{clip-path:url(#SVGID_6_);fill:none;stroke:#000000;stroke-width:3;stroke-miterlimit:10;}
	.st247{clip-path:url(#SVGID_26_);}
	.st248{clip-path:url(#SVGID_26_);fill:none;stroke:#000000;stroke-width:0.24;stroke-miterlimit:10;}
	.st249{clip-path:url(#SVGID_26_);fill:#FFFFFF;stroke:#000000;stroke-width:0.3;stroke-miterlimit:10;}
	.st250{clip-path:url(#SVGID_26_);fill:none;stroke:#000000;stroke-width:0.125;stroke-miterlimit:10;}
	
		.st251{clip-path:url(#SVGID_26_);fill:none;stroke:#999999;stroke-width:0.1;stroke-linecap:square;stroke-linejoin:bevel;stroke-miterlimit:10;}
	.st252{clip-path:url(#SVGID_26_);fill:#FFFFFF;stroke:#000000;stroke-width:0.25;stroke-miterlimit:10;}
	.st253{clip-path:url(#SVGID_26_);fill:#73B3FF;stroke:#000000;stroke-width:0.5;stroke-miterlimit:10;}
	.st254{clip-path:url(#SVGID_26_);fill:none;stroke:#000000;stroke-miterlimit:10;}
	.st255{clip-path:url(#SVGID_26_);fill:#E4FAFF;}
	.st256{clip-path:url(#SVGID_26_);fill:none;stroke:#000000;stroke-width:3;stroke-miterlimit:10;}
	.st257{fill-rule:evenodd;clip-rule:evenodd;fill:#FFFFFF;stroke:#5BA3A5;stroke-width:1.5;stroke-miterlimit:10;}
</style>
<g id="color">
</g>
<g id="map">
</g>
<g id="Layer_1">
	<g>
		<defs>
			<rect id="SVGID_5_" y="-1291.12" width="1478.45" height="942.29"/>
		</defs>
		<clipPath id="SVGID_2_">
			<use xlink:href="#SVGID_5_"  style="overflow:visible;"/>
		</clipPath>
		<polyline class="st10" points="295.73,287.07 332.77,268.31 336.26,266.58 348.18,260.56 413.74,227.2 429.14,219.21 
			431.23,218.16 432.04,217.7 432.74,217.12 433.32,216.32 433.9,215.5 434.25,214.69 434.47,213.76 434.6,212.83 434.47,211.9 
			434.35,210.99 434.02,210.06 433.54,209.24 427.86,198.24 408.31,159.56 390.81,125.15 371.93,88.33 371.71,87.75 371.45,87.27 
			370.88,86.47 370.07,85.66 369.27,85.09 368.34,84.5 367.28,84.03 366.25,83.8 365.22,83.69 364.39,83.69 364.16,83.8 
			363.13,83.92 362.08,84.27 361.15,84.73 358.13,86.36 355.14,87.98 354.21,88.55 353.51,89.25 352.93,89.94 351.09,91.68 
			349.23,93.07 347.15,94.35 330.1,103.03 311.12,112.76 295.49,120.87 288.3,124.46 287.02,125.15 285.86,125.73 284.35,126.44 
			282.74,126.89 281.24,127.13 279.6,127.24 278.7,127.24 278.09,127.35 276.61,127.59 275.1,128.05 267.11,132.11 246.47,142.52 
			222.97,154.46 210.12,160.95 199.46,166.39 194.59,168.82 189.03,171.72 186.49,173.1 152.89,190.25 151.15,191.18 140.84,196.39 
			122.32,205.77 119.43,207.28 114.32,209.83 91.73,221.41 87.58,223.49 80.04,227.44 75.41,229.75 61.96,236.59 20.51,257.43 
			2.09,267.16 -7.77,272.26 -8.35,272.72 -8.67,273.06 -9.5,273.88 -10.18,274.92 -10.78,275.97 -11.11,277.12 -11.34,278.28 
			-11.46,279.44 -11.46,280.6 -11.24,281.87 -9.73,285.46 -8.91,287.07 		"/>
		<polygon class="st10" points="-88.38,130.71 -85.72,135.81 -76.9,152.83 -75.16,156.2 -73.43,159.67 -67.29,171.61 -65.08,176.01 
			-55.25,195.46 -53.39,199.17 -52.46,201.02 -49.34,207.05 -48.06,209.59 -42.86,220.02 -41.12,223.49 -33.58,238.44 -27.68,249.9 
			-27,250.83 -26.42,251.52 -26.17,251.76 -25.26,252.56 -24.33,253.14 -23.15,253.72 -22.12,254.07 -20.96,254.31 -19.68,254.31 
			-18.53,254.31 -18.07,254.07 -3.95,247.12 48.29,220.25 78.3,204.84 81.19,203.46 99.85,193.84 137.6,174.61 149.77,168.37 
			153.71,166.39 214.52,135.7 219.37,133.15 229.58,127.93 254.01,115.43 263.87,110.32 280.53,101.75 327.34,77.43 340.18,71.3 
			344.93,68.97 346.79,68.06 350.04,66.43 351.19,65.97 352.12,65.15 353.05,64.35 353.86,63.42 354.44,62.37 354.91,61.33 
			355.24,60.17 355.47,59.02 355.59,57.74 355.37,56.58 355.37,56.24 355.14,55.42 354.66,54.27 334.63,14.54 334.05,13.49 
			329.42,4.46 319.8,-13.96 306.02,-40.71 295.49,-61.9 292.82,-67.35 292.25,-68.16 292.12,-68.28 291.42,-69.21 290.96,-69.56 
			290.61,-70.01 289.58,-70.72 288.53,-71.17 287.5,-71.63 286.34,-71.87 285.18,-71.87 284.03,-71.87 282.85,-71.63 282.39,-71.41 
			281.81,-71.17 257.48,-58.66 229.68,-44.42 226.34,-42.69 206.53,-32.61 191.57,-24.84 159.62,-8.51 156.25,-6.77 132.27,5.5 
			126.49,8.52 126.01,8.74 114.55,14.54 112.14,15.81 73.1,35.74 69.73,37.35 68.22,38.17 64.88,39.9 51.56,46.63 5.68,70.03 
			-13.42,79.86 -16.57,81.49 -49.7,98.51 -85.37,117.05 -86.4,117.74 -87.23,118.56 -87.91,119.6 -88.61,120.53 -89.06,121.69 
			-89.41,122.84 -89.77,124 -89.77,125.15 -89.77,126.31 -89.64,127.47 -89.31,128.62 -88.84,129.79 		"/>
		<polygon class="st10" points="-169.22,-27.15 -156.25,-2.14 -147.1,15.81 -145.37,19.29 -142.58,24.73 -140.62,28.55 
			-139.34,31.1 -134.48,40.72 -133.08,43.38 -121.61,65.73 -121.26,66.31 -120.01,68.86 -108.64,91.22 -106.33,95.73 -105.63,97.01 
			-105.17,97.93 -104.47,98.63 -103.79,99.21 -102.86,99.67 -101.93,100.02 -101,100.26 -100.07,100.26 -99.04,100.14 -98.11,99.9 
			-97.31,99.44 -81.77,91.45 -77.6,89.36 -60.58,80.56 -50.85,75.7 -47.71,74.19 -35.32,68.06 -30.47,65.73 -22.82,61.68 
			-4.75,52.41 -0.58,50.33 6.26,46.74 37.98,30.17 41.48,28.44 45.88,26.13 65.33,16.27 66.14,15.93 68.7,14.65 80.51,8.52 
			90.82,3.3 99.49,-1.1 140.39,-22.06 172.47,-38.63 173.98,-39.32 176.41,-40.6 193.56,-49.29 198.99,-52.06 212.44,-58.9 
			218.69,-62.14 221.94,-63.76 241.62,-73.72 255.29,-80.67 258.89,-82.4 270.93,-88.44 271.96,-89.13 273.02,-89.82 273.02,-89.95 
			273.82,-90.75 274.52,-91.79 275.2,-92.84 275.68,-93.99 276.03,-95.26 276.26,-96.54 276.26,-97.7 276.13,-98.97 275.78,-100.25 
			275.56,-100.7 266.88,-117.85 262.01,-127.58 261.08,-129.32 241.85,-166.61 236.29,-177.62 230.28,-189.31 224.95,-199.75 
			216.61,-216.89 213.82,-222.33 213.47,-222.91 213.24,-223.25 212.44,-223.95 211.51,-224.64 211.51,-224.76 210.58,-225.22 
			209.54,-225.69 208.49,-225.91 207.46,-226.04 206.3,-226.04 205.25,-225.91 204.22,-225.57 203.74,-225.34 177.22,-212.25 
			153.59,-199.86 150.47,-198.24 149.89,-197.89 126.94,-186.54 86.3,-165.68 82.25,-163.6 60.1,-152.26 58.14,-151.33 
			51.78,-147.96 9.63,-126.19 5.1,-123.88 -8.45,-116.93 -21.89,-110.09 -27.22,-107.32 -56.99,-92.26 -60.1,-90.64 -63.35,-89.02 
			-108.77,-65.61 -113.39,-63.17 -116.41,-61.68 -166.43,-35.85 -168.19,-35.03 -168.87,-34.45 -169.45,-33.88 -170.03,-33.19 
			-170.38,-32.37 -170.51,-31.45 -170.61,-30.63 -170.38,-29.7 -170.15,-28.9 		"/>
		<polyline class="st11" points="140.79,68.58 140.63,68.27 117.05,21.86 130.12,15.29 153.21,61.74 		"/>
		<polyline class="st11" points="87.44,36.84 102.05,29.45 126.03,76.33 126.19,76.64 133.49,90.91 		"/>
		<polyline class="st11" points="56.13,130.13 24.86,68.5 40.76,60.46 56.44,91.21 		"/>
		<polygon class="st11" points="24.32,146.25 40.02,138.29 71.89,200.59 56.34,208.58 		"/>
		<polyline class="st11" points="179.94,-9.95 195.09,-17.61 226.15,43.9 210.74,51.78 		"/>
		<polygon class="st11" points="9.62,153.7 -2.92,160.06 -53.24,185.57 -61.15,170.35 -45.89,162.46 -31.17,154.86 -14.34,146.16 
			1.52,137.97 		"/>
		<polyline class="st11" points="69.32,84.74 85.58,76.58 93.85,92.72 64.69,107.39 56.44,91.21 		"/>
		<polyline class="st11" points="165.1,152.71 143.3,163.91 111.74,101.94 		"/>
		<polyline class="st11" points="118.78,98.36 133.49,90.91 133.49,90.91 		"/>
		<polyline class="st11" points="126.19,76.64 140.79,68.58 153.21,61.74 160.82,77.61 169.52,72.99 		"/>
		<polygon class="st11" points="118.78,98.36 111.74,101.94 105.12,105.29 73.45,43.92 87.44,36.84 		"/>
		<polyline class="st11" points="40.76,60.46 53.84,53.84 61.5,69.14 64.71,75.55 69.32,84.74 56.44,91.21 		"/>
		<polyline class="st11" points="53.84,53.84 69.78,45.77 85.58,76.58 		"/>
		<polyline class="st11" points="-38.23,100.41 -22.03,92.22 1.52,137.97 		"/>
		<polyline class="st11" points="201.1,134.21 165.1,152.71 133.49,90.91 		"/>
		<polyline class="st11" points="-22.03,92.22 -7.39,84.81 24.32,146.25 9.62,153.7 		"/>
		<polyline class="st11" points="64.69,107.39 72.14,122.01 58.3,129.03 		"/>
		<polyline class="st11" points="56.13,130.13 40.02,138.29 8.55,76.75 24.86,68.5 		"/>
		<polyline class="st11" points="219.01,125.01 201.1,134.21 185.55,104.07 203.36,94.95 		"/>
		<polyline class="st11" points="-2.92,160.06 4.53,174.52 -9.14,181.6 		"/>
		<polyline class="st11" points="-1.9,195.55 15.69,229.46 2.98,235.99 -14.52,202.04 		"/>
		<polyline class="st11" points="56.13,130.13 58.3,129.03 90.29,191.14 71.89,200.59 		"/>
		<polyline class="st11" points="150.84,43.5 135.26,12.65 149.77,5.31 165.37,36.31 		"/>
		<polyline class="st11" points="93.85,92.72 101.29,107.23 90.03,112.94 74.03,121.05 		"/>
		<polyline class="st11" points="90.03,112.94 121.82,174.94 105.77,183.19 		"/>
		<polyline class="st11" points="198.83,218.4 181.49,183.41 196.98,175.49 229.17,236.93 		"/>
		<polygon class="st11" points="153.06,197.89 168.39,190.05 185.64,225.02 171.13,232.27 		"/>
		<polyline class="st11" points="187.17,44.27 179.57,29.28 163.82,-1.8 179.94,-9.95 210.74,51.78 		"/>
		<polyline class="st11" points="158.61,58.89 150.84,43.5 165.37,36.31 179.57,29.28 		"/>
		<polyline class="st11" points="9.03,-38.16 24.42,-46.04 54.45,14.39 40.03,21.75 		"/>
		<polygon class="st11" points="40.03,21.75 24.3,29.78 -6.94,-30.04 9.03,-38.16 		"/>
		<polyline class="st11" points="101.29,107.23 105.12,105.29 105.12,105.29 		"/>
		<polyline class="st11" points="-22.51,-22.07 8.74,37.71 -5.89,45.03 		"/>
		<polygon class="st11" points="167.92,69.92 164.98,71.5 158.61,58.89 187.17,44.27 193.29,56.35 		"/>
		<polyline class="st11" points="185.55,104.07 169.52,72.99 167.92,69.92 		"/>
		<polyline class="st11" points="9.62,153.7 41.72,216.09 29.26,222.49 4.53,174.52 		"/>
		<polyline class="st11" points="72.14,122.01 74.03,121.05 105.77,183.19 90.29,191.14 		"/>
		<line class="st11" x1="102.05" y1="29.45" x2="117.05" y2="21.86"/>
		<line class="st11" x1="85.12" y1="-1.35" x2="54.45" y2="14.39"/>
		<line class="st11" x1="143.3" y1="163.91" x2="121.82" y2="174.94"/>
		<line class="st11" x1="140.63" y1="68.27" x2="126.03" y2="76.33"/>
		<line class="st11" x1="149.77" y1="5.31" x2="163.82" y2="-1.8"/>
		<line class="st11" x1="-7.39" y1="84.81" x2="8.55" y2="76.75"/>
		<line class="st11" x1="168.39" y1="190.05" x2="181.49" y2="183.41"/>
		<line class="st11" x1="24.3" y1="29.78" x2="8.74" y2="37.71"/>
		<polygon class="st12" points="197.22,25.41 197.86,26.66 197.6,26.8 196.96,27.12 185.78,32.91 184.22,29.9 182.57,30.74 
			182.16,29.93 179.59,24.91 181.27,24.05 178.14,18 175.94,19.13 166.41,0.71 165.49,-1.06 167.37,-2.04 173.51,-5.2 174.72,-5.83 
			179.15,-8.12 179.7,-8.41 		"/>
		<polyline class="st12" points="132.24,37.86 127.03,40.56 118.08,23.18 118.02,23.07 125.64,19.16 129.67,17.07 130.33,16.72 
			139.34,34.15 138.88,34.42 		"/>
		<polygon class="st12" points="8.25,79.32 9.29,81.41 8.57,81.79 26,116.25 25.74,116.36 13.03,122.79 12.48,121.66 -4.29,88.51 
			-4.78,88.74 -5.39,87.55 -5.88,86.6 -6.17,86.02 -5.1,82.43 -0.47,80.08 0.66,80.6 2.25,81.35 2.57,81.21 5.9,79.53 7.58,78.66 
			7.84,78.55 		"/>
		<polygon class="st12" points="170.96,17.83 176.31,28.22 165.17,33.93 159.81,23.5 159.11,23.85 150.31,6.68 151.36,6.12 
			151.5,6.04 154.37,4.56 154.66,4.42 155.26,4.13 161,1.17 162.79,0.25 171.65,17.47 		"/>
		<polyline class="st12" points="100.74,61.98 107.25,75.07 105.95,75.7 97.52,79.93 96.63,80.37 92.31,71.74 88.78,64.64 
			84.84,66.62 84.09,66.99 82.99,67.54 71.93,45.39 74.88,43.91 74.15,42.47 80.7,39.19 81.25,40.27 82.61,39.6 86.89,37.46 
			87.56,37.11 		"/>
		<polyline class="st12" points="135.66,89.73 133.11,91 132.65,91.23 125.29,76.52 126.16,76.08 139.8,69.25 153.35,62.44 
			157.93,71.59 157.06,72.03 157.55,73.05 160.13,71.74 161.66,74.84 154.6,78.4 154.19,77.62 143.97,82.98 144.29,83.53 
			134.91,88.22 		"/>
		<polygon class="st12" points="86.17,187.74 85.68,187.97 80.55,190.61 80.41,190.67 79.8,193.36 75.72,195.45 73.23,194.23 
			72.56,194.58 72.24,193.94 59.99,169.82 57.16,169.39 54.2,163.62 55.42,160.81 54.87,159.74 49.11,148.39 59.91,142.92 
			62.66,141.5 		"/>
		<polygon class="st12" points="78.21,0.36 72.33,3.32 71.38,3.81 62.8,8.15 61.73,8.7 56.14,11.54 54.09,12.58 52.84,10.12 
			42.07,-11.36 42.39,-11.51 43.06,-11.86 40.1,-17.74 64.57,-29.99 68.39,-22.37 69.35,-22.83 80.5,-0.79 		"/>
		<polygon class="st12" points="24.9,70.67 25.27,71.43 26,72.84 25.56,73.05 41.58,104.87 43.06,107.76 42.71,107.97 40.65,108.98 
			30.2,114.25 30.08,114.31 12.48,79.36 11.66,79.76 10.79,78.02 10.3,77.04 10.68,76.87 11.26,76.58 15.83,74.26 16.1,74.11 
			16.21,73.59 16.76,71.25 21.48,68.87 24.75,70.41 		"/>
		<polyline class="st12" points="62.34,66.27 57.04,55.64 56.49,54.54 58.11,53.73 68.42,48.58 69.14,48.2 77.77,65.45 76.96,65.86 
			75.92,66.38 70.65,69.02 75.05,77.82 67.67,81.53 66.31,78.81 62.25,70.84 		"/>
		<polyline class="st12" points="144.29,83.53 149.18,92.91 159.46,87.52 154.6,78.4 		"/>
		<polyline class="st12" points="178.17,77.88 176.55,74.84 174.43,75.97 171.97,71.34 175.8,69.34 175.04,67.95 181.88,64.5 
			194.15,58.36 195.69,61.46 198.53,67.11 		"/>
		<polygon class="st12" points="52.67,10.23 51.97,10.59 48.44,12.32 48.24,12.41 41.11,15.94 40.1,16.46 38.68,13.62 31.53,-0.88 
			35.53,-2.85 33.06,-8.41 32.34,-10.06 29.27,-8.61 28.52,-8.24 25.97,-13.36 26.14,-13.42 28.05,-14.37 32.37,-16.52 
			30.17,-20.98 35.38,-23.56 35.84,-23.79 		"/>
		<polygon class="st12" points="60.43,67.22 66.31,78.81 57.82,83.03 57.21,81.84 54.87,77.16 50.73,79.24 42.1,61.95 43.26,61.38 
			53.77,56.14 54.67,55.67 55.13,56.63 		"/>
		<polygon class="st12" points="82.58,142.17 101.9,179.29 102.13,179.75 102.45,180.33 101.58,180.79 101.14,183.49 97.15,185.54 
			94.13,184.35 93.96,184.44 88.6,187.22 88.29,187.4 87.97,186.79 68.31,149.03 82.35,141.73 		"/>
		<polygon class="st12" points="0.26,-6.59 0.6,-5.89 4.22,1.37 2.31,2.33 6.42,10.59 9.69,8.97 18.76,27.18 19.72,26.62 
			20.9,28.97 18.62,30.1 12.85,32.96 11.09,33.86 7.38,35.69 -11.36,-2.16 -0.29,-7.69 		"/>
		<polygon class="st12" points="91.5,94.21 93.3,97.69 97.52,105.85 84.9,112.4 86.46,115.41 78.99,119.29 75.52,112.57 
			72.65,107.04 71.03,103.94 74.15,102.32 91.18,93.6 		"/>
		<polygon class="st12" points="101.49,31.11 101.87,31.87 112.2,52.54 111.71,52.8 119.5,68.44 119.97,69.34 115.33,71.66 
			110.61,74 110.44,73.65 103.84,60.42 100.74,61.98 87.56,37.11 88.17,36.82 87.56,35.63 94.28,32.31 94.8,33.34 95.09,33.2 
			99.93,30.8 101.06,30.22 		"/>
		<polyline class="st12" points="161.66,74.84 162.13,75.77 162.62,76.75 165.14,75.48 165.28,75.82 168.87,83.01 170.73,82.08 
			171.74,84.11 172.58,85.78 174.52,89.67 176.43,88.71 180.08,95.98 176.26,97.89 183.09,111.53 179.5,113.3 185.5,125.25 
			189.06,123.46 191.86,129.05 190.97,129.48 192.68,132.9 193.14,133.82 192.04,134.38 187.7,136.55 185.52,132.18 185.41,132.23 
			179.76,135.07 179.24,135.33 175.16,137.36 174.87,137.5 168.9,140.48 168.52,140.68 168.44,140.72 170.73,145.32 167.05,147.2 
			165.57,147.92 163.26,143.29 162.62,143.61 162.27,142.95 142.03,102.49 139.71,97.86 135.66,89.73 134.91,88.22 		"/>
		<polygon class="st12" points="141.89,40.27 135.26,43.71 132.24,37.86 138.88,34.42 		"/>
		<polyline class="st12" points="7.38,35.69 3.18,37.8 1.76,38.5 -4.06,41.39 -5.16,41.97 -6.11,42.44 -7.3,40.09 -6.61,39.75 
			-7.77,37.43 -8.03,36.94 -8.43,36.15 -15.79,21.73 -13.09,20.37 -16.94,12.61 -18.22,10.09 -19.06,8.38 -19.75,8.73 -22.19,3.89 
			-22.45,3.37 -12.05,-1.81 -11.36,-2.16 		"/>
		<polygon class="st12" points="124.02,38.18 133,55.96 127.38,58.77 126.97,57.96 125.9,55.87 120.8,58.45 120.25,58.74 
			114.4,47.13 113.62,47.53 112.75,45.8 111.74,46.32 108.67,40.24 109.68,39.71 105.08,30.56 104.76,29.93 106.44,29.06 
			112.41,26.08 117.56,23.44 124.8,37.8 		"/>
		<polygon class="st12" points="170.67,33.63 177.1,46.81 172.7,48.95 168.03,51.24 162.97,53.7 158.25,56.02 153.44,46.17 
			151.91,43.01 151.79,42.79 170.64,33.57 		"/>
		<polygon class="st12" points="68.54,195.97 68.74,196.4 68.33,196.6 63.09,199.27 62.17,202.16 58.61,203.96 55.3,202.6 
			54.81,202.83 36.86,167.39 40.77,165.42 38.42,160.76 47.83,155.97 50.21,160.64 50.52,160.47 		"/>
		<polygon class="st12" points="134.59,162.35 133.66,162.81 133.31,166.05 129.52,168.02 126.36,166.63 126.33,166.63 
			120.49,169.62 101.78,133.07 98.51,126.65 98.42,126.5 106.33,122.47 112.52,119.29 124.97,143.58 127.98,144.08 131.2,150.39 
			129.93,153.17 		"/>
		<polygon class="st12" points="154.8,21.76 156.08,24.14 158.45,22.89 164.76,34.62 151.27,41.48 143.65,27.23 142.87,27.67 
			135.81,14.38 136.91,13.8 140.32,11.98 141.22,11.48 146.89,8.47 148.4,7.69 155.64,21.29 		"/>
		<polygon class="st12" points="20.67,-15.39 35.96,14.95 37.44,17.94 36.97,18.17 31.88,20.75 23.19,25.12 12.97,4.82 17.6,2.47 
			13.84,-4.97 11.81,-3.92 8.88,-9.71 7.21,-13.04 6.48,-14.49 16.65,-19.59 19.14,-14.61 		"/>
		<polygon class="st12" points="202.87,75.77 202.98,76.03 200.44,77.3 202.52,81.27 201.65,81.73 181.38,92.47 179.62,93.4 
			174.09,82.92 172.9,80.69 173.74,80.25 178.17,77.88 198.53,67.11 		"/>
		<polygon class="st12" points="40.56,62.71 49.19,79.93 51.63,84.74 53.1,87.73 51.51,88.54 57.94,101.33 57.51,101.54 
			53.16,103.74 49.02,105.83 46.65,107.01 44.68,103.04 28.92,71.71 28.14,72.12 27.27,70.38 26.93,69.68 26.69,69.25 27.68,65.75 
			32.22,63.46 33.64,64.07 34.37,64.36 34.89,64.59 39.72,62.16 40.07,61.98 40.16,61.92 		"/>
		<polygon class="st12" points="53.33,203.58 53.71,204.31 53.22,204.54 48.3,207.03 47.98,207.2 47.34,209.69 43.87,211.46 
			40.91,210.74 40.22,211.08 21.86,174.97 22.06,174.86 31.99,169.79 35.29,168.11 		"/>
		<polygon class="st12" points="118.08,170.86 118.26,171.24 119.1,172.86 118.75,173.03 113.51,175.69 113.22,176.57 
			112.52,178.65 108.96,180.48 106.09,179.55 105.31,179.96 104.56,178.45 104.33,177.98 95.55,160.73 97.87,159.54 94.48,152.91 
			93.09,150.16 91.1,146.25 102.59,140.4 		"/>
		<polygon class="st12" points="-7.65,87.55 -7.19,88.51 -6.61,89.64 -7.42,90.01 9.41,123.31 10.59,125.69 10.28,125.86 
			-0.58,131.33 -2,128.5 -7.04,118.54 -8.63,119.34 -21.26,94.3 -21.61,93.63 -21.78,93.26 -16.89,90.79 -16.63,90.01 -15.87,87.7 
			-11.68,85.58 -8.06,86.8 		"/>
		<polygon class="st12" points="124.57,97.45 130.91,109.73 125.12,112.66 112.38,119.05 106.85,121.84 100.59,109.56 
			107.14,106.23 118.57,100.44 124.54,97.4 		"/>
		<polygon class="st12" points="211.53,14.58 209.3,15.71 200.7,20.08 197.11,13.08 193.84,14.72 192.94,15.19 191.29,11.94 
			190.88,12.14 180.34,-8.67 180.14,-9.02 182.6,-10.3 189.03,-13.56 195.51,-16.87 		"/>
		<polygon class="st12" points="64.16,69.89 62.25,70.84 60.43,67.22 62.34,66.27 		"/>
		<polygon class="st12" points="193.84,57.26 180.8,63.63 180.05,62.27 173.74,50.81 178.02,48.63 186.42,44.43 186.68,44.29 		"/>
		<polygon class="st12" points="143.54,113.47 161.49,148.8 161.03,149.06 156.57,151.32 155.44,151.9 147.21,156.06 146.81,156.27 
			141.83,146.42 138.06,139.01 136.53,136 136.99,135.76 132.59,126.85 131.29,124.24 129.17,119.95 142.44,113.23 143.22,112.83 		
			"/>
		<polyline class="st12" points="74.15,102.32 73.34,100.75 67.23,89 66.83,88.19 69.2,86.97 84,79.27 84.43,79.07 89.68,89.15 
			91.32,92.33 91.82,93.29 91.18,93.6 		"/>
		<polygon class="st17" points="2435.49,-295.31 2431.24,-294.75 2426.97,-294.36 2422.7,-293.94 2418.42,-293.83 2414.14,-294.06 
			2409.85,-294.12 2405.56,-294.02 2401.28,-294.23 2397,-294.53 2392.75,-295.08 2388.51,-295.72 2384.34,-296.72 2380.66,-298.88 
			2377.75,-302.02 2374.82,-305.16 2371.79,-308.19 2368.93,-311.39 2366.21,-314.7 2364.08,-318.4 2363.42,-322.61 
			2363.88,-326.87 2364.38,-331.13 2364.35,-335.41 2363.25,-339.54 2361.03,-343.2 2358.21,-346.42 2355.18,-349.45 
			2351.8,-352.09 2348.2,-354.43 2344.66,-356.85 2341.17,-359.34 2337.32,-360.57 2334.7,-357.29 2333.85,-353.1 2333.84,-348.81 
			2334.35,-344.56 2335.05,-340.33 2335.32,-336.05 2334.33,-331.91 2332.26,-328.16 2330.62,-324.21 2328.31,-320.63 
			2325.7,-317.25 2321.74,-315.7 2317.69,-314.31 2313.62,-312.94 2309.71,-311.2 2305.9,-309.23 2302.56,-306.55 2298.71,-304.68 
			2294.58,-303.53 2290.39,-302.61 2286.24,-301.55 2282.15,-300.25 2277.99,-299.25 2273.71,-299.08 2269.46,-299.62 
			2265.42,-301.03 2261.51,-302.78 2257.43,-304.12 2253.32,-305.33 2249.15,-306.31 2244.97,-307.28 2240.8,-308.32 
			2236.73,-309.64 2232.95,-311.67 2229.85,-314.58 2226.35,-316.97 2222.24,-318.18 2218.05,-319.09 2213.82,-319.83 
			2209.64,-320.78 2205.49,-321.86 2201.4,-323.14 2197.48,-324.89 2193.71,-326.92 2189.95,-328.98 2186.32,-331.26 
			2183.67,-334.59 2182.13,-338.58 2180.92,-342.67 2177.67,-345.43 2177.42,-349.48 2174.07,-352.1 2170.13,-353.79 
			2166.15,-355.4 2162.11,-356.82 2157.91,-357.67 2153.65,-357.41 2149.84,-355.51 2146.91,-352.39 2144.79,-348.67 
			2143.92,-344.51 2144.01,-340.22 2144.06,-335.93 2144.4,-331.65 2144.68,-327.38 2141.81,-324.91 2137.74,-326.2 
			2134.99,-328.73 2135.91,-332.89 2132.92,-335.41 2129.13,-333.63 2127.35,-329.8 2127.63,-325.56 2129.77,-321.89 
			2132.98,-319.05 2135.89,-315.91 2138.61,-312.6 2141.73,-309.65 2144.03,-306.07 2143.32,-302 2140.53,-298.76 2137.1,-296.19 
			2133.52,-293.83 2130,-291.38 2126.42,-289.02 2122.67,-286.93 2118.76,-285.18 2114.74,-285.84 2113.6,-289.87 2113.82,-294.15 
			2113.27,-298.37 2111.19,-302.11 2109.26,-305.88 2111.25,-309.54 2114.97,-311.61 2116.3,-315.23 2113.19,-318.05 
			2109.05,-319.13 2106.23,-322.14 2102.94,-324.57 2100.31,-321.76 2099.96,-317.49 2098.32,-313.81 2095.14,-316.32 
			2091.45,-318.05 2088.53,-315.09 2086.45,-311.34 2083.51,-308.25 2079.64,-306.42 2075.56,-305.13 2071.56,-303.57 
			2067.65,-301.8 2063.45,-301.32 2059.5,-300.46 2059.04,-296.28 2059.37,-292 2058.94,-287.75 2056.69,-284.15 2053.9,-280.89 
			2051.05,-277.69 2047.75,-274.97 2044.09,-272.73 2040.23,-270.86 2036.21,-269.38 2032.07,-268.28 2027.95,-267.07 
			2023.76,-266.18 2019.53,-265.43 2015.31,-264.66 2011.13,-263.71 2006.91,-263 2002.63,-262.69 1998.4,-262.03 1994.47,-260.33 
			1990.49,-258.74 1986.26,-258.08 1981.98,-258.24 1977.79,-259.11 1973.88,-260.83 1971.43,-264.2 1972.6,-268.26 1974.6,-272.05 
			1976.45,-275.92 1977.51,-280.07 1977.61,-284.34 1975.66,-288.07 1971.79,-289.6 1968.17,-287.52 1965.22,-284.42 
			1961.15,-284.68 1957.21,-286.35 1953.01,-287.19 1948.74,-287.08 1944.76,-285.59 1942.35,-282.13 1941.52,-277.93 
			1940.56,-273.76 1938.43,-270.07 1934.77,-267.93 1930.54,-267.36 1926.34,-268.09 1922.71,-270.35 1918.77,-269.42 
			1915.75,-266.37 1912.26,-263.89 1908.28,-262.34 1904.15,-261.15 1900.13,-259.69 1896.33,-257.7 1892.78,-255.29 
			1889.47,-252.57 1886.31,-249.67 1883.18,-246.74 1880.07,-243.79 1876.8,-241.01 1873.24,-238.63 1869.21,-237.22 
			1865.02,-237.67 1861.37,-239.92 1858.11,-242.69 1855.86,-246.32 1854.62,-250.41 1854.55,-254.69 1855.21,-258.92 
			1856.55,-262.99 1857.99,-267.03 1858.46,-271.26 1855.83,-274.49 1852.16,-276.7 1848.03,-277.77 1843.77,-277.39 1839.6,-276.4 
			1835.44,-275.36 1831.37,-273.99 1827.27,-272.74 1823.19,-271.41 1819.01,-270.62 1814.97,-271.98 1811.09,-273.81 
			1807.18,-275.57 1803.21,-277.2 1799.13,-278.5 1794.91,-279.25 1790.62,-279.28 1786.34,-279.09 1782.06,-279.32 1777.81,-279.9 
			1774.02,-281.81 1771.09,-284.93 1768.43,-288.29 1765.57,-291.48 1762.15,-294.04 1757.95,-294.53 1753.82,-293.41 
			1749.8,-291.91 1745.74,-290.52 1741.59,-289.44 1737.42,-288.46 1733.2,-287.69 1728.97,-286.98 1724.91,-285.64 1721.65,-282.9 
			1719.57,-279.17 1717.67,-275.33 1714.77,-272.2 1711.04,-270.11 1706.9,-269.02 1702.63,-268.67 1698.35,-268.5 1694.07,-268.18 
			1689.78,-268.12 1685.53,-268.63 1682.49,-271.32 1682.7,-275.56 1683.87,-279.68 1683.51,-283.82 1679.78,-285.73 
			1675.57,-286.56 1671.44,-287.7 1667.34,-288.94 1663.07,-289.03 1658.96,-287.85 1655.42,-285.48 1652.9,-282.03 
			1651.64,-277.95 1651.61,-273.67 1652.43,-269.47 1653.81,-265.41 1655.33,-261.4 1656.86,-257.4 1657.97,-253.25 
			1659.17,-249.14 1660.7,-245.13 1662.27,-241.14 1664.4,-237.43 1666.55,-233.74 1666.6,-229.49 1666.56,-225.2 1666.87,-220.93 
			1666.77,-216.64 1666.17,-212.4 1664.66,-208.4 1663.34,-204.37 1663.87,-200.11 1664.15,-195.84 1665.62,-191.86 
			1668.42,-188.63 1672.37,-187.22 1675.97,-185.27 1678.04,-181.6 1681.81,-179.58 1684.02,-176.29 1680.53,-174.16 
			1676.39,-173.03 1672.29,-171.84 1668.77,-173.9 1665.97,-177.13 1662.6,-179.77 1659.85,-183.05 1657.25,-186.46 
			1654.35,-189.63 1651.5,-192.83 1647.86,-195.05 1643.82,-196.47 1639.97,-198.33 1636.75,-201.15 1634.21,-204.6 1632.2,-208.38 
			1631.11,-212.52 1630.43,-216.75 1629.33,-220.89 1627.16,-224.57 1623.97,-227.42 1620.63,-230.1 1617.33,-232.84 
			1614.08,-235.63 1610.82,-238.42 1606.95,-240.18 1602.79,-239.48 1598.63,-238.47 1594.42,-237.67 1591.02,-235.17 1589,-231.4 
			1587.77,-227.3 1587.97,-223.07 1584.42,-221.25 1580.15,-221.57 1575.95,-222.43 1571.69,-222.9 1567.41,-223.16 
			1563.41,-224.63 1559.84,-227.01 1556.37,-229.53 1552.66,-231.64 1548.42,-231.88 1544.33,-230.6 1540.14,-230.25 
			1536.42,-232.34 1533.16,-235.13 1530.45,-238.44 1528.07,-242.01 1525.88,-245.69 1524.01,-249.55 1522.41,-253.53 
			1520.55,-257.39 1518.4,-261.1 1515.9,-264.58 1512.9,-267.64 1509.31,-269.97 1505.26,-271.35 1501.01,-271.92 1496.73,-272.18 
			1492.45,-272.46 1488.18,-272.83 1483.92,-272.41 1479.76,-271.39 1475.62,-270.28 1471.6,-268.79 1467.9,-266.63 
			1464.53,-263.98 1461.35,-261.1 1458.23,-258.16 1454.64,-255.86 1450.86,-257.06 1449.44,-260.98 1449.49,-265.24 
			1447.71,-269.1 1444.01,-270.9 1440.08,-269.29 1436.59,-266.81 1432.99,-264.47 1429.43,-262.08 1426.27,-259.19 
			1423.42,-255.98 1420.64,-252.72 1418.01,-249.33 1415.71,-245.72 1413.85,-241.85 1412.14,-237.92 1411.04,-233.79 
			1411.65,-229.64 1415.68,-229.39 1419.41,-231.49 1422.91,-233.96 1426.09,-236.84 1429.26,-239.73 1432.72,-242.25 
			1436.74,-242.67 1435.28,-238.99 1432.27,-235.94 1429.96,-232.34 1427.94,-228.56 1425.86,-224.81 1424.01,-220.94 
			1422.27,-217.02 1420.53,-213.1 1418.93,-209.12 1417.3,-205.15 1415.45,-201.29 1413.51,-197.46 1411.59,-193.63 
			1409.68,-189.79 1407.02,-186.43 1403.68,-183.76 1400.04,-181.48 1396.31,-179.37 1392.57,-177.28 1389.19,-174.65 
			1386.41,-171.39 1383.81,-167.98 1381.15,-164.62 1378.61,-161.16 1376.37,-157.51 1374.34,-153.73 1372.42,-149.89 
			1370.68,-145.97 1369.12,-141.98 1367.88,-137.87 1367.21,-133.64 1366.45,-129.42 1366.19,-125.15 1366.73,-120.9 
			1367.44,-116.67 1368.07,-112.43 1368.51,-108.16 1368.86,-103.89 1369.15,-99.61 1369.37,-95.32 1369.1,-91.05 1368.21,-86.85 
			1366.75,-82.83 1363.7,-79.93 1359.5,-79.31 1355.22,-79.63 1351.16,-78.61 1349.21,-74.93 1349.55,-70.66 1350.67,-66.53 
			1352.34,-62.58 1353.42,-58.48 1350.27,-56.22 1346.03,-56.76 1341.8,-57.52 1337.53,-57.89 1333.29,-57.37 1329.6,-55.26 
			1327.13,-51.78 1325.61,-47.77 1324.4,-43.66 1323.77,-39.44 1324.43,-35.2 1322.47,-31.94 1318.23,-32.34 1314.06,-33.36 
			1309.86,-34.23 1305.59,-34.2 1301.37,-33.45 1297.18,-32.51 1293.14,-31.09 1289.41,-28.99 1285.98,-26.42 1282.9,-23.44 
			1279.91,-20.36 1276.78,-17.44 1273.14,-15.18 1269.41,-13.05 1265.6,-11.09 1261.67,-9.38 1257.67,-7.82 1253.58,-6.54 
			1249.37,-5.79 1245.55,-7.34 1243.79,-11.22 1242.86,-15.4 1242.05,-19.62 1241.29,-23.84 1240.74,-28.09 1240.24,-32.35 
			1239.69,-36.6 1239.14,-40.86 1238.64,-45.12 1238.08,-49.37 1237.32,-53.59 1236.04,-57.67 1233.4,-61 1229.78,-63.29 
			1225.83,-64.96 1221.83,-66.5 1217.83,-68.05 1213.9,-69.76 1210.49,-72.29 1210.11,-76.35 1210.72,-80.47 1208.96,-84.37 
			1206.19,-87.63 1202.98,-90.47 1199.71,-93.25 1196.83,-96.41 1194.84,-100.2 1193.62,-104.31 1192.71,-108.5 1191.82,-112.69 
			1191.06,-116.91 1190.49,-121.16 1190.13,-125.44 1189.93,-129.72 1189.46,-133.98 1188.27,-138.09 1185.36,-141.12 
			1181.16,-141.46 1177.04,-140.28 1173.12,-138.55 1169.34,-136.53 1165.65,-134.34 1162.04,-132.03 1158.63,-129.43 
			1155.51,-126.49 1152.83,-123.15 1150.67,-119.45 1148.94,-115.52 1147.14,-111.63 1144.99,-107.92 1142.65,-104.33 
			1140.3,-100.74 1137.99,-97.12 1135.51,-93.63 1132.74,-90.35 1129.55,-87.5 1125.76,-85.53 1121.63,-84.37 1117.53,-83.12 
			1113.58,-81.45 1110.21,-78.83 1107.76,-75.33 1106.33,-71.3 1105.99,-67.03 1105.98,-62.74 1105.97,-58.45 1105.89,-54.16 
			1105.31,-49.92 1104.11,-45.81 1102.49,-41.84 1100.66,-37.96 1098.48,-34.27 1095.94,-30.81 1093.11,-27.6 1089.93,-24.71 
			1086.73,-21.86 1083.76,-18.77 1081.15,-15.37 1078.7,-11.85 1076.42,-8.22 1074.09,-4.62 1071.23,-1.44 1067.52,0.68 
			1063.44,1.98 1059.2,2.63 1054.92,2.83 1050.64,3.13 1046.39,3.7 1042.15,4.38 1037.98,5.36 1033.88,6.62 1029.92,8.26 
			1026.09,10.19 1022.47,12.48 1019.11,15.15 1016.03,18.12 1012.79,20.94 1009.25,23.34 1005.39,25.21 1001.44,26.87 997.53,28.65 
			993.63,30.43 989.73,32.22 985.78,33.88 981.77,35.41 977.72,36.81 973.57,37.87 969.3,38.14 965.05,37.57 961.12,35.9 
			957.71,33.31 954.36,30.63 950.69,28.43 946.65,27 942.4,26.63 938.22,27.54 934.3,29.26 930.58,31.4 926.74,33.31 923.26,35.78 
			919.89,38.43 916.39,40.9 912.85,43.33 909.35,45.8 905.89,48.34 902.57,51.05 899.14,53.63 895.86,56.39 892.56,59.13 
			889.22,61.82 885.97,64.62 882.88,67.59 879.85,70.63 876.86,73.7 873.67,76.57 870.17,79.03 866.13,80.35 861.84,80.24 
			857.62,80.72 854.18,83.26 850.35,85.16 846.39,86.81 842.38,88.33 838.25,89.49 834.2,90.88 830.28,92.62 826.38,94.41 
			822.67,96.57 818.88,98.54 814.68,99.39 811.38,101.88 810.59,106.07 810.4,110.36 810.17,114.64 809.18,118.79 805.44,120.22 
			801.55,118.49 798.1,115.95 795.2,112.8 792.9,109.18 790.7,105.5 788.5,101.82 786.25,98.17 783.99,94.52 781.35,91.18 
			779.08,93.56 778.77,97.83 777.39,101.88 775.27,105.6 773.34,109.43 771.7,113.4 770.01,117.34 768.34,121.29 767.34,125.44 
			768.07,129.64 769.73,133.59 771.42,137.52 771.8,141.77 770.42,145.79 767.92,149.27 764.77,152.17 760.92,154.01 756.7,154.64 
			752.76,153.13 750.28,149.67 748.69,145.69 747.47,141.58 745.71,137.68 743.27,134.16 740.52,130.86 737.51,127.82 
			734.31,124.96 731.29,121.92 728.31,118.83 725.45,115.63 722.59,112.44 719.54,109.43 715.94,107.1 712.21,104.99 708.69,102.55 
			705.09,100.23 703.97,96.9 706.9,93.77 710.11,90.93 713.39,88.18 716.77,85.53 720.1,82.83 723.15,79.82 725.38,76.19 
			724.09,72.54 719.88,71.82 715.61,71.62 711.44,72.58 707.64,74.55 703.93,76.7 700.14,78.71 696.44,80.89 692.79,83.13 
			689.23,85.52 685.55,87.71 681.56,89.27 677.51,90.69 673.45,92.06 669.27,93.01 664.99,93.23 660.76,93.75 656.88,95.56 
			653.1,97.6 649,97.67 645.06,96.18 640.88,97.08 637.41,99.52 635.53,103.35 633.8,107.26 631.48,110.87 628.61,114.05 625.5,117 
			622.39,119.96 619.45,120.14 620.7,116.04 620.76,111.79 618.99,107.92 616.37,104.52 613.83,101.07 612.11,97.15 611.22,92.96 
			610.36,88.87 606.22,88.56 602.09,89.69 597.95,90.83 593.75,91.65 589.47,91.8 585.54,90.29 583.31,86.68 582.5,82.48 
			582.43,78.2 582.64,73.91 582.52,69.63 580.21,66.27 575.97,65.85 571.69,66.19 567.42,66.53 563.13,66.74 558.85,66.93 
			554.57,67.13 550.28,67.33 546.01,67.7 541.78,68.41 537.94,70.22 536.39,74.09 536.8,78.35 537.81,82.52 539.11,86.61 
			540.54,90.65 542.03,94.67 543.43,98.73 544.64,102.84 545.59,107.02 545.95,111.29 544.73,115.33 541.39,117.93 537.25,119.02 
			532.98,119.3 528.69,119.14 524.41,118.88 520.12,118.77 515.84,118.88 511.57,119.29 507.39,120.22 503.31,121.57 499.07,122.13 
			494.78,122.2 490.53,122.68 486.7,124.54 483.56,127.45 480.57,130.52 476.63,132.06 472.65,133.52 469.39,136.31 466.55,139.51 
			464.37,143.2 462.53,147.07 460.75,150.98 458.76,154.77 456.37,158.33 453.65,161.65 450.34,164.35 446.4,166.01 442.19,166.82 
			437.98,167.62 433.93,169.01 430.12,170.98 426.48,173.25 423.26,176.06 421.15,179.77 420.12,183.92 419.61,188.18 418.86,192.4 
			417.44,196.44 415.27,200.13 412.67,203.54 409.67,206.6 406.42,209.4 403.15,212.18 399.79,214.85 396.3,217.33 392.76,219.75 
			389.08,221.96 385.32,224.02 381.45,225.86 377.56,227.68 373.71,229.56 369.87,231.48 366.04,233.4 362.22,235.36 358.4,237.3 
			354.54,239.17 350.59,240.85 346.58,242.36 342.59,243.94 338.55,245.36 334.43,246.57 330.37,247.94 326.43,249.62 
			322.54,251.43 318.68,253.3 314.84,255.23 310.99,257.12 307.11,258.93 303.2,260.69 299.2,262.24 295.21,263.81 291.25,265.46 
			287.26,267.03 283.31,268.71 279.57,270.8 275.76,272.76 271.76,274.32 267.75,275.83 263.68,277.17 259.43,277.64 255.43,276.26 
			252.53,273.13 250.31,269.46 248.19,265.74 246.06,262.01 244.06,258.22 242.12,254.4 240.2,250.56 238.19,246.77 236.04,243.06 
			233.8,239.41 231.58,235.73 229.42,232.03 227.44,228.22 225.59,224.36 223.63,220.54 221.61,216.76 219.53,213.01 217.33,209.33 
			214.97,205.74 212.07,202.61 208.17,200.96 204.01,201.79 200.53,204.25 197.59,207.38 194.73,210.57 191.42,213.28 
			187.63,215.29 183.82,217.26 180.09,219.37 176.45,221.64 172.85,223.97 169.42,226.53 166.25,229.43 162.94,232.15 
			159.25,234.31 155.06,234.94 151.12,233.37 148.04,230.39 145.19,227.19 142.06,224.26 138.58,221.75 135.14,219.19 
			131.87,216.43 128.35,213.97 124.25,212.95 120.06,213.84 115.96,215.09 111.89,216.44 107.85,217.89 103.84,219.39 99.83,220.92 
			95.8,222.4 91.74,223.77 87.71,225.22 83.69,226.73 79.66,228.2 75.63,229.66 71.53,230.91 67.29,231.55 64.76,229.19 
			67.27,225.75 70.13,222.55 72.31,218.91 70.15,215.66 66.02,214.5 61.91,213.3 57.69,212.54 53.88,210.59 49.76,209.59 
			45.58,210.44 41.69,212.24 37.9,214.26 34.11,216.26 30.2,218.03 26.29,219.79 22.43,221.66 18.52,223.42 14.55,225.04 
			10.42,226.17 6.19,226.9 1.98,227.67 -2.3,227.93 -6.5,228.78 -10.62,229.96 -14.78,231 -19,231.77 -23.25,232.38 -27.51,232.6 
			-31.57,231.23 -35.71,230.15 -39.95,230.56 -43.91,232.17 -47.07,235.03 -49.18,238.75 -50.3,242.88 -52.15,246.7 -55.3,249.59 
			-58.9,251.93 -62.86,253.54 -67.08,254.27 -71.37,254.51 -75.63,254.88 -79.87,255.51 -84.1,254.98 -87.21,252.13 -89.99,248.9 
			-94.2,248.6 -98.21,247.17 -101.68,244.68 -104.37,241.35 -107.2,238.15 -111.06,236.35 -115.31,235.77 -119.59,235.6 
			-123.87,235.29 -128.08,234.58 -131.5,232.03 -135.59,230.75 -139.37,228.75 -143.15,226.72 -147.14,225.15 -151.19,223.75 
			-155.23,222.3 -159.07,220.4 -163.2,219.29 -167.45,218.74 -171.38,220.18 -174.14,223.46 -177.07,226.58 -179.69,229.97 
			-181.36,233.91 -183.69,237.32 -187.92,237.98 -192.11,238.86 -196.39,239.08 -200.64,239.6 -204.75,240.82 -208.77,242.33 
			-212.61,244.22 -216.09,246.72 -219.22,249.65 -222.2,252.73 -223.68,256.71 -224.17,260.96 -226.07,264.76 -229.35,267.49 
			-232.87,269.95 -236.15,272.71 -239.21,275.71 -242.41,278.57 -245.89,281.07 -249.3,283.67 -251.84,287.07 2435.49,287.07 		"/>
		<g class="st4">
		</g>
		<polygon style="clip-path:url(#SVGID_2_);fill:none;stroke:#FF0000;stroke-miterlimit:10;" points="2435.49,-295.31 
			2431.24,-294.75 2426.97,-294.36 2422.7,-293.94 2418.42,-293.83 2414.14,-294.06 2409.85,-294.12 2405.56,-294.02 
			2401.28,-294.23 2397,-294.53 2392.75,-295.08 2388.51,-295.72 2384.34,-296.72 2380.66,-298.88 2377.75,-302.02 2374.82,-305.16 
			2371.79,-308.19 2368.93,-311.39 2366.21,-314.7 2364.08,-318.4 2363.42,-322.61 2363.88,-326.87 2364.38,-331.13 
			2364.35,-335.41 2363.25,-339.54 2361.03,-343.2 2358.21,-346.42 2355.18,-349.45 2351.8,-352.09 2348.2,-354.43 2344.66,-356.85 
			2341.17,-359.34 2337.32,-360.57 2334.7,-357.29 2333.85,-353.1 2333.84,-348.81 2334.35,-344.56 2335.05,-340.33 
			2335.32,-336.05 2334.33,-331.91 2332.26,-328.16 2330.62,-324.21 2328.31,-320.63 2325.7,-317.25 2321.74,-315.7 
			2317.69,-314.31 2313.62,-312.94 2309.71,-311.2 2305.9,-309.23 2302.56,-306.55 2298.71,-304.68 2294.58,-303.53 
			2290.39,-302.61 2286.24,-301.55 2282.15,-300.25 2277.99,-299.25 2273.71,-299.08 2269.46,-299.62 2265.42,-301.03 
			2261.51,-302.78 2257.43,-304.12 2253.32,-305.33 2249.15,-306.31 2244.97,-307.28 2240.8,-308.32 2236.73,-309.64 
			2232.95,-311.67 2229.85,-314.58 2226.35,-316.97 2222.24,-318.18 2218.05,-319.09 2213.82,-319.83 2209.64,-320.78 
			2205.49,-321.86 2201.4,-323.14 2197.48,-324.89 2193.71,-326.92 2189.95,-328.98 2186.32,-331.26 2183.67,-334.59 
			2182.13,-338.58 2180.92,-342.67 2177.67,-345.43 2177.42,-349.48 2174.07,-352.1 2170.13,-353.79 2166.15,-355.4 
			2162.11,-356.82 2157.91,-357.67 2153.65,-357.41 2149.84,-355.51 2146.91,-352.39 2144.79,-348.67 2143.92,-344.51 
			2144.01,-340.22 2144.06,-335.93 2144.4,-331.65 2144.68,-327.38 2141.81,-324.91 2137.74,-326.2 2134.99,-328.73 
			2135.91,-332.89 2132.92,-335.41 2129.13,-333.63 2127.35,-329.8 2127.63,-325.56 2129.77,-321.89 2132.98,-319.05 
			2135.89,-315.91 2138.61,-312.6 2141.73,-309.65 2144.03,-306.07 2143.32,-302 2140.53,-298.76 2137.1,-296.19 2133.52,-293.83 
			2130,-291.38 2126.42,-289.02 2122.67,-286.93 2118.76,-285.18 2114.74,-285.84 2113.6,-289.87 2113.82,-294.15 2113.27,-298.37 
			2111.19,-302.11 2109.26,-305.88 2111.25,-309.54 2114.97,-311.61 2116.3,-315.23 2113.19,-318.05 2109.05,-319.13 
			2106.23,-322.14 2102.94,-324.57 2100.31,-321.76 2099.96,-317.49 2098.32,-313.81 2095.14,-316.32 2091.45,-318.05 
			2088.53,-315.09 2086.45,-311.34 2083.51,-308.25 2079.64,-306.42 2075.56,-305.13 2071.56,-303.57 2067.65,-301.8 
			2063.45,-301.32 2059.5,-300.46 2059.04,-296.28 2059.37,-292 2058.94,-287.75 2056.69,-284.15 2053.9,-280.89 2051.05,-277.69 
			2047.75,-274.97 2044.09,-272.73 2040.23,-270.86 2036.21,-269.38 2032.07,-268.28 2027.95,-267.07 2023.76,-266.18 
			2019.53,-265.43 2015.31,-264.66 2011.13,-263.71 2006.91,-263 2002.63,-262.69 1998.4,-262.03 1994.47,-260.33 1990.49,-258.74 
			1986.26,-258.08 1981.98,-258.24 1977.79,-259.11 1973.88,-260.83 1971.43,-264.2 1972.6,-268.26 1974.6,-272.05 1976.45,-275.92 
			1977.51,-280.07 1977.61,-284.34 1975.66,-288.07 1971.79,-289.6 1968.17,-287.52 1965.22,-284.42 1961.15,-284.68 
			1957.21,-286.35 1953.01,-287.19 1948.74,-287.08 1944.76,-285.59 1942.35,-282.13 1941.52,-277.93 1940.56,-273.76 
			1938.43,-270.07 1934.77,-267.93 1930.54,-267.36 1926.34,-268.09 1922.71,-270.35 1918.77,-269.42 1915.75,-266.37 
			1912.26,-263.89 1908.28,-262.34 1904.15,-261.15 1900.13,-259.69 1896.33,-257.7 1892.78,-255.29 1889.47,-252.57 
			1886.31,-249.67 1883.18,-246.74 1880.07,-243.79 1876.8,-241.01 1873.24,-238.63 1869.21,-237.22 1865.02,-237.67 
			1861.37,-239.92 1858.11,-242.69 1855.86,-246.32 1854.62,-250.41 1854.55,-254.69 1855.21,-258.92 1856.55,-262.99 
			1857.99,-267.03 1858.46,-271.26 1855.83,-274.49 1852.16,-276.7 1848.03,-277.77 1843.77,-277.39 1839.6,-276.4 1835.44,-275.36 
			1831.37,-273.99 1827.27,-272.74 1823.19,-271.41 1819.01,-270.62 1814.97,-271.98 1811.09,-273.81 1807.18,-275.57 
			1803.21,-277.2 1799.13,-278.5 1794.91,-279.25 1790.62,-279.28 1786.34,-279.09 1782.06,-279.32 1777.81,-279.9 1774.02,-281.81 
			1771.09,-284.93 1768.43,-288.29 1765.57,-291.48 1762.15,-294.04 1757.95,-294.53 1753.82,-293.41 1749.8,-291.91 
			1745.74,-290.52 1741.59,-289.44 1737.42,-288.46 1733.2,-287.69 1728.97,-286.98 1724.91,-285.64 1721.65,-282.9 
			1719.57,-279.17 1717.67,-275.33 1714.77,-272.2 1711.04,-270.11 1706.9,-269.02 1702.63,-268.67 1698.35,-268.5 1694.07,-268.18 
			1689.78,-268.12 1685.53,-268.63 1682.49,-271.32 1682.7,-275.56 1683.87,-279.68 1683.51,-283.82 1679.78,-285.73 
			1675.57,-286.56 1671.44,-287.7 1667.34,-288.94 1663.07,-289.03 1658.96,-287.85 1655.42,-285.48 1652.9,-282.03 
			1651.64,-277.95 1651.61,-273.67 1652.43,-269.47 1653.81,-265.41 1655.33,-261.4 1656.86,-257.4 1657.97,-253.25 
			1659.17,-249.14 1660.7,-245.13 1662.27,-241.14 1664.4,-237.43 1666.55,-233.74 1666.6,-229.49 1666.56,-225.2 1666.87,-220.93 
			1666.77,-216.64 1666.17,-212.4 1664.66,-208.4 1663.34,-204.37 1663.87,-200.11 1664.15,-195.84 1665.62,-191.86 
			1668.42,-188.63 1672.37,-187.22 1675.97,-185.27 1678.04,-181.6 1681.81,-179.58 1684.02,-176.29 1680.53,-174.16 
			1676.39,-173.03 1672.29,-171.84 1668.77,-173.9 1665.97,-177.13 1662.6,-179.77 1659.85,-183.05 1657.25,-186.46 
			1654.35,-189.63 1651.5,-192.83 1647.86,-195.05 1643.82,-196.47 1639.97,-198.33 1636.75,-201.15 1634.21,-204.6 1632.2,-208.38 
			1631.11,-212.52 1630.43,-216.75 1629.33,-220.89 1627.16,-224.57 1623.97,-227.42 1620.63,-230.1 1617.33,-232.84 
			1614.08,-235.63 1610.82,-238.42 1606.95,-240.18 1602.79,-239.48 1598.63,-238.47 1594.42,-237.67 1591.02,-235.17 1589,-231.4 
			1587.77,-227.3 1587.97,-223.07 1584.42,-221.25 1580.15,-221.57 1575.95,-222.43 1571.69,-222.9 1567.41,-223.16 
			1563.41,-224.63 1559.84,-227.01 1556.37,-229.53 1552.66,-231.64 1548.42,-231.88 1544.33,-230.6 1540.14,-230.25 
			1536.42,-232.34 1533.16,-235.13 1530.45,-238.44 1528.07,-242.01 1525.88,-245.69 1524.01,-249.55 1522.41,-253.53 
			1520.55,-257.39 1518.4,-261.1 1515.9,-264.58 1512.9,-267.64 1509.31,-269.97 1505.26,-271.35 1501.01,-271.92 1496.73,-272.18 
			1492.45,-272.46 1488.18,-272.83 1483.92,-272.41 1479.76,-271.39 1475.62,-270.28 1471.6,-268.79 1467.9,-266.63 
			1464.53,-263.98 1461.35,-261.1 1458.23,-258.16 1454.64,-255.86 1450.86,-257.06 1449.44,-260.98 1449.49,-265.24 
			1447.71,-269.1 1444.01,-270.9 1440.08,-269.29 1436.59,-266.81 1432.99,-264.47 1429.43,-262.08 1426.27,-259.19 
			1423.42,-255.98 1420.64,-252.72 1418.01,-249.33 1415.71,-245.72 1413.85,-241.85 1412.14,-237.92 1411.04,-233.79 
			1411.65,-229.64 1415.68,-229.39 1419.41,-231.49 1422.91,-233.96 1426.09,-236.84 1429.26,-239.73 1432.72,-242.25 
			1436.74,-242.67 1435.28,-238.99 1432.27,-235.94 1429.96,-232.34 1427.94,-228.56 1425.86,-224.81 1424.01,-220.94 
			1422.27,-217.02 1420.53,-213.1 1418.93,-209.12 1417.3,-205.15 1415.45,-201.29 1413.51,-197.46 1411.59,-193.63 
			1409.68,-189.79 1407.02,-186.43 1403.68,-183.76 1400.04,-181.48 1396.31,-179.37 1392.57,-177.28 1389.19,-174.65 
			1386.41,-171.39 1383.81,-167.98 1381.15,-164.62 1378.61,-161.16 1376.37,-157.51 1374.34,-153.73 1372.42,-149.89 
			1370.68,-145.97 1369.12,-141.98 1367.88,-137.87 1367.21,-133.64 1366.45,-129.42 1366.19,-125.15 1366.73,-120.9 
			1367.44,-116.67 1368.07,-112.43 1368.51,-108.16 1368.86,-103.89 1369.15,-99.61 1369.37,-95.32 1369.1,-91.05 1368.21,-86.85 
			1366.75,-82.83 1363.7,-79.93 1359.5,-79.31 1355.22,-79.63 1351.16,-78.61 1349.21,-74.93 1349.55,-70.66 1350.67,-66.53 
			1352.34,-62.58 1353.42,-58.48 1350.27,-56.22 1346.03,-56.76 1341.8,-57.52 1337.53,-57.89 1333.29,-57.37 1329.6,-55.26 
			1327.13,-51.78 1325.61,-47.77 1324.4,-43.66 1323.77,-39.44 1324.43,-35.2 1322.47,-31.94 1318.23,-32.34 1314.06,-33.36 
			1309.86,-34.23 1305.59,-34.2 1301.37,-33.45 1297.18,-32.51 1293.14,-31.09 1289.41,-28.99 1285.98,-26.42 1282.9,-23.44 
			1279.91,-20.36 1276.78,-17.44 1273.14,-15.18 1269.41,-13.05 1265.6,-11.09 1261.67,-9.38 1257.67,-7.82 1253.58,-6.54 
			1249.37,-5.79 1245.55,-7.34 1243.79,-11.22 1242.86,-15.4 1242.05,-19.62 1241.29,-23.84 1240.74,-28.09 1240.24,-32.35 
			1239.69,-36.6 1239.14,-40.86 1238.64,-45.12 1238.08,-49.37 1237.32,-53.59 1236.04,-57.67 1233.4,-61 1229.78,-63.29 
			1225.83,-64.96 1221.83,-66.5 1217.83,-68.05 1213.9,-69.76 1210.49,-72.29 1210.11,-76.35 1210.72,-80.47 1208.96,-84.37 
			1206.19,-87.63 1202.98,-90.47 1199.71,-93.25 1196.83,-96.41 1194.84,-100.2 1193.62,-104.31 1192.71,-108.5 1191.82,-112.69 
			1191.06,-116.91 1190.49,-121.16 1190.13,-125.44 1189.93,-129.72 1189.46,-133.98 1188.27,-138.09 1185.36,-141.12 
			1181.16,-141.46 1177.04,-140.28 1173.12,-138.55 1169.34,-136.53 1165.65,-134.34 1162.04,-132.03 1158.63,-129.43 
			1155.51,-126.49 1152.83,-123.15 1150.67,-119.45 1148.94,-115.52 1147.14,-111.63 1144.99,-107.92 1142.65,-104.33 
			1140.3,-100.74 1137.99,-97.12 1135.51,-93.63 1132.74,-90.35 1129.55,-87.5 1125.76,-85.53 1121.63,-84.37 1117.53,-83.12 
			1113.58,-81.45 1110.21,-78.83 1107.76,-75.33 1106.33,-71.3 1105.99,-67.03 1105.98,-62.74 1105.97,-58.45 1105.89,-54.16 
			1105.31,-49.92 1104.11,-45.81 1102.49,-41.84 1100.66,-37.96 1098.48,-34.27 1095.94,-30.81 1093.11,-27.6 1089.93,-24.71 
			1086.73,-21.86 1083.76,-18.77 1081.15,-15.37 1078.7,-11.85 1076.42,-8.22 1074.09,-4.62 1071.23,-1.44 1067.52,0.68 
			1063.44,1.98 1059.2,2.63 1054.92,2.83 1050.64,3.13 1046.39,3.7 1042.15,4.38 1037.98,5.36 1033.88,6.62 1029.92,8.26 
			1026.09,10.19 1022.47,12.48 1019.11,15.15 1016.03,18.12 1012.79,20.94 1009.25,23.34 1005.39,25.21 1001.44,26.87 997.53,28.65 
			993.63,30.43 989.73,32.22 985.78,33.88 981.77,35.41 977.72,36.81 973.57,37.87 969.3,38.14 965.05,37.57 961.12,35.9 
			957.71,33.31 954.36,30.63 950.69,28.43 946.65,27 942.4,26.63 938.22,27.54 934.3,29.26 930.58,31.4 926.74,33.31 923.26,35.78 
			919.89,38.43 916.39,40.9 912.85,43.33 909.35,45.8 905.89,48.34 902.57,51.05 899.14,53.63 895.86,56.39 892.56,59.13 
			889.22,61.82 885.97,64.62 882.88,67.59 879.85,70.63 876.86,73.7 873.67,76.57 870.17,79.03 866.13,80.35 861.84,80.24 
			857.62,80.72 854.18,83.26 850.35,85.16 846.39,86.81 842.38,88.33 838.25,89.49 834.2,90.88 830.28,92.62 826.38,94.41 
			822.67,96.57 818.88,98.54 814.68,99.39 811.38,101.88 810.59,106.07 810.4,110.36 810.17,114.64 809.18,118.79 805.44,120.22 
			801.55,118.49 798.1,115.95 795.2,112.8 792.9,109.18 790.7,105.5 788.5,101.82 786.25,98.17 783.99,94.52 781.35,91.18 
			779.08,93.56 778.77,97.83 777.39,101.88 775.27,105.6 773.34,109.43 771.7,113.4 770.01,117.34 768.34,121.29 767.34,125.44 
			768.07,129.64 769.73,133.59 771.42,137.52 771.8,141.77 770.42,145.79 767.92,149.27 764.77,152.17 760.92,154.01 756.7,154.64 
			752.76,153.13 750.28,149.67 748.69,145.69 747.47,141.58 745.71,137.68 743.27,134.16 740.52,130.86 737.51,127.82 
			734.31,124.96 731.29,121.92 728.31,118.83 725.45,115.63 722.59,112.44 719.54,109.43 715.94,107.1 712.21,104.99 708.69,102.55 
			705.09,100.23 703.97,96.9 706.9,93.77 710.11,90.93 713.39,88.18 716.77,85.53 720.1,82.83 723.15,79.82 725.38,76.19 
			724.09,72.54 719.88,71.82 715.61,71.62 711.44,72.58 707.64,74.55 703.93,76.7 700.14,78.71 696.44,80.89 692.79,83.13 
			689.23,85.52 685.55,87.71 681.56,89.27 677.51,90.69 673.45,92.06 669.27,93.01 664.99,93.23 660.76,93.75 656.88,95.56 
			653.1,97.6 649,97.67 645.06,96.18 640.88,97.08 637.41,99.52 635.53,103.35 633.8,107.26 631.48,110.87 628.61,114.05 625.5,117 
			622.39,119.96 619.45,120.14 620.7,116.04 620.76,111.79 618.99,107.92 616.37,104.52 613.83,101.07 612.11,97.15 611.22,92.96 
			610.36,88.87 606.22,88.56 602.09,89.69 597.95,90.83 593.75,91.65 589.47,91.8 585.54,90.29 583.31,86.68 582.5,82.48 
			582.43,78.2 582.64,73.91 582.52,69.63 580.21,66.27 575.97,65.85 571.69,66.19 567.42,66.53 563.13,66.74 558.85,66.93 
			554.57,67.13 550.28,67.33 546.01,67.7 541.78,68.41 537.94,70.22 536.39,74.09 536.8,78.35 537.81,82.52 539.11,86.61 
			540.54,90.65 542.03,94.67 543.43,98.73 544.64,102.84 545.59,107.02 545.95,111.29 544.73,115.33 541.39,117.93 537.25,119.02 
			532.98,119.3 528.69,119.14 524.41,118.88 520.12,118.77 515.84,118.88 511.57,119.29 507.39,120.22 503.31,121.57 499.07,122.13 
			494.78,122.2 490.53,122.68 486.7,124.54 483.56,127.45 480.57,130.52 476.63,132.06 472.65,133.52 469.39,136.31 466.55,139.51 
			464.37,143.2 462.53,147.07 460.75,150.98 458.76,154.77 456.37,158.33 453.65,161.65 450.34,164.35 446.4,166.01 442.19,166.82 
			437.98,167.62 433.93,169.01 430.12,170.98 426.48,173.25 423.26,176.06 421.15,179.77 420.12,183.92 419.61,188.18 418.86,192.4 
			417.44,196.44 415.27,200.13 412.67,203.54 409.67,206.6 406.42,209.4 403.15,212.18 399.79,214.85 396.3,217.33 392.76,219.75 
			389.08,221.96 385.32,224.02 381.45,225.86 377.56,227.68 373.71,229.56 369.87,231.48 366.04,233.4 362.22,235.36 358.4,237.3 
			354.54,239.17 350.59,240.85 346.58,242.36 342.59,243.94 338.55,245.36 334.43,246.57 330.37,247.94 326.43,249.62 
			322.54,251.43 318.68,253.3 314.84,255.23 310.99,257.12 307.11,258.93 303.2,260.69 299.2,262.24 295.21,263.81 291.25,265.46 
			287.26,267.03 283.31,268.71 279.57,270.8 275.76,272.76 271.76,274.32 267.75,275.83 263.68,277.17 259.43,277.64 255.43,276.26 
			252.53,273.13 250.31,269.46 248.19,265.74 246.06,262.01 244.06,258.22 242.12,254.4 240.2,250.56 238.19,246.77 236.04,243.06 
			233.8,239.41 231.58,235.73 229.42,232.03 227.44,228.22 225.59,224.36 223.63,220.54 221.61,216.76 219.53,213.01 217.33,209.33 
			214.97,205.74 212.07,202.61 208.17,200.96 204.01,201.79 200.53,204.25 197.59,207.38 194.73,210.57 191.42,213.28 
			187.63,215.29 183.82,217.26 180.09,219.37 176.45,221.64 172.85,223.97 169.42,226.53 166.25,229.43 162.94,232.15 
			159.25,234.31 155.06,234.94 151.12,233.37 148.04,230.39 145.19,227.19 142.06,224.26 138.58,221.75 135.14,219.19 
			131.87,216.43 128.35,213.97 124.25,212.95 120.06,213.84 115.96,215.09 111.89,216.44 107.85,217.89 103.84,219.39 99.83,220.92 
			95.8,222.4 91.74,223.77 87.71,225.22 83.69,226.73 79.66,228.2 75.63,229.66 71.53,230.91 67.29,231.55 64.76,229.19 
			67.27,225.75 70.13,222.55 72.31,218.91 70.15,215.66 66.02,214.5 61.91,213.3 57.69,212.54 53.88,210.59 49.76,209.59 
			45.58,210.44 41.69,212.24 37.9,214.26 34.11,216.26 30.2,218.03 26.29,219.79 22.43,221.66 18.52,223.42 14.55,225.04 
			10.42,226.17 6.19,226.9 1.98,227.67 -2.3,227.93 -6.5,228.78 -10.62,229.96 -14.78,231 -19,231.77 -23.25,232.38 -27.51,232.6 
			-31.57,231.23 -35.71,230.15 -39.95,230.56 -43.91,232.17 -47.07,235.03 -49.18,238.75 -50.3,242.88 -52.15,246.7 -55.3,249.59 
			-58.9,251.93 -62.86,253.54 -67.08,254.27 -71.37,254.51 -75.63,254.88 -79.87,255.51 -84.1,254.98 -87.21,252.13 -89.99,248.9 
			-94.2,248.6 -98.21,247.17 -101.68,244.68 -104.37,241.35 -107.2,238.15 -111.06,236.35 -115.31,235.77 -119.59,235.6 
			-123.87,235.29 -128.08,234.58 -131.5,232.03 -135.59,230.75 -139.37,228.75 -143.15,226.72 -147.14,225.15 -151.19,223.75 
			-155.23,222.3 -159.07,220.4 -163.2,219.29 -167.45,218.74 -171.38,220.18 -174.14,223.46 -177.07,226.58 -179.69,229.97 
			-181.36,233.91 -183.69,237.32 -187.92,237.98 -192.11,238.86 -196.39,239.08 -200.64,239.6 -204.75,240.82 -208.77,242.33 
			-212.61,244.22 -216.09,246.72 -219.22,249.65 -222.2,252.73 -223.68,256.71 -224.17,260.96 -226.07,264.76 -229.35,267.49 
			-232.87,269.95 -236.15,272.71 -239.21,275.71 -242.41,278.57 -245.89,281.07 -249.3,283.67 -251.84,287.07 2435.49,287.07 		"/>
		<g class="st4">
		</g>
		<rect x="-859.16" y="-1685.39" class="st19" width="3294.65" height="1972.46"/>
	</g>
	<g>
		<path class="st18" d="M46.64,106.36h97.54c1.29,0,2.35-1.05,2.35-2.34V42.99c0-1.29-1.06-2.35-2.35-2.35h-5.48v-9.55
			c-4.17,4.7-20.1,6.4-27.9,6.97c-10.69,0.78-13.82,5.34-13.82,5.34c0,7.62,0,54.64,0,54.64c6.26,0,23.5-0.96,29.21-3.13
			c9.13-3.47,12.52-8.35,12.52-8.35V45.34h3.13v54.51H48.99V45.34h3.13v41.23c0,0,3.39,4.88,12.52,8.35
			c5.71,2.17,22.95,3.13,29.21,3.13c0,0,0-47.02,0-54.64c0,0-3.13-4.56-13.82-5.34c-7.8-0.57-23.73-2.27-27.9-6.97v9.55h-5.48
			c-1.29,0-2.35,1.06-2.35,2.35v61.03C44.3,105.32,45.35,106.36,46.64,106.36z M133.28,79.63c-0.22,0.08-5.27,2.04-17.31,3.75
			c-8.87,1.26-11.4,4.24-11.48,4.34c-0.31,0.41-0.78,0.63-1.26,0.63c-0.32,0-0.63-0.09-0.91-0.29c-0.7-0.5-0.87-1.48-0.36-2.18
			c0.3-0.42,3.23-4.13,13.58-5.59c11.6-1.64,16.55-3.54,16.59-3.56c0.8-0.31,1.71,0.09,2.02,0.88
			C134.47,78.41,134.09,79.31,133.28,79.63z M133.28,67.9c-0.22,0.09-5.27,2.04-17.31,3.74c-8.87,1.26-11.4,4.24-11.48,4.34
			c-0.31,0.41-0.78,0.63-1.26,0.63c-0.32,0-0.63-0.09-0.91-0.29c-0.7-0.51-0.87-1.48-0.36-2.18c0.3-0.42,3.23-4.14,13.58-5.6
			c11.6-1.64,16.55-3.54,16.59-3.56c0.8-0.32,1.71,0.09,2.02,0.89C134.47,66.68,134.09,67.58,133.28,67.9z M133.28,56.18
			c-0.22,0.08-5.27,2.04-17.31,3.75c-8.87,1.26-11.4,4.24-11.48,4.34c-0.31,0.41-0.78,0.63-1.26,0.63c-0.32,0-0.63-0.09-0.91-0.29
			c-0.7-0.5-0.87-1.48-0.36-2.18c0.3-0.42,3.23-4.13,13.58-5.6c11.6-1.63,16.55-3.54,16.59-3.56c0.8-0.32,1.71,0.08,2.02,0.89
			C134.47,54.95,134.09,55.86,133.28,56.18z M133.28,44.45c-0.22,0.09-5.27,2.04-17.31,3.74c-8.87,1.26-11.4,4.24-11.48,4.34
			c-0.31,0.41-0.78,0.63-1.26,0.63c-0.32,0-0.63-0.09-0.91-0.29c-0.7-0.5-0.87-1.48-0.36-2.18c0.3-0.42,3.23-4.14,13.58-5.6
			c11.6-1.64,16.55-3.54,16.59-3.56c0.8-0.31,1.71,0.09,2.02,0.89C134.47,43.22,134.09,44.13,133.28,44.45z M56.67,42.42
			c0.31-0.8,1.22-1.2,2.02-0.89c0.05,0.02,5,1.92,16.6,3.56c10.34,1.46,13.27,5.17,13.57,5.6c0.5,0.7,0.35,1.68-0.36,2.18
			c-0.28,0.2-0.59,0.29-0.91,0.29c-0.48,0-0.95-0.22-1.26-0.63c-0.08-0.11-2.62-3.09-11.48-4.34c-12.04-1.7-17.09-3.66-17.31-3.74
			C56.74,44.13,56.35,43.22,56.67,42.42z M56.67,54.15c0.31-0.8,1.22-1.2,2.02-0.89c0.05,0.02,5,1.92,16.6,3.56
			c10.34,1.47,13.27,5.18,13.57,5.6c0.5,0.71,0.35,1.68-0.36,2.18c-0.28,0.2-0.59,0.29-0.91,0.29c-0.48,0-0.95-0.22-1.26-0.63
			c-0.08-0.1-2.62-3.09-11.48-4.34c-12.04-1.7-17.09-3.67-17.31-3.75C56.74,55.86,56.35,54.95,56.67,54.15z M56.67,65.88
			c0.31-0.8,1.22-1.2,2.02-0.89c0.05,0.02,5,1.92,16.6,3.56c10.34,1.46,13.27,5.17,13.57,5.6c0.5,0.7,0.35,1.67-0.36,2.18
			c-0.28,0.2-0.59,0.29-0.91,0.29c-0.48,0-0.95-0.22-1.26-0.63c-0.08-0.1-2.62-3.09-11.48-4.34c-12.04-1.7-17.09-3.66-17.31-3.74
			C56.74,67.58,56.35,66.68,56.67,65.88z M56.67,77.59c0.31-0.8,1.22-1.19,2.02-0.88c0.05,0.02,5,1.92,16.6,3.56
			c10.34,1.46,13.27,5.17,13.57,5.59c0.5,0.71,0.35,1.68-0.36,2.18c-0.28,0.2-0.59,0.29-0.91,0.29c-0.48,0-0.95-0.22-1.26-0.63
			c-0.08-0.1-2.62-3.09-11.48-4.34c-12.04-1.7-17.09-3.67-17.31-3.75C56.74,79.31,56.35,78.41,56.67,77.59z"/>
		<path class="st18" d="M163.75,11.97H27.07c-8.07,0-14.62,6.54-14.62,14.62v99.05c0,8.07,6.55,14.61,14.62,14.61h136.68
			c8.07,0,14.62-6.54,14.62-14.61V26.59C178.37,18.51,171.83,11.97,163.75,11.97z M148.59,132.94c-2.75,0-4.97-2.23-4.97-4.97
			c0-2.75,2.22-4.98,4.97-4.98c2.75,0,4.98,2.23,4.98,4.98C153.57,130.72,151.34,132.94,148.59,132.94z M166.19,115.9H24.64V24.15
			h141.55V115.9z"/>
		<path class="st18" d="M133.51,159.74h-7.58l-4.39-14.62H69.29l-4.39,14.62h-7.59c-5.38,0-9.74,4.36-9.74,9.74s4.36,9.74,9.74,9.74
			h76.19c5.38,0,9.74-4.36,9.74-9.74S138.89,159.74,133.51,159.74z"/>
	</g>
</g>
<g id="Layer_4">
</g>
</svg>
