<?xml version="1.0" encoding="utf-8"?>
<!-- Generator: Adobe Illustrator 25.2.1, SVG Export Plug-In . SVG Version: 6.00 Build 0)  -->
<svg version="1.1" xmlns="http://www.w3.org/2000/svg" xmlns:xlink="http://www.w3.org/1999/xlink" x="0px" y="0px"
	 viewBox="0 0 194.64 185.51" style="enable-background:new 0 0 194.64 185.51;" xml:space="preserve">
<style type="text/css">
	.st0{fill-rule:evenodd;clip-rule:evenodd;fill:#73B2FF;}
	.st1{fill:none;stroke:#FFFFFF;stroke-width:4;stroke-miterlimit:10;}
	.st2{fill:none;stroke:#FFFFFF;stroke-width:4;stroke-miterlimit:10;stroke-dasharray:3.9414,3.9414;}
	.st3{fill:none;stroke:#FFFFFF;stroke-width:4;stroke-miterlimit:10;stroke-dasharray:4.7138,4.7138;}
	.st4{clip-path:url(#SVGID_2_);}
	.st5{fill:none;stroke:#000000;stroke-miterlimit:10;}
	.st6{fill:none;stroke:#000000;stroke-miterlimit:10;stroke-dasharray:2.0101,2.0101;}
	.st7{fill:none;stroke:#000000;stroke-miterlimit:10;stroke-dasharray:2.0268,2.0268;}
	.st8{clip-path:url(#SVGID_2_);fill:none;stroke:#000000;stroke-width:0.24;stroke-miterlimit:10;}
	.st9{clip-path:url(#SVGID_2_);fill:#FFFFFF;stroke:#000000;stroke-width:0.3;stroke-miterlimit:10;}
	.st10{clip-path:url(#SVGID_2_);fill:none;stroke:#000000;stroke-width:0.125;stroke-miterlimit:10;}
	
		.st11{clip-path:url(#SVGID_2_);fill:none;stroke:#999999;stroke-width:0.1;stroke-linecap:square;stroke-linejoin:bevel;stroke-miterlimit:10;}
	.st12{clip-path:url(#SVGID_2_);fill:#FFFFFF;stroke:#000000;stroke-width:0.25;stroke-miterlimit:10;}
	.st13{clip-path:url(#SVGID_2_);fill:#73B3FF;stroke:#000000;stroke-width:0.5;stroke-miterlimit:10;}
	.st14{fill:#FFFFFF;stroke:#000000;stroke-width:0.25;stroke-miterlimit:10;}
	.st15{fill:#FFFFFF;stroke:#000000;stroke-width:0.3;stroke-miterlimit:10;}
	.st16{clip-path:url(#SVGID_2_);fill:none;stroke:#000000;stroke-miterlimit:10;}
	.st17{clip-path:url(#SVGID_2_);fill:#E4FAFF;}
	.st18{fill:#FFFFFF;}
	.st19{clip-path:url(#SVGID_2_);fill:none;stroke:#000000;stroke-width:3;stroke-miterlimit:10;}
	.st20{fill:#5BA3A5;}
	.st21{fill-rule:evenodd;clip-rule:evenodd;fill:#5BA3A5;}
	.st22{fill:#73B2FF;}
	.st23{fill:none;}
	.st24{fill-rule:evenodd;clip-rule:evenodd;fill:#FFFFFF;}
	.st25{fill:none;stroke:#000000;stroke-width:3.0888;stroke-miterlimit:10;stroke-dasharray:8.6882,8.6882;}
	.st26{clip-path:url(#SVGID_4_);}
	.st27{fill:#1E1E1E;}
	.st28{fill:#666666;}
	.st29{fill:#E0E0E0;}
	.st30{fill:#DADADA;}
	.st31{fill:#8C8C8C;}
	.st32{fill:#B7B7B7;}
	.st33{fill:#878787;}
	.st34{fill:#9B9B9B;}
	.st35{fill:#333333;}
	.st36{fill:#2B2B2B;}
	.st37{fill:#AAAAAA;}
	.st38{fill:#7E7E7E;}
	.st39{fill:#CCCCCC;}
	.st40{fill:#D6D6D6;}
	.st41{fill:#AEAEAE;}
	.st42{fill:#ABABAB;}
	.st43{fill:#474747;}
	.st44{fill:#1C1C1C;}
	.st45{fill:#ECECEC;}
	.st46{fill:#6F6F6F;}
	.st47{fill:#9E9E9E;}
	.st48{fill:#949494;}
	.st49{fill:#9D9D9D;}
	.st50{fill:#747474;}
	.st51{fill:#A7A7A7;}
	.st52{fill:#A5A5A5;}
	.st53{fill:#4B4B4B;}
	.st54{fill:#808080;}
	.st55{fill:#F6F6F6;}
	.st56{fill:#2C2C2C;}
	.st57{fill:#8B8B8B;}
	.st58{fill:#686868;}
	.st59{fill:#D0D0D0;}
	.st60{fill:#616161;}
	.st61{fill:#727272;}
	.st62{fill:#898989;}
	.st63{fill:#B1B1B1;}
	.st64{fill:#D9D9D9;}
	.st65{fill:#252525;}
	.st66{fill:#636363;}
	.st67{fill:#BCBCBC;}
	.st68{fill:#BFBFBF;}
	.st69{fill:#575757;}
	.st70{fill:#E3E3E3;}
	.st71{fill:#C7C7C7;}
	.st72{fill:#5F5F5F;}
	.st73{fill:#EBEBEB;}
	.st74{fill:#8F8F8F;}
	.st75{fill:#909090;}
	.st76{fill:#D2D2D2;}
	.st77{fill:#515151;}
	.st78{fill:#585858;}
	.st79{fill:#696969;}
	.st80{fill:#3C3C3C;}
	.st81{fill:#A8A8A8;}
	.st82{fill:#444444;}
	.st83{fill:#505050;}
	.st84{fill:#4E4E4E;}
	.st85{fill:#C4C4C4;}
	.st86{fill:#BEBEBE;}
	.st87{fill:#A1A1A1;}
	.st88{fill:#929292;}
	.st89{fill:#B8B8B8;}
	.st90{fill:#D4D4D4;}
	.st91{fill:#979797;}
	.st92{fill:#525252;}
	.st93{fill:#969696;}
	.st94{fill:#B0B0B0;}
	.st95{fill:#D3D3D3;}
	.st96{fill:#7A7A7A;}
	.st97{fill:#B4B4B4;}
	.st98{fill:#CFCFCF;}
	.st99{fill:#939393;}
	.st100{fill:#B9B9B9;}
	.st101{fill:#BBBBBB;}
	.st102{fill:#424242;}
	.st103{fill:#D5D5D5;}
	.st104{fill:#C8C8C8;}
	.st105{fill:#CDCDCD;}
	.st106{fill:#989898;}
	.st107{fill:#393939;}
	.st108{fill:#464646;}
	.st109{fill:#5C5C5C;}
	.st110{fill:#BDBDBD;}
	.st111{fill:#858585;}
	.st112{fill:#6E6E6E;}
	.st113{fill:#757575;}
	.st114{fill:#404040;}
	.st115{fill:#7B7B7B;}
	.st116{fill:#787878;}
	.st117{fill:#828282;}
	.st118{fill:#0F0F0F;}
	.st119{fill:#191919;}
	.st120{fill:#101010;}
	.st121{fill:#232323;}
	.st122{fill:#656565;}
	.st123{fill:#2D2D2D;}
	.st124{fill:#5D5D5D;}
	.st125{fill:#2E2E2E;}
	.st126{fill:#4A4A4A;}
	.st127{fill:#494949;}
	.st128{fill:#6A6A6A;}
	.st129{fill:#353535;}
	.st130{fill:#5A5A5A;}
	.st131{fill:#323232;}
	.st132{fill:#050505;}
	.st133{fill:#434343;}
	.st134{fill:#3B3B3B;}
	.st135{fill:#3E3E3E;}
	.st136{fill:#484848;}
	.st137{fill:#555555;}
	.st138{fill:#383838;}
	.st139{fill:#3A3A3A;}
	.st140{fill:#242424;}
	.st141{fill:#767676;}
	.st142{fill:#565656;}
	.st143{fill:#E8E8E8;}
	.st144{fill:#D7D7D7;}
	.st145{fill:#848484;}
	.st146{fill:#DFDFDF;}
	.st147{fill:#B5B5B5;}
	.st148{fill:#8E8E8E;}
	.st149{fill:#C0C0C0;}
	.st150{fill:#7C7C7C;}
	.st151{fill:#737373;}
	.st152{fill:#9C9C9C;}
	.st153{fill:#B3B3B3;}
	.st154{fill:#B2B2B2;}
	.st155{fill:#B6B6B6;}
	.st156{fill:#343434;}
	.st157{fill:#1B1B1B;}
	.st158{fill:#9A9A9A;}
	.st159{fill:#7F7F7F;}
	.st160{fill:#A0A0A0;}
	.st161{fill:#A4A4A4;}
	.st162{fill:#3F3F3F;}
	.st163{fill:#ACACAC;}
	.st164{fill:#868686;}
	.st165{fill:#9F9F9F;}
	.st166{fill:#454545;}
	.st167{fill:#999999;}
	.st168{fill:#626262;}
	.st169{fill:#959595;}
	.st170{fill:#6B6B6B;}
	.st171{fill:#5B5B5B;}
	.st172{fill:#3D3D3D;}
	.st173{fill:#414141;}
	.st174{fill:#888888;}
	.st175{fill:#6C6C6C;}
	.st176{fill:#C5C5C5;}
	.st177{fill:#C1C1C1;}
	.st178{fill:#7D7D7D;}
	.st179{fill:#111111;}
	.st180{fill:#313131;}
	.st181{fill:#2F2F2F;}
	.st182{fill:#707070;}
	.st183{fill:#6D6D6D;}
	.st184{fill:#ADADAD;}
	.st185{fill:#797979;}
	.st186{fill:#717171;}
	.st187{fill:#818181;}
	.st188{fill:#676767;}
	.st189{fill:#131313;}
	.st190{fill:#545454;}
	.st191{fill:#5E5E5E;}
	.st192{fill:#373737;}
	.st193{fill:#646464;}
	.st194{fill:#E5E5E5;}
	.st195{fill:#DCDCDC;}
	.st196{fill:#A6A6A6;}
	.st197{fill:#A2A2A2;}
	.st198{fill:#C9C9C9;}
	.st199{fill:#777777;}
	.st200{fill:#4C4C4C;}
	.st201{fill:#A3A3A3;}
	.st202{fill:#262626;}
	.st203{fill:#C3C3C3;}
	.st204{fill:#CBCBCB;}
	.st205{fill:#070707;}
	.st206{fill:#595959;}
	.st207{fill:#D8D8D8;}
	.st208{fill:#A9A9A9;}
	.st209{fill:#141414;}
	.st210{fill:#838383;}
	.st211{fill:#AFAFAF;}
	.st212{fill:#CECECE;}
	.st213{fill:#919191;}
	.st214{fill:#8A8A8A;}
	.st215{fill:#212121;}
	.st216{fill:#FEFEFE;}
	.st217{fill:#DBDBDB;}
	.st218{fill:none;stroke:#FFFFFF;stroke-width:2;stroke-miterlimit:10;}
	.st219{fill:none;stroke:#FFFFFF;stroke-width:2;stroke-miterlimit:10;stroke-dasharray:3.9752,3.9752;}
	.st220{clip-path:url(#SVGID_6_);}
	.st221{fill:none;stroke:#000000;stroke-miterlimit:10;stroke-dasharray:1.9951,1.9951;}
	.st222{fill:none;stroke:#000000;stroke-miterlimit:10;stroke-dasharray:2.0116,2.0116;}
	.st223{clip-path:url(#SVGID_6_);fill:none;stroke:#000000;stroke-width:0.24;stroke-miterlimit:10;}
	.st224{fill:none;stroke:#B1E0B7;stroke-width:0.5;stroke-miterlimit:10;}
	.st225{fill:none;stroke:#B1E0B7;stroke-width:0.5;stroke-miterlimit:10;stroke-dasharray:2.0468,2.0468;}
	.st226{fill:none;stroke:#B1E0B7;stroke-width:0.5;stroke-miterlimit:10;stroke-dasharray:1.9818,1.9818;}
	.st227{fill:none;stroke:#B1E0B7;stroke-width:0.5;stroke-miterlimit:10;stroke-dasharray:2.0095,2.0095;}
	.st228{fill:none;stroke:#B1E0B7;stroke-width:0.5;stroke-miterlimit:10;stroke-dasharray:1.9699,1.9699;}
	.st229{fill:none;stroke:#E0B0E2;stroke-width:0.5;stroke-miterlimit:10;}
	.st230{fill:none;stroke:#E0B0E2;stroke-width:0.5;stroke-miterlimit:10;stroke-dasharray:2.0318,2.0318;}
	.st231{fill:none;stroke:#E0B0E2;stroke-width:0.5;stroke-miterlimit:10;stroke-dasharray:1.9953,1.9953;}
	.st232{fill:none;stroke:#E0B0E2;stroke-width:0.5;stroke-miterlimit:10;stroke-dasharray:1.9958,1.9958;}
	.st233{fill:none;stroke:#E0B0E2;stroke-width:0.5;stroke-miterlimit:10;stroke-dasharray:2.0663,2.0663;}
	.st234{fill:none;stroke:#E0B0E2;stroke-width:0.5;stroke-miterlimit:10;stroke-dasharray:2.2215,2.2215;}
	.st235{fill:none;stroke:#E0B0E2;stroke-width:0.5;stroke-miterlimit:10;stroke-dasharray:2.052,2.052;}
	.st236{clip-path:url(#SVGID_6_);fill:#FFFFFF;stroke:#000000;stroke-width:0.3;stroke-miterlimit:10;}
	.st237{clip-path:url(#SVGID_6_);fill:none;stroke:#000000;stroke-width:0.125;stroke-miterlimit:10;}
	
		.st238{clip-path:url(#SVGID_6_);fill:none;stroke:#999999;stroke-width:0.1;stroke-linecap:square;stroke-linejoin:bevel;stroke-miterlimit:10;}
	.st239{clip-path:url(#SVGID_6_);fill:#FFFFFF;stroke:#000000;stroke-width:0.25;stroke-miterlimit:10;}
	.st240{clip-path:url(#SVGID_6_);fill:#73B3FF;stroke:#000000;stroke-width:0.5;stroke-miterlimit:10;}
	.st241{clip-path:url(#SVGID_6_);fill:none;stroke:#000000;stroke-miterlimit:10;}
	.st242{clip-path:url(#SVGID_6_);fill:#E4FAFF;}
	.st243{clip-path:url(#SVGID_6_);fill:#73B3FF;stroke:#FF0000;stroke-miterlimit:10;}
	.st244{clip-path:url(#SVGID_6_);fill:none;stroke:#FF0000;stroke-miterlimit:10;}
	.st245{fill:#FFFFFF;stroke:#FF0000;stroke-miterlimit:10;}
	.st246{clip-path:url(#SVGID_6_);fill:none;stroke:#000000;stroke-width:3;stroke-miterlimit:10;}
	.st247{clip-path:url(#SVGID_26_);}
	.st248{clip-path:url(#SVGID_26_);fill:none;stroke:#000000;stroke-width:0.24;stroke-miterlimit:10;}
	.st249{clip-path:url(#SVGID_26_);fill:#FFFFFF;stroke:#000000;stroke-width:0.3;stroke-miterlimit:10;}
	.st250{clip-path:url(#SVGID_26_);fill:none;stroke:#000000;stroke-width:0.125;stroke-miterlimit:10;}
	
		.st251{clip-path:url(#SVGID_26_);fill:none;stroke:#999999;stroke-width:0.1;stroke-linecap:square;stroke-linejoin:bevel;stroke-miterlimit:10;}
	.st252{clip-path:url(#SVGID_26_);fill:#FFFFFF;stroke:#000000;stroke-width:0.25;stroke-miterlimit:10;}
	.st253{clip-path:url(#SVGID_26_);fill:#73B3FF;stroke:#000000;stroke-width:0.5;stroke-miterlimit:10;}
	.st254{clip-path:url(#SVGID_26_);fill:none;stroke:#000000;stroke-miterlimit:10;}
	.st255{clip-path:url(#SVGID_26_);fill:#E4FAFF;}
	.st256{clip-path:url(#SVGID_26_);fill:none;stroke:#000000;stroke-width:3;stroke-miterlimit:10;}
	.st257{fill-rule:evenodd;clip-rule:evenodd;fill:#FFFFFF;stroke:#5BA3A5;stroke-width:1.5;stroke-miterlimit:10;}
</style>
<g id="color">
</g>
<g id="map">
</g>
<g id="Layer_1">
	<g>
		<defs>
			<rect id="SVGID_5_" x="-3.22" y="-1538.34" width="1478.45" height="942.29"/>
		</defs>
		<clipPath id="SVGID_2_">
			<use xlink:href="#SVGID_5_"  style="overflow:visible;"/>
		</clipPath>
		<polyline class="st10" points="292.51,39.85 329.54,21.1 333.04,19.36 344.95,13.34 410.51,-20.01 425.92,-28.01 428.01,-29.05 
			428.81,-29.52 429.52,-30.09 430.09,-30.9 430.67,-31.72 431.02,-32.52 431.25,-33.45 431.38,-34.38 431.25,-35.31 431.12,-36.23 
			430.8,-37.16 430.32,-37.97 424.64,-48.97 405.08,-87.66 387.59,-122.06 368.71,-158.88 368.48,-159.46 368.23,-159.94 
			367.65,-160.75 366.85,-161.55 366.04,-162.13 365.11,-162.72 364.06,-163.18 363.03,-163.41 362,-163.52 361.17,-163.52 
			360.94,-163.41 359.91,-163.3 358.85,-162.94 357.92,-162.48 354.91,-160.86 351.92,-159.24 350.99,-158.66 350.28,-157.97 
			349.7,-157.28 347.87,-155.53 346.01,-154.15 343.92,-152.86 326.88,-144.18 307.9,-134.45 292.27,-126.34 285.08,-122.75 
			283.79,-122.06 282.64,-121.48 281.13,-120.78 279.52,-120.32 278.01,-120.09 276.38,-119.97 275.47,-119.97 274.87,-119.86 
			273.39,-119.62 271.88,-119.17 263.89,-115.11 243.25,-104.69 219.74,-92.75 206.9,-86.26 196.24,-80.82 191.36,-78.4 
			185.81,-75.49 183.27,-74.11 149.66,-56.97 147.93,-56.04 137.62,-50.82 119.09,-41.44 116.2,-39.93 111.1,-37.38 88.5,-25.81 
			84.36,-23.72 76.81,-19.77 72.19,-17.46 58.74,-10.62 17.29,10.21 -1.14,19.94 -10.99,25.05 -11.57,25.51 -11.9,25.85 
			-12.73,26.67 -13.4,27.71 -14.01,28.75 -14.33,29.91 -14.56,31.07 -14.69,32.22 -14.69,33.39 -14.46,34.66 -12.95,38.24 
			-12.13,39.85 		"/>
		<polygon class="st10" points="-91.61,-116.5 -88.94,-111.4 -80.12,-94.38 -78.38,-91.01 -76.65,-87.55 -70.52,-75.6 -68.3,-71.21 
			-58.48,-51.75 -56.62,-48.04 -55.68,-46.19 -52.57,-40.16 -51.29,-37.62 -46.08,-27.19 -44.35,-23.72 -36.81,-8.78 -30.9,2.69 
			-30.22,3.62 -29.64,4.31 -29.39,4.55 -28.49,5.35 -27.56,5.93 -26.37,6.51 -25.34,6.86 -24.19,7.1 -22.91,7.1 -21.75,7.1 
			-21.3,6.86 -7.17,-0.09 45.07,-26.96 75.08,-42.37 77.97,-43.76 96.62,-53.37 134.38,-72.6 146.54,-78.85 150.49,-80.82 
			211.3,-111.51 216.15,-114.07 226.36,-119.28 250.79,-131.79 260.64,-136.89 277.31,-145.46 324.11,-169.78 336.96,-175.92 
			341.71,-178.24 343.57,-179.16 346.81,-180.78 347.97,-181.24 348.9,-182.06 349.83,-182.87 350.63,-183.8 351.21,-184.84 
			351.69,-185.88 352.02,-187.04 352.24,-188.19 352.37,-189.48 352.14,-190.63 352.14,-190.97 351.92,-191.79 351.44,-192.95 
			331.4,-232.68 330.83,-233.72 326.2,-242.76 316.57,-261.17 302.8,-287.93 292.27,-309.12 289.6,-314.56 289.02,-315.38 
			288.9,-315.49 288.19,-316.42 287.74,-316.77 287.39,-317.22 286.36,-317.93 285.3,-318.38 284.27,-318.85 283.12,-319.09 
			281.96,-319.09 280.8,-319.09 279.62,-318.85 279.17,-318.62 278.59,-318.38 254.26,-305.88 226.46,-291.64 223.11,-289.9 
			203.3,-279.82 188.35,-272.05 156.4,-255.73 153.03,-253.98 129.05,-241.71 123.27,-238.7 122.79,-238.47 111.33,-232.68 
			108.91,-231.41 69.88,-211.47 66.51,-209.86 65,-209.05 61.66,-207.31 48.33,-200.59 2.46,-177.18 -16.65,-167.36 -19.79,-165.72 
			-52.92,-148.7 -88.59,-130.17 -89.62,-129.47 -90.45,-128.66 -91.13,-127.61 -91.83,-126.68 -92.28,-125.53 -92.64,-124.37 
			-92.99,-123.21 -92.99,-122.06 -92.99,-120.9 -92.86,-119.75 -92.54,-118.59 -92.06,-117.42 		"/>
		<polyline class="st11" points="29.5,11.58 41.2,5.66 59.07,39.85 		"/>
		<polyline class="st11" points="105.64,39.85 78.44,-13.15 91.01,-19.5 124.33,45.63 		"/>
		<polyline class="st11" points="73.99,39.85 53.35,-0.47 66.85,-7.29 		"/>
		<polyline class="st11" points="136.06,39.56 103.09,-25.61 115.9,-32.07 133.63,2.28 149.34,32.72 		"/>
		<polyline class="st11" points="118.36,48.69 124.33,45.63 134.18,40.53 		"/>
		<polyline class="st11" points="187.31,39.85 182.77,31.22 196.82,24.08 205.11,39.85 		"/>
		<polyline class="st11" points="5.84,23.53 18.69,17.05 30.54,39.85 		"/>
		<polyline class="st11" points="182.41,-22.19 195.6,-28.81 209.29,-1.82 216.92,13.77 196.82,24.08 		"/>
		<polyline class="st11" points="89.45,39.85 66.85,-7.29 78.44,-13.15 		"/>
		<polyline class="st11" points="134.18,40.53 136.06,39.56 149.34,32.72 		"/>
		<polyline class="st11" points="133.63,2.28 147.67,-4.76 160.14,-11.02 167.91,-14.95 167.91,-14.95 		"/>
		<polyline class="st11" points="193.75,-71.73 362.92,-158.26 417.31,-51.58 425.71,-35.11 279.63,39.85 		"/>
		<polyline class="st11" points="18.69,17.05 29.5,11.58 44.18,39.85 		"/>
		<polyline class="st11" points="182.77,31.22 168.82,38.37 155.73,45.09 149.34,32.72 		"/>
		<polyline class="st11" points="-5.05,39.85 -9.51,31.29 5.84,23.53 14.33,39.85 		"/>
		<line class="st11" x1="41.2" y1="5.66" x2="53.35" y2="-0.47"/>
		<line class="st11" x1="169.61" y1="39.85" x2="168.82" y2="38.37"/>
		<polygon class="st17" points="2432.27,-542.52 2428.02,-541.97 2423.75,-541.57 2419.48,-541.16 2415.19,-541.05 2410.91,-541.28 
			2406.62,-541.33 2402.34,-541.23 2398.05,-541.44 2393.78,-541.74 2389.52,-542.29 2385.28,-542.93 2381.12,-543.93 
			2377.44,-546.09 2374.53,-549.23 2371.6,-552.37 2368.57,-555.4 2365.71,-558.6 2362.98,-561.91 2360.86,-565.62 2360.19,-569.83 
			2360.65,-574.09 2361.16,-578.35 2361.13,-582.63 2360.03,-586.76 2357.81,-590.41 2354.98,-593.63 2351.95,-596.67 
			2348.58,-599.31 2344.98,-601.64 2341.44,-604.07 2337.95,-606.55 2334.09,-607.78 2331.47,-604.5 2330.63,-600.31 
			2330.62,-596.03 2331.12,-591.77 2331.83,-587.54 2332.1,-583.27 2331.11,-579.13 2329.04,-575.37 2327.39,-571.42 
			2325.09,-567.84 2322.48,-564.47 2318.52,-562.92 2314.46,-561.52 2310.4,-560.15 2306.48,-558.41 2302.68,-556.45 
			2299.34,-553.76 2295.48,-551.9 2291.36,-550.74 2287.17,-549.83 2283.02,-548.76 2278.93,-547.47 2274.77,-546.47 
			2270.49,-546.3 2266.23,-546.84 2262.2,-548.24 2258.28,-550 2254.21,-551.33 2250.1,-552.55 2245.92,-553.53 2241.74,-554.5 
			2237.58,-555.53 2233.51,-556.85 2229.73,-558.88 2226.62,-561.8 2223.13,-564.18 2219.01,-565.39 2214.82,-566.31 
			2210.6,-567.04 2206.42,-567.99 2202.27,-569.07 2198.18,-570.36 2194.26,-572.1 2190.48,-574.13 2186.72,-576.19 2183.1,-578.48 
			2180.44,-581.8 2178.91,-585.8 2177.69,-589.88 2174.45,-592.64 2174.19,-596.7 2170.84,-599.31 2166.9,-601 2162.93,-602.62 
			2158.88,-604.03 2154.69,-604.89 2150.43,-604.62 2146.62,-602.72 2143.69,-599.6 2141.57,-595.89 2140.7,-591.72 
			2140.79,-587.43 2140.84,-583.14 2141.18,-578.87 2141.46,-574.6 2138.59,-572.12 2134.52,-573.42 2131.76,-575.94 
			2132.69,-580.11 2129.7,-582.62 2125.91,-580.85 2124.13,-577.02 2124.4,-572.77 2126.55,-569.1 2129.75,-566.26 2132.67,-563.13 
			2135.39,-559.81 2138.5,-556.86 2140.8,-553.29 2140.1,-549.21 2137.31,-545.97 2133.88,-543.4 2130.29,-541.05 2126.77,-538.59 
			2123.2,-536.23 2119.45,-534.15 2115.54,-532.39 2111.51,-533.06 2110.38,-537.09 2110.59,-541.37 2110.04,-545.58 
			2107.97,-549.33 2106.03,-553.1 2108.03,-556.75 2111.75,-558.82 2113.08,-562.44 2109.97,-565.26 2105.83,-566.34 
			2103.01,-569.36 2099.72,-571.78 2097.09,-568.98 2096.74,-564.7 2095.1,-561.03 2091.91,-563.53 2088.23,-565.27 2085.3,-562.3 
			2083.22,-558.55 2080.29,-555.46 2076.42,-553.64 2072.33,-552.34 2068.34,-550.78 2064.43,-549.02 2060.22,-548.54 
			2056.28,-547.68 2055.81,-543.49 2056.15,-539.22 2055.71,-534.96 2053.47,-531.36 2050.68,-528.11 2047.83,-524.9 
			2044.52,-522.18 2040.86,-519.95 2037.01,-518.07 2032.98,-516.6 2028.84,-515.49 2024.73,-514.28 2020.53,-513.39 
			2016.31,-512.65 2012.09,-511.87 2007.91,-510.92 2003.68,-510.21 1999.4,-509.9 1995.18,-509.25 1991.24,-507.55 
			1987.27,-505.96 1983.04,-505.29 1978.76,-505.45 1974.57,-506.33 1970.66,-508.04 1968.21,-511.42 1969.38,-515.48 
			1971.38,-519.27 1973.22,-523.14 1974.29,-527.28 1974.39,-531.55 1972.44,-535.29 1968.56,-536.81 1964.95,-534.73 1962,-531.64 
			1957.93,-531.89 1953.99,-533.57 1949.79,-534.41 1945.51,-534.3 1941.54,-532.8 1939.13,-529.34 1938.29,-525.14 
			1937.33,-520.97 1935.21,-517.28 1931.55,-515.14 1927.31,-514.58 1923.12,-515.31 1919.49,-517.57 1915.54,-516.64 
			1912.53,-513.59 1909.04,-511.11 1905.05,-509.55 1900.93,-508.37 1896.9,-506.9 1893.11,-504.91 1889.56,-502.5 1886.25,-499.78 
			1883.09,-496.88 1879.96,-493.95 1876.84,-491 1873.58,-488.23 1870.02,-485.84 1865.99,-484.43 1861.79,-484.88 1858.15,-487.14 
			1854.89,-489.9 1852.63,-493.53 1851.4,-497.62 1851.33,-501.9 1851.99,-506.13 1853.33,-510.21 1854.77,-514.25 1855.23,-518.47 
			1852.6,-521.7 1848.94,-523.92 1844.8,-524.98 1840.55,-524.6 1836.37,-523.62 1832.21,-522.57 1828.15,-521.2 1824.05,-519.95 
			1819.97,-518.63 1815.79,-517.84 1811.75,-519.2 1807.87,-521.03 1803.96,-522.79 1799.99,-524.41 1795.91,-525.71 
			1791.69,-526.46 1787.4,-526.5 1783.12,-526.3 1778.84,-526.53 1774.59,-527.11 1770.8,-529.02 1767.87,-532.15 1765.2,-535.5 
			1762.34,-538.7 1758.93,-541.25 1754.72,-541.75 1750.59,-540.63 1746.58,-539.12 1742.52,-537.73 1738.37,-536.65 
			1734.19,-535.68 1729.98,-534.9 1725.75,-534.2 1721.69,-532.86 1718.43,-530.12 1716.35,-526.38 1714.45,-522.54 
			1711.55,-519.42 1707.82,-517.32 1703.68,-516.24 1699.41,-515.88 1695.12,-515.71 1690.85,-515.39 1686.56,-515.34 
			1682.31,-515.84 1679.26,-518.53 1679.48,-522.77 1680.65,-526.9 1680.29,-531.04 1676.55,-532.94 1672.35,-533.78 
			1668.21,-534.91 1664.11,-536.15 1659.84,-536.24 1655.74,-535.07 1652.19,-532.7 1649.67,-529.25 1648.42,-525.17 
			1648.38,-520.89 1649.21,-516.69 1650.58,-512.62 1652.11,-508.62 1653.64,-504.61 1654.74,-500.47 1655.95,-496.36 
			1657.47,-492.35 1659.05,-488.36 1661.17,-484.65 1663.32,-480.96 1663.38,-476.7 1663.33,-472.42 1663.65,-468.14 
			1663.55,-463.85 1662.95,-459.61 1661.43,-455.61 1660.11,-451.58 1660.64,-447.33 1660.92,-443.05 1662.4,-439.07 
			1665.19,-435.84 1669.15,-434.43 1672.75,-432.49 1674.81,-428.81 1678.59,-426.79 1680.8,-423.51 1677.3,-421.37 
			1673.17,-420.25 1669.06,-419.05 1665.55,-421.11 1662.75,-424.34 1659.38,-426.99 1656.62,-430.27 1654.02,-433.68 
			1651.13,-436.84 1648.28,-440.04 1644.64,-442.26 1640.59,-443.68 1636.75,-445.55 1633.53,-448.36 1630.99,-451.82 
			1628.98,-455.59 1627.88,-459.73 1627.21,-463.97 1626.11,-468.1 1623.94,-471.78 1620.75,-474.63 1617.4,-477.31 
			1614.11,-480.06 1610.85,-482.85 1607.59,-485.63 1603.72,-487.39 1599.56,-486.69 1595.41,-485.68 1591.2,-484.88 
			1587.79,-482.38 1585.78,-478.61 1584.55,-474.51 1584.75,-470.29 1581.19,-468.47 1576.93,-468.78 1572.73,-469.65 
			1568.47,-470.11 1564.19,-470.37 1560.19,-471.85 1556.62,-474.22 1553.15,-476.74 1549.43,-478.86 1545.19,-479.09 
			1541.11,-477.81 1536.92,-477.47 1533.2,-479.55 1529.94,-482.34 1527.22,-485.65 1524.84,-489.22 1522.65,-492.91 
			1520.79,-496.77 1519.18,-500.74 1517.33,-504.61 1515.18,-508.32 1512.67,-511.8 1509.67,-514.85 1506.08,-517.18 
			1502.04,-518.56 1497.79,-519.13 1493.51,-519.4 1489.23,-519.68 1484.96,-520.05 1480.7,-519.63 1476.53,-518.6 1472.39,-517.49 
			1468.37,-516 1464.68,-513.84 1461.31,-511.19 1458.13,-508.31 1455,-505.37 1451.41,-503.07 1447.63,-504.27 1446.22,-508.19 
			1446.27,-512.46 1444.48,-516.32 1440.79,-518.11 1436.86,-516.5 1433.36,-514.02 1429.77,-511.68 1426.21,-509.29 
			1423.05,-506.4 1420.2,-503.2 1417.42,-499.93 1414.79,-496.54 1412.48,-492.93 1410.63,-489.06 1408.92,-485.13 1407.81,-481 
			1408.43,-476.86 1412.46,-476.61 1416.19,-478.7 1419.69,-481.17 1422.87,-484.05 1426.03,-486.94 1429.5,-489.46 
			1433.52,-489.89 1432.06,-486.2 1429.05,-483.15 1426.74,-479.55 1424.72,-475.77 1422.63,-472.02 1420.79,-468.15 
			1419.04,-464.23 1417.31,-460.31 1415.7,-456.34 1414.08,-452.37 1412.23,-448.5 1410.29,-444.67 1408.36,-440.84 1406.45,-437 
			1403.8,-433.65 1400.45,-430.97 1396.82,-428.69 1393.09,-426.59 1389.34,-424.49 1385.97,-421.86 1383.18,-418.61 
			1380.58,-415.19 1377.92,-411.83 1375.38,-408.37 1373.14,-404.72 1371.12,-400.94 1369.2,-397.1 1367.46,-393.18 1365.9,-389.19 
			1364.65,-385.09 1363.99,-380.85 1363.23,-376.63 1362.97,-372.36 1363.51,-368.11 1364.22,-363.88 1364.85,-359.64 
			1365.28,-355.37 1365.63,-351.1 1365.92,-346.82 1366.15,-342.54 1365.87,-338.26 1364.99,-334.07 1363.52,-330.05 
			1360.48,-327.14 1356.28,-326.52 1352,-326.85 1347.93,-325.82 1345.99,-322.14 1346.33,-317.88 1347.45,-313.74 1349.12,-309.8 
			1350.2,-305.69 1347.05,-303.43 1342.8,-303.98 1338.58,-304.73 1334.31,-305.1 1330.07,-304.58 1326.38,-302.47 1323.9,-298.99 
			1322.39,-294.99 1321.17,-290.87 1320.55,-286.65 1321.21,-282.42 1319.25,-279.16 1315.01,-279.55 1310.84,-280.57 
			1306.64,-281.44 1302.37,-281.41 1298.14,-280.67 1293.96,-279.73 1289.92,-278.3 1286.18,-276.21 1282.75,-273.64 
			1279.67,-270.65 1276.69,-267.57 1273.55,-264.66 1269.91,-262.4 1266.19,-260.26 1262.38,-258.31 1258.44,-256.6 
			1254.45,-255.04 1250.36,-253.75 1246.15,-253 1242.33,-254.55 1240.57,-258.43 1239.63,-262.62 1238.83,-266.83 1238.07,-271.05 
			1237.51,-275.3 1237.01,-279.56 1236.47,-283.82 1235.91,-288.07 1235.42,-292.33 1234.85,-296.58 1234.1,-300.8 1232.82,-304.88 
			1230.18,-308.22 1226.56,-310.5 1222.61,-312.18 1218.61,-313.72 1214.61,-315.26 1210.67,-316.97 1207.26,-319.5 
			1206.89,-323.57 1207.49,-327.69 1205.74,-331.59 1202.97,-334.84 1199.75,-337.68 1196.49,-340.46 1193.6,-343.63 
			1191.61,-347.41 1190.4,-351.52 1189.48,-355.71 1188.59,-359.91 1187.83,-364.13 1187.27,-368.38 1186.9,-372.65 
			1186.71,-376.93 1186.24,-381.19 1185.05,-385.3 1182.14,-388.33 1177.94,-388.67 1173.82,-387.49 1169.89,-385.77 
			1166.11,-383.74 1162.43,-381.55 1158.81,-379.24 1155.4,-376.64 1152.28,-373.7 1149.6,-370.36 1147.45,-366.66 1145.71,-362.74 
			1143.91,-358.85 1141.77,-355.13 1139.43,-351.54 1137.08,-347.95 1134.77,-344.34 1132.29,-340.84 1129.52,-337.57 
			1126.33,-334.71 1122.53,-332.75 1118.41,-331.59 1114.31,-330.33 1110.36,-328.66 1106.99,-326.04 1104.53,-322.54 
			1103.1,-318.51 1102.76,-314.24 1102.76,-309.96 1102.75,-305.67 1102.67,-301.38 1102.09,-297.14 1100.89,-293.02 
			1099.27,-289.05 1097.44,-285.17 1095.25,-281.48 1092.72,-278.03 1089.88,-274.81 1086.71,-271.92 1083.51,-269.07 
			1080.54,-265.98 1077.93,-262.58 1075.48,-259.06 1073.2,-255.43 1070.87,-251.83 1068,-248.66 1064.29,-246.53 1060.21,-245.23 
			1055.98,-244.59 1051.69,-244.38 1047.41,-244.09 1043.17,-243.51 1038.93,-242.83 1034.76,-241.86 1030.66,-240.59 
			1026.7,-238.95 1022.87,-237.02 1019.24,-234.74 1015.89,-232.07 1012.8,-229.09 1009.57,-226.27 1006.02,-223.87 1002.17,-222 
			998.21,-220.34 994.31,-218.56 990.41,-216.78 986.51,-215 982.56,-213.33 978.55,-211.8 974.5,-210.41 970.34,-209.34 
			966.07,-209.07 961.83,-209.65 957.89,-211.31 954.48,-213.9 951.14,-216.59 947.47,-218.79 943.43,-220.21 939.18,-220.59 
			935,-219.67 931.07,-217.96 927.36,-215.82 923.52,-213.9 920.03,-211.43 916.67,-208.78 913.16,-206.31 909.63,-203.88 
			906.12,-201.41 902.67,-198.87 899.34,-196.16 895.92,-193.58 892.63,-190.83 889.34,-188.08 886,-185.39 882.75,-182.6 
			879.65,-179.62 876.63,-176.58 873.63,-173.51 870.45,-170.65 866.94,-168.18 862.9,-166.86 858.62,-166.97 854.39,-166.49 
			850.96,-163.95 847.12,-162.06 843.17,-160.4 839.16,-158.88 835.03,-157.73 830.97,-156.33 827.06,-154.59 823.16,-152.8 
			819.45,-150.65 815.65,-148.67 811.46,-147.82 808.15,-145.33 807.37,-141.14 807.17,-136.86 806.95,-132.57 805.96,-128.42 
			802.22,-126.99 798.33,-128.73 794.88,-131.26 791.97,-134.41 789.68,-138.03 787.48,-141.71 785.27,-145.39 783.03,-149.04 
			780.76,-152.69 778.12,-156.03 775.85,-153.65 775.55,-149.38 774.17,-145.34 772.05,-141.61 770.12,-137.78 768.48,-133.82 
			766.79,-129.88 765.12,-125.93 764.12,-121.77 764.84,-117.58 766.51,-113.63 768.2,-109.69 768.57,-105.45 767.19,-101.42 
			764.7,-97.94 761.55,-95.05 757.69,-93.2 753.48,-92.57 749.54,-94.08 747.06,-97.54 745.47,-101.52 744.25,-105.63 
			742.49,-109.53 740.04,-113.05 737.3,-116.35 734.28,-119.39 731.09,-122.25 728.06,-125.29 725.09,-128.39 722.23,-131.58 
			719.37,-134.78 716.31,-137.78 712.72,-140.11 708.99,-142.22 705.47,-144.67 701.86,-146.98 700.75,-150.31 703.67,-153.44 
			706.89,-156.28 710.17,-159.04 713.55,-161.68 716.88,-164.38 719.93,-167.39 722.15,-171.03 720.86,-174.68 716.66,-175.4 
			712.38,-175.6 708.22,-174.63 704.42,-172.66 700.7,-170.51 696.91,-168.51 693.22,-166.33 689.56,-164.09 686.01,-161.69 
			682.32,-159.5 678.33,-157.94 674.29,-156.52 670.22,-155.15 666.04,-154.21 661.77,-153.98 657.54,-153.46 653.65,-151.65 
			649.88,-149.62 645.77,-149.54 641.83,-151.03 637.66,-150.14 634.18,-147.69 632.31,-143.87 630.57,-139.95 628.26,-136.34 
			625.38,-133.17 622.28,-130.21 619.17,-127.26 616.23,-127.08 617.48,-131.17 617.54,-135.42 615.76,-139.3 613.14,-142.69 
			610.61,-146.14 608.89,-150.06 608,-154.25 607.14,-158.35 603,-158.65 598.86,-157.52 594.73,-156.38 590.52,-155.56 
			586.24,-155.41 582.31,-156.93 580.08,-160.53 579.28,-164.73 579.21,-169.02 579.42,-173.3 579.3,-177.58 576.98,-180.95 
			572.75,-181.36 568.47,-181.02 564.19,-180.69 559.91,-180.47 555.63,-180.28 551.34,-180.09 547.06,-179.88 542.79,-179.52 
			538.56,-178.8 534.72,-177 533.17,-173.12 533.57,-168.86 534.59,-164.7 535.89,-160.61 537.32,-156.57 538.81,-152.54 
			540.2,-148.49 541.41,-144.37 542.36,-140.19 542.73,-135.93 541.51,-131.89 538.16,-129.29 534.03,-128.19 529.75,-127.92 
			525.47,-128.08 521.19,-128.33 516.9,-128.44 512.61,-128.33 508.34,-127.92 504.16,-126.99 500.09,-125.65 495.85,-125.09 
			491.56,-125.02 487.31,-124.54 483.48,-122.67 480.33,-119.76 477.34,-116.69 473.41,-115.15 469.43,-113.69 466.17,-110.91 
			463.33,-107.7 461.15,-104.01 459.3,-100.14 457.53,-96.24 455.53,-92.44 453.15,-88.88 450.43,-85.57 447.12,-82.86 
			443.18,-81.2 438.97,-80.39 434.76,-79.59 430.71,-78.2 426.9,-76.23 423.26,-73.97 420.04,-71.16 417.93,-67.45 416.9,-63.29 
			416.38,-59.03 415.64,-54.81 414.21,-50.78 412.04,-47.08 409.44,-43.68 406.44,-40.61 403.19,-37.81 399.93,-35.03 
			396.57,-32.37 393.08,-29.88 389.53,-27.47 385.86,-25.25 382.1,-23.19 378.22,-21.35 374.34,-19.53 370.49,-17.65 366.65,-15.74 
			362.82,-13.81 359,-11.86 355.17,-9.92 351.32,-8.04 347.37,-6.36 343.36,-4.85 339.37,-3.27 335.32,-1.86 331.21,-0.65 
			327.15,0.73 323.2,2.41 319.31,4.22 315.45,6.09 311.62,8.01 307.77,9.9 303.89,11.72 299.97,13.47 295.97,15.02 291.98,16.6 
			288.02,18.24 284.03,19.81 280.09,21.49 276.34,23.59 272.53,25.54 268.54,27.1 264.52,28.62 260.45,29.96 256.21,30.43 
			252.21,29.05 249.3,25.92 247.09,22.25 244.97,18.52 242.84,14.8 240.84,11.01 238.89,7.18 236.97,3.35 234.97,-0.44 
			232.82,-4.15 230.57,-7.81 228.36,-11.48 226.2,-15.19 224.22,-18.99 222.36,-22.86 220.4,-26.67 218.39,-30.46 216.31,-34.21 
			214.1,-37.89 211.75,-41.47 208.85,-44.61 204.95,-46.25 200.79,-45.42 197.3,-42.96 194.37,-39.84 191.5,-36.64 188.2,-33.93 
			184.41,-31.93 180.6,-29.95 176.86,-27.85 173.23,-25.57 169.63,-23.25 166.19,-20.68 163.03,-17.79 159.71,-15.07 156.02,-12.9 
			151.83,-12.28 147.89,-13.84 144.82,-16.82 141.96,-20.02 138.84,-22.96 135.36,-25.46 131.92,-28.02 128.64,-30.79 
			125.13,-33.24 121.03,-34.26 116.84,-33.37 112.74,-32.12 108.67,-30.77 104.63,-29.32 100.61,-27.82 96.61,-26.29 92.58,-24.82 
			88.52,-23.45 84.48,-21.99 80.47,-20.48 76.44,-19.01 72.41,-17.55 68.3,-16.3 64.07,-15.67 61.54,-18.03 64.05,-21.46 
			66.9,-24.66 69.08,-28.3 66.92,-31.56 62.8,-32.71 58.68,-33.92 54.47,-34.67 50.66,-36.63 46.53,-37.62 42.35,-36.78 
			38.47,-34.97 34.68,-32.95 30.89,-30.95 26.98,-29.19 23.07,-27.43 19.21,-25.55 15.3,-23.8 11.33,-22.17 7.2,-21.04 2.97,-20.31 
			-1.25,-19.54 -5.53,-19.28 -9.72,-18.43 -13.84,-17.25 -18.01,-16.21 -22.22,-15.44 -26.47,-14.84 -30.74,-14.61 -34.79,-15.98 
			-38.93,-17.06 -43.17,-16.65 -47.13,-15.04 -50.3,-12.18 -52.4,-8.46 -53.52,-4.33 -55.37,-0.51 -58.53,2.38 -62.12,4.72 
			-66.08,6.33 -70.31,7.06 -74.59,7.29 -78.86,7.67 -83.1,8.3 -87.32,7.76 -90.43,4.92 -93.21,1.69 -97.42,1.38 -101.43,-0.04 
			-104.91,-2.53 -107.59,-5.87 -110.43,-9.07 -114.28,-10.87 -118.53,-11.44 -122.81,-11.62 -127.09,-11.92 -131.3,-12.64 
			-134.72,-15.18 -138.81,-16.46 -142.6,-18.46 -146.37,-20.5 -150.36,-22.07 -154.41,-23.47 -158.45,-24.91 -162.29,-26.81 
			-166.43,-27.92 -170.67,-28.47 -174.6,-27.04 -177.36,-23.76 -180.29,-20.63 -182.91,-17.24 -184.59,-13.3 -186.92,-9.89 
			-191.14,-9.23 -195.33,-8.35 -199.62,-8.13 -203.87,-7.62 -207.98,-6.4 -211.99,-4.88 -215.84,-3 -219.31,-0.5 -222.45,2.43 
			-225.42,5.51 -226.9,9.49 -227.39,13.75 -229.29,17.55 -232.58,20.28 -236.1,22.73 -239.37,25.5 -242.43,28.5 -245.63,31.36 
			-249.11,33.86 -252.52,36.46 -255.06,39.85 2432.27,39.85 		"/>
		<polygon style="clip-path:url(#SVGID_2_);fill:none;stroke:#FF0000;stroke-miterlimit:10;" points="2432.27,-542.52 
			2428.02,-541.97 2423.75,-541.57 2419.48,-541.16 2415.19,-541.05 2410.91,-541.28 2406.62,-541.33 2402.34,-541.23 
			2398.05,-541.44 2393.78,-541.74 2389.52,-542.29 2385.28,-542.93 2381.12,-543.93 2377.44,-546.09 2374.53,-549.23 
			2371.6,-552.37 2368.57,-555.4 2365.71,-558.6 2362.98,-561.91 2360.86,-565.62 2360.19,-569.83 2360.65,-574.09 2361.16,-578.35 
			2361.13,-582.63 2360.03,-586.76 2357.81,-590.41 2354.98,-593.63 2351.95,-596.67 2348.58,-599.31 2344.98,-601.64 
			2341.44,-604.07 2337.95,-606.55 2334.09,-607.78 2331.47,-604.5 2330.63,-600.31 2330.62,-596.03 2331.12,-591.77 
			2331.83,-587.54 2332.1,-583.27 2331.11,-579.13 2329.04,-575.37 2327.39,-571.42 2325.09,-567.84 2322.48,-564.47 
			2318.52,-562.92 2314.46,-561.52 2310.4,-560.15 2306.48,-558.41 2302.68,-556.45 2299.34,-553.76 2295.48,-551.9 
			2291.36,-550.74 2287.17,-549.83 2283.02,-548.76 2278.93,-547.47 2274.77,-546.47 2270.49,-546.3 2266.23,-546.84 
			2262.2,-548.24 2258.28,-550 2254.21,-551.33 2250.1,-552.55 2245.92,-553.53 2241.74,-554.5 2237.58,-555.53 2233.51,-556.85 
			2229.73,-558.88 2226.62,-561.8 2223.13,-564.18 2219.01,-565.39 2214.82,-566.31 2210.6,-567.04 2206.42,-567.99 
			2202.27,-569.07 2198.18,-570.36 2194.26,-572.1 2190.48,-574.13 2186.72,-576.19 2183.1,-578.48 2180.44,-581.8 2178.91,-585.8 
			2177.69,-589.88 2174.45,-592.64 2174.19,-596.7 2170.84,-599.31 2166.9,-601 2162.93,-602.62 2158.88,-604.03 2154.69,-604.89 
			2150.43,-604.62 2146.62,-602.72 2143.69,-599.6 2141.57,-595.89 2140.7,-591.72 2140.79,-587.43 2140.84,-583.14 
			2141.18,-578.87 2141.46,-574.6 2138.59,-572.12 2134.52,-573.42 2131.76,-575.94 2132.69,-580.11 2129.7,-582.62 
			2125.91,-580.85 2124.13,-577.02 2124.4,-572.77 2126.55,-569.1 2129.75,-566.26 2132.67,-563.13 2135.39,-559.81 2138.5,-556.86 
			2140.8,-553.29 2140.1,-549.21 2137.31,-545.97 2133.88,-543.4 2130.29,-541.05 2126.77,-538.59 2123.2,-536.23 2119.45,-534.15 
			2115.54,-532.39 2111.51,-533.06 2110.38,-537.09 2110.59,-541.37 2110.04,-545.58 2107.97,-549.33 2106.03,-553.1 
			2108.03,-556.75 2111.75,-558.82 2113.08,-562.44 2109.97,-565.26 2105.83,-566.34 2103.01,-569.36 2099.72,-571.78 
			2097.09,-568.98 2096.74,-564.7 2095.1,-561.03 2091.91,-563.53 2088.23,-565.27 2085.3,-562.3 2083.22,-558.55 2080.29,-555.46 
			2076.42,-553.64 2072.33,-552.34 2068.34,-550.78 2064.43,-549.02 2060.22,-548.54 2056.28,-547.68 2055.81,-543.49 
			2056.15,-539.22 2055.71,-534.96 2053.47,-531.36 2050.68,-528.11 2047.83,-524.9 2044.52,-522.18 2040.86,-519.95 
			2037.01,-518.07 2032.98,-516.6 2028.84,-515.49 2024.73,-514.28 2020.53,-513.39 2016.31,-512.65 2012.09,-511.87 
			2007.91,-510.92 2003.68,-510.21 1999.4,-509.9 1995.18,-509.25 1991.24,-507.55 1987.27,-505.96 1983.04,-505.29 
			1978.76,-505.45 1974.57,-506.33 1970.66,-508.04 1968.21,-511.42 1969.38,-515.48 1971.38,-519.27 1973.22,-523.14 
			1974.29,-527.28 1974.39,-531.55 1972.44,-535.29 1968.56,-536.81 1964.95,-534.73 1962,-531.64 1957.93,-531.89 1953.99,-533.57 
			1949.79,-534.41 1945.51,-534.3 1941.54,-532.8 1939.13,-529.34 1938.29,-525.14 1937.33,-520.97 1935.21,-517.28 
			1931.55,-515.14 1927.31,-514.58 1923.12,-515.31 1919.49,-517.57 1915.54,-516.64 1912.53,-513.59 1909.04,-511.11 
			1905.05,-509.55 1900.93,-508.37 1896.9,-506.9 1893.11,-504.91 1889.56,-502.5 1886.25,-499.78 1883.09,-496.88 1879.96,-493.95 
			1876.84,-491 1873.58,-488.23 1870.02,-485.84 1865.99,-484.43 1861.79,-484.88 1858.15,-487.14 1854.89,-489.9 1852.63,-493.53 
			1851.4,-497.62 1851.33,-501.9 1851.99,-506.13 1853.33,-510.21 1854.77,-514.25 1855.23,-518.47 1852.6,-521.7 1848.94,-523.92 
			1844.8,-524.98 1840.55,-524.6 1836.37,-523.62 1832.21,-522.57 1828.15,-521.2 1824.05,-519.95 1819.97,-518.63 1815.79,-517.84 
			1811.75,-519.2 1807.87,-521.03 1803.96,-522.79 1799.99,-524.41 1795.91,-525.71 1791.69,-526.46 1787.4,-526.5 1783.12,-526.3 
			1778.84,-526.53 1774.59,-527.11 1770.8,-529.02 1767.87,-532.15 1765.2,-535.5 1762.34,-538.7 1758.93,-541.25 1754.72,-541.75 
			1750.59,-540.63 1746.58,-539.12 1742.52,-537.73 1738.37,-536.65 1734.19,-535.68 1729.98,-534.9 1725.75,-534.2 
			1721.69,-532.86 1718.43,-530.12 1716.35,-526.38 1714.45,-522.54 1711.55,-519.42 1707.82,-517.32 1703.68,-516.24 
			1699.41,-515.88 1695.12,-515.71 1690.85,-515.39 1686.56,-515.34 1682.31,-515.84 1679.26,-518.53 1679.48,-522.77 
			1680.65,-526.9 1680.29,-531.04 1676.55,-532.94 1672.35,-533.78 1668.21,-534.91 1664.11,-536.15 1659.84,-536.24 
			1655.74,-535.07 1652.19,-532.7 1649.67,-529.25 1648.42,-525.17 1648.38,-520.89 1649.21,-516.69 1650.58,-512.62 
			1652.11,-508.62 1653.64,-504.61 1654.74,-500.47 1655.95,-496.36 1657.47,-492.35 1659.05,-488.36 1661.17,-484.65 
			1663.32,-480.96 1663.38,-476.7 1663.33,-472.42 1663.65,-468.14 1663.55,-463.85 1662.95,-459.61 1661.43,-455.61 
			1660.11,-451.58 1660.64,-447.33 1660.92,-443.05 1662.4,-439.07 1665.19,-435.84 1669.15,-434.43 1672.75,-432.49 
			1674.81,-428.81 1678.59,-426.79 1680.8,-423.51 1677.3,-421.37 1673.17,-420.25 1669.06,-419.05 1665.55,-421.11 
			1662.75,-424.34 1659.38,-426.99 1656.62,-430.27 1654.02,-433.68 1651.13,-436.84 1648.28,-440.04 1644.64,-442.26 
			1640.59,-443.68 1636.75,-445.55 1633.53,-448.36 1630.99,-451.82 1628.98,-455.59 1627.88,-459.73 1627.21,-463.97 
			1626.11,-468.1 1623.94,-471.78 1620.75,-474.63 1617.4,-477.31 1614.11,-480.06 1610.85,-482.85 1607.59,-485.63 
			1603.72,-487.39 1599.56,-486.69 1595.41,-485.68 1591.2,-484.88 1587.79,-482.38 1585.78,-478.61 1584.55,-474.51 
			1584.75,-470.29 1581.19,-468.47 1576.93,-468.78 1572.73,-469.65 1568.47,-470.11 1564.19,-470.37 1560.19,-471.85 
			1556.62,-474.22 1553.15,-476.74 1549.43,-478.86 1545.19,-479.09 1541.11,-477.81 1536.92,-477.47 1533.2,-479.55 
			1529.94,-482.34 1527.22,-485.65 1524.84,-489.22 1522.65,-492.91 1520.79,-496.77 1519.18,-500.74 1517.33,-504.61 
			1515.18,-508.32 1512.67,-511.8 1509.67,-514.85 1506.08,-517.18 1502.04,-518.56 1497.79,-519.13 1493.51,-519.4 
			1489.23,-519.68 1484.96,-520.05 1480.7,-519.63 1476.53,-518.6 1472.39,-517.49 1468.37,-516 1464.68,-513.84 1461.31,-511.19 
			1458.13,-508.31 1455,-505.37 1451.41,-503.07 1447.63,-504.27 1446.22,-508.19 1446.27,-512.46 1444.48,-516.32 1440.79,-518.11 
			1436.86,-516.5 1433.36,-514.02 1429.77,-511.68 1426.21,-509.29 1423.05,-506.4 1420.2,-503.2 1417.42,-499.93 1414.79,-496.54 
			1412.48,-492.93 1410.63,-489.06 1408.92,-485.13 1407.81,-481 1408.43,-476.86 1412.46,-476.61 1416.19,-478.7 1419.69,-481.17 
			1422.87,-484.05 1426.03,-486.94 1429.5,-489.46 1433.52,-489.89 1432.06,-486.2 1429.05,-483.15 1426.74,-479.55 
			1424.72,-475.77 1422.63,-472.02 1420.79,-468.15 1419.04,-464.23 1417.31,-460.31 1415.7,-456.34 1414.08,-452.37 
			1412.23,-448.5 1410.29,-444.67 1408.36,-440.84 1406.45,-437 1403.8,-433.65 1400.45,-430.97 1396.82,-428.69 1393.09,-426.59 
			1389.34,-424.49 1385.97,-421.86 1383.18,-418.61 1380.58,-415.19 1377.92,-411.83 1375.38,-408.37 1373.14,-404.72 
			1371.12,-400.94 1369.2,-397.1 1367.46,-393.18 1365.9,-389.19 1364.65,-385.09 1363.99,-380.85 1363.23,-376.63 1362.97,-372.36 
			1363.51,-368.11 1364.22,-363.88 1364.85,-359.64 1365.28,-355.37 1365.63,-351.1 1365.92,-346.82 1366.15,-342.54 
			1365.87,-338.26 1364.99,-334.07 1363.52,-330.05 1360.48,-327.14 1356.28,-326.52 1352,-326.85 1347.93,-325.82 1345.99,-322.14 
			1346.33,-317.88 1347.45,-313.74 1349.12,-309.8 1350.2,-305.69 1347.05,-303.43 1342.8,-303.98 1338.58,-304.73 1334.31,-305.1 
			1330.07,-304.58 1326.38,-302.47 1323.9,-298.99 1322.39,-294.99 1321.17,-290.87 1320.55,-286.65 1321.21,-282.42 
			1319.25,-279.16 1315.01,-279.55 1310.84,-280.57 1306.64,-281.44 1302.37,-281.41 1298.14,-280.67 1293.96,-279.73 
			1289.92,-278.3 1286.18,-276.21 1282.75,-273.64 1279.67,-270.65 1276.69,-267.57 1273.55,-264.66 1269.91,-262.4 
			1266.19,-260.26 1262.38,-258.31 1258.44,-256.6 1254.45,-255.04 1250.36,-253.75 1246.15,-253 1242.33,-254.55 1240.57,-258.43 
			1239.63,-262.62 1238.83,-266.83 1238.07,-271.05 1237.51,-275.3 1237.01,-279.56 1236.47,-283.82 1235.91,-288.07 
			1235.42,-292.33 1234.85,-296.58 1234.1,-300.8 1232.82,-304.88 1230.18,-308.22 1226.56,-310.5 1222.61,-312.18 1218.61,-313.72 
			1214.61,-315.26 1210.67,-316.97 1207.26,-319.5 1206.89,-323.57 1207.49,-327.69 1205.74,-331.59 1202.97,-334.84 
			1199.75,-337.68 1196.49,-340.46 1193.6,-343.63 1191.61,-347.41 1190.4,-351.52 1189.48,-355.71 1188.59,-359.91 
			1187.83,-364.13 1187.27,-368.38 1186.9,-372.65 1186.71,-376.93 1186.24,-381.19 1185.05,-385.3 1182.14,-388.33 
			1177.94,-388.67 1173.82,-387.49 1169.89,-385.77 1166.11,-383.74 1162.43,-381.55 1158.81,-379.24 1155.4,-376.64 
			1152.28,-373.7 1149.6,-370.36 1147.45,-366.66 1145.71,-362.74 1143.91,-358.85 1141.77,-355.13 1139.43,-351.54 
			1137.08,-347.95 1134.77,-344.34 1132.29,-340.84 1129.52,-337.57 1126.33,-334.71 1122.53,-332.75 1118.41,-331.59 
			1114.31,-330.33 1110.36,-328.66 1106.99,-326.04 1104.53,-322.54 1103.1,-318.51 1102.76,-314.24 1102.76,-309.96 
			1102.75,-305.67 1102.67,-301.38 1102.09,-297.14 1100.89,-293.02 1099.27,-289.05 1097.44,-285.17 1095.25,-281.48 
			1092.72,-278.03 1089.88,-274.81 1086.71,-271.92 1083.51,-269.07 1080.54,-265.98 1077.93,-262.58 1075.48,-259.06 
			1073.2,-255.43 1070.87,-251.83 1068,-248.66 1064.29,-246.53 1060.21,-245.23 1055.98,-244.59 1051.69,-244.38 1047.41,-244.09 
			1043.17,-243.51 1038.93,-242.83 1034.76,-241.86 1030.66,-240.59 1026.7,-238.95 1022.87,-237.02 1019.24,-234.74 
			1015.89,-232.07 1012.8,-229.09 1009.57,-226.27 1006.02,-223.87 1002.17,-222 998.21,-220.34 994.31,-218.56 990.41,-216.78 
			986.51,-215 982.56,-213.33 978.55,-211.8 974.5,-210.41 970.34,-209.34 966.07,-209.07 961.83,-209.65 957.89,-211.31 
			954.48,-213.9 951.14,-216.59 947.47,-218.79 943.43,-220.21 939.18,-220.59 935,-219.67 931.07,-217.96 927.36,-215.82 
			923.52,-213.9 920.03,-211.43 916.67,-208.78 913.16,-206.31 909.63,-203.88 906.12,-201.41 902.67,-198.87 899.34,-196.16 
			895.92,-193.58 892.63,-190.83 889.34,-188.08 886,-185.39 882.75,-182.6 879.65,-179.62 876.63,-176.58 873.63,-173.51 
			870.45,-170.65 866.94,-168.18 862.9,-166.86 858.62,-166.97 854.39,-166.49 850.96,-163.95 847.12,-162.06 843.17,-160.4 
			839.16,-158.88 835.03,-157.73 830.97,-156.33 827.06,-154.59 823.16,-152.8 819.45,-150.65 815.65,-148.67 811.46,-147.82 
			808.15,-145.33 807.37,-141.14 807.17,-136.86 806.95,-132.57 805.96,-128.42 802.22,-126.99 798.33,-128.73 794.88,-131.26 
			791.97,-134.41 789.68,-138.03 787.48,-141.71 785.27,-145.39 783.03,-149.04 780.76,-152.69 778.12,-156.03 775.85,-153.65 
			775.55,-149.38 774.17,-145.34 772.05,-141.61 770.12,-137.78 768.48,-133.82 766.79,-129.88 765.12,-125.93 764.12,-121.77 
			764.84,-117.58 766.51,-113.63 768.2,-109.69 768.57,-105.45 767.19,-101.42 764.7,-97.94 761.55,-95.05 757.69,-93.2 
			753.48,-92.57 749.54,-94.08 747.06,-97.54 745.47,-101.52 744.25,-105.63 742.49,-109.53 740.04,-113.05 737.3,-116.35 
			734.28,-119.39 731.09,-122.25 728.06,-125.29 725.09,-128.39 722.23,-131.58 719.37,-134.78 716.31,-137.78 712.72,-140.11 
			708.99,-142.22 705.47,-144.67 701.86,-146.98 700.75,-150.31 703.67,-153.44 706.89,-156.28 710.17,-159.04 713.55,-161.68 
			716.88,-164.38 719.93,-167.39 722.15,-171.03 720.86,-174.68 716.66,-175.4 712.38,-175.6 708.22,-174.63 704.42,-172.66 
			700.7,-170.51 696.91,-168.51 693.22,-166.33 689.56,-164.09 686.01,-161.69 682.32,-159.5 678.33,-157.94 674.29,-156.52 
			670.22,-155.15 666.04,-154.21 661.77,-153.98 657.54,-153.46 653.65,-151.65 649.88,-149.62 645.77,-149.54 641.83,-151.03 
			637.66,-150.14 634.18,-147.69 632.31,-143.87 630.57,-139.95 628.26,-136.34 625.38,-133.17 622.28,-130.21 619.17,-127.26 
			616.23,-127.08 617.48,-131.17 617.54,-135.42 615.76,-139.3 613.14,-142.69 610.61,-146.14 608.89,-150.06 608,-154.25 
			607.14,-158.35 603,-158.65 598.86,-157.52 594.73,-156.38 590.52,-155.56 586.24,-155.41 582.31,-156.93 580.08,-160.53 
			579.28,-164.73 579.21,-169.02 579.42,-173.3 579.3,-177.58 576.98,-180.95 572.75,-181.36 568.47,-181.02 564.19,-180.69 
			559.91,-180.47 555.63,-180.28 551.34,-180.09 547.06,-179.88 542.79,-179.52 538.56,-178.8 534.72,-177 533.17,-173.12 
			533.57,-168.86 534.59,-164.7 535.89,-160.61 537.32,-156.57 538.81,-152.54 540.2,-148.49 541.41,-144.37 542.36,-140.19 
			542.73,-135.93 541.51,-131.89 538.16,-129.29 534.03,-128.19 529.75,-127.92 525.47,-128.08 521.19,-128.33 516.9,-128.44 
			512.61,-128.33 508.34,-127.92 504.16,-126.99 500.09,-125.65 495.85,-125.09 491.56,-125.02 487.31,-124.54 483.48,-122.67 
			480.33,-119.76 477.34,-116.69 473.41,-115.15 469.43,-113.69 466.17,-110.91 463.33,-107.7 461.15,-104.01 459.3,-100.14 
			457.53,-96.24 455.53,-92.44 453.15,-88.88 450.43,-85.57 447.12,-82.86 443.18,-81.2 438.97,-80.39 434.76,-79.59 430.71,-78.2 
			426.9,-76.23 423.26,-73.97 420.04,-71.16 417.93,-67.45 416.9,-63.29 416.38,-59.03 415.64,-54.81 414.21,-50.78 412.04,-47.08 
			409.44,-43.68 406.44,-40.61 403.19,-37.81 399.93,-35.03 396.57,-32.37 393.08,-29.88 389.53,-27.47 385.86,-25.25 382.1,-23.19 
			378.22,-21.35 374.34,-19.53 370.49,-17.65 366.65,-15.74 362.82,-13.81 359,-11.86 355.17,-9.92 351.32,-8.04 347.37,-6.36 
			343.36,-4.85 339.37,-3.27 335.32,-1.86 331.21,-0.65 327.15,0.73 323.2,2.41 319.31,4.22 315.45,6.09 311.62,8.01 307.77,9.9 
			303.89,11.72 299.97,13.47 295.97,15.02 291.98,16.6 288.02,18.24 284.03,19.81 280.09,21.49 276.34,23.59 272.53,25.54 
			268.54,27.1 264.52,28.62 260.45,29.96 256.21,30.43 252.21,29.05 249.3,25.92 247.09,22.25 244.97,18.52 242.84,14.8 
			240.84,11.01 238.89,7.18 236.97,3.35 234.97,-0.44 232.82,-4.15 230.57,-7.81 228.36,-11.48 226.2,-15.19 224.22,-18.99 
			222.36,-22.86 220.4,-26.67 218.39,-30.46 216.31,-34.21 214.1,-37.89 211.75,-41.47 208.85,-44.61 204.95,-46.25 200.79,-45.42 
			197.3,-42.96 194.37,-39.84 191.5,-36.64 188.2,-33.93 184.41,-31.93 180.6,-29.95 176.86,-27.85 173.23,-25.57 169.63,-23.25 
			166.19,-20.68 163.03,-17.79 159.71,-15.07 156.02,-12.9 151.83,-12.28 147.89,-13.84 144.82,-16.82 141.96,-20.02 138.84,-22.96 
			135.36,-25.46 131.92,-28.02 128.64,-30.79 125.13,-33.24 121.03,-34.26 116.84,-33.37 112.74,-32.12 108.67,-30.77 
			104.63,-29.32 100.61,-27.82 96.61,-26.29 92.58,-24.82 88.52,-23.45 84.48,-21.99 80.47,-20.48 76.44,-19.01 72.41,-17.55 
			68.3,-16.3 64.07,-15.67 61.54,-18.03 64.05,-21.46 66.9,-24.66 69.08,-28.3 66.92,-31.56 62.8,-32.71 58.68,-33.92 54.47,-34.67 
			50.66,-36.63 46.53,-37.62 42.35,-36.78 38.47,-34.97 34.68,-32.95 30.89,-30.95 26.98,-29.19 23.07,-27.43 19.21,-25.55 
			15.3,-23.8 11.33,-22.17 7.2,-21.04 2.97,-20.31 -1.25,-19.54 -5.53,-19.28 -9.72,-18.43 -13.84,-17.25 -18.01,-16.21 
			-22.22,-15.44 -26.47,-14.84 -30.74,-14.61 -34.79,-15.98 -38.93,-17.06 -43.17,-16.65 -47.13,-15.04 -50.3,-12.18 -52.4,-8.46 
			-53.52,-4.33 -55.37,-0.51 -58.53,2.38 -62.12,4.72 -66.08,6.33 -70.31,7.06 -74.59,7.29 -78.86,7.67 -83.1,8.3 -87.32,7.76 
			-90.43,4.92 -93.21,1.69 -97.42,1.38 -101.43,-0.04 -104.91,-2.53 -107.59,-5.87 -110.43,-9.07 -114.28,-10.87 -118.53,-11.44 
			-122.81,-11.62 -127.09,-11.92 -131.3,-12.64 -134.72,-15.18 -138.81,-16.46 -142.6,-18.46 -146.37,-20.5 -150.36,-22.07 
			-154.41,-23.47 -158.45,-24.91 -162.29,-26.81 -166.43,-27.92 -170.67,-28.47 -174.6,-27.04 -177.36,-23.76 -180.29,-20.63 
			-182.91,-17.24 -184.59,-13.3 -186.92,-9.89 -191.14,-9.23 -195.33,-8.35 -199.62,-8.13 -203.87,-7.62 -207.98,-6.4 
			-211.99,-4.88 -215.84,-3 -219.31,-0.5 -222.45,2.43 -225.42,5.51 -226.9,9.49 -227.39,13.75 -229.29,17.55 -232.58,20.28 
			-236.1,22.73 -239.37,25.5 -242.43,28.5 -245.63,31.36 -249.11,33.86 -252.52,36.46 -255.06,39.85 2432.27,39.85 		"/>
		<rect x="-862.38" y="-1932.61" class="st19" width="3294.65" height="1972.46"/>
	</g>
	<g>
		<path class="st18" d="M74.09,110.32H49.15c1.4,6.62,7.48,11.61,14.74,11.61h4.21L74.09,110.32z"/>
		<path class="st18" d="M49.02,93.48c-0.11,1.25-0.17,2.51-0.17,3.78v7.26h29.64c1.22-7.03,7.33-12.15,14.47-12.11v5.81
			c-3.93-0.03-7.4,2.54-8.52,6.31H96.8c5,0,9.06-3.91,9.06-8.71s-4.06-8.71-9.06-8.71H76.65c-0.85,3.23-2.74,6.1-5.37,8.16
			l-3.66-4.51c2.34-1.9,3.63-4.37,3.63-6.96c0-2.59-1.29-5.06-3.63-6.96l3.66-4.51c3,2.44,4.91,5.55,5.54,8.96h13.27
			c0.33-5.15,2.72-9.95,6.62-13.33c-1.29-2.18-1.96-4.66-1.96-7.19h5.81c0,4.75,3.97,8.61,8.85,8.61v5.81
			c-3.17,0.01-6.26-1.01-8.8-2.9c-2.67,2.28-4.34,5.51-4.68,9.01h0.87c8.2,0,14.87,6.51,14.87,14.52c0,3.15-1.05,6.22-2.98,8.71
			h14.29c-0.2-4.97,2.46-9.86,7.41-13.29l0.87-0.61l3.31,4.77L133.69,96c-3.38,2.34-5.12,5.44-4.9,8.52h6.89
			c3.35,0,6.07-2.6,6.07-5.81v-1.45c0-5.24-0.94-10.45-2.78-15.35c-3.21,2.52-7.17,3.88-11.25,3.87c-0.56,0-1.12-0.03-1.68-0.08
			c-0.74,1.86-1.87,3.54-3.3,4.94l-4.06-4.15c0.07-0.06,0.13-0.13,0.19-0.19c3.24-3.35,3.16-8.7-0.19-11.94l4.06-4.15
			c2.64,2.57,4.18,6.06,4.3,9.74c3.5,0.23,6.93-1.07,9.4-3.57c-4-7.31-9.9-13.39-17.09-17.6c0.03,0.4,0.06,0.79,0.06,1.2
			c0.01,3.65-1.47,7.14-4.09,9.68l-4.06-4.15c2.82-2.73,3.14-7.14,0.72-10.24c-9.69-3.6-20.28-3.97-30.19-1.06
			c-0.3,3.84,1.33,7.58,4.35,9.97l1.55,1.21l-3.57,4.58l-1.55-1.21c-3.84-3.03-6.23-7.54-6.57-12.42
			c-13.03,5.79-22.83,17.25-26.03,31.1c3.13-0.74,5.87-2.62,7.68-5.27l4.8,3.27C59.36,89.94,54.46,92.89,49.02,93.48z"/>
		<path class="st18" d="M44.34,133.72c4.86,8.93,7.41,18.93,7.42,29.1v5.57h75.48c8.01-0.01,14.51-6.5,14.52-14.52v-8.81
			c-6.74-0.44-13.27-2.56-18.99-6.17l3.14-4.88c4.78,3.01,10.22,4.8,15.85,5.22v-11.49c0-1.6,1.3-2.9,2.9-2.9h16.8l-6.77-35
			c-5.56-28.54-30.55-49.15-59.62-49.19c-33.49,0-60.73,27.24-60.73,60.73c0.01,9.2,2.31,18.24,6.71,26.32L44.34,133.72z
			 M43.05,107.42V97.26c0-28.02,23.44-50.81,52.26-50.81c6.85-0.01,13.63,1.3,19.98,3.86l0.03-0.03c0.02,0.02,0.05,0.05,0.07,0.07
			c18.88,7.67,32.18,25.8,32.18,46.9v1.45c0,6.4-5.33,11.61-11.88,11.61H95.58l-14.15,27.46c-0.5,0.97-1.49,1.57-2.58,1.57H63.9
			c-0.46,0-0.92-0.11-1.33-0.32c-1.43-0.73-1.99-2.49-1.25-3.91l3.8-7.38H63.9C52.4,127.74,43.05,118.63,43.05,107.42z"/>
		<polygon class="st18" points="72.46,126.17 68.66,133.55 77.08,133.55 89.05,110.32 80.62,110.32 72.46,126.17 		"/>
		<rect x="92.4" y="11.61" class="st18" width="5.81" height="17.42"/>
		<rect x="92.4" y="0" class="st18" width="5.81" height="5.81"/>
		
			<rect x="121.69" y="25.38" transform="matrix(0.5 -0.866 0.866 0.5 40.1372 126.0846)" class="st18" width="15.14" height="5.81"/>
		<rect x="134.5" y="11.28" transform="matrix(0.5 -0.866 0.866 0.5 56.4177 126.0847)" class="st18" width="5.81" height="5.81"/>
		<rect x="152.8" y="48.56" transform="matrix(0.866 -0.5 0.5 0.866 -4.695 85.4062)" class="st18" width="8.44" height="5.81"/>
		<rect x="165.32" y="42.1" transform="matrix(0.866 -0.5 0.5 0.866 0.0383 90.1442)" class="st18" width="5.81" height="5.81"/>
		<rect x="164.98" y="84.19" class="st18" width="5.81" height="5.81"/>
		<rect x="176.6" y="84.19" class="st18" width="5.81" height="5.81"/>
		<rect x="19.82" y="84.19" class="st18" width="5.81" height="5.81"/>
		<rect x="8.21" y="84.19" class="st18" width="5.81" height="5.81"/>
		<rect x="32.06" y="46.45" transform="matrix(0.5 -0.866 0.866 0.5 -27.7759 56.4069)" class="st18" width="5.81" height="11.61"/>
		<rect x="19.49" y="42.1" transform="matrix(0.5 -0.866 0.866 0.5 -27.7759 41.8906)" class="st18" width="5.81" height="5.81"/>
		<rect x="58.44" y="20.71" transform="matrix(0.866 -0.5 0.5 0.866 -5.9223 34.4628)" class="st18" width="5.81" height="15.14"/>
		<rect x="50.3" y="11.28" transform="matrix(0.866 -0.5 0.5 0.866 0.0367 28.5039)" class="st18" width="5.81" height="5.81"/>
	</g>
</g>
<g id="Layer_4">
</g>
</svg>
