<svg xmlns="http://www.w3.org/2000/svg" viewBox="0 0 216 216"><defs><style>.cls-1{fill:#a08080;stroke:#ffdad0;stroke-miterlimit:10;fill-rule:evenodd;}</style></defs><g id="Landing_page_Text" data-name="Landing page Text"><path class="cls-1" d="M78,141.24s7.82.26,9.59.57a25,25,0,0,1,8.23,2.36,10.27,10.27,0,0,1,3.65,4.45c.9,2.53-.61,7.87-2,14.21-1,4.35-2.46,12-3.47,12.92-3.14,3-7.51,6.25-14.4,6-9.53-.28-12.92-1.65-16.19-6.06-.91-1.22-3.36-11.62-4.75-19.37-1.15-6.47-.47-8.78.1-9.6,1.39-2,4.56-3.56,5.74-3.93.94-.29,6.14-1.15,7.13-1.26C73.5,141.36,78,141.24,78,141.24Zm90.65-23.91c-2.52,4-9,5.55-11.89,5.44-6.12-.22-13.69-5.28-14.22-13.92-.41-6.75,4.92-15.34,14.44-15.71,5.09-.19,9.47,3,9.47,3l-4.13-19.45a12.85,12.85,0,0,1-3,.24c-2.73-.23-4-3.36-4.34-4.61s-.54-2.3.88-3.55c1.06-.92,5.34-2.43,5.34-2.43a5.89,5.89,0,0,1,2.12-.07,4.81,4.81,0,0,1,1.55.91c1,.9,1.77,3.54,1.84,3.76s1.21,4.82,1.6,6.33c1.15,4.48,4.33,15.34,6.56,25.13,2.3,10,3.64,19,3.64,19s.77,5.74.91,7.29v.06a56,56,0,0,1,.19,6.18,107,107,0,0,1-2,10.93c-.79,3.34-3.82,13.37-4.35,14.11s-4.46,3.33-6.31,4.11h0a19.15,19.15,0,0,1-8,1.8,19.36,19.36,0,0,1-9.56-2.14s-5-2.65-5.76-3.55a3.59,3.59,0,0,1-.58-1.89s-1.68,9-2.94,11.43c-.86,1.68-9.85,6.06-13.94,6a35.69,35.69,0,0,1-11.56-2.48c-1.94-.71-4-1.75-5.09-3.53-1.21-2.06-1.46-5.88-2.19-8.82-1-3.21-3.86-12.19-3.48-17.39.21-2.94,3.06-4.83,3.42-5.1,2.18-1.64,4.92-1.95,7.5-2.45a53.34,53.34,0,0,1,9.19-.76c.43,0,6.82.14,9.77.58.38.06,3.7.61,4,.69a13,13,0,0,1,.22-3.18,8.24,8.24,0,0,1,2.54-4.28,11.6,11.6,0,0,1,4.38-2.23c3.21-1.08,10-1.6,12.58-1.55a91.12,91.12,0,0,1,11.3,1.18l-.1-9.14ZM55.07,130.68c.24,0,6.91.35,8,.5a16.85,16.85,0,0,0,3.12,4,17,17,0,0,0,5.25,3.41,16.35,16.35,0,0,0,2.46.78c-.21,0-5.14.59-5.51.66a29.05,29.05,0,0,0-3.79.71,11.45,11.45,0,0,0-6.84,4.13,7.93,7.93,0,0,0-1.93,4.43c-.55,4.73,2.75,15,3.35,17.49a64.86,64.86,0,0,1-8.69-.14c-9.48-1.42-9-4.27-9.2-4.84-1.38-4.8-4.61-16.87-4.92-21.6-.14-2,.45-5.22,3-6.79,2-1.21,5.55-1.84,8-2.15S54.66,130.68,55.07,130.68ZM99.44,162.5s2-8.13,2.07-9.11c.4-3.48-.05-6.07-1.15-7.55A12.45,12.45,0,0,0,93.48,141,94.28,94.28,0,0,0,82,139.33c1.67.07,5.86-2.66,7.38-4.11a16.9,16.9,0,0,0,3.55-4.87,16.26,16.26,0,0,0,1.39-4.3c1.38-.12,6.63-.2,7-.2,1,0,8.8,1,8.8,1a21.5,21.5,0,0,0,4.15,4.1,17.84,17.84,0,0,0,5.67,2.53c-1.46.1-8.2,1.06-9.52,1.43a15.56,15.56,0,0,0-5.8,3.25,9.71,9.71,0,0,0-2.62,4.4,19.43,19.43,0,0,0,.44,7.3c.05.18,3,11.71,3,11.71C105.05,161.65,99.44,162.5,99.44,162.5ZM77.32,108.43c7.88.06,15.28,5.92,15.29,14.33,0,8-6.25,15.26-14.86,15.16-7.38-.08-15-6.15-15-14.43C62.77,117,67.74,108.36,77.32,108.43Zm62.68,4a17.35,17.35,0,0,1,.32,8.06,21.61,21.61,0,0,1-2,5.16c-2.39,5-8.61,7.3-10.25,7.73.49,0,7.77.84,7.77.84a10.73,10.73,0,0,1,2.12-5.27,11.11,11.11,0,0,1,6.39-4,71,71,0,0,1,7.49-1.14h0a15.52,15.52,0,0,1-6.62-4.08,23.73,23.73,0,0,1-4.25-7.29Zm-16.66-10c9.14,0,15.3,6.76,15.42,14.09.12,8.26-5.38,15.49-14.9,15.49s-14.94-9-14.85-14.48C109.13,110.29,114.41,102.38,123.34,102.37ZM53.23,100.9c7.32-.7,12,5.2,13.09,7.54a14.69,14.69,0,0,1,.68,1.7c-.94,1.28-3.17,3-4.86,7.09a20.75,20.75,0,0,0-1,8.52,13.44,13.44,0,0,1-2,1,14,14,0,0,1-4.68.93c-3.12,0-6.42-.39-9.5-3.25-2.91-2.68-4.06-5.32-4.58-9.27A13.57,13.57,0,0,1,53.23,100.9Zm54.52,21a15.56,15.56,0,0,1-3.14,1.75c-.29.11-.59.23-.88.32a48,48,0,0,1,5.07.58A17.82,17.82,0,0,1,107.75,121.92ZM85.44,108.11c0-.47.71-7.12,6.85-10.36a13.24,13.24,0,0,1,15.47,1.68,13.07,13.07,0,0,1,3.89,6.11,16.63,16.63,0,0,0-4.47,9.41,16.7,16.7,0,0,0,.09,4.89,15.3,15.3,0,0,1-6.26,2.87,15.8,15.8,0,0,1-6.46-.55h0a32.9,32.9,0,0,0-1.73-6.57A17,17,0,0,0,85.44,108.11Zm40.48-19.88a13.52,13.52,0,0,1,19.2-2.6,16.24,16.24,0,0,1,4.69,7.1l-.05,0a36.51,36.51,0,0,0-5.79,4.7,16.47,16.47,0,0,0-3.56,11.44,12.27,12.27,0,0,1-1.68.36,16.78,16.78,0,0,0-14.66-9h0A12.76,12.76,0,0,1,125.92,88.23ZM66.5,59.9C67.63,57.66,71.33,56.29,73,57S75.69,61,75.69,61s6.55,25.52,6.55,25.52,2.85,15.91,2.79,16a14.93,14.93,0,0,0-1.36,4.11,5.81,5.81,0,0,0-.09.58,16.92,16.92,0,0,0-3.27-.85,36.45,36.45,0,0,0-5.12,0,16.79,16.79,0,0,0-4.54,1.38,16.08,16.08,0,0,0-1.87,1s-.54-.93-.79-1.42a15.39,15.39,0,0,0-1.92-3s1.83-.1,2.74-.13a59.37,59.37,0,0,1,8.35.88l-.07-7.37a11.75,11.75,0,0,1-9.28,4.38c-6.15.1-11.74-5.38-11.76-12.13A12.22,12.22,0,0,1,67.69,78.18a12.74,12.74,0,0,1,7.62,2.61s-3-13.94-3.33-15.7c-.44.13-1.4.67-2.24.31C68.37,64.81,65.34,62.22,66.5,59.9Zm51.33,41.49c-1.33-.11-5.75-.19-6-.19a29.74,29.74,0,0,1,1.44,2.88A32.68,32.68,0,0,1,117.83,101.39ZM82.61,80.21c.12,0,6-.7,8.62-.75,2.28,0,7.08.51,7.08.51a14.59,14.59,0,0,0-.94,3.25,15,15,0,0,0,0,4.64,14.71,14.71,0,0,0,1.36,4.29,14.07,14.07,0,0,0,1.17,1.94c-.29,0-2.7,0-3.41.14a15.3,15.3,0,0,0-9.64,5.57C86.21,96,83.12,82.18,82.61,80.21Zm16.58,5.88c0-5,3.68-13.25,13.14-13.12,8.79.13,11.79,8.27,12.1,10.57a14,14,0,0,1,.13,3.1A16,16,0,0,0,123,89.13a15.7,15.7,0,0,0-1.36,4.12c0,.21-.07.43-.1.65a16.05,16.05,0,0,1-4.41,3.32,16.34,16.34,0,0,1-8,.84,15.06,15.06,0,0,0-6.32-3.47A12.67,12.67,0,0,1,99.19,86.09Zm48.12-1.32a15.58,15.58,0,0,1,3.24,4.36A15.37,15.37,0,0,1,151.62,92c.52-.18,1-.34,1.59-.47a16.67,16.67,0,0,1,4.22-.48s0-2.06-.61-2.79A8.36,8.36,0,0,0,155,86.58C152.41,85,147.89,84.83,147.31,84.77ZM117.52,34.65a5.48,5.48,0,0,1-2.62-.09,3.67,3.67,0,0,1-2.18-3.36c.33-2.72,3.93-3,6-2.5,1.57.36,1.76,2.77,1.76,2.77.22,1,7.18,29.8,7.53,32.64a61.49,61.49,0,0,1,.5,8,87.71,87.71,0,0,1-2.3,10.16A14.46,14.46,0,0,0,124.94,79a15.53,15.53,0,0,0-10.84-7.83c-.68-.09-4.15,0-4.83.06a11.76,11.76,0,0,0-7,3.35c-.12-.4-.38-2.55-.38-2.55h0a11.28,11.28,0,0,0,.69-2.79,17.84,17.84,0,0,1,3.86-2.75c1.07-.51,4.79-.83,7.21-.87a74.71,74.71,0,0,1,7.94.63l-.06-5.79c-.57.68-2.39,3.2-7.37,3.43S105,59,105,55.14c0-3.12,1.26-9.62,8.82-10A12,12,0,0,1,120.13,47C119.55,44.26,117.81,36,117.52,34.65Zm23.94,24.74c7.48.08,11.62,6.26,11.53,10.59a11.08,11.08,0,0,1-11.11,11.18c-6.12.15-11.4-4.88-11.53-10.37C130.19,63.46,136.92,59.34,141.46,59.39ZM82.61,80.21ZM98.31,80ZM90.75,58.84a9.6,9.6,0,0,1,9.76,9.2c.18,5.07-4.46,9.24-9.44,9.35C85,77.52,81,72.74,80.9,68.58,80.75,62.45,86.06,58.9,90.75,58.84Z"/></g></svg>