<svg xmlns="http://www.w3.org/2000/svg" viewBox="0 0 1218.96 150.26"><defs><style>.cls-1{fill:#ffe9d3;}.cls-2{fill:#fff;}</style></defs><g id="bg"><rect class="cls-1" x="3.62" y="-3220.85" width="1215.34" height="4359.01"/></g><g id="Layer_14" data-name="Layer 14"><rect x="429.93" y="10.4" width="362.58" height="128.23" rx="38"/><path class="cls-2" d="M460.26,72.84c-.21-.47-.61-1.55-1.26-1.55-1.11,0-.75,4.75-.75,5.94,0,3.85,2.3,2,2.3,4s-3.85,2.13-5.25,2.13-4.54-.11-4.54-2c0-2.06,2.16-.36,2.45-3.32a108.68,108.68,0,0,0,.61-11.59,9.59,9.59,0,0,0-.54-4.1c-.36-.75-2.41-1-2.41-2.48,0-2.05,3.35-2.56,6.22-2.56,4.22,0,4.14.72,5.22,2.56,1.26,2.12,3.5,8,5.08,8.38,1.12.26,2.59-4.1,3.89-6.47,1.83-3.39,1.87-4.47,6.62-4.47,1.58,0,5.18.11,5.18,2.38,0,1.44-1.62,1.72-2,2.95a48.28,48.28,0,0,0-.54,6.87c0,.54.22,4.5.36,7.85.11,2.63,2.27,2,2.27,3.67,0,2.41-4.93,2.31-6.51,2.31s-6.41.14-6.41-2.16c0-1.26,1.62-1.48,1.87-2.63.15-.61.87-6.8-.39-6.8s-2.27,3.16-3.14,5c-.79,1.65-2.08,5.76-3.24,5.61-.57-.07-.86,0-3-4.86Z"/><path class="cls-2" d="M484.56,70.24c0-7.63,6.09-13,13.93-13,9.94,0,13.75,8.75,13.75,13.39,0,7.74-6.84,12.85-14.18,12.85C490.47,83.45,484.56,77.91,484.56,70.24Zm12.28-7.66c-2,0-3,2.08-3,3.85,0,3.06,2.16,11.66,6.05,11.66,2.2,0,3.13-1.91,3.13-3.85C503,71,501.05,62.58,496.84,62.58Z"/><path class="cls-2" d="M516.39,65.21c0-5.59-2.74-3.28-2.74-5.51,0-2,2.81-2.23,4.25-2.23.75,0,1.48.07,2.23.1a20.32,20.32,0,0,0,2.2.15c1.15,0,2.3-.07,3.49-.15s2.34-.1,3.49-.1c4.07,0,8.78,1.8,8.78,6.58A5.65,5.65,0,0,1,535,69.27c-.32.18-.57.29-.57.72s.46.69.9.87c2.52.93,3.63,2.59,4.14,6.47.43,3.35,2.77,1.34,2.77,3.53,0,1.37-1.66,2.81-5.72,2.81-5.76,0-6.48-3.31-7.6-8.06-.4-1.66-1-3.28-3-3.28-.79,0-1.08.11-1.08,2.38a22.5,22.5,0,0,0,.25,3.49c.29,1.65,2.13,1.15,2.13,2.88,0,1.29-.9,2.27-6.73,2.27-1.73,0-6.84,0-6.84-2.63,0-1.87,2.7-.58,2.7-5.26Zm8.35,1.58c-.07.93-.25,1.73.93,1.73,2.34,0,3.1-1.3,3.1-3.53,0-1.77-.43-3.57-2.52-3.57-1.33,0-1.3.83-1.37,1.95Z"/><path class="cls-2" d="M557.89,57.72A18.59,18.59,0,0,0,564,57c2,0,2.91,3.53,2.91,5.11,0,1.19-.47,2.59-1.87,2.59-2.84,0-.54-3.45-7.38-3.45-4,0-3.6.71-3.6,4.85,0,2.09.11,2.16,2.31,2.16,2.73,0,.68-4,3.24-4,2.08,0,2.23,4.07,2.23,5.47s-.25,5.8-2.41,5.8,0-3.78-3.64-3.78c-1.51,0-1.48,1.36-1.48,2.52,0,5.25.36,5,4.14,5,7.38,0,5.29-5.08,8.25-5.08,1.15,0,1.72,1.3,1.72,2.31,0,2.45-1.94,6.84-3.38,6.84-.25,0-.83-.11-1.58-.22s-1.8-.18-3-.18H545.62c-2.38,0-2.41-1.08-2.41-1.55,0-2,2.45-.39,2.7-4.21a64.45,64.45,0,0,0,.1-12.42c-.25-5.5-3-2.66-3-5.22,0-2.19,3-1.83,4.5-1.83Z"/><path class="cls-2" d="M607.21,77a2,2,0,0,0,1.12,2.16c.72.4,1.22.61,1.22,1.51s-.07,2.67-7.16,2.67c-1.59,0-6.19,0-6.19-2.45-.15-2.77,2.52.29,2.52-7,0-1.94-.43-1.87-2.23-1.87-5,0-4.58.14-4.58,3.38,0,4.93,2.24,3,2.24,5.29,0,2.52-5.26,2.67-7,2.67s-6.66-.15-6.66-2.6a1.71,1.71,0,0,1,1.16-1.51c1.29-.61,1.76-.5,1.76-8,0-9.58-.15-8.79-1.48-9.51-.54-.29-1.18-.61-1.18-1.33,0-2.77,6-3.06,8-3.06,1.51,0,5.69.18,5.69,2.34,0,1.12-.61,1.51-1.44,2s-1.12.93-1.12,4.14c0,2,.94,1.76,2.67,1.76h1.83c2.38,0,2.31-.36,2.31-1.48,0-3.92-.62-4.17-1.08-4.42-.69-.4-1.34-.72-1.34-1.66,0-.68-.14-2.7,7-2.7,1.7,0,6.48,0,6.48,2.56a1.78,1.78,0,0,1-1.11,1.69c-1.08.47-1.48.36-1.48,6.08Z"/><path class="cls-2" d="M613.8,68.55c0-4.57-.36-5.61-.75-6.12-.83-1-2.24-1.15-2.24-2.52,0-2.59,7.35-2.59,8.07-2.59,2.16,0,6.58.07,6.58,2.52,0,1.3-1.36,1.23-2.19,2.16-.68.79-.72,4-.72,6.55v3.57c0,6.4.43,6.26,1.15,6.69.9.54,1.76.72,1.76,1.84s-.32,2.7-8.2,2.7c-1.51,0-6,0-6-2.34,0-1.16,1.22-1.34,1.8-2,.43-.5.79-1.83.79-6.87Z"/><path class="cls-2" d="M627.41,65.6c0-3.74,3.6-8.39,10.58-8.39,2.31,0,4.9,1,5.44,1s1-.5,1.76-.5c1.23,0,4,2.77,4,5.79A2.27,2.27,0,0,1,647,66c-2.41,0-3.82-4.1-7.56-4.1-1.12,0-2.3.5-2.3,1.8,0,2.84,4.93,2.08,9.1,4.86a6.61,6.61,0,0,1,3.35,6c0,4.21-3.46,9-11.84,9-2.38,0-6.45-.61-8.5-1.72-1.73-1-2.55-4.79-2.55-6.63,0-1,.43-1.94,1.51-1.94,2.55,0,2.12,5.72,8.75,5.72.79,0,2.77-.39,2.77-1.76,0-2.59-4.93-1.94-8.93-5.15A8.26,8.26,0,0,1,627.41,65.6Z"/><path class="cls-2" d="M668.3,57.72a13.08,13.08,0,0,0,2.81-.25,4.22,4.22,0,0,1,1.48-.26c1.4,0,4.32,2.78,4.32,6.66,0,1.8-.94,3-2.77,3-3.14,0-3.1-4.25-4.94-4.25-1.4,0-1.26,2-1.26,2.23V75.9c0,4.28,3.32,2.23,3.32,4.75,0,1.11-.69,2.7-7.42,2.7-1.83,0-8.57.07-8.57-2.7,0-1.91,2.24-1.15,3-2.52a14.8,14.8,0,0,0,.54-3.82l.28-8c.15-3.78-.61-3.75-1.11-3.75-1.62,0-2.41,4.25-5.33,4.25a2.4,2.4,0,0,1-2.23-2.59c0-3.06,2.59-7.06,4.64-7.06a8.88,8.88,0,0,1,1.33.26,19.55,19.55,0,0,0,3.1.25Z"/><path class="cls-2" d="M677.78,70.24c0-7.63,6.08-13,13.93-13,9.93,0,13.75,8.75,13.75,13.39,0,7.74-6.84,12.85-14.19,12.85C683.68,83.45,677.78,77.91,677.78,70.24Zm12.27-7.66c-2,0-3,2.08-3,3.85,0,3.06,2.16,11.66,6,11.66,2.2,0,3.14-1.91,3.14-3.85C696.21,71,694.26,62.58,690.05,62.58Z"/><path class="cls-2" d="M709.6,65.21c0-5.59-2.74-3.28-2.74-5.51,0-2,2.81-2.23,4.25-2.23.76,0,1.48.07,2.23.1a20.32,20.32,0,0,0,2.2.15c1.15,0,2.3-.07,3.49-.15s2.34-.1,3.49-.1c4.07,0,8.78,1.8,8.78,6.58a5.65,5.65,0,0,1-3.06,5.22c-.32.18-.57.29-.57.72s.47.69.9.87c2.52.93,3.63,2.59,4.14,6.47.43,3.35,2.77,1.34,2.77,3.53,0,1.37-1.66,2.81-5.72,2.81-5.76,0-6.48-3.31-7.6-8.06-.4-1.66-1-3.28-3-3.28-.79,0-1.08.11-1.08,2.38a23.8,23.8,0,0,0,.25,3.49c.29,1.65,2.13,1.15,2.13,2.88,0,1.29-.9,2.27-6.73,2.27-1.73,0-6.84,0-6.84-2.63,0-1.87,2.7-.58,2.7-5.26ZM718,66.79c-.07.93-.25,1.73.93,1.73,2.34,0,3.1-1.3,3.1-3.53,0-1.77-.43-3.57-2.52-3.57-1.33,0-1.29.83-1.37,1.95Z"/><path class="cls-2" d="M753.8,67.22c-1.58,2-1.69,3.06-1.69,5.58,0,3.31.18,4.75.51,5.44.5,1,2.41.82,2.41,2.51,0,2.6-5.69,2.6-7.45,2.6-7.06,0-8-1.62-8-2.6,0-1.94,2-1.22,2.7-2.7.36-.82.57-2.48.57-6a5.63,5.63,0,0,0-1.58-4.36L737.21,63c-1.76-2-4.1-1.48-4.1-3.24,0-.83-.26-2.45,8.13-2.45,7.49,0,7.42,1.41,7.42,2.2s-1,1.29-1,2,1.44,3.06,2.34,3.06,2.45-1.91,2.45-2.74c0-1-1.05-1.08-1.05-2.44,0-2.13,4.18-2.13,5.55-2.13,4.49,0,5.68.54,5.68,2.13,0,2.3-2.59,1-4.39,2.91Z"/><path class="cls-2" d="M770.94,69.63c-.32.69-1.58,3-2.48,3s-2.16-2.34-2.49-3a16.72,16.72,0,0,1-1.83-6.91c0-2.66,1.26-5.51,4.32-5.51s4.32,2.85,4.32,5.51A16.58,16.58,0,0,1,770.94,69.63Zm-2.48,13.82a4,4,0,1,1,4-4A4,4,0,0,1,768.46,83.45Z"/></g></svg>