<svg xmlns="http://www.w3.org/2000/svg" xmlns:xlink="http://www.w3.org/1999/xlink" viewBox="0 0 216 216"><defs><style>.cls-1,.cls-3{fill:none;}.cls-2{clip-path:url(#clip-path);}.cls-3{stroke:#000;stroke-miterlimit:10;stroke-width:3px;}.cls-4{fill:#a08080;}</style><clipPath id="clip-path"><polygon class="cls-1" points="-781.88 -287.52 -2005.04 -287.52 -2005.04 -1067.1 -781.88 -1181.63 -781.88 -287.52"/></clipPath></defs><g id="Layer_3" data-name="Layer 3"><g class="cls-2"><rect class="cls-3" x="-2715.85" y="-1393.29" width="2725.74" height="1631.86"/></g></g><g id="Landing_page_Text" data-name="Landing page Text"><path class="cls-4" d="M64.53,118.87h86.94a2.09,2.09,0,0,0,2.09-2.09V62.38a2.1,2.1,0,0,0-2.09-2.09h-4.88V51.78c-3.72,4.18-17.92,5.7-24.88,6.21-9.52.7-12.32,4.76-12.32,4.76v48.7c5.58,0,21-.85,26-2.79,8.14-3.09,11.16-7.44,11.16-7.44V64.48h2.79v48.58H66.62V64.48h2.79v36.75s3,4.35,11.16,7.44c5.09,1.93,20.46,2.79,26,2.79V62.76S103.81,58.7,94.28,58c-7-.51-21.15-2-24.87-6.22V60.3H64.53a2.1,2.1,0,0,0-2.1,2.09v54.4A2.1,2.1,0,0,0,64.53,118.87ZM141.75,95c-.19.07-4.69,1.82-15.42,3.34-7.91,1.12-10.16,3.78-10.24,3.87a1.41,1.41,0,0,1-1.12.55,1.4,1.4,0,0,1-1.14-2.2c.27-.37,2.88-3.68,12.1-5,10.34-1.46,14.75-3.15,14.8-3.17a1.4,1.4,0,0,1,1.8.79A1.38,1.38,0,0,1,141.75,95Zm0-10.45c-.19.08-4.69,1.82-15.42,3.33-7.91,1.12-10.16,3.78-10.24,3.87a1.4,1.4,0,0,1-1.12.57,1.44,1.44,0,0,1-.81-.26,1.4,1.4,0,0,1-.33-1.95c.27-.37,2.88-3.68,12.1-5C136.27,83.7,140.68,82,140.73,82a1.4,1.4,0,0,1,1,2.6Zm0-10.45c-.19.07-4.69,1.82-15.42,3.34-7.91,1.11-10.16,3.77-10.24,3.86a1.39,1.39,0,0,1-1.12.56,1.4,1.4,0,0,1-1.14-2.2c.27-.38,2.88-3.68,12.1-5,10.34-1.46,14.75-3.15,14.8-3.17a1.4,1.4,0,0,1,1,2.6Zm0-10.46c-.19.08-4.69,1.82-15.42,3.34-7.91,1.12-10.16,3.78-10.24,3.87a1.39,1.39,0,0,1-1.12.56,1.37,1.37,0,0,1-.81-.26,1.39,1.39,0,0,1-.33-1.94c.27-.38,2.88-3.69,12.1-5,10.34-1.46,14.75-3.16,14.8-3.17a1.39,1.39,0,0,1,1,2.59Zm-68.29-1.8a1.39,1.39,0,0,1,1.81-.79s4.45,1.71,14.8,3.17c9.21,1.3,11.83,4.61,12.09,5a1.38,1.38,0,0,1-.32,1.94,1.37,1.37,0,0,1-.81.26,1.43,1.43,0,0,1-1.13-.56c-.07-.09-2.33-2.75-10.23-3.87-10.73-1.52-15.24-3.26-15.43-3.34A1.38,1.38,0,0,1,73.46,61.88Zm0,10.45a1.39,1.39,0,0,1,1.81-.79s4.45,1.71,14.8,3.17c9.21,1.31,11.83,4.61,12.09,5A1.39,1.39,0,0,1,101,81.9a1.41,1.41,0,0,1-1.13-.56c-.07-.09-2.33-2.75-10.23-3.86C78.94,76,74.43,74.21,74.24,74.14A1.39,1.39,0,0,1,73.46,72.33Zm0,10.45A1.4,1.4,0,0,1,75.27,82s4.45,1.71,14.8,3.17c9.21,1.31,11.83,4.62,12.09,5a1.4,1.4,0,0,1-.32,1.95,1.44,1.44,0,0,1-.81.26,1.42,1.42,0,0,1-1.13-.57c-.07-.09-2.33-2.75-10.23-3.87-10.73-1.51-15.24-3.25-15.43-3.33A1.39,1.39,0,0,1,73.46,82.78Zm0,10.45a1.41,1.41,0,0,1,1.81-.79s4.45,1.71,14.8,3.17c9.21,1.31,11.83,4.62,12.09,5a1.39,1.39,0,0,1-1.13,2.2,1.42,1.42,0,0,1-1.13-.55c-.07-.09-2.33-2.76-10.23-3.87C78.94,96.86,74.43,95.11,74.24,95A1.39,1.39,0,0,1,73.46,93.23Z"/><path class="cls-4" d="M168.91,34.73H47.08a13,13,0,0,0-13,13v88.3a13,13,0,0,0,13,13H168.92a13,13,0,0,0,13-13V47.76A13,13,0,0,0,168.91,34.73ZM155.4,142.56a4.43,4.43,0,1,1,4.44-4.43A4.43,4.43,0,0,1,155.4,142.56Zm15.69-15.19H44.91V45.59H171.09Z"/><path class="cls-4" d="M142,166.45H135.2l-3.92-13H84.72l-3.92,13H74a8.69,8.69,0,0,0,0,17.37H142a8.69,8.69,0,1,0,0-17.37Z"/></g></svg>