<svg xmlns="http://www.w3.org/2000/svg" viewBox="0 0 216 216"><defs><style>.cls-1{fill:#a08080;}</style></defs><g id="Landing_page_Text" data-name="Landing page Text"><path class="cls-1" d="M87.78,127.71H64a14.25,14.25,0,0,0,14,11.07h4Z"/><path class="cls-1" d="M63.88,111.66c-.11,1.18-.16,2.38-.16,3.6v6.92H92a13.93,13.93,0,0,1,13.79-11.55v5.53a8.43,8.43,0,0,0-8.13,6h11.8a8.31,8.31,0,1,0,0-16.61H90.22a14.55,14.55,0,0,1-5.12,7.78l-3.49-4.3a8.08,8.08,0,0,0,0-13.26l3.49-4.3A14.43,14.43,0,0,1,90.38,100H103a18.43,18.43,0,0,1,6.31-12.71,13.57,13.57,0,0,1-1.87-6.86H113a8.33,8.33,0,0,0,8.43,8.21v5.54a14.09,14.09,0,0,1-8.39-2.77,12.94,12.94,0,0,0-4.46,8.59h.84a14,14,0,0,1,14.17,13.83,13.58,13.58,0,0,1-2.84,8.31h13.62c-.2-4.74,2.34-9.41,7.06-12.68l.83-.57,3.15,4.55-.83.57c-3.22,2.24-4.88,5.19-4.67,8.13h6.57a5.67,5.67,0,0,0,5.79-5.54v-1.38a41.81,41.81,0,0,0-2.65-14.64,17.25,17.25,0,0,1-10.73,3.69c-.53,0-1.07,0-1.6-.08a13.68,13.68,0,0,1-3.15,4.72l-3.87-4,.18-.18a8.05,8.05,0,0,0-.18-11.38l3.87-4a13.54,13.54,0,0,1,4.1,9.28,11.56,11.56,0,0,0,9-3.4,43.76,43.76,0,0,0-16.29-16.78c0,.38,0,.76,0,1.14a12.83,12.83,0,0,1-3.9,9.23l-3.87-4a7.32,7.32,0,0,0,.69-9.76,45.65,45.65,0,0,0-28.78-1,11,11,0,0,0,4.14,9.5l1.48,1.16-3.4,4.36-1.48-1.15A16.51,16.51,0,0,1,89.6,76.25a43.36,43.36,0,0,0-24.81,29.64,12.31,12.31,0,0,0,7.32-5L76.68,104A17.89,17.89,0,0,1,63.88,111.66Z"/><path class="cls-1" d="M59.41,150a58,58,0,0,1,7.08,27.73v5.31h72a13.86,13.86,0,0,0,13.84-13.84v-8.4a38.72,38.72,0,0,1-18.1-5.87l3-4.66a32.94,32.94,0,0,0,15.11,5v-11a2.77,2.77,0,0,1,2.77-2.77h16l-6.46-33.37a57.89,57.89,0,0,0-114.73,11,52.61,52.61,0,0,0,6.4,25.09Zm-1.23-25.08v-9.68c0-26.71,22.35-48.43,49.82-48.43a50.73,50.73,0,0,1,19,3.68l0,0,.06.07c18,7.31,30.68,24.59,30.68,44.71v1.38a11.21,11.21,0,0,1-11.33,11.07H108.26L94.78,153.89a2.78,2.78,0,0,1-2.46,1.5H78.06a2.8,2.8,0,0,1-1.27-.31,2.77,2.77,0,0,1-1.19-3.73l3.62-7H78.06A19.66,19.66,0,0,1,58.18,124.94Z"/><polygon class="cls-1" points="86.22 142.82 82.6 149.85 90.63 149.85 102.03 127.71 94 127.71 86.22 142.82 86.22 142.82"/><rect class="cls-1" x="105.23" y="33.62" width="5.54" height="16.61"/><rect class="cls-1" x="105.23" y="22.55" width="5.54" height="5.54"/><rect class="cls-1" x="133.15" y="46.74" width="14.43" height="5.54" transform="translate(27.31 146.32) rotate(-60)"/><rect class="cls-1" x="145.36" y="33.3" width="5.54" height="5.54" transform="translate(42.83 146.32) rotate(-60)"/><rect class="cls-1" x="162.81" y="68.84" width="8.04" height="5.53" transform="translate(-13.45 93.01) rotate(-30)"/><rect class="cls-1" x="174.74" y="62.68" width="5.54" height="5.53" transform="matrix(0.87, -0.5, 0.5, 0.87, -8.94, 97.53)"/><rect class="cls-1" x="174.42" y="102.8" width="5.54" height="5.54"/><rect class="cls-1" x="185.49" y="102.8" width="5.54" height="5.54"/><rect class="cls-1" x="36.04" y="102.8" width="5.54" height="5.54"/><rect class="cls-1" x="24.97" y="102.8" width="5.54" height="5.54"/><rect class="cls-1" x="47.71" y="66.83" width="5.53" height="11.07" transform="translate(-37.43 79.9) rotate(-60)"/><rect class="cls-1" x="35.73" y="62.67" width="5.53" height="5.54" transform="translate(-37.43 66.06) rotate(-60)"/><rect class="cls-1" x="72.86" y="42.29" width="5.54" height="14.43" transform="translate(-14.62 44.45) rotate(-30)"/><rect class="cls-1" x="65.1" y="33.3" width="5.54" height="5.54" transform="translate(-8.94 38.77) rotate(-30)"/></g></svg>