<svg xmlns="http://www.w3.org/2000/svg" viewBox="0 0 1215.34 164.09"><defs><style>.cls-1{fill:#ffe9d3;}.cls-2{fill:#b76824;}</style></defs><g id="bg"><rect class="cls-1" width="1215.34" height="4359.01"/></g><g id="Layer_3" data-name="Layer 3"><path class="cls-2" d="M192.91,75.29v2.52a5.35,5.35,0,0,1-5.34,5.34H162.31A5.35,5.35,0,0,1,157,77.81V75.29a5.2,5.2,0,0,1,5.34-5.16h25.26A5.2,5.2,0,0,1,192.91,75.29Zm0,20.82v10.68a5.35,5.35,0,0,1-5.34,5.34H162.31a5.35,5.35,0,0,1-5.34-5.34V104c2.64,1,3.78-.54,3.78-4,0-8.52,6.3-7.8,6.3-1.2,0,15.84,21.36,14.52,24.42,7.5,3.29-7.56-6.18-7.86-12.48-10.5-1.44-.6-2.16-1.62,0-1.62h11.88A2,2,0,0,1,192.91,96.11Zm-5-9.06v1.62c0,1.86-2,3.36-4.44,3.36H162.31c-2.46,0-4.5-1.5-4.5-3.36V87.05c0-1.8,2-3.24,4.5-3.24h21.18C186,83.81,187.93,85.25,187.93,87.05Z"/><path class="cls-2" d="M206.53,112.13h-13c0-23.4,7-24.12,23-24.12l1.08.84C205.39,88.31,206.53,93.77,206.53,112.13Zm23.21-36.84v2.52a5.35,5.35,0,0,1-5.33,5.34H199.15a5.35,5.35,0,0,1-5.34-5.34V75.29a5.2,5.2,0,0,1,5.34-5.16h25.26A5.2,5.2,0,0,1,229.74,75.29Zm-10,23.52c0-6.6,6.3-7.32,6.3,1.2,0,3.42,1.08,8.76,3.66,8a5.4,5.4,0,0,1-5.22,4.14H207.85v-1.08C214.69,111.05,219.72,106.43,219.72,98.81Zm-1.25-10.14a4.32,4.32,0,1,1,4.31,4.26A4.3,4.3,0,0,1,218.47,88.67Z"/><path class="cls-2" d="M266.4,95.09v11.7a5.35,5.35,0,0,1-5.34,5.34H235.75a5.35,5.35,0,0,1-5.34-5.34V96.59a2,2,0,0,1,2-1.92h11.87c2.17,0,1.44,1,0,1.62-6.29,2.64-15.77,2.46-12.47,10,2.4,5.4,21.53,9.6,21.53-4.08V95.09a5.2,5.2,0,0,1,5.16-5.34h2.52A5.35,5.35,0,0,1,266.4,95.09Zm.66-19.62V86.15a2,2,0,0,1-2,1.92H253.14c-2.16,0-1.44-1,0-1.62,6.3-2.64,15.78-2.94,12.48-10.5-3.06-7-24.42-6.24-24.42,9.24,0,6.6-6.29,7.32-6.29-1.2,0-3.48-1.14-5.1-3.78-4.08V75.47a5.35,5.35,0,0,1,5.34-5.34h25.25A5.35,5.35,0,0,1,267.06,75.47ZM246.24,93.53a4.29,4.29,0,1,1,4.32-4.26A4.28,4.28,0,0,1,246.24,93.53Z"/><path class="cls-2" d="M297.3,75.29v2.52A5.35,5.35,0,0,1,292,83.15H272.71a5.35,5.35,0,0,1-5.34-5.34V75.29a5.2,5.2,0,0,1,5.34-5.16H292A5.2,5.2,0,0,1,297.3,75.29Zm-8,28.68v8.16l-5.34-.06h-.42a.87.87,0,0,1-.42.06h-2.51l-5.34.06V104c2.64,1,3.78-.54,3.78-4a11,11,0,0,1,.48-3.48c1.19-4.44,6-4,6,3.42C285.48,103.43,286.62,105,289.26,104ZM278,88.55a4.32,4.32,0,1,1,4.31,4.26A4.3,4.3,0,0,1,278,88.55Z"/><path class="cls-2" d="M333.9,86V75.47a5.2,5.2,0,0,1,5.16-5.34h2.52a5.35,5.35,0,0,1,5.34,5.34V86a5.35,5.35,0,0,1-5.34,5.34h-2.52A5.2,5.2,0,0,1,333.9,86Zm35.94,8.82v12a5.35,5.35,0,0,1-5.34,5.34H339.24a5.35,5.35,0,0,1-5.34-5.34V104c2.64,1,3.78-.54,3.78-4,0-8.52,6.3-7.8,6.3-1.2,0,15.84,21.36,14.52,24.42,7.5,3.3-7.56-6.48-10.08-12.48-11.82-1.44-.42-2.16-1.62,0-1.62H367.8A2,2,0,0,1,369.84,94.79ZM344.76,70.61l.66-.42c8.88,0,19.86-.36,20.46,5.46a52.21,52.21,0,0,1,.3,5.58,40.52,40.52,0,0,1-.3,5.64c-.72,5.28-13.5,5.4-22.38,5.4l-.66-.42c4.68.3,11.88.54,13.32-4.44.36-1.26.24-3.9.24-6.18s-.06-4.32-.24-6.12C355.68,70.13,349.44,70.37,344.76,70.61Z"/><path class="cls-2" d="M408.78,104v2.76a5.35,5.35,0,0,1-5.34,5.34H375.78a5.35,5.35,0,0,1-5.34-5.34V104c2.64,1,3.78-.54,3.78-4,0-8.52,6.3-7.8,6.3-1.2,0,8.1,4.08,12.6,9.12,12.6s9.06-4.5,9.06-12.6c0-6.6,6.3-7.32,6.3,1.2C405,103.49,406.14,105.05,408.78,104ZM372.84,77.81V75.29a5.2,5.2,0,0,1,5.34-5.16H401a5.2,5.2,0,0,1,5.34,5.16v2.52A5.35,5.35,0,0,1,401,83.15h-22.8A5.35,5.35,0,0,1,372.84,77.81Zm4.62,6.54a4.29,4.29,0,1,1-4.32,4.32A4.3,4.3,0,0,1,377.46,84.35Zm24.3,0a4.29,4.29,0,1,1-4.32,4.32A4.3,4.3,0,0,1,401.76,84.35Z"/><path class="cls-2" d="M445.38,95.09v11.7a5.35,5.35,0,0,1-5.34,5.34H414.72a5.35,5.35,0,0,1-5.34-5.34V96.59a2,2,0,0,1,2-1.92H423.3c2.16,0,1.44,1,0,1.62-6.3,2.64-15.78,2.46-12.48,10,2.4,5.4,21.54,9.6,21.54-4.08V95.09a5.2,5.2,0,0,1,5.16-5.34H440A5.35,5.35,0,0,1,445.38,95.09ZM446,75.47V86.15a2,2,0,0,1-2,1.92H432.12c-2.16,0-1.44-1,0-1.62,6.3-2.64,15.78-2.94,12.48-10.5-3.06-7-24.42-6.24-24.42,9.24,0,6.6-6.3,7.32-6.3-1.2,0-3.48-1.14-5.1-3.78-4.08V75.47a5.35,5.35,0,0,1,5.34-5.34H440.7A5.35,5.35,0,0,1,446,75.47ZM425.22,93.53a4.29,4.29,0,1,1,4.32-4.26A4.29,4.29,0,0,1,425.22,93.53Z"/><path class="cls-2" d="M476.28,75.29v2.52a5.35,5.35,0,0,1-5.34,5.34H451.68a5.35,5.35,0,0,1-5.34-5.34V75.29a5.2,5.2,0,0,1,5.34-5.16h19.26A5.2,5.2,0,0,1,476.28,75.29Zm-8,28.68v8.16l-5.34-.06h-.42a.89.89,0,0,1-.42.06h-2.52l-5.34.06V104c2.64,1,3.78-.54,3.78-4a11.31,11.31,0,0,1,.48-3.48c1.2-4.44,6-4,6,3.42C464.46,103.43,465.6,105,468.24,104ZM457,88.55a4.32,4.32,0,1,1,4.32,4.26A4.3,4.3,0,0,1,457,88.55Z"/><path class="cls-2" d="M515.22,104v2.76a5.35,5.35,0,0,1-5.34,5.34H482.22a5.35,5.35,0,0,1-5.34-5.34V104c2.64,1,3.78-.54,3.78-4,0-8.52,6.3-7.8,6.3-1.2,0,8.1,4.08,12.6,9.12,12.6s9.06-4.5,9.06-12.6c0-6.6,6.3-7.32,6.3,1.2C511.44,103.49,512.58,105.05,515.22,104ZM479.28,77.81V75.29a5.2,5.2,0,0,1,5.34-5.16h22.8a5.2,5.2,0,0,1,5.34,5.16v2.52a5.35,5.35,0,0,1-5.34,5.34h-22.8A5.35,5.35,0,0,1,479.28,77.81Zm4.62,6.54a4.29,4.29,0,1,1-4.32,4.32A4.3,4.3,0,0,1,483.9,84.35Zm24.3,0a4.29,4.29,0,1,1-4.32,4.32A4.3,4.3,0,0,1,508.2,84.35Z"/><path class="cls-2" d="M522.78,70.13a5.2,5.2,0,0,1,5.34,5.16v2.52a5.35,5.35,0,0,1-5.34,5.34h-1.62a5.35,5.35,0,0,1-5.34-5.34V75.29a5.2,5.2,0,0,1,5.34-5.16Zm14.94,42H521.1a5.4,5.4,0,0,1-5.22-4.14c2.58.78,3.66-4.56,3.66-8,0-8.52,6.3-7.8,6.3-1.2,0,7.62,5,12.24,11.88,12.24ZM518.46,88.67a4.32,4.32,0,1,1,4.32,4.26A4.3,4.3,0,0,1,518.46,88.67ZM527.7,70c16,0,24.36,2.16,24.36,42.18H539c0-18.36-.24-41.88-12.42-41.34Z"/><path class="cls-2" d="M601.68,112.13h-13c0-23.4,7-24.12,23-24.12l1.08.84C600.54,88.31,601.68,93.77,601.68,112.13ZM624.9,75.29v2.52a5.35,5.35,0,0,1-5.34,5.34H594.3A5.35,5.35,0,0,1,589,77.81V75.29a5.2,5.2,0,0,1,5.34-5.16h25.26A5.2,5.2,0,0,1,624.9,75.29Zm-10,23.52c0-6.6,6.3-7.32,6.3,1.2,0,3.42,1.08,8.76,3.66,8a5.4,5.4,0,0,1-5.22,4.14H603v-1.08C609.84,111.05,614.88,106.43,614.88,98.81Zm-1.26-10.14a4.32,4.32,0,1,1,4.32,4.26A4.3,4.3,0,0,1,613.62,88.67Z"/><path class="cls-2" d="M632.52,70.13a5.2,5.2,0,0,1,5.34,5.16v2.52a5.35,5.35,0,0,1-5.34,5.34H630.9a5.35,5.35,0,0,1-5.34-5.34V75.29a5.2,5.2,0,0,1,5.34-5.16Zm14.94,42H630.84a5.4,5.4,0,0,1-5.22-4.14c2.58.78,3.66-4.56,3.66-8,0-8.52,6.3-7.8,6.3-1.2,0,7.62,5,12.24,11.88,12.24ZM628.2,88.67a4.32,4.32,0,1,1,4.32,4.26A4.3,4.3,0,0,1,628.2,88.67ZM637.44,70c16,0,24.36,2.16,24.36,42.18h-13c0-18.36-.24-41.88-12.42-41.34Z"/><path class="cls-2" d="M698.34,77.81v29a5.35,5.35,0,0,1-5.34,5.34H667.74a5.35,5.35,0,0,1-5.34-5.34V104c2.64,1,3.78-.54,3.78-4,0-8.52,6.3-7.8,6.3-1.2,0,15.84,24.78,17.52,24.78.12,0-9.24.42-15.78-10.32-15.78h-19.2a5.35,5.35,0,0,1-5.34-5.34V75.29a5.2,5.2,0,0,1,5.34-5.16H693a5.2,5.2,0,0,1,5.34,5.16ZM665.1,88.67a4.32,4.32,0,1,1,4.32,4.26A4.3,4.3,0,0,1,665.1,88.67Z"/><path class="cls-2" d="M749,104v8.16h-14V104c2.64,1,3.78-.54,3.78-4a11.31,11.31,0,0,1,.48-3.48c1.2-4.44,6-4,6,3.42C745.2,103.43,746.34,105,749,104ZM735.66,87.53V85A5.2,5.2,0,0,1,741,79.85h1.92A5.2,5.2,0,0,1,748.26,85v2.52a5.35,5.35,0,0,1-5.34,5.34H741A5.35,5.35,0,0,1,735.66,87.53Zm2.1-13.08a4.32,4.32,0,1,1,4.32,4.26A4.3,4.3,0,0,1,737.76,74.45Z"/><path class="cls-2" d="M779.52,75.29v2.52a5.35,5.35,0,0,1-5.34,5.34H754.92a5.35,5.35,0,0,1-5.34-5.34V75.29a5.2,5.2,0,0,1,5.34-5.16h19.26A5.2,5.2,0,0,1,779.52,75.29Zm-8,28.68v8.16l-5.34-.06h-.42a.89.89,0,0,1-.42.06h-2.52l-5.34.06V104c2.64,1,3.78-.54,3.78-4a11.31,11.31,0,0,1,.48-3.48c1.2-4.44,6-4,6,3.42C767.7,103.43,768.84,105,771.48,104ZM760.2,88.55a4.32,4.32,0,1,1,4.32,4.26A4.3,4.3,0,0,1,760.2,88.55Z"/><path class="cls-2" d="M816.12,95.09v11.7a5.35,5.35,0,0,1-5.34,5.34H785.46a5.35,5.35,0,0,1-5.34-5.34V96.59a2,2,0,0,1,2-1.92H794c2.16,0,1.44,1,0,1.62-6.3,2.64-15.78,2.46-12.48,10,2.4,5.4,21.54,9.6,21.54-4.08V95.09a5.2,5.2,0,0,1,5.16-5.34h2.52A5.35,5.35,0,0,1,816.12,95.09Zm.66-19.62V86.15a2,2,0,0,1-2,1.92H802.86c-2.16,0-1.44-1,0-1.62,6.3-2.64,15.78-2.94,12.48-10.5-3.06-7-24.42-6.24-24.42,9.24,0,6.6-6.3,7.32-6.3-1.2,0-3.48-1.14-5.1-3.78-4.08V75.47a5.35,5.35,0,0,1,5.34-5.34h25.26A5.35,5.35,0,0,1,816.78,75.47ZM796,93.53a4.29,4.29,0,1,1,4.32-4.26A4.29,4.29,0,0,1,796,93.53Z"/><path class="cls-2" d="M853.08,86V75.47a5.2,5.2,0,0,1,5.16-5.34h2.52a5.35,5.35,0,0,1,5.34,5.34V86a5.35,5.35,0,0,1-5.34,5.34h-2.52A5.2,5.2,0,0,1,853.08,86Zm12.3,25.68-.06.48H853.08v-4.32c0,.9,2.16,2.58,2.16-1.2,0-6.6,6.3-7.32,6.3,1.2C861.54,110.75,863.1,112.13,865.38,111.65ZM858.3,92.09A4.29,4.29,0,1,1,854,96.41,4.3,4.3,0,0,1,858.3,92.09Zm27.05-10.86a52.51,52.51,0,0,1-.3,5.64c-.72,6.6-13.49,5.4-22.37,5.4l-.66-.42c4.68.3,11.88.54,13.31-4.44.37-1.26.24-3.9.24-6.18a60.49,60.49,0,0,0-.24-6.12c-.47-5-6.71-4.74-11.39-4.5l.66-.42c8.88,0,19.85-.36,20.45,5.46A52.21,52.21,0,0,1,885.35,81.23Z"/><path class="cls-2" d="M922,75.29v2.52a5.35,5.35,0,0,1-5.34,5.34H891.36A5.35,5.35,0,0,1,886,77.81V75.29a5.2,5.2,0,0,1,5.34-5.16h25.25A5.2,5.2,0,0,1,922,75.29Zm0,20.82v10.68a5.35,5.35,0,0,1-5.34,5.34H891.36a5.35,5.35,0,0,1-5.34-5.34V104c2.64,1,3.78-.54,3.78-4,0-8.52,6.3-7.8,6.3-1.2,0,15.84,21.35,14.52,24.41,7.5,3.3-7.56-6.18-7.86-12.48-10.5-1.44-.6-2.16-1.62,0-1.62h11.88A2,2,0,0,1,922,96.11Zm-5-9.06v1.62c0,1.86-2,3.36-4.44,3.36H891.36c-2.46,0-4.5-1.5-4.5-3.36V87.05c0-1.8,2-3.24,4.5-3.24h21.17C915,83.81,917,85.25,917,87.05Z"/><path class="cls-2" d="M960.89,104v2.76a5.35,5.35,0,0,1-5.34,5.34H927.9a5.35,5.35,0,0,1-5.34-5.34V104c2.64,1,3.78-.54,3.78-4,0-8.52,6.29-7.8,6.29-1.2,0,8.1,4.08,12.6,9.12,12.6s9.06-4.5,9.06-12.6c0-6.6,6.3-7.32,6.3,1.2C957.11,103.49,958.25,105.05,960.89,104ZM925,77.81V75.29a5.21,5.21,0,0,1,5.34-5.16h22.8a5.2,5.2,0,0,1,5.34,5.16v2.52a5.35,5.35,0,0,1-5.34,5.34h-22.8A5.36,5.36,0,0,1,925,77.81Zm4.62,6.54a4.29,4.29,0,1,1-4.31,4.32A4.3,4.3,0,0,1,929.57,84.35Zm24.3,0a4.29,4.29,0,1,1-4.32,4.32A4.3,4.3,0,0,1,953.87,84.35Z"/><path class="cls-2" d="M961.49,86V75.47a5.2,5.2,0,0,1,5.17-5.34h2.51a5.35,5.35,0,0,1,5.34,5.34V86a5.35,5.35,0,0,1-5.34,5.34h-2.51A5.2,5.2,0,0,1,961.49,86Zm12.3,25.68-.06.48H961.49v-4.32c0,.9,2.17,2.58,2.17-1.2,0-6.6,6.29-7.32,6.29,1.2C970,110.75,971.51,112.13,973.79,111.65Zm-7.08-19.56a4.29,4.29,0,1,1-4.31,4.32A4.3,4.3,0,0,1,966.71,92.09Zm27.06-10.86a52.51,52.51,0,0,1-.3,5.64c-.72,6.6-13.5,5.4-22.38,5.4l-.66-.42c4.68.3,11.88.54,13.32-4.44.36-1.26.24-3.9.24-6.18s-.06-4.32-.24-6.12c-.48-5-6.72-4.74-11.4-4.5l.66-.42c8.88,0,19.86-.36,20.46,5.46A52.21,52.21,0,0,1,993.77,81.23Z"/><path class="cls-2" d="M1014.65,75.29v2.52a5.35,5.35,0,0,1-5.34,5.34h-9.54a5.35,5.35,0,0,1-5.34-5.34V75.29a5.2,5.2,0,0,1,5.34-5.16h9.54A5.2,5.2,0,0,1,1014.65,75.29Zm10.74,19.32v12.18a5.35,5.35,0,0,1-5.34,5.34H999.77a5.35,5.35,0,0,1-5.34-5.34V104c2.64,1,3.78-.54,3.78-4,0-8.52,6.3-7.8,6.3-1.2,0,15.84,19.8,15.66,19.8,5.82,0-7.38-10.26-8.58-14-10-1.08-.36,0-1,1.14-1h12.84A1,1,0,0,1,1025.39,94.61Zm-28.26-5.94a4.32,4.32,0,1,1,4.32,4.26A4.3,4.3,0,0,1,997.13,88.67Z"/><path class="cls-2" d="M1061.93,75.29v2.52a5.35,5.35,0,0,1-5.34,5.34h-25.26a5.35,5.35,0,0,1-5.34-5.34V75.29a5.2,5.2,0,0,1,5.34-5.16h25.26A5.2,5.2,0,0,1,1061.93,75.29Zm0,20.82v10.68a5.35,5.35,0,0,1-5.34,5.34h-25.26a5.35,5.35,0,0,1-5.34-5.34V104c2.64,1,3.78-.54,3.78-4,0-8.52,6.3-7.8,6.3-1.2,0,15.84,21.36,14.52,24.42,7.5,3.3-7.56-6.18-7.86-12.48-10.5-1.44-.6-2.16-1.62,0-1.62h11.88A2,2,0,0,1,1061.93,96.11Zm-5-9.06v1.62c0,1.86-2,3.36-4.44,3.36h-21.18c-2.46,0-4.5-1.5-4.5-3.36V87.05c0-1.8,2-3.24,4.5-3.24h21.18C1055,83.81,1057,85.25,1057,87.05Z"/></g></svg>