<svg xmlns="http://www.w3.org/2000/svg" xmlns:xlink="http://www.w3.org/1999/xlink" viewBox="0 0 216 216"><defs><style>.cls-1,.cls-4{fill:none;}.cls-2{clip-path:url(#clip-path);}.cls-3{fill:#ffdad0;}.cls-3,.cls-4{stroke:#000;stroke-miterlimit:10;}.cls-4{stroke-width:3px;}.cls-5{fill:#a08080;}</style><clipPath id="clip-path"><polygon class="cls-1" points="-512.67 -287.52 -1735.83 -287.52 -1735.83 -1067.1 -512.67 -1181.63 -512.67 -287.52"/></clipPath></defs><g id="Layer_3" data-name="Layer 3"><g class="cls-2"><polygon class="cls-3" points="80.76 131.32 166.98 217.33 174.79 209.49 182.45 217.13 187.13 221.76 167.94 240.99 155.09 228.2 164.32 218.98 147.31 202.02 145.25 199.98 122.75 177.53 120.72 175.5 98.48 153.31 96.45 151.3 82.24 137.12 81.55 136.42 74.82 129.72 78.72 125.81 82.86 121.64 83.7 120.8 91.3 113.19 95.08 116.97 80.76 131.32"/><polyline class="cls-3" points="95.08 116.97 127.71 84.25 138.2 73.73 224.43 159.71 223.83 160.33 181.16 203.12 174.79 209.49"/><polygon class="cls-3" points="-75.2 -154.34 -73.24 -152.38 -24.22 -103.55 -4.84 -84.24 7.09 -72.36 9.46 -70.01 14.59 -64.91 13.24 -63.54 13.72 -63.09 24.17 -52.67 27.4 -49.46 41.2 -35.71 39.17 -33.65 -15.86 21.6 -21.52 15.97 -26.23 11.25 -78.99 -41.27 -110.32 -72.48 -114.85 -77.01 -140.51 -102.57 -141.06 -103.1 -133.73 -110.45 -84.21 -159.92 -82.51 -161.62 -75.2 -154.34"/><polygon class="cls-3" points="95.12 121.36 95.36 121.36 95.6 121.36 96.08 121.34 96.61 121.3 98.18 121.14 98.97 121.07 99.48 121.05 99.74 121.04 100.26 121.03 100.52 121.04 100.78 121.05 101.03 121.07 101.28 121.1 101.52 121.14 101.78 121.19 102.56 121.34 102.82 121.39 103.07 121.43 103.33 121.46 103.59 121.47 103.84 121.46 104.1 121.43 104.28 121.38 104.45 121.33 104.63 121.25 104.85 121.14 105.06 121 105.27 120.84 105.44 120.69 105.6 120.53 105.76 120.37 105.91 120.19 106.06 120.02 106.19 119.84 106.46 119.47 106.6 119.26 106.86 118.84 106.98 118.62 107.21 118.2 107.43 117.77 107.53 117.55 107.73 117.09 107.82 116.86 108 116.39 108.25 115.67 108.32 115.43 108.48 114.9 108.62 114.36 108.83 113.56 109.09 112.49 109.71 109.81 109.96 108.74 110.38 107.08 111.09 104.31 111.31 103.51 111.45 103.02 111.6 102.52 111.75 102.03 111.84 101.75 112.04 101.21 112.24 100.67 112.35 100.41 112.55 99.95 112.76 99.51 112.87 99.29 113.13 98.8 113.4 98.32 113.55 98.08 113.69 97.85 113.85 97.62 114 97.42 114.15 97.21 114.31 97.02 114.48 96.82 114.65 96.64 114.83 96.45 115.01 96.28 115.18 96.13 115.35 95.99 115.53 95.85 115.74 95.71 115.96 95.57 116.18 95.44 116.4 95.32 116.64 95.2 116.88 95.08 117.37 94.87 117.62 94.77 118.15 94.56 118.96 94.28 119.99 93.95 120.76 93.72 121.28 93.56 121.81 93.42 122.65 93.2 125.73 92.44 126.57 92.23 127.06 92.09 127.55 91.95 128.04 91.79 128.26 91.71 128.7 91.55 128.92 91.45 129.15 91.35 129.38 91.23 129.6 91.11 129.8 90.99 129.98 90.85 130.16 90.68 130.29 90.5 130.38 90.31 130.41 90.18 130.41 90.05 130.37 89.89 130.29 89.73 130.19 89.58 130.03 89.4 129.85 89.24 129.65 89.08 129.43 88.92 128.29 88.17 127.87 87.86 127.66 87.71 127.46 87.54 127.27 87.37 127.09 87.19 126.92 87.01 126.75 86.81 126.6 86.61 126.47 86.41 126.35 86.2 126.24 85.99 126.14 85.77 126.05 85.54 125.97 85.31 125.91 85.08 125.85 84.83 125.8 84.56 125.76 84.27 125.73 83.99 125.72 83.73 125.7 83.21 125.7 82.95 125.71 82.43 125.74 81.91 125.83 80.53 125.85 79.99 125.86 79.71 125.85 79.44 125.83 79.21 125.8 78.98 125.76 78.75 125.71 78.55 125.64 78.36 125.57 78.17 125.45 77.95 125.3 77.75 125.17 77.62 125.03 77.51 124.88 77.42 124.71 77.36 124.54 77.32 124.37 77.31 124.19 77.32 124.02 77.35 123.78 77.42 123.55 77.52 123.31 77.64 123.06 77.79 122.83 77.95 122.59 78.12 121.45 78.95 119.91 80.05 119.27 80.53 118.83 80.86 118.41 81.2 117.98 81.56 117.34 82.1 116.73 82.64 116.13 83.19 115.11 84.13 112.27 86.81 111.66 87.39 111.06 87.97 106.89 92.08 105.69 93.25 104.29 94.66 98.91 100.11 98.31 100.71 97.9 101.1 97.48 101.49 96.84 102.06 95.97 102.82 93.78 104.69 93.35 105.07 92.92 105.46 92.71 105.65 92.33 106.02 91.77 106.59 91.23 107.17 90.9 107.54 90.61 107.9 90.32 108.27 89.99 108.73 89.83 108.96 89.67 109.2 89.42 109.62 89.18 110.05 88.96 110.49 88.84 110.75 88.72 111.02 88.62 111.28 88.52 111.55 88.44 111.83 88.37 112.07 88.31 112.32 88.25 112.57 88.21 112.82 88.17 113.07 88.14 113.33 88.12 113.58 88.11 113.83 88.11 114.08 88.12 114.34 88.13 114.59 88.16 114.84 88.19 115.08 88.23 115.32 88.28 115.56 88.34 115.8 88.41 116.03 88.48 116.27 88.58 116.51 88.68 116.76 88.81 117.03 88.97 117.32 89.15 117.62 89.33 117.9 89.51 118.16 89.69 118.41 89.85 118.62 90 118.8 90.21 119.05 90.44 119.27 90.61 119.42 90.81 119.59 91.03 119.78 91.28 119.97 91.54 120.16 91.81 120.34 92.08 120.51 92.34 120.66 92.57 120.78 92.8 120.88 93.05 120.98 93.3 121.06 93.56 121.14 93.82 121.2 94.08 121.25 94.35 121.29 94.61 121.32 94.88 121.34 95.12 121.36"/><polygon class="cls-3" points="83.88 121.57 83.83 121.43 83.76 121.26 83.66 121.06 83.51 120.8 83.34 120.53 83.15 120.27 82.94 120.02 82.73 119.81 82.51 119.63 82.31 119.5 82.11 119.4 81.86 119.32 81.59 119.27 81.33 119.26 81.06 119.27 80.85 119.31 80.65 119.36 80.43 119.42 80.22 119.5 80 119.61 79.77 119.72 79.56 119.85 79.34 119.98 79.11 120.14 78.89 120.3 78.67 120.47 78.46 120.64 78.28 120.8 77.92 121.11 77.58 121.43 77.38 121.63 76.98 122.02 76.59 122.43 74.47 124.66 74.08 125.07 73.7 125.48 73.52 125.69 73.14 126.12 72.22 127.21 71.85 127.64 70.93 128.68 70.57 129.09 70.39 129.31 70.22 129.52 70.05 129.74 69.89 129.96 69.74 130.18 69.59 130.42 69.45 130.66 69.32 130.9 69.19 131.14 69.07 131.39 68.99 131.57 68.92 131.75 68.86 131.93 68.78 132.16 68.72 132.39 68.66 132.62 68.62 132.86 68.59 133.1 68.56 133.33 68.55 133.57 68.55 133.81 68.56 134.04 68.58 134.26 68.62 134.49 68.66 134.71 68.74 134.99 68.83 135.25 68.95 135.51 69.06 135.72 69.19 135.92 69.33 136.1 69.47 136.28 69.64 136.44 69.81 136.59 69.98 136.73 70.17 136.85 70.36 136.96 70.56 137.06 70.77 137.14 70.99 137.21 71.22 137.26 71.45 137.31 71.69 137.35 71.92 137.39 72.21 137.42 72.78 137.47 73.63 137.53 74.49 137.58 75.06 137.6 75.34 137.6 75.63 137.59 75.88 137.58 76.12 137.56 76.36 137.53 76.61 137.49 76.85 137.43 77.09 137.37 77.33 137.29 77.56 137.21 77.78 137.11 78.03 136.99 78.27 136.85 78.51 136.7 78.74 136.53 78.97 136.36 79.19 136.18 79.34 136.05 79.62 135.78 79.78 135.61 80.09 135.25 80.24 135.07 80.58 134.63 81.08 133.94 81.57 133.25 82.05 132.55 82.36 132.08 82.63 131.64 82.89 131.19 83.01 130.96 83.25 130.48 83.36 130.24 83.47 130 83.57 129.75 83.65 129.54 83.79 129.1 83.92 128.66 84.03 128.19 84.12 127.71 84.19 127.23 84.25 126.74 84.29 126.24 84.31 125.75 84.32 125.25 84.32 124.75 84.3 124.26 84.27 123.98 84.24 123.67 84.21 123.37 84.17 123.06 84.07 122.47 83.97 121.95 83.88 121.57"/><polygon class="cls-3" points="189.77 67.43 189.04 69.16 188.51 70.97 188.12 72.81 187.82 74.68 187.64 76.55 187.63 78.44 187.81 80.31 188.16 82.16 188.62 83.99 189.14 85.8 189.67 87.61 190.09 89.45 190.41 91.31 190.71 93.17 191.07 95.02 191.55 96.84 192.18 98.62 192.91 100.36 193.77 102.03 194.77 103.63 195.87 105.17 197 106.67 198.13 108.18 199.31 109.65 200.53 111.08 201.76 112.51 202.95 113.98 204.09 115.48 205.23 116.98 206.38 118.47 207.54 119.96 208.73 121.42 209.98 122.84 211.28 124.19 212.66 125.48 214.14 126.66 215.74 127.64 217.51 128.26 219.39 128.24 221.17 127.63 222.74 126.6 224.1 125.3 225.42 123.95 226.72 122.58 227.87 121.09 228.83 119.47 229.59 117.75 230.18 115.96 230.68 114.14 231.12 112.31 231.46 110.45 231.7 108.58 231.88 106.71 232 104.83 232.08 102.94 232.15 101.06 232.19 99.17 232.21 97.29 232.21 95.4 232.19 93.52 232.13 91.63 232.05 89.75 231.96 87.87 231.83 85.99 231.65 84.11 231.41 82.24 231.11 80.38 230.8 78.52 230.47 76.66 230.11 74.81 229.68 72.98 229.15 71.17 228.5 69.4 227.82 67.64 227.05 65.92 226.2 64.24 225.28 62.59 224.28 61 223.15 59.48 221.88 58.1 220.47 56.85 218.92 55.77 217.25 54.91 215.45 54.34 213.59 54.05 211.71 54.01 209.83 54.2 208 54.62 206.22 55.24 204.49 56 202.83 56.88 201.22 57.86 199.64 58.9 198.09 59.97 196.54 61.04 194.99 62.11 193.45 63.21 192.01 64.42 190.76 65.83 189.77 67.43"/><rect class="cls-4" x="-2446.63" y="-1393.29" width="2725.74" height="1631.86"/></g></g><g id="Landing_page_Text" data-name="Landing page Text"><path class="cls-5" d="M28.11,85.73a1.42,1.42,0,0,0,1.41,0C32.83,84,35,83.63,36.26,83.63A10.42,10.42,0,0,1,41.7,85,10.75,10.75,0,0,0,47,86.35,15.48,15.48,0,0,0,55.53,84a1.44,1.44,0,0,0,.6-1.16V70a1.44,1.44,0,0,0-.78-1.27,1.45,1.45,0,0,0-1.49.1A12.81,12.81,0,0,1,47,70.69,7.86,7.86,0,0,1,43,69.6,13.16,13.16,0,0,0,36.26,68a17.87,17.87,0,0,0-8.09,2.47,1.44,1.44,0,0,0-.76,1.27V84.5A1.44,1.44,0,0,0,28.11,85.73Zm2.17-13.14a13.86,13.86,0,0,1,6-1.74,10.44,10.44,0,0,1,5.44,1.32A10.64,10.64,0,0,0,47,73.57a16.49,16.49,0,0,0,6.22-1.2V82A13.41,13.41,0,0,1,47,83.48,7.86,7.86,0,0,1,43,82.39a13,13,0,0,0-6.72-1.63,15.4,15.4,0,0,0-6,1.45Z"/><circle class="cls-5" cx="41.77" cy="77.16" r="2.87"/><path class="cls-5" d="M79.82,54.19A13.64,13.64,0,1,0,66.18,40.55,13.66,13.66,0,0,0,79.82,54.19Zm0-24.41A10.77,10.77,0,1,1,69.05,40.55,10.78,10.78,0,0,1,79.82,29.78Z"/><path class="cls-5" d="M76.34,44.89a1.43,1.43,0,0,0,.87-.3l4.12-3.17a1.43,1.43,0,0,0,.54-1.08,1.45,1.45,0,0,0,.1-.51V34.09a1.44,1.44,0,0,0-2.87,0v5.43l-3.64,2.8a1.43,1.43,0,0,0,.88,2.57Z"/><path class="cls-5" d="M162.68,88.29l5.5,5.49a1.42,1.42,0,0,0,1,.42,1.44,1.44,0,0,0,1-.42l16.2-16.2a1.49,1.49,0,0,0,.34-.55l2.79-8.09a1.44,1.44,0,0,0-1.79-1.84l-8.28,2.6a1.45,1.45,0,0,0-.59.36l-16.2,16.2A1.44,1.44,0,0,0,162.68,88.29Zm18-16,5.23-1.65-1.76,5.09-14.95,15-3.46-3.46Z"/><path class="cls-5" d="M101,130,95,122.57a3.06,3.06,0,0,0-2.62-1.1,21.68,21.68,0,0,0-15,7.7L66,142.78a2.87,2.87,0,0,1-4.61-.28l-11.12-17h0l-3.47-6.1a7.18,7.18,0,0,0-5.61-3.61l-4.22-.37A2.89,2.89,0,0,1,34.71,114l-1.51-2.57a4.24,4.24,0,0,0-3.68-2.12,4.2,4.2,0,0,0-2,.53,4.25,4.25,0,0,0-1.71,5.75l9.11,17L53.5,167a10.47,10.47,0,0,0,16.55,2.5l5.18-5.08a45.1,45.1,0,0,1,.63-17.26,1.44,1.44,0,1,1,2.77.76,42.71,42.71,0,0,0-.79,14.41c.65,2,4,13.27,2.64,24.75a3,3,0,0,0,3,3.43h22.92V133.1A9,9,0,0,1,101,130ZM28.86,112.32a1.27,1.27,0,0,1,.66-.17,1.36,1.36,0,0,1,1.2.69l1.51,2.57a5.75,5.75,0,0,0,4.45,2.83l4.22.37a4.3,4.3,0,0,1,3.37,2.16l2,3.46L36.14,128.8,28.3,114.19A1.38,1.38,0,0,1,28.86,112.32Z"/><path class="cls-5" d="M133.66,120.71c4.61,0,5.85-3.72,6.18-5.57a3,3,0,0,1,.81-1.61c3.07-2.94,1.52-6.26.38-7.92a3,3,0,0,1-.42-2.45c1.29-4.72.84-9.24-3.09-11.55a15.09,15.09,0,0,1-5.78-7c-.05-.14-.1-.28-.16-.42a.41.41,0,0,0,0-.09v0A25.8,25.8,0,0,0,86,80.62h0l0,.09a24.91,24.91,0,0,0-1.43,2.58,15.43,15.43,0,0,1-4.43,5.61h0a15.36,15.36,0,0,0-5.66,11,2.47,2.47,0,0,1-1,1.79c-2.11,1.57-7,6-4.23,12.31a2.71,2.71,0,0,1,.21,1.68c-.3,1.4-.37,4.33,3.42,6,3.27,1.43,7.32-.85,8.88-1.87a2.53,2.53,0,0,1,1.43-.41c2,.06,7.37.4,9.45-4.12a25.78,25.78,0,0,0,29.62.57C124.44,118.54,128.34,120.71,133.66,120.71ZM85.43,99.48c17-1.16,24.42-8.77,27.64-15.18,2.69,3.48,7.81,7,17.51,7.17a23.47,23.47,0,0,1,.21,2.92,23,23,0,0,1-45.36,5.09Z"/><path class="cls-5" d="M124.62,55a1.45,1.45,0,0,0,1.22.68h34.34A1.44,1.44,0,0,0,161.4,55a1.45,1.45,0,0,0,.07-1.4l-4.84-9.74V26.91a1.43,1.43,0,0,0-1.44-1.43h-24.4a1.43,1.43,0,0,0-1.44,1.43v17l-4.79,9.65A1.43,1.43,0,0,0,124.62,55Zm7.6-26.6h21.54V42.71H132.22Zm-.5,17.23H154.3l3.56,7.18h-29.7Z"/><path class="cls-5" d="M149.45,47H136.53a1.44,1.44,0,1,0,0,2.87h12.92a1.44,1.44,0,1,0,0-2.87Z"/><path class="cls-5" d="M188.52,109.8a4.2,4.2,0,0,0-2-.53,4.24,4.24,0,0,0-3.68,2.12L181.29,114a2.89,2.89,0,0,1-2.22,1.42l-4.22.37a7.18,7.18,0,0,0-5.61,3.61l-3.52,6.19h0l-11.06,17a2.86,2.86,0,0,1-4.6.28l-11.41-13.61a21.72,21.72,0,0,0-15-7.7,3,3,0,0,0-2.61,1.1L115,130a9,9,0,0,1-5.77,3.22v57.35h23.33a3,3,0,0,0,3-3.43c-1.18-10,1.21-19.86,2.27-23.55a43.07,43.07,0,0,0-.63-15.61,1.44,1.44,0,1,1,2.77-.76,45,45,0,0,1,.66,17.09l5.35,5.25a10.47,10.47,0,0,0,16.55-2.5l18.58-34.48,9.11-17A4.25,4.25,0,0,0,188.52,109.8Zm-60.6,44.89H119.3a1.44,1.44,0,0,1,0-2.87h8.62a1.44,1.44,0,0,1,0,2.87Zm47.18-36.08,4.22-.37a5.75,5.75,0,0,0,4.45-2.83l1.51-2.57a1.36,1.36,0,0,1,1.2-.69,1.27,1.27,0,0,1,.66.17,1.38,1.38,0,0,1,.56,1.87l-7.84,14.61-10.09-4.57,2-3.46A4.3,4.3,0,0,1,175.1,118.61Z"/><path class="cls-5" d="M181.63,89.83c-.14-.49-.28-1-.41-1.39a1.43,1.43,0,1,0-2.75.82c.13.43.26.89.4,1.36a1.44,1.44,0,0,0,1.38,1,1.9,1.9,0,0,0,.4,0A1.44,1.44,0,0,0,181.63,89.83Z"/><path class="cls-5" d="M183.13,105.71h.13a1.44,1.44,0,0,0,1.31-1.56c0-.48-.1-1-.16-1.47a1.44,1.44,0,0,0-2.85.34q.09.7.15,1.38A1.43,1.43,0,0,0,183.13,105.71Z"/><path class="cls-5" d="M180.61,97.49a1.44,1.44,0,0,0,1.4,1.14,1.15,1.15,0,0,0,.31,0,1.44,1.44,0,0,0,1.1-1.7c-.11-.48-.21-1-.32-1.42a1.44,1.44,0,1,0-2.8.64C180.41,96.57,180.51,97,180.61,97.49Z"/><path class="cls-5" d="M161.82,58.44l.94,1a1.45,1.45,0,0,0,1.07.49,1.4,1.4,0,0,0,1-.37,1.45,1.45,0,0,0,.12-2l-1-1.08a1.44,1.44,0,0,0-2.11,1.95Z"/><path class="cls-5" d="M167.18,65a1.42,1.42,0,0,0,1.16.59,1.5,1.5,0,0,0,.85-.27,1.45,1.45,0,0,0,.31-2l-.87-1.17a1.44,1.44,0,0,0-2.29,1.73Z"/><path class="cls-5" d="M170.8,70.42a1.45,1.45,0,0,0,1.24.7,1.39,1.39,0,0,0,.73-.2,1.45,1.45,0,0,0,.5-2l-.5-.82a1.44,1.44,0,0,0-2.45,1.5Z"/><path class="cls-5" d="M117.37,35.48l1.39.19H119a1.43,1.43,0,0,0,.21-2.85l-1.45-.2a1.44,1.44,0,1,0-.36,2.85Z"/><path class="cls-5" d="M103.22,35h.09l1.4-.08a1.43,1.43,0,0,0,1.38-1.49,1.4,1.4,0,0,0-1.5-1.37l-1.47.07a1.44,1.44,0,0,0,.1,2.87Z"/><path class="cls-5" d="M124.3,36.7l.9.21a1.24,1.24,0,0,0,.33,0,1.43,1.43,0,0,0,.34-2.83l-.94-.22a1.44,1.44,0,0,0-.63,2.8Z"/><path class="cls-5" d="M96.08,35.84a.86.86,0,0,0,.23,0l1.4-.21a1.43,1.43,0,1,0-.41-2.84L95.86,33a1.43,1.43,0,0,0,.22,2.85Z"/><path class="cls-5" d="M110.35,34.92l1.41.06h.07a1.44,1.44,0,0,0,.07-2.87l-1.46,0a1.43,1.43,0,1,0-.09,2.86Z"/><path class="cls-5" d="M50.81,61.62a1.45,1.45,0,0,0,1.1-.51c.3-.36.61-.72.92-1.07a1.44,1.44,0,0,0-2.17-1.89l-.95,1.11a1.44,1.44,0,0,0,.18,2A1.46,1.46,0,0,0,50.81,61.62Z"/><path class="cls-5" d="M55.68,56.35a1.43,1.43,0,0,0,1-.42l1-1a1.44,1.44,0,0,0-2-2.08l-1,1a1.43,1.43,0,0,0,0,2A1.45,1.45,0,0,0,55.68,56.35Z"/><path class="cls-5" d="M46.47,67.34a1.44,1.44,0,0,0,1.19-.63l.8-1.15a1.43,1.43,0,0,0-2.33-1.67c-.28.39-.57.8-.84,1.2a1.43,1.43,0,0,0,1.18,2.25Z"/><path class="cls-5" d="M61,51.56a1.42,1.42,0,0,0,.9-.32c.36-.3.73-.59,1.1-.88a1.44,1.44,0,1,0-1.77-2.26L60.12,49A1.44,1.44,0,0,0,61,51.56Z"/><path class="cls-5" d="M32.1,102.16c0,.48-.09,1-.12,1.45a1.43,1.43,0,0,0,1.32,1.54h.11a1.45,1.45,0,0,0,1.43-1.33l.12-1.4a1.44,1.44,0,1,0-2.86-.27Z"/><path class="cls-5" d="M37.24,90l.39-1.36a1.43,1.43,0,0,0-1-1.78,1.45,1.45,0,0,0-1.79,1c-.13.47-.27.94-.4,1.41a1.43,1.43,0,0,0,1,1.76,1.2,1.2,0,0,0,.38,0A1.42,1.42,0,0,0,37.24,90Z"/><path class="cls-5" d="M35.71,96.84c.08-.46.16-.92.25-1.38a1.44,1.44,0,0,0-2.82-.55c-.09.48-.18,1-.26,1.45A1.42,1.42,0,0,0,34.05,98a1,1,0,0,0,.24,0A1.45,1.45,0,0,0,35.71,96.84Z"/></g></svg>