<svg xmlns="http://www.w3.org/2000/svg" viewBox="0 0 1227.95 880.43"><defs><style>.cls-1{fill:#ffe9d3;}.cls-2,.cls-3,.cls-4{fill:#c38788;}.cls-3{fill-rule:evenodd;}.cls-4{font-size:24.96px;font-family:CooperBlackStd, Cooper Std;}.cls-5{letter-spacing:-0.07em;}.cls-6{font-family:NimbusSan-Reg, Nimbus Sans;}.cls-7{letter-spacing:0.03em;}.cls-8{letter-spacing:0em;}.cls-9{letter-spacing:0.02em;}.cls-10{letter-spacing:-0.01em;}.cls-11{letter-spacing:0em;}.cls-12{letter-spacing:0em;}.cls-13{letter-spacing:0.01em;}.cls-14{letter-spacing:0.03em;}.cls-15{letter-spacing:0em;}.cls-16{letter-spacing:0.03em;}.cls-17{letter-spacing:-0.01em;}.cls-18{letter-spacing:-0.01em;}.cls-19{letter-spacing:0.01em;}.cls-20{letter-spacing:-0.01em;}.cls-21{letter-spacing:-0.01em;}.cls-22{letter-spacing:0.01em;}.cls-23{letter-spacing:0.01em;}.cls-24{letter-spacing:0em;}.cls-25{letter-spacing:0.03em;}.cls-26{letter-spacing:0em;}.cls-27{letter-spacing:-0.01em;}.cls-28{letter-spacing:0em;}.cls-29{letter-spacing:0.01em;}.cls-30{letter-spacing:0em;}.cls-31{letter-spacing:0em;}.cls-32{letter-spacing:-0.01em;}.cls-33{letter-spacing:0em;}.cls-34{letter-spacing:0em;}.cls-35{letter-spacing:-0.01em;}.cls-36{letter-spacing:0.01em;}.cls-37{letter-spacing:0em;}.cls-38{letter-spacing:-0.01em;}.cls-39{letter-spacing:0em;}.cls-40{letter-spacing:-0.01em;}.cls-41{letter-spacing:-0.08em;}.cls-42{letter-spacing:-0.08em;}.cls-43{letter-spacing:0em;}.cls-44{letter-spacing:0em;}.cls-45{letter-spacing:0em;}.cls-46{letter-spacing:-0.01em;}.cls-47{letter-spacing:-0.01em;}.cls-48{letter-spacing:-0.01em;}.cls-49{letter-spacing:-0.01em;}.cls-50{letter-spacing:0.01em;}.cls-51{letter-spacing:0em;}.cls-52{letter-spacing:0.01em;}.cls-53{letter-spacing:0.02em;}.cls-54{letter-spacing:-0.04em;}.cls-55{letter-spacing:-0.01em;}.cls-56{letter-spacing:-0.02em;}.cls-57{letter-spacing:-0.04em;}.cls-58{letter-spacing:-0.01em;}.cls-59{letter-spacing:-0.05em;}.cls-60{letter-spacing:-0.01em;}.cls-61{letter-spacing:0.01em;}.cls-62{letter-spacing:-0.01em;}</style></defs><g id="bg"><rect class="cls-1" x="1.14" y="-1516.83" width="1224" height="3291.58"/></g><g id="Landing_page_Text" data-name="Landing page Text"><path class="cls-2" d="M55.15,92.76a1.46,1.46,0,0,0,1.42,0c3.31-1.77,5.49-2.14,6.73-2.14A10.27,10.27,0,0,1,68.74,92a10.79,10.79,0,0,0,5.35,1.39A15.43,15.43,0,0,0,82.57,91a1.42,1.42,0,0,0,.6-1.17V77.05a1.45,1.45,0,0,0-.77-1.27,1.43,1.43,0,0,0-1.49.1,12.89,12.89,0,0,1-6.82,1.84A7.84,7.84,0,0,1,70,76.63,13.2,13.2,0,0,0,63.3,75a17.8,17.8,0,0,0-8.08,2.47,1.44,1.44,0,0,0-.76,1.27V91.53A1.44,1.44,0,0,0,55.15,92.76Zm2.18-13.14a13.79,13.79,0,0,1,6-1.74,10.38,10.38,0,0,1,5.44,1.32,10.79,10.79,0,0,0,5.35,1.39A16.5,16.5,0,0,0,80.3,79.4V89a13.53,13.53,0,0,1-6.21,1.49A7.84,7.84,0,0,1,70,89.42a13.08,13.08,0,0,0-6.73-1.63,15.36,15.36,0,0,0-6,1.45Z"/><circle class="cls-2" cx="68.81" cy="84.19" r="2.87"/><path class="cls-2" d="M106.86,61.22A13.64,13.64,0,1,0,93.22,47.58,13.66,13.66,0,0,0,106.86,61.22Zm0-24.41A10.77,10.77,0,1,1,96.09,47.58,10.78,10.78,0,0,1,106.86,36.81Z"/><path class="cls-2" d="M103.38,51.92a1.41,1.41,0,0,0,.87-.3l4.12-3.17a1.36,1.36,0,0,0,.54-1.08,1.45,1.45,0,0,0,.1-.51V41.12a1.44,1.44,0,1,0-2.87,0v5.42l-3.64,2.81a1.43,1.43,0,0,0,.88,2.57Z"/><path class="cls-2" d="M189.73,95.32l5.49,5.49a1.44,1.44,0,0,0,2,0l16.2-16.2a1.37,1.37,0,0,0,.34-.55l2.8-8.09a1.44,1.44,0,0,0-1.79-1.84l-8.29,2.6a1.35,1.35,0,0,0-.58.36l-16.2,16.2A1.44,1.44,0,0,0,189.73,95.32Zm18-15.95,5.23-1.65-1.75,5.09-15,15-3.46-3.46Z"/><path class="cls-2" d="M128.08,137,122,129.59a3.08,3.08,0,0,0-2.62-1.09,21.66,21.66,0,0,0-15,7.7L93,149.81a2.87,2.87,0,0,1-4.61-.28L77.29,132.48h0l-3.46-6.11a7.19,7.19,0,0,0-5.61-3.6L64,122.4A2.85,2.85,0,0,1,61.75,121l-1.5-2.57a4.26,4.26,0,0,0-3.69-2.12,4.2,4.2,0,0,0-2,.53,4.26,4.26,0,0,0-1.71,5.75l9.11,17L80.54,174a10.47,10.47,0,0,0,16.55,2.5l5.18-5.08a44.84,44.84,0,0,1,.64-17.27,1.43,1.43,0,1,1,2.76.77,42.87,42.87,0,0,0-.78,14.41c.64,2,4,13.27,2.63,24.75a3,3,0,0,0,3,3.43h22.91V140.13A8.93,8.93,0,0,1,128.08,137ZM55.9,119.35a1.31,1.31,0,0,1,.66-.18,1.41,1.41,0,0,1,1.21.69l1.5,2.58a5.75,5.75,0,0,0,4.45,2.82l4.22.38a4.3,4.3,0,0,1,3.37,2.16l2,3.46-10.09,4.57-7.84-14.61A1.38,1.38,0,0,1,55.9,119.35Z"/><path class="cls-2" d="M160.7,127.73c4.61,0,5.85-3.71,6.18-5.56a2.9,2.9,0,0,1,.82-1.61c3.06-2.94,1.51-6.26.37-7.92a3,3,0,0,1-.42-2.45c1.3-4.72.84-9.24-3.08-11.55a15,15,0,0,1-5.78-7c-.06-.14-.11-.29-.17-.43l0-.08h0A25.81,25.81,0,0,0,113,87.65h0l0,.09a28,28,0,0,0-1.43,2.57,15.17,15.17,0,0,1-4.43,5.62h0a15.36,15.36,0,0,0-5.66,11,2.45,2.45,0,0,1-1,1.79c-2.11,1.57-7,6.05-4.22,12.31a2.77,2.77,0,0,1,.2,1.68c-.29,1.4-.37,4.33,3.42,6,3.27,1.44,7.33-.84,8.89-1.86a2.49,2.49,0,0,1,1.43-.41c2,.06,7.36.4,9.45-4.12a25.76,25.76,0,0,0,29.61.57C151.48,125.57,155.39,127.73,160.7,127.73Zm-48.23-21.22c17-1.16,24.42-8.77,27.64-15.18,2.69,3.48,7.82,7,17.51,7.17a21.7,21.7,0,0,1,.21,2.92,23,23,0,0,1-45.36,5.09Z"/><path class="cls-2" d="M151.67,62a1.44,1.44,0,0,0,1.22.68h34.33a1.44,1.44,0,0,0,1.29-2.08l-4.84-9.74V33.94a1.43,1.43,0,0,0-1.43-1.43H157.83a1.43,1.43,0,0,0-1.43,1.43v17l-4.8,9.66A1.43,1.43,0,0,0,151.67,62Zm7.6-26.6H180.8V49.73H159.27Zm-.5,17.23h22.57l3.57,7.17H155.2Z"/><path class="cls-2" d="M176.5,54H163.57a1.44,1.44,0,0,0,0,2.87H176.5a1.44,1.44,0,0,0,0-2.87Z"/><path class="cls-2" d="M215.56,116.83a4.13,4.13,0,0,0-2-.53,4.26,4.26,0,0,0-3.69,2.12l-1.5,2.57a2.85,2.85,0,0,1-2.23,1.41l-4.22.38a7.17,7.17,0,0,0-5.61,3.6l-3.51,6.2h0l-11.05,16.95a2.87,2.87,0,0,1-4.61.28l-11.4-13.61a21.7,21.7,0,0,0-15-7.7,3.06,3.06,0,0,0-2.62,1.1L142.06,137a9,9,0,0,1-5.77,3.22v57.35h23.33a3,3,0,0,0,3-3.43c-1.18-10,1.22-19.86,2.28-23.56a42.89,42.89,0,0,0-.64-15.6,1.44,1.44,0,0,1,2.77-.77,44.85,44.85,0,0,1,.66,17.1l5.36,5.25a10.46,10.46,0,0,0,16.54-2.5l18.59-34.48,9.11-17A4.26,4.26,0,0,0,215.56,116.83ZM155,161.72h-8.62a1.44,1.44,0,0,1,0-2.87H155a1.44,1.44,0,1,1,0,2.87Zm47.18-36.08,4.22-.38a5.75,5.75,0,0,0,4.46-2.82l1.5-2.58a1.38,1.38,0,0,1,1.21-.69,1.31,1.31,0,0,1,.66.18,1.38,1.38,0,0,1,.56,1.87l-7.84,14.61-10.1-4.57,2-3.46A4.28,4.28,0,0,1,202.14,125.64Z"/><path class="cls-2" d="M208.67,96.86c-.14-.49-.27-1-.41-1.4a1.44,1.44,0,0,0-2.75.83c.13.43.27.88.4,1.36a1.45,1.45,0,0,0,1.38,1,1.83,1.83,0,0,0,.4,0A1.44,1.44,0,0,0,208.67,96.86Z"/><path class="cls-2" d="M210.18,112.74h.12a1.44,1.44,0,0,0,1.31-1.56c0-.48-.09-1-.16-1.47a1.42,1.42,0,0,0-1.59-1.26,1.44,1.44,0,0,0-1.25,1.6c0,.47.1.93.14,1.38A1.43,1.43,0,0,0,210.18,112.74Z"/><path class="cls-2" d="M207.65,104.52a1.44,1.44,0,0,0,1.41,1.13,1.53,1.53,0,0,0,.3,0,1.43,1.43,0,0,0,1.1-1.71c-.1-.47-.21-1-.32-1.42a1.43,1.43,0,0,0-1.72-1.07,1.45,1.45,0,0,0-1.08,1.72C207.45,103.6,207.55,104.06,207.65,104.52Z"/><path class="cls-2" d="M188.86,65.47c.32.34.63.69.95,1a1.41,1.41,0,0,0,1.07.48,1.38,1.38,0,0,0,1-.36,1.44,1.44,0,0,0,.12-2l-1-1.08a1.44,1.44,0,0,0-2.11,1.95Z"/><path class="cls-2" d="M194.22,72a1.44,1.44,0,0,0,2.32-1.69c-.29-.39-.58-.79-.87-1.17a1.44,1.44,0,0,0-2.29,1.73C193.66,71.24,194,71.61,194.22,72Z"/><path class="cls-2" d="M197.85,77.45A1.43,1.43,0,1,0,200.31,76l-.5-.83a1.43,1.43,0,0,0-2.44,1.51Z"/><path class="cls-2" d="M144.41,42.51l1.39.19H146a1.43,1.43,0,0,0,.2-2.85l-1.45-.2a1.44,1.44,0,0,0-.36,2.85Z"/><path class="cls-2" d="M130.26,42.07h.09l1.41-.08a1.43,1.43,0,0,0,1.37-1.49,1.41,1.41,0,0,0-1.5-1.38l-1.46.08a1.45,1.45,0,0,0-1.34,1.53A1.43,1.43,0,0,0,130.26,42.07Z"/><path class="cls-2" d="M151.34,43.73l.9.21a1.32,1.32,0,0,0,.34,0,1.43,1.43,0,0,0,.33-2.83l-.93-.22a1.44,1.44,0,0,0-.64,2.8Z"/><path class="cls-2" d="M123.13,42.87l.23,0,1.39-.21a1.43,1.43,0,1,0-.41-2.84L122.9,40a1.43,1.43,0,0,0,.23,2.85Z"/><path class="cls-2" d="M137.39,42l1.41.06h.07a1.44,1.44,0,0,0,.07-2.87l-1.46-.06a1.44,1.44,0,0,0-.09,2.87Z"/><path class="cls-2" d="M77.85,68.65A1.46,1.46,0,0,0,79,68.13l.91-1.07a1.44,1.44,0,0,0-2.17-1.88c-.32.36-.63.74-1,1.11a1.44,1.44,0,0,0,.18,2A1.46,1.46,0,0,0,77.85,68.65Z"/><path class="cls-2" d="M82.72,63.37a1.41,1.41,0,0,0,1-.41l1-1a1.43,1.43,0,0,0-2-2.08c-.36.33-.71.67-1.06,1a1.43,1.43,0,0,0,1,2.45Z"/><path class="cls-2" d="M73.51,74.37a1.44,1.44,0,0,0,1.19-.63c.27-.39.53-.77.81-1.15a1.44,1.44,0,0,0-2.34-1.67q-.42.58-.84,1.2a1.45,1.45,0,0,0,1.18,2.25Z"/><path class="cls-2" d="M88.07,58.59a1.44,1.44,0,0,0,.9-.32l1.11-.88a1.44,1.44,0,0,0-1.78-2.26L87.16,56a1.44,1.44,0,0,0,.91,2.55Z"/><path class="cls-2" d="M59.15,109.19c0,.48-.09,1-.13,1.45a1.43,1.43,0,0,0,1.32,1.54h.11a1.43,1.43,0,0,0,1.43-1.33l.12-1.4a1.44,1.44,0,0,0-1.29-1.57A1.42,1.42,0,0,0,59.15,109.19Z"/><path class="cls-2" d="M64.29,97c.12-.46.25-.91.38-1.36a1.43,1.43,0,0,0-2.75-.81c-.14.47-.27.93-.4,1.41a1.43,1.43,0,0,0,1,1.76,1.28,1.28,0,0,0,.38,0A1.45,1.45,0,0,0,64.29,97Z"/><path class="cls-2" d="M62.75,103.87c.08-.46.17-.92.25-1.38a1.43,1.43,0,1,0-2.81-.55q-.15.72-.27,1.44A1.43,1.43,0,0,0,61.09,105a1.06,1.06,0,0,0,.25,0A1.43,1.43,0,0,0,62.75,103.87Z"/><path class="cls-2" d="M94.77,347.19h86.94a2.1,2.1,0,0,0,2.1-2.09V290.7a2.1,2.1,0,0,0-2.1-2.09h-4.88V280.1c-3.72,4.18-17.92,5.7-24.87,6.21-9.53.7-12.32,4.76-12.32,4.76v48.7c5.58,0,20.94-.85,26-2.79,8.14-3.09,11.16-7.44,11.16-7.44V292.8h2.79v48.58H96.86V292.8h2.79v36.75s3,4.35,11.16,7.44c5.09,1.93,20.46,2.79,26,2.79v-48.7s-2.79-4.06-12.32-4.76c-7-.51-21.16-2-24.88-6.22v8.52H94.77a2.1,2.1,0,0,0-2.09,2.09v54.4A2.09,2.09,0,0,0,94.77,347.19ZM172,323.36c-.19.07-4.7,1.82-15.43,3.34-7.91,1.12-10.16,3.78-10.24,3.87a1.39,1.39,0,0,1-1.12.55,1.39,1.39,0,0,1-1.13-2.2c.26-.38,2.88-3.68,12.1-5,10.34-1.46,14.75-3.15,14.79-3.17a1.4,1.4,0,0,1,1.8.79A1.38,1.38,0,0,1,172,323.36Zm0-10.45c-.19.07-4.7,1.82-15.43,3.33-7.91,1.12-10.16,3.78-10.24,3.87a1.38,1.38,0,0,1-1.12.57,1.44,1.44,0,0,1-.81-.26,1.4,1.4,0,0,1-.32-1.95c.26-.37,2.88-3.69,12.1-5,10.34-1.46,14.75-3.15,14.79-3.17a1.4,1.4,0,0,1,1,2.6Zm0-10.45c-.19.07-4.7,1.82-15.43,3.34-7.91,1.11-10.16,3.77-10.24,3.86a1.39,1.39,0,0,1-2.25-1.64c.26-.38,2.88-3.68,12.1-5,10.34-1.46,14.75-3.15,14.79-3.17a1.4,1.4,0,0,1,1,2.6ZM172,292c-.19.08-4.7,1.82-15.43,3.34-7.91,1.12-10.16,3.78-10.24,3.87a1.39,1.39,0,0,1-2.25-1.64c.26-.38,2.88-3.69,12.1-5,10.34-1.46,14.75-3.16,14.79-3.17a1.38,1.38,0,0,1,1.8.79A1.37,1.37,0,0,1,172,292Zm-68.29-1.8a1.38,1.38,0,0,1,1.8-.79s4.45,1.71,14.8,3.17c9.22,1.3,11.83,4.61,12.09,5a1.38,1.38,0,0,1-.32,1.94,1.37,1.37,0,0,1-.81.26,1.42,1.42,0,0,1-1.12-.56c-.08-.09-2.34-2.75-10.24-3.87-10.73-1.52-15.24-3.26-15.43-3.34A1.38,1.38,0,0,1,103.71,290.2Zm0,10.45a1.38,1.38,0,0,1,1.8-.79s4.45,1.71,14.8,3.17c9.22,1.31,11.83,4.61,12.09,5a1.39,1.39,0,0,1-2.25,1.64c-.08-.09-2.34-2.75-10.24-3.86-10.73-1.52-15.24-3.27-15.43-3.34A1.39,1.39,0,0,1,103.71,300.65Zm0,10.45a1.39,1.39,0,0,1,1.8-.79s4.45,1.71,14.8,3.17c9.22,1.3,11.83,4.62,12.09,5a1.4,1.4,0,0,1-.32,1.95,1.44,1.44,0,0,1-.81.26,1.4,1.4,0,0,1-1.12-.57c-.08-.09-2.34-2.75-10.24-3.87-10.73-1.51-15.24-3.26-15.43-3.33A1.39,1.39,0,0,1,103.71,311.1Zm0,10.45a1.4,1.4,0,0,1,1.8-.79s4.45,1.71,14.8,3.17c9.22,1.31,11.83,4.61,12.09,5a1.39,1.39,0,0,1-1.13,2.2,1.41,1.41,0,0,1-1.12-.55c-.08-.09-2.34-2.76-10.24-3.87-10.73-1.52-15.24-3.27-15.43-3.34A1.39,1.39,0,0,1,103.71,321.55Z"/><path class="cls-2" d="M199.16,263.05H77.33a13,13,0,0,0-13,13v88.3a13,13,0,0,0,13,13H199.16a13,13,0,0,0,13-13v-88.3A13,13,0,0,0,199.16,263.05ZM185.65,370.88a4.43,4.43,0,1,1,4.43-4.43A4.43,4.43,0,0,1,185.65,370.88Zm15.68-15.19H75.15V273.91H201.33Z"/><path class="cls-2" d="M172.2,394.77h-6.76l-3.92-13H115l-3.91,13h-6.77a8.69,8.69,0,0,0,0,17.37H172.2a8.69,8.69,0,0,0,0-17.37Z"/><path class="cls-2" d="M123.15,585.43H99.38a14.24,14.24,0,0,0,14.05,11.07h4Z"/><path class="cls-2" d="M99.25,569.37c-.11,1.19-.16,2.39-.16,3.61v6.91h28.25a13.91,13.91,0,0,1,13.79-11.54v5.53a8.42,8.42,0,0,0-8.13,6h11.79a8.31,8.31,0,1,0,0-16.6h-19.2a14.58,14.58,0,0,1-5.12,7.78l-3.49-4.3a8.08,8.08,0,0,0,0-13.26l3.49-4.3a14.41,14.41,0,0,1,5.28,8.54H138.4a18.37,18.37,0,0,1,6.31-12.7,13.57,13.57,0,0,1-1.87-6.86h5.54a8.33,8.33,0,0,0,8.43,8.21v5.53a14,14,0,0,1-8.39-2.76,12.91,12.91,0,0,0-4.46,8.58h.83A14,14,0,0,1,159,571.59a13.48,13.48,0,0,1-2.85,8.3h13.62c-.19-4.73,2.35-9.4,7.06-12.67l.84-.58,3.15,4.55-.83.58c-3.22,2.23-4.89,5.19-4.67,8.12h6.57a5.67,5.67,0,0,0,5.79-5.53V573A41.59,41.59,0,0,0,185,558.34,17.27,17.27,0,0,1,174.27,562c-.53,0-1.07,0-1.6-.08a13.64,13.64,0,0,1-3.15,4.71l-3.87-3.95.18-.18a8.06,8.06,0,0,0-.18-11.39l3.87-3.95a13.51,13.51,0,0,1,4.1,9.28,11.53,11.53,0,0,0,9-3.4,43.76,43.76,0,0,0-16.29-16.78,10.6,10.6,0,0,1,.06,1.14,12.87,12.87,0,0,1-3.9,9.22l-3.87-3.95a7.32,7.32,0,0,0,.68-9.76,45.62,45.62,0,0,0-28.77-1,11,11,0,0,0,4.14,9.51l1.48,1.15-3.4,4.37-1.48-1.16A16.52,16.52,0,0,1,125,534a43.42,43.42,0,0,0-24.81,29.65,12.29,12.29,0,0,0,7.32-5l4.58,3.12A17.84,17.84,0,0,1,99.25,569.37Z"/><path class="cls-2" d="M94.78,607.73a58.11,58.11,0,0,1,7.08,27.74v5.31h72a13.86,13.86,0,0,0,13.84-13.84v-8.4a38.62,38.62,0,0,1-18.1-5.88l3-4.65a33.18,33.18,0,0,0,15.11,5V602a2.77,2.77,0,0,1,2.77-2.76h16L200,565.9a57.89,57.89,0,0,0-114.73,11A52.63,52.63,0,0,0,91.65,602Zm-1.23-25.07V573c0-26.71,22.35-48.44,49.82-48.44a51,51,0,0,1,19,3.69l0,0,.06.07c18,7.3,30.67,24.59,30.67,44.71v1.38a11.21,11.21,0,0,1-11.32,11.07H143.63L130.15,611.6a2.76,2.76,0,0,1-2.46,1.5H113.43a2.75,2.75,0,0,1-2.46-4l3.62-7h-1.16C102.47,602,93.55,593.34,93.55,582.66Z"/><polygon class="cls-2" points="121.59 600.54 117.97 607.57 126 607.57 137.4 585.43 129.37 585.43 121.59 600.53 121.59 600.54"/><rect class="cls-2" x="140.6" y="491.33" width="5.54" height="16.61"/><rect class="cls-2" x="140.6" y="480.26" width="5.54" height="5.54"/><rect class="cls-2" x="168.52" y="504.46" width="14.43" height="5.54" transform="translate(-351.4 405.8) rotate(-60)"/><rect class="cls-2" x="180.73" y="491.02" width="5.54" height="5.54" transform="translate(-335.88 405.8) rotate(-60)"/><rect class="cls-2" x="198.18" y="526.55" width="8.04" height="5.53" transform="translate(-237.57 172.02) rotate(-30)"/><rect class="cls-2" x="210.11" y="520.39" width="5.54" height="5.53" transform="translate(-233.07 176.54) rotate(-30)"/><rect class="cls-2" x="209.79" y="560.52" width="5.54" height="5.54"/><rect class="cls-2" x="220.86" y="560.52" width="5.54" height="5.54"/><rect class="cls-2" x="71.41" y="560.52" width="5.54" height="5.54"/><rect class="cls-2" x="60.34" y="560.52" width="5.54" height="5.54"/><rect class="cls-2" x="83.08" y="524.54" width="5.53" height="11.07" transform="translate(-416.14 339.38) rotate(-60)"/><rect class="cls-2" x="71.1" y="520.39" width="5.53" height="5.54" transform="translate(-416.14 325.55) rotate(-60)"/><rect class="cls-2" x="108.23" y="500.01" width="5.54" height="14.43" transform="translate(-238.74 123.45) rotate(-30)"/><rect class="cls-2" x="100.47" y="491.02" width="5.54" height="5.54" transform="translate(-233.06 117.77) rotate(-30)"/><path class="cls-3" d="M113.76,815.94s7.83.26,9.59.57a24.9,24.9,0,0,1,8.23,2.36,10.26,10.26,0,0,1,3.66,4.45c.9,2.53-.62,7.87-2.05,14.21-1,4.35-2.46,12-3.47,12.92-3.14,3-7.51,6.25-14.4,6-9.53-.28-12.91-1.65-16.19-6.06-.91-1.22-3.36-11.62-4.74-19.37-1.16-6.46-.48-8.78.09-9.6,1.39-2,4.56-3.56,5.74-3.93.94-.29,6.14-1.15,7.13-1.26C109.24,816.06,113.76,815.94,113.76,815.94ZM204.42,792c-2.53,4.05-9,5.55-11.9,5.45-6.11-.23-13.68-5.29-14.21-13.93-.41-6.75,4.91-15.34,14.43-15.71,5.1-.19,9.47,3.06,9.47,3.06l-4.12-19.46a13.48,13.48,0,0,1-3,.25c-2.73-.24-4-3.37-4.34-4.62s-.53-2.3.89-3.55c1.05-.92,5.34-2.43,5.34-2.43a5.87,5.87,0,0,1,2.12-.07,4.87,4.87,0,0,1,1.54.91c1,.9,1.78,3.54,1.84,3.76l1.6,6.33c1.15,4.48,4.33,15.34,6.56,25.13,2.3,10.05,3.64,19,3.64,19s.78,5.74.92,7.29v.06a51.45,51.45,0,0,1,.19,6.18,103.8,103.8,0,0,1-2,10.93c-.79,3.34-3.82,13.37-4.35,14.11s-4.46,3.33-6.3,4.12h0a20.55,20.55,0,0,1-17.6-.34s-5-2.65-5.76-3.55a3.65,3.65,0,0,1-.57-1.89s-1.69,9-2.95,11.43c-.86,1.68-9.85,6.06-13.93,6A35.75,35.75,0,0,1,150.33,848c-1.94-.71-4-1.75-5.09-3.53-1.21-2.06-1.46-5.88-2.19-8.81-.94-3.22-3.86-12.2-3.48-17.4.22-2.94,3.06-4.83,3.42-5.1,2.19-1.64,4.93-1.95,7.51-2.44a52.15,52.15,0,0,1,9.18-.77c.43,0,6.82.15,9.78.58.37.06,3.69.61,4,.69a13,13,0,0,1,.22-3.18,8.18,8.18,0,0,1,2.55-4.28,11.48,11.48,0,0,1,4.37-2.23c3.22-1.08,10-1.59,12.58-1.55a91.12,91.12,0,0,1,11.3,1.18l-.09-9.14ZM90.81,805.38c.24,0,6.91.35,8,.5a16.93,16.93,0,0,0,8.37,7.45,17.62,17.62,0,0,0,2.46.79c-.21,0-5.13.58-5.51.65a30.32,30.32,0,0,0-3.78.71,11.52,11.52,0,0,0-6.85,4.13,7.93,7.93,0,0,0-1.93,4.44c-.54,4.72,2.75,15,3.35,17.48a64.7,64.7,0,0,1-8.68-.14c-9.49-1.42-9-4.27-9.21-4.84-1.37-4.8-4.61-16.87-4.92-21.6-.13-2,.45-5.22,3-6.79,2-1.21,5.56-1.84,8-2.15S90.4,805.38,90.81,805.38Zm44.37,31.82s2-8.13,2.07-9.11c.4-3.48,0-6.07-1.14-7.55a12.54,12.54,0,0,0-6.89-4.87A94,94,0,0,0,117.71,814c1.67.07,5.86-2.66,7.38-4.1a16.9,16.9,0,0,0,3.55-4.88,16.66,16.66,0,0,0,1.4-4.3c1.37-.12,6.62-.2,7-.19,1,0,8.81,1,8.81,1a21.73,21.73,0,0,0,4.14,4.1,18.11,18.11,0,0,0,5.68,2.54c-1.47.1-8.21,1.05-9.52,1.42a15.67,15.67,0,0,0-5.81,3.25,9.8,9.8,0,0,0-2.62,4.4,19.63,19.63,0,0,0,.44,7.3c.05.18,3,11.71,3,11.71C140.8,836.35,135.18,837.2,135.18,837.2Zm-22.12-54.07c7.89.06,15.29,5.92,15.29,14.34,0,7.95-6.24,15.25-14.86,15.15-7.37-.08-15-6.15-15-14.43C98.52,791.68,103.49,783.07,113.06,783.13Zm62.69,4a17.49,17.49,0,0,1,.32,8.06,22,22,0,0,1-2,5.16c-2.4,5-8.61,7.3-10.26,7.73.49,0,7.77.84,7.77.84a10.73,10.73,0,0,1,2.12-5.27,11.14,11.14,0,0,1,6.39-4,71.13,71.13,0,0,1,7.5-1.14h0a15.64,15.64,0,0,1-6.62-4.08,23.6,23.6,0,0,1-4.24-7.29Zm-16.67-10c9.15,0,15.31,6.76,15.42,14.09.12,8.26-5.38,15.49-14.9,15.49s-14.93-9-14.84-14.48C144.88,785,150.16,777.09,159.08,777.07ZM89,775.6c7.32-.69,12,5.21,13.09,7.54a11.49,11.49,0,0,1,.68,1.71c-.94,1.27-3.16,3-4.86,7.08a20.54,20.54,0,0,0-1,8.52,13.38,13.38,0,0,1-6.7,1.93c-3.12,0-6.41-.39-9.5-3.25A13.42,13.42,0,0,1,89,775.6Zm54.53,21a15.59,15.59,0,0,1-3.15,1.74c-.29.12-.58.23-.88.33a45.19,45.19,0,0,1,5.07.57A16.64,16.64,0,0,1,143.5,796.63Zm-22.31-13.82c0-.46.71-7.12,6.84-10.36a13.24,13.24,0,0,1,15.47,1.68,13.07,13.07,0,0,1,3.89,6.11,16.8,16.8,0,0,0-4.47,9.41,17.41,17.41,0,0,0,.09,4.89,15.24,15.24,0,0,1-6.26,2.87,15.8,15.8,0,0,1-6.46-.55h0a32.9,32.9,0,0,0-1.73-6.57A17,17,0,0,0,121.19,782.81Zm40.48-19.88a13.51,13.51,0,0,1,19.19-2.6,16.24,16.24,0,0,1,4.69,7.1l0,0a36.06,36.06,0,0,0-5.8,4.7,16.52,16.52,0,0,0-3.56,11.44,12,12,0,0,1-1.68.36,16.94,16.94,0,0,0-3-4,16.7,16.7,0,0,0-5.15-3.53,17,17,0,0,0-6.51-1.4h0A12.7,12.7,0,0,1,161.67,762.93ZM102.25,734.6c1.12-2.24,4.82-3.61,6.5-2.92s2.68,4.06,2.68,4.06L118,761.26s2.85,15.91,2.79,16a15.27,15.27,0,0,0-1.36,4.11l-.09.58a16.73,16.73,0,0,0-3.27-.85,39.6,39.6,0,0,0-5.11,0,16.86,16.86,0,0,0-4.55,1.38,15.94,15.94,0,0,0-1.86,1s-.55-.93-.79-1.41a15.68,15.68,0,0,0-1.93-3s1.83-.1,2.75-.13a59.37,59.37,0,0,1,8.34.88l-.07-7.37a11.73,11.73,0,0,1-9.28,4.38c-6.14.1-11.74-5.38-11.75-12.13a12.21,12.21,0,0,1,11.63-11.92,12.74,12.74,0,0,1,7.62,2.61s-3-13.94-3.33-15.7c-.44.13-1.4.67-2.24.31C104.11,739.51,101.08,736.92,102.25,734.6Zm51.32,41.5c-1.33-.12-5.75-.2-6-.2a32.14,32.14,0,0,1,1.43,2.88A31.36,31.36,0,0,1,153.57,776.1Zm-35.21-21.18c.11,0,6-.71,8.62-.76,2.27,0,7.07.51,7.07.51a14.06,14.06,0,0,0-.93,3.25,14.73,14.73,0,0,0,1.32,8.93,14.8,14.8,0,0,0,1.17,1.95,33.62,33.62,0,0,0-3.4.13,15.3,15.3,0,0,0-9.64,5.57C122,770.67,118.87,756.88,118.36,754.92Zm16.57,5.87c0-5,3.68-13.25,13.14-13.12,8.79.13,11.79,8.27,12.1,10.57a14,14,0,0,1,.14,3.1,15.31,15.31,0,0,0-2.92,6.61c0,.22-.08.43-.1.65a16.05,16.05,0,0,1-4.41,3.32,16.35,16.35,0,0,1-8,.84,15.15,15.15,0,0,0-6.33-3.47A12.72,12.72,0,0,1,134.93,760.79Zm48.12-1.32a15.52,15.52,0,0,1,3.25,4.37,15.74,15.74,0,0,1,1.07,2.82c.52-.18,1-.34,1.58-.47a17.63,17.63,0,0,1,4.22-.48s0-2.06-.61-2.79a8.48,8.48,0,0,0-1.85-1.64C188.16,759.73,183.64,759.53,183.05,759.47Zm-29.79-50.12a5.48,5.48,0,0,1-2.62-.09,3.67,3.67,0,0,1-2.18-3.36c.33-2.72,3.93-3,6-2.5,1.56.36,1.75,2.77,1.75,2.77.23,1,7.18,29.8,7.54,32.64a61.49,61.49,0,0,1,.5,8,89.34,89.34,0,0,1-2.3,10.16,14.94,14.94,0,0,0-1.22-3.31,15.55,15.55,0,0,0-10.85-7.83c-.68-.09-4.15,0-4.83.06a11.79,11.79,0,0,0-7,3.35c-.12-.4-.38-2.55-.38-2.55h0a10.28,10.28,0,0,0,.69-2.79,17.74,17.74,0,0,1,3.87-2.75c1.06-.51,4.78-.83,7.2-.87a71.27,71.27,0,0,1,7.94.64l-.06-5.8c-.57.68-2.39,3.2-7.37,3.43s-9.19-4.87-9.2-8.7c0-3.12,1.27-9.62,8.82-10a12,12,0,0,1,6.36,1.87C155.3,719,153.56,710.73,153.26,709.35Zm24,24.74c7.47.09,11.61,6.26,11.53,10.59a11.09,11.09,0,0,1-11.11,11.18c-6.13.15-11.41-4.88-11.53-10.37C165.93,738.16,172.67,734,177.21,734.09Zm-58.85,20.82h0Zm15.69-.24Zm-7.55-21.12a9.58,9.58,0,0,1,9.75,9.19c.18,5.07-4.46,9.24-9.44,9.35-6.07.13-10-4.65-10.16-8.81C116.49,737.15,121.81,733.6,126.5,733.55Z"/><text class="cls-4" transform="translate(297.08 83.6)">DOCUMENT EVE<tspan class="cls-5" x="228.49" y="0">R</tspan><tspan x="247.06" y="0">YTHING</tspan><tspan class="cls-6"><tspan x="0" y="29.95">and so</tspan><tspan class="cls-7" x="73.9" y="29.95">r</tspan><tspan x="83.23" y="29.95">t out wh</tspan><tspan class="cls-8" x="169.24" y="29.95">a</tspan><tspan class="cls-9" x="182.24" y="29.95">t</tspan><tspan class="cls-10" x="189.5" y="29.95">’</tspan><tspan class="cls-11" x="195.17" y="29.95">s i</tspan><tspan class="cls-12" x="220.42" y="29.95">m</tspan><tspan x="239.79" y="29.95">po</tspan><tspan class="cls-7" x="267.54" y="29.95">r</tspan><tspan class="cls-13" x="276.88" y="29.95">t</tspan><tspan x="283.87" y="29.95">ant a</tspan><tspan class="cls-14" x="337.65" y="29.95">f</tspan><tspan class="cls-15" x="345.01" y="29.95">t</tspan><tspan x="351.7" y="29.95">e</tspan><tspan class="cls-16" x="364.9" y="29.95">r</tspan><tspan class="cls-17" x="374.36" y="29.95">w</tspan><tspan x="391.03" y="29.95">a</tspan><tspan class="cls-18" x="404.06" y="29.95">r</tspan><tspan x="412.62" y="29.95" xml:space="preserve">ds!  </tspan><tspan class="cls-19" x="459.99" y="29.95">T</tspan><tspan x="473.42" y="29.95">his p</tspan><tspan class="cls-20" x="526.16" y="29.95">r</tspan><tspan class="cls-21" x="534.62" y="29.95">o</tspan><tspan x="548.17" y="29.95">ject is si</tspan><tspan class="cls-15" x="637.82" y="29.95">t</tspan><tspan x="644.5" y="29.95">ed </tspan><tspan class="cls-22" x="679.27" y="29.95">w</tspan><tspan x="696.24" y="29.95">i</tspan><tspan class="cls-23" x="701.88" y="29.95">t</tspan><tspan x="708.89" y="29.95">hin a 3’ </tspan><tspan class="cls-24" x="796.85" y="29.95">f</tspan><tspan x="803.56" y="29.95">lood </tspan><tspan x="0" y="59.9">plane pu</tspan><tspan class="cls-25" x="94.32" y="59.9">t</tspan><tspan class="cls-23" x="101.78" y="59.9">t</tspan><tspan x="108.79" y="59.9">i</tspan><tspan class="cls-26" x="114.43" y="59.9">n</tspan><tspan x="127.78" y="59.9">g all n</tspan><tspan class="cls-15" x="194.19" y="59.9">e</tspan><tspan x="207.3" y="59.9">ar</tspan><tspan class="cls-27" x="229.01" y="59.9">b</tspan><tspan x="242.71" y="59.9">y p</tspan><tspan class="cls-20" x="276.16" y="59.9">r</tspan><tspan x="284.62" y="59.9">ope</tspan><tspan class="cls-7" x="325.57" y="59.9">r</tspan><tspan class="cls-23" x="334.91" y="59.9">t</tspan><tspan x="341.92" y="59.9">ies and people </tspan><tspan class="cls-8" x="509.73" y="59.9">a</tspan><tspan x="522.74" y="59.9">t an un</tspan><tspan class="cls-28" x="597.88" y="59.9">f</tspan><tspan x="604.42" y="59.9">air ri</tspan><tspan class="cls-29" x="653.59" y="59.9">s</tspan><tspan x="665.85" y="59.9">k in E</tspan><tspan class="cls-30" x="727.64" y="59.9">a</tspan><tspan x="740.69" y="59.9">st Bos</tspan><tspan class="cls-15" x="809.03" y="59.9">t</tspan><tspan x="815.72" y="59.9">o</tspan><tspan class="cls-22" x="829.44" y="59.9">n</tspan><tspan x="843.05" y="59.9">, a </tspan><tspan x="0" y="89.85">nei</tspan><tspan class="cls-31" x="32.29" y="89.85">g</tspan><tspan x="46.05" y="89.85">hborhood al</tspan><tspan class="cls-32" x="177.12" y="89.85">r</tspan><tspan class="cls-15" x="185.61" y="89.85">e</tspan><tspan x="198.71" y="89.85">a</tspan><tspan class="cls-33" x="211.74" y="89.85">d</tspan><tspan x="225.94" y="89.85">y bu</tspan><tspan class="cls-34" x="272.89" y="89.85">r</tspan><tspan x="281.45" y="89.85">dened </tspan><tspan class="cls-22" x="356.94" y="89.85">w</tspan><tspan x="373.91" y="89.85">i</tspan><tspan class="cls-23" x="379.55" y="89.85">t</tspan><tspan x="386.57" y="89.85">h a di</tspan><tspan class="cls-33" x="447.74" y="89.85">s</tspan><tspan x="459.99" y="89.85">p</tspan><tspan class="cls-35" x="474.02" y="89.85">r</tspan><tspan x="482.48" y="89.85">opo</tspan><tspan class="cls-7" x="523.96" y="89.85">r</tspan><tspan class="cls-36" x="533.29" y="89.85">t</tspan><tspan x="540.31" y="89.85">ion</tspan><tspan class="cls-8" x="573.13" y="89.85">a</tspan><tspan class="cls-15" x="586.13" y="89.85">t</tspan><tspan x="592.82" y="89.85">e amount of </tspan><tspan class="cls-32" x="728.61" y="89.85">r</tspan><tspan class="cls-37" x="737.1" y="89.85">e</tspan><tspan x="750.27" y="89.85">gional and </tspan><tspan x="0" y="119.8">indus</tspan><tspan class="cls-23" x="58.75" y="119.8">t</tspan><tspan x="65.76" y="119.8">rial inf</tspan><tspan class="cls-38" x="131.95" y="119.8">r</tspan><tspan class="cls-12" x="140.49" y="119.8">a</tspan><tspan x="153.54" y="119.8">s</tspan><tspan class="cls-36" x="165.67" y="119.8">t</tspan><tspan x="172.68" y="119.8">ruc</tspan><tspan class="cls-39" x="208.02" y="119.8">t</tspan><tspan x="214.86" y="119.8">u</tspan><tspan class="cls-40" x="228.31" y="119.8">r</tspan><tspan x="236.8" y="119.8">e.</tspan></tspan><tspan x="0" y="209.65">COMMUNIC</tspan><tspan class="cls-41" x="158.68" y="209.65">A</tspan><tspan x="178.4" y="209.65">TE ACCUR</tspan><tspan class="cls-41" x="324.08" y="209.65">A</tspan><tspan x="343.79" y="209.65">TE</tspan><tspan class="cls-42" x="380.31" y="209.65">L</tspan><tspan x="394.98" y="209.65">Y</tspan><tspan class="cls-6"><tspan class="cls-19" x="0" y="239.6">T</tspan><tspan x="13.43" y="239.6">he his</tspan><tspan class="cls-26" x="78.79" y="239.6">t</tspan><tspan x="85.48" y="239.6">o</tspan><tspan class="cls-16" x="99.21" y="239.6">r</tspan><tspan x="108.67" y="239.6">y of 338 E</tspan><tspan class="cls-12" x="220.33" y="239.6">a</tspan><tspan x="233.38" y="239.6">st E</tspan><tspan class="cls-20" x="274.79" y="239.6">a</tspan><tspan class="cls-43" x="287.59" y="239.6">g</tspan><tspan x="301.34" y="239.6">le </tspan><tspan class="cls-24" x="327.67" y="239.6">S</tspan><tspan class="cls-36" x="343.84" y="239.6">t</tspan><tspan class="cls-32" x="350.86" y="239.6">r</tspan><tspan x="359.34" y="239.6">e</tspan><tspan class="cls-44" x="372.54" y="239.6">e</tspan><tspan x="385.7" y="239.6">t and of E</tspan><tspan class="cls-30" x="490.84" y="239.6">a</tspan><tspan x="503.9" y="239.6">st Bos</tspan><tspan class="cls-15" x="572.23" y="239.6">t</tspan><tspan x="578.92" y="239.6">on </tspan><tspan class="cls-15" x="613.59" y="239.6">t</tspan><tspan x="620.27" y="239.6">o </tspan><tspan class="cls-22" x="641.49" y="239.6">v</tspan><tspan x="652.64" y="239.6">isi</tspan><tspan class="cls-15" x="676.06" y="239.6">t</tspan><tspan x="682.74" y="239.6">o</tspan><tspan class="cls-45" x="696.47" y="239.6">r</tspan><tspan x="705.21" y="239.6">s so </tspan><tspan class="cls-23" x="758.17" y="239.6">t</tspan><tspan x="765.18" y="239.6">h</tspan><tspan class="cls-46" x="778.63" y="239.6">e</tspan><tspan x="791.48" y="239.6">y </tspan><tspan class="cls-45" x="810.9" y="239.6">c</tspan><tspan x="824.15" y="239.6">an </tspan><tspan x="0" y="269.55">e</tspan><tspan class="cls-30" x="13.2" y="269.55">m</tspan><tspan x="32.57" y="269.55">p</tspan><tspan class="cls-8" x="46.6" y="269.55">a</tspan><tspan class="cls-23" x="59.6" y="269.55">t</tspan><tspan x="66.61" y="269.55">h</tspan><tspan class="cls-40" x="80.06" y="269.55">i</tspan><tspan class="cls-47" x="85.5" y="269.55">z</tspan><tspan x="96.66" y="269.55">e </tspan><tspan class="cls-22" x="117.35" y="269.55">w</tspan><tspan x="134.32" y="269.55">i</tspan><tspan class="cls-23" x="139.96" y="269.55">t</tspan><tspan x="146.98" y="269.55">h </tspan><tspan class="cls-36" x="167.92" y="269.55">t</tspan><tspan x="174.93" y="269.55">he deep his</tspan><tspan class="cls-15" x="302.29" y="269.55">t</tspan><tspan x="308.97" y="269.55">o</tspan><tspan class="cls-16" x="322.7" y="269.55">r</tspan><tspan x="332.16" y="269.55">y of u</tspan><tspan class="cls-15" x="392.86" y="269.55">n</tspan><tspan x="406.21" y="269.55">just inf</tspan><tspan class="cls-17" x="477.71" y="269.55">r</tspan><tspan class="cls-30" x="486.25" y="269.55">a</tspan><tspan x="499.3" y="269.55">s</tspan><tspan class="cls-23" x="511.43" y="269.55">t</tspan><tspan x="518.44" y="269.55">ruc</tspan><tspan class="cls-45" x="553.78" y="269.55">t</tspan><tspan x="560.62" y="269.55">u</tspan><tspan class="cls-32" x="574.07" y="269.55">r</tspan><tspan x="582.56" y="269.55">e alo</tspan><tspan class="cls-26" x="635.64" y="269.55">n</tspan><tspan class="cls-39" x="649" y="269.55">g</tspan><tspan x="662.72" y="269.55">side </tspan><tspan class="cls-48" x="715.26" y="269.55">E</tspan><tspan class="cls-17" x="729.96" y="269.55">v</tspan><tspan x="740.82" y="269.55">e</tspan><tspan class="cls-45" x="754.02" y="269.55">r</tspan><tspan x="762.75" y="269.55">sou</tspan><tspan class="cls-20" x="802.06" y="269.55">r</tspan><tspan class="cls-45" x="810.52" y="269.55">c</tspan><tspan class="cls-49" x="823.78" y="269.55">e</tspan><tspan class="cls-10" x="836.8" y="269.55">’</tspan><tspan x="842.47" y="269.55">s </tspan><tspan x="0" y="299.5">malp</tspan><tspan class="cls-17" x="52.04" y="299.5">r</tspan><tspan x="60.57" y="299.5">ac</tspan><tspan class="cls-36" x="86.8" y="299.5">t</tspan><tspan x="93.82" y="299.5">i</tspan><tspan class="cls-39" x="99.46" y="299.5">c</tspan><tspan x="112.71" y="299.5">e</tspan><tspan class="cls-50" x="125.91" y="299.5">s</tspan><tspan x="138.39" y="299.5" xml:space="preserve">.  On</tspan><tspan class="cls-29" x="191.4" y="299.5">l</tspan><tspan x="197.17" y="299.5">y </tspan><tspan class="cls-36" x="216.58" y="299.5">t</tspan><tspan x="223.59" y="299.5">hen </tspan><tspan class="cls-45" x="271.19" y="299.5">c</tspan><tspan x="284.44" y="299.5">an </tspan><tspan class="cls-51" x="318.41" y="299.5">w</tspan><tspan x="335.15" y="299.5">e p</tspan><tspan class="cls-20" x="369.87" y="299.5">r</tspan><tspan x="378.33" y="299.5">o</tspan><tspan class="cls-45" x="392.06" y="299.5">c</tspan><tspan x="405.31" y="299.5">eed </tspan><tspan class="cls-52" x="453.28" y="299.5">w</tspan><tspan x="470.25" y="299.5">i</tspan><tspan class="cls-36" x="475.89" y="299.5">t</tspan><tspan x="482.9" y="299.5">h ma</tspan><tspan class="cls-29" x="536.21" y="299.5">k</tspan><tspan x="549.07" y="299.5">i</tspan><tspan class="cls-15" x="554.71" y="299.5">n</tspan><tspan x="568.06" y="299.5">g a </tspan><tspan class="cls-28" x="609.74" y="299.5">f</tspan><tspan x="616.28" y="299.5">air </tspan><tspan class="cls-24" x="651.12" y="299.5">f</tspan><tspan x="657.83" y="299.5">u</tspan><tspan class="cls-45" x="671.28" y="299.5">t</tspan><tspan x="678.12" y="299.5">u</tspan><tspan class="cls-32" x="691.57" y="299.5">r</tspan><tspan x="700.06" y="299.5">e </tspan><tspan class="cls-32" x="720.75" y="299.5">f</tspan><tspan x="727.17" y="299.5">or </tspan><tspan class="cls-36" x="757.06" y="299.5">t</tspan><tspan x="764.08" y="299.5">he </tspan><tspan x="0" y="329.45">nei</tspan><tspan class="cls-31" x="32.29" y="329.45">g</tspan><tspan x="46.05" y="329.45">hborhoo</tspan><tspan class="cls-19" x="136.89" y="329.45">d</tspan><tspan x="151.14" y="329.45" xml:space="preserve">.  </tspan><tspan class="cls-19" x="172.06" y="329.45">C</tspan><tspan x="189.23" y="329.45">on</tspan><tspan class="cls-45" x="216.41" y="329.45">c</tspan><tspan x="229.66" y="329.45">e</tspan><tspan class="cls-13" x="242.86" y="329.45">s</tspan><tspan x="255.19" y="329.45">sions must be made </tspan><tspan class="cls-32" x="480.86" y="329.45">f</tspan><tspan x="487.27" y="329.45">or </tspan><tspan class="cls-22" x="517.17" y="329.45">v</tspan><tspan x="528.33" y="329.45">iol</tspan><tspan class="cls-8" x="553.34" y="329.45">a</tspan><tspan class="cls-36" x="566.34" y="329.45">t</tspan><tspan x="573.35" y="329.45">ions in </tspan><tspan class="cls-23" x="652.37" y="329.45">t</tspan><tspan x="659.38" y="329.45">he p</tspan><tspan class="cls-30" x="707.55" y="329.45">a</tspan><tspan x="720.6" y="329.45">s</tspan><tspan class="cls-53" x="732.73" y="329.45">t</tspan><tspan x="740" y="329.45">. </tspan></tspan><tspan x="0" y="419.3">UNDERS</tspan><tspan class="cls-41" x="119.75" y="419.3">T</tspan><tspan x="136.17" y="419.3">AND DEEP</tspan><tspan class="cls-42" x="283.77" y="419.3">L</tspan><tspan x="298.44" y="419.3">Y</tspan><tspan class="cls-6"><tspan x="0" y="449.25">E</tspan><tspan class="cls-30" x="15" y="449.25">a</tspan><tspan x="28.05" y="449.25">st Bos</tspan><tspan class="cls-15" x="96.39" y="449.25">t</tspan><tspan x="103.08" y="449.25">on </tspan><tspan class="cls-12" x="137.74" y="449.25">a</tspan><tspan x="150.79" y="449.25">s a d</tspan><tspan class="cls-33" x="205" y="449.25">i</tspan><tspan class="cls-17" x="210.77" y="449.25">v</tspan><tspan x="221.62" y="449.25">e</tspan><tspan class="cls-45" x="234.83" y="449.25">r</tspan><tspan x="243.56" y="449.25">se nei</tspan><tspan class="cls-31" x="308.68" y="449.25">g</tspan><tspan x="322.43" y="449.25">hborhood inhabi</tspan><tspan class="cls-15" x="500.13" y="449.25">t</tspan><tspan x="506.81" y="449.25">ed </tspan><tspan class="cls-27" x="541.58" y="449.25">b</tspan><tspan x="555.28" y="449.25">y p</tspan><tspan class="cls-30" x="588.72" y="449.25">a</tspan><tspan class="cls-13" x="601.78" y="449.25">s</tspan><tspan x="614.11" y="449.25">sion</tspan><tspan class="cls-8" x="659.06" y="449.25">a</tspan><tspan class="cls-15" x="672.06" y="449.25">t</tspan><tspan x="678.75" y="449.25">e people who </tspan><tspan class="cls-45" x="832.24" y="449.25">c</tspan><tspan x="845.49" y="449.25">a</tspan><tspan class="cls-32" x="858.52" y="449.25">r</tspan><tspan x="867" y="449.25">e </tspan><tspan x="0" y="479.2">about </tspan><tspan class="cls-23" x="68.56" y="479.2">t</tspan><tspan x="75.57" y="479.2">heir home</tspan><tspan class="cls-50" x="183.76" y="479.2">s</tspan><tspan x="196.24" y="479.2" xml:space="preserve">.  Be</tspan><tspan class="cls-32" x="246.43" y="479.2">f</tspan><tspan x="252.84" y="479.2">o</tspan><tspan class="cls-32" x="266.57" y="479.2">r</tspan><tspan x="275.06" y="479.2">e a n</tspan><tspan class="cls-44" x="329.71" y="479.2">e</tspan><tspan x="342.87" y="479.2">w p</tspan><tspan class="cls-20" x="381.2" y="479.2">r</tspan><tspan class="cls-21" x="389.66" y="479.2">o</tspan><tspan x="403.21" y="479.2">ject is app</tspan><tspan class="cls-35" x="516.17" y="479.2">ro</tspan><tspan class="cls-17" x="538.13" y="479.2">v</tspan><tspan x="548.99" y="479.2">e</tspan><tspan class="cls-22" x="562.19" y="479.2">d</tspan><tspan x="576.42" y="479.2">, </tspan><tspan class="cls-23" x="589.85" y="479.2">t</tspan><tspan x="596.86" y="479.2">he</tspan><tspan class="cls-40" x="623.51" y="479.2">r</tspan><tspan x="632" y="479.2">e needs </tspan><tspan class="cls-15" x="726.24" y="479.2">t</tspan><tspan x="732.93" y="479.2">o be a </tspan><tspan class="cls-45" x="809.42" y="479.2">c</tspan><tspan x="822.67" y="479.2">l</tspan><tspan class="cls-15" x="828.31" y="479.2">e</tspan><tspan x="841.42" y="479.2">ar</tspan><tspan class="cls-33" x="863.13" y="479.2">l</tspan><tspan x="868.9" y="479.2">y </tspan><tspan class="cls-45" x="0" y="509.15">c</tspan><tspan x="13.25" y="509.15">ommuni</tspan><tspan class="cls-45" x="98.21" y="509.15">c</tspan><tspan class="cls-8" x="111.46" y="509.15">a</tspan><tspan class="cls-15" x="124.46" y="509.15">t</tspan><tspan x="131.15" y="509.15">e</tspan><tspan class="cls-22" x="144.35" y="509.15">d</tspan><tspan x="158.58" y="509.15">, </tspan><tspan class="cls-22" x="172.01" y="509.15">w</tspan><tspan x="188.98" y="509.15">i</tspan><tspan class="cls-23" x="194.62" y="509.15">t</tspan><tspan x="201.63" y="509.15">h </tspan><tspan class="cls-23" x="222.57" y="509.15">t</tspan><tspan class="cls-38" x="229.58" y="509.15">r</tspan><tspan x="238.12" y="509.15">ansl</tspan><tspan class="cls-8" x="282.37" y="509.15">a</tspan><tspan class="cls-15" x="295.37" y="509.15">t</tspan><tspan x="302.06" y="509.15">o</tspan><tspan class="cls-45" x="315.79" y="509.15">r</tspan><tspan x="324.52" y="509.15">s if ne</tspan><tspan class="cls-45" x="390.54" y="509.15">c</tspan><tspan x="403.79" y="509.15">e</tspan><tspan class="cls-13" x="416.99" y="509.15">s</tspan><tspan class="cls-24" x="429.32" y="509.15">s</tspan><tspan x="441.55" y="509.15">a</tspan><tspan class="cls-16" x="454.58" y="509.15">r</tspan><tspan class="cls-54" x="464.04" y="509.15">y</tspan><tspan x="474.99" y="509.15">, ac</tspan><tspan class="cls-23" x="514.65" y="509.15">t</tspan><tspan class="cls-33" x="521.66" y="509.15">i</tspan><tspan class="cls-17" x="527.43" y="509.15">v</tspan><tspan x="538.28" y="509.15">e</tspan><tspan class="cls-29" x="551.49" y="509.15">l</tspan><tspan x="557.25" y="509.15">y i</tspan><tspan class="cls-38" x="582.31" y="509.15">n</tspan><tspan class="cls-55" x="595.61" y="509.15">v</tspan><tspan x="606.37" y="509.15">o</tspan><tspan class="cls-33" x="620.1" y="509.15">l</tspan><tspan class="cls-17" x="625.86" y="509.15">v</tspan><tspan x="636.72" y="509.15">ed p</tspan><tspan class="cls-20" x="685.51" y="509.15">r</tspan><tspan x="693.97" y="509.15">o</tspan><tspan class="cls-39" x="707.7" y="509.15">c</tspan><tspan x="720.95" y="509.15">e</tspan><tspan class="cls-13" x="734.15" y="509.15">s</tspan><tspan x="746.48" y="509.15">s </tspan><tspan class="cls-23" x="766.1" y="509.15">t</tspan><tspan x="773.11" y="509.15">h</tspan><tspan class="cls-37" x="786.56" y="509.15">a</tspan><tspan x="799.57" y="509.15">t </tspan><tspan x="0" y="539.09">a</tspan><tspan class="cls-45" x="13.03" y="539.09">cc</tspan><tspan x="39.53" y="539.09">oun</tspan><tspan class="cls-43" x="80.16" y="539.09">t</tspan><tspan x="87.03" y="539.09">s </tspan><tspan class="cls-40" x="106.64" y="539.09">f</tspan><tspan x="113.06" y="539.09">or all of </tspan><tspan class="cls-23" x="202.58" y="539.09">t</tspan><tspan x="209.59" y="539.09">he di</tspan><tspan class="cls-16" x="263.45" y="539.09">f</tspan><tspan class="cls-18" x="270.84" y="539.09">f</tspan><tspan x="277.33" y="539.09">e</tspan><tspan class="cls-32" x="290.53" y="539.09">r</tspan><tspan x="299.02" y="539.09">ent </tspan><tspan class="cls-29" x="339.95" y="539.09">k</tspan><tspan x="352.8" y="539.09">inds of people </tspan><tspan class="cls-36" x="514.73" y="539.09">t</tspan><tspan x="521.74" y="539.09">h</tspan><tspan class="cls-8" x="535.19" y="539.09">a</tspan><tspan x="548.19" y="539.09">t </tspan><tspan class="cls-22" x="562.47" y="539.09">w</tspan><tspan x="579.44" y="539.09">ill be e</tspan><tspan class="cls-16" x="651.82" y="539.09">f</tspan><tspan class="cls-34" x="659.2" y="539.09">f</tspan><tspan x="665.69" y="539.09">ec</tspan><tspan class="cls-15" x="692.1" y="539.09">t</tspan><tspan x="698.79" y="539.09">ed </tspan><tspan class="cls-56" x="733.55" y="539.09">b</tspan><tspan x="747.25" y="539.09">y </tspan><tspan class="cls-23" x="766.67" y="539.09">t</tspan><tspan x="773.68" y="539.09">h</tspan><tspan class="cls-8" x="787.14" y="539.09">a</tspan><tspan x="800.14" y="539.09">t </tspan><tspan x="0" y="569.04">p</tspan><tspan class="cls-20" x="14.03" y="569.04">r</tspan><tspan class="cls-49" x="22.49" y="569.04">o</tspan><tspan x="36.04" y="569.04">jec</tspan><tspan class="cls-9" x="68.38" y="569.04">t</tspan><tspan class="cls-10" x="75.65" y="569.04">’</tspan><tspan x="81.31" y="569.04">s </tspan><tspan class="cls-39" x="100.93" y="569.04">c</tspan><tspan x="114.18" y="569.04">ons</tspan><tspan class="cls-36" x="153.49" y="569.04">t</tspan><tspan x="160.5" y="569.04">ruc</tspan><tspan class="cls-23" x="195.84" y="569.04">t</tspan><tspan x="202.85" y="569.04">io</tspan><tspan class="cls-22" x="222.22" y="569.04">n</tspan><tspan x="235.82" y="569.04" xml:space="preserve">.  </tspan></tspan><tspan x="0" y="658.89">ORGANIZE EFFECTIVE</tspan><tspan class="cls-42" x="318.14" y="658.89">L</tspan><tspan x="332.81" y="658.89">Y </tspan><tspan class="cls-6"><tspan x="0" y="688.84">p</tspan><tspan class="cls-46" x="14.03" y="688.84">h</tspan><tspan class="cls-17" x="27.13" y="688.84">y</tspan><tspan x="38.91" y="688.84">si</tspan><tspan class="cls-45" x="56.68" y="688.84">c</tspan><tspan x="69.93" y="688.84">al</tspan><tspan class="cls-29" x="88.6" y="688.84">l</tspan><tspan x="94.37" y="688.84">y and digi</tspan><tspan class="cls-13" x="200.86" y="688.84">t</tspan><tspan x="207.85" y="688.84">al</tspan><tspan class="cls-29" x="226.52" y="688.84">l</tspan><tspan class="cls-57" x="232.28" y="688.84">y</tspan><tspan x="243.24" y="688.84" xml:space="preserve">.  Sp</tspan><tspan class="cls-32" x="294.25" y="688.84">r</tspan><tspan class="cls-15" x="302.74" y="688.84">e</tspan><tspan x="315.84" y="688.84">ad </tspan><tspan class="cls-44" x="350.43" y="688.84">a</tspan><tspan class="cls-38" x="363.41" y="688.84">w</tspan><tspan x="380.08" y="688.84">a</tspan><tspan class="cls-32" x="393.11" y="688.84">r</tspan><tspan x="401.6" y="688.84">ene</tspan><tspan class="cls-13" x="441.45" y="688.84">s</tspan><tspan x="453.78" y="688.84">s of </tspan><tspan class="cls-23" x="501.23" y="688.84">t</tspan><tspan x="508.24" y="688.84">he si</tspan><tspan class="cls-45" x="560.15" y="688.84">t</tspan><tspan x="566.99" y="688.84">u</tspan><tspan class="cls-8" x="580.44" y="688.84">a</tspan><tspan class="cls-23" x="593.45" y="688.84">t</tspan><tspan x="600.46" y="688.84">io</tspan><tspan class="cls-26" x="619.83" y="688.84">n</tspan><tspan class="cls-58" x="633.18" y="688.84">’</tspan><tspan class="cls-13" x="638.84" y="688.84">s</tspan><tspan x="651.17" y="688.84">s e</tspan><tspan class="cls-13" x="683.99" y="688.84">s</tspan><tspan x="696.32" y="688.84">sen</tspan><tspan class="cls-23" x="735.1" y="688.84">t</tspan><tspan x="742.12" y="688.84">ial </tspan><tspan class="cls-45" x="0" y="718.79">c</tspan><tspan x="13.25" y="718.79">ondi</tspan><tspan class="cls-23" x="60.15" y="718.79">t</tspan><tspan x="67.16" y="718.79">ion</tspan><tspan class="cls-50" x="99.98" y="718.79">s</tspan><tspan x="112.46" y="718.79" xml:space="preserve">.  C</tspan><tspan class="cls-32" x="150.37" y="718.79">r</tspan><tspan class="cls-15" x="158.85" y="718.79">e</tspan><tspan class="cls-37" x="171.96" y="718.79">a</tspan><tspan class="cls-15" x="184.96" y="718.79">t</tspan><tspan x="191.65" y="718.79">e </tspan><tspan class="cls-29" x="212.34" y="718.79">s</tspan><tspan x="224.59" y="718.79">pa</tspan><tspan class="cls-45" x="251.65" y="718.79">c</tspan><tspan x="264.9" y="718.79">es whe</tspan><tspan class="cls-32" x="341.19" y="718.79">r</tspan><tspan x="349.68" y="718.79">e people </tspan><tspan class="cls-45" x="451.68" y="718.79">c</tspan><tspan x="464.93" y="718.79">an </tspan><tspan class="cls-40" x="498.9" y="718.79">r</tspan><tspan x="507.39" y="718.79">e</tspan><tspan class="cls-45" x="520.59" y="718.79">c</tspan><tspan x="533.84" y="718.79">ollec</tspan><tspan class="cls-53" x="585.25" y="718.79">t</tspan><tspan x="592.51" y="718.79">, g</tspan><tspan class="cls-8" x="619.62" y="718.79">a</tspan><tspan class="cls-36" x="632.62" y="718.79">t</tspan><tspan x="639.63" y="718.79">he</tspan><tspan class="cls-59" x="666.29" y="718.79">r</tspan><tspan x="673.63" y="718.79">, and </tspan><tspan class="cls-60" x="735.1" y="718.79">v</tspan><tspan x="745.85" y="718.79">o</tspan><tspan class="cls-45" x="759.58" y="718.79">c</tspan><tspan x="772.83" y="718.79">al</tspan><tspan class="cls-32" x="791.5" y="718.79">i</tspan><tspan class="cls-48" x="796.94" y="718.79">z</tspan><tspan x="808.1" y="718.79">e </tspan><tspan class="cls-23" x="828.79" y="718.79">t</tspan><tspan x="835.8" y="718.79">heir </tspan><tspan x="0" y="748.74">need</tspan><tspan class="cls-61" x="53.93" y="748.74">s</tspan><tspan x="66.41" y="748.74" xml:space="preserve">.  </tspan><tspan class="cls-31" x="87.33" y="748.74">D</tspan><tspan x="104" y="748.74">o</tspan><tspan class="cls-15" x="117.72" y="748.74">n</tspan><tspan class="cls-33" x="131.08" y="748.74">’</tspan><tspan x="137.14" y="748.74">t be af</tspan><tspan class="cls-17" x="205.82" y="748.74">r</tspan><tspan x="214.36" y="748.74">aid </tspan><tspan class="cls-15" x="254.59" y="748.74">t</tspan><tspan x="261.28" y="748.74">o </tspan><tspan class="cls-51" x="282.49" y="748.74">w</tspan><tspan x="299.24" y="748.74">ork ou</tspan><tspan class="cls-31" x="369.05" y="748.74">t</tspan><tspan x="375.91" y="748.74">side of </tspan><tspan class="cls-23" x="456.27" y="748.74">t</tspan><tspan x="463.29" y="748.74">he </tspan><tspan class="cls-20" x="497.43" y="748.74">s</tspan><tspan class="cls-17" x="509.33" y="748.74">y</tspan><tspan x="521.11" y="748.74">s</tspan><tspan class="cls-15" x="533.24" y="748.74">t</tspan><tspan x="539.93" y="748.74">ems </tspan><tspan class="cls-36" x="592.09" y="748.74">t</tspan><tspan x="599.11" y="748.74">h</tspan><tspan class="cls-8" x="612.56" y="748.74">a</tspan><tspan x="625.56" y="748.74">t h</tspan><tspan class="cls-17" x="653.29" y="748.74">av</tspan><tspan x="677.02" y="748.74">e </tspan><tspan class="cls-51" x="697.71" y="748.74">f</tspan><tspan x="704.25" y="748.74">ailed </tspan><tspan class="cls-62" x="763.33" y="748.74">y</tspan><tspan x="774.93" y="748.74">o</tspan><tspan class="cls-22" x="788.66" y="748.74">u</tspan><tspan x="802.26" y="748.74">.</tspan></tspan></text></g></svg>