<svg xmlns="http://www.w3.org/2000/svg" viewBox="0 0 1226.68 290.48"><defs><style>.cls-1{fill:#ffe9d3;}.cls-2{fill:#c38788;}</style></defs><g id="bg"><rect class="cls-1" x="2.14" width="1224.54" height="5369.9"/></g><g id="Layer_3" data-name="Layer 3"><path class="cls-2" d="M262.82,107v-2.52a5.35,5.35,0,0,1,5.34-5.34h1.62a5.35,5.35,0,0,1,5.34,5.34V107a5.2,5.2,0,0,1-5.34,5.16h-1.62A5.2,5.2,0,0,1,262.82,107Zm10-23.52c0,6.6-6.3,7.32-6.3-1.2,0-3.42-1.08-8.76-3.66-8a5.4,5.4,0,0,1,5.22-4.14h16.62v1.08C277.88,71.19,272.84,75.81,272.84,83.43Zm1.26,10.14a4.32,4.32,0,1,1-4.32-4.26A4.3,4.3,0,0,1,274.1,93.57ZM286,70.11h13c0,40-8.34,42.18-24.36,42.18l-1.08-.84C285.8,112,286,88.47,286,70.11Zm15.78,0h12.24c0,40-8.34,42.18-24.36,42.18l-1.08-.84C300.8,112,301.82,88.47,301.82,70.11Z"/><path class="cls-2" d="M314.66,78V75.45A5.2,5.2,0,0,1,320,70.29h1.92a5.2,5.2,0,0,1,5.34,5.16V78a5.35,5.35,0,0,1-5.34,5.34H320A5.35,5.35,0,0,1,314.66,78Zm14,29,.12,5.34H314.66v-8.1c2.64,1,3.78-.54,3.78-4,0-4.32,1.62-6.3,3.24-6.3s3.24,2,3.24,6.3c0,3.48,1.14,5,3.78,4ZM326,88.83a4.32,4.32,0,1,1-4.32-4.32A4.29,4.29,0,0,1,326,88.83Zm7.26,4.5h-1.74c-2.46,0-4.5-1.5-4.5-3.36V88.35c0-1.8,2-3.24,4.5-3.24h1.74c2.46,0,4.44,1.44,4.44,3.24V90C337.7,91.83,335.72,93.33,333.26,93.33Zm16.62,18.9H344a.89.89,0,0,1-.42.06h-7.86v-8.1c2.64,1,3.78-.54,3.78-4a11.31,11.31,0,0,1,.48-3.48c1.2-4.44,6-4,6,3.42,0,3.48,1.14,5,3.78,4v2.76Zm0-36.78V78a5.35,5.35,0,0,1-5.34,5.34h-1.92A5.35,5.35,0,0,1,337.28,78V75.45a5.2,5.2,0,0,1,5.34-5.16h1.92A5.2,5.2,0,0,1,349.88,75.45ZM338.54,88.83a4.32,4.32,0,1,1,4.32,4.26A4.3,4.3,0,0,1,338.54,88.83Z"/><path class="cls-2" d="M363.68,112.29h-13c0-23.4,7-24.12,23-24.12l1.07.84C362.54,88.47,363.68,93.93,363.68,112.29Zm23.21-36.84V78a5.35,5.35,0,0,1-5.34,5.34H356.3A5.35,5.35,0,0,1,351,78V75.45a5.2,5.2,0,0,1,5.34-5.16h25.25A5.2,5.2,0,0,1,386.89,75.45ZM376.87,99c0-6.6,6.3-7.32,6.3,1.2,0,3.42,1.08,8.76,3.66,8a5.4,5.4,0,0,1-5.22,4.14H365v-1.08C371.83,111.21,376.87,106.59,376.87,99Zm-1.26-10.14a4.32,4.32,0,1,1,4.32,4.26A4.3,4.3,0,0,1,375.61,88.83Z"/><path class="cls-2" d="M417.49,75.45V78a5.35,5.35,0,0,1-5.34,5.34H392.9A5.35,5.35,0,0,1,387.56,78V75.45a5.2,5.2,0,0,1,5.34-5.16h19.25A5.2,5.2,0,0,1,417.49,75.45Zm-8,28.68v8.16l-5.34-.06h-.42a.87.87,0,0,1-.41.06h-2.53l-5.34.06v-8.16c2.65,1,3.78-.54,3.78-4a11.31,11.31,0,0,1,.48-3.48c1.2-4.44,6-4,6,3.42C405.67,103.59,406.81,105.15,409.45,104.13ZM398.17,88.71A4.32,4.32,0,1,1,402.49,93,4.3,4.3,0,0,1,398.17,88.71Z"/><path class="cls-2" d="M468.13,104.13v8.16h-14v-8.1c2.64,1,3.78-.54,3.78-4a11.31,11.31,0,0,1,.48-3.48c1.2-4.44,6-4,6,3.42C464.35,103.59,465.49,105.15,468.13,104.13ZM454.81,87.69V85.17A5.2,5.2,0,0,1,460.15,80h1.92a5.2,5.2,0,0,1,5.34,5.16v2.52A5.35,5.35,0,0,1,462.07,93h-1.92A5.35,5.35,0,0,1,454.81,87.69Zm2.1-13.08a4.32,4.32,0,1,1,4.32,4.26A4.3,4.3,0,0,1,456.91,74.61Z"/><path class="cls-2" d="M504.73,95.25V107a5.35,5.35,0,0,1-5.34,5.34H474.07a5.35,5.35,0,0,1-5.34-5.34V96.75a2,2,0,0,1,2-1.92h11.88c2.16,0,1.44,1,0,1.62-6.3,2.64-15.78,2.46-12.48,10,2.4,5.4,21.54,9.6,21.54-4.08V95.25a5.2,5.2,0,0,1,5.16-5.34h2.52A5.35,5.35,0,0,1,504.73,95.25Zm.66-19.62V86.31a2,2,0,0,1-2,1.92H491.47c-2.16,0-1.44-1,0-1.62,6.3-2.64,15.78-2.94,12.48-10.5-3.06-7-24.42-6.24-24.42,9.24,0,6.6-6.3,7.32-6.3-1.2,0-3.48-1.14-5.1-3.78-4.08V75.63a5.35,5.35,0,0,1,5.34-5.34h25.26A5.35,5.35,0,0,1,505.39,75.63ZM484.57,93.69a4.29,4.29,0,1,1,4.32-4.26A4.29,4.29,0,0,1,484.57,93.69Z"/><path class="cls-2" d="M554.71,112.29h-13c0-23.4,7-24.12,23-24.12l1.08.84C553.57,88.47,554.71,93.93,554.71,112.29Zm23.22-36.84V78a5.35,5.35,0,0,1-5.34,5.34H547.33A5.35,5.35,0,0,1,542,78V75.45a5.2,5.2,0,0,1,5.34-5.16h25.26A5.2,5.2,0,0,1,577.93,75.45ZM567.91,99c0-6.6,6.3-7.32,6.3,1.2,0,3.42,1.08,8.76,3.66,8a5.4,5.4,0,0,1-5.22,4.14H556v-1.08C562.87,111.21,567.91,106.59,567.91,99Zm-1.26-10.14A4.32,4.32,0,1,1,571,93.09,4.3,4.3,0,0,1,566.65,88.83Z"/><path class="cls-2" d="M650.59,95.25V107a5.35,5.35,0,0,1-5.34,5.34H619.93a5.35,5.35,0,0,1-5.34-5.34V96.75a2,2,0,0,1,2-1.92h11.88c2.16,0,1.44,1,0,1.62-6.3,2.64-15.78,2.46-12.48,10,2.4,5.4,21.54,9.6,21.54-4.08V95.25a5.2,5.2,0,0,1,5.16-5.34h2.52A5.35,5.35,0,0,1,650.59,95.25Zm.66-19.62V86.31a2,2,0,0,1-2,1.92H637.33c-2.16,0-1.44-1,0-1.62,6.3-2.64,15.78-2.94,12.48-10.5-3.06-7-24.42-6.24-24.42,9.24,0,6.6-6.3,7.32-6.3-1.2,0-3.48-1.14-5.1-3.78-4.08V75.63a5.35,5.35,0,0,1,5.34-5.34h25.26A5.35,5.35,0,0,1,651.25,75.63ZM630.43,93.69a4.29,4.29,0,1,1,4.32-4.26A4.29,4.29,0,0,1,630.43,93.69Z"/><path class="cls-2" d="M686.83,71.25V83.43c0,28.86.3,28.86-2.4,28.86H656.89a5.35,5.35,0,0,1-5.34-5.34v-2.76c2.64,1,3.78-.54,3.78-4,0-8.52,6.3-7.8,6.3-1.2,0,11,7.92,17.76,17.1,7.38,5.46-6.18,8.34-17.52,6.84-24.84-1.92-9.36-10.08-8.82-13.8-10.26-1.08-.36,0-1,1.14-1h12.84A1,1,0,0,1,686.83,71.25Zm-15.06,4.2V78a5.35,5.35,0,0,1-5.34,5.34h-9.54A5.35,5.35,0,0,1,651.55,78V75.45a5.2,5.2,0,0,1,5.34-5.16h9.54A5.2,5.2,0,0,1,671.77,75.45ZM654.25,88.83a4.32,4.32,0,1,1,4.32,4.26A4.3,4.3,0,0,1,654.25,88.83Z"/><path class="cls-2" d="M687.43,86.13V75.63a5.2,5.2,0,0,1,5.16-5.34h2.52a5.35,5.35,0,0,1,5.34,5.34v10.5a5.35,5.35,0,0,1-5.34,5.34h-2.52A5.2,5.2,0,0,1,687.43,86.13ZM723.37,95v12a5.35,5.35,0,0,1-5.34,5.34H692.77a5.35,5.35,0,0,1-5.34-5.34v-2.76c2.64,1,3.78-.54,3.78-4,0-8.52,6.3-7.8,6.3-1.2,0,15.84,21.36,14.52,24.42,7.5,3.3-7.56-6.48-10.08-12.48-11.82-1.44-.42-2.16-1.62,0-1.62h11.88A2,2,0,0,1,723.37,95ZM698.29,70.77l.66-.42c8.88,0,19.86-.36,20.46,5.46a52.21,52.21,0,0,1,.3,5.58,40.52,40.52,0,0,1-.3,5.64c-.72,5.28-13.5,5.4-22.38,5.4l-.66-.42c4.68.3,11.88.54,13.32-4.44.36-1.26.24-3.9.24-6.18s-.06-4.32-.24-6.12C709.21,70.29,703,70.53,698.29,70.77Z"/><path class="cls-2" d="M760,95.25V107a5.35,5.35,0,0,1-5.34,5.34H729.31A5.35,5.35,0,0,1,724,107V96.75a2,2,0,0,1,2-1.92h11.88c2.16,0,1.44,1,0,1.62-6.3,2.64-15.78,2.46-12.48,10,2.4,5.4,21.54,9.6,21.54-4.08V95.25a5.2,5.2,0,0,1,5.16-5.34h2.52A5.35,5.35,0,0,1,760,95.25Zm.66-19.62V86.31a2,2,0,0,1-2,1.92H746.71c-2.16,0-1.44-1,0-1.62,6.3-2.64,15.78-2.94,12.48-10.5-3.06-7-24.42-6.24-24.42,9.24,0,6.6-6.3,7.32-6.3-1.2,0-3.48-1.14-5.1-3.78-4.08V75.63A5.35,5.35,0,0,1,730,70.29h25.26A5.35,5.35,0,0,1,760.63,75.63ZM739.81,93.69a4.29,4.29,0,1,1,4.32-4.26A4.29,4.29,0,0,1,739.81,93.69Z"/><path class="cls-2" d="M790.87,75.45V78a5.35,5.35,0,0,1-5.34,5.34H766.27A5.35,5.35,0,0,1,760.93,78V75.45a5.2,5.2,0,0,1,5.34-5.16h19.26A5.2,5.2,0,0,1,790.87,75.45Zm-8,28.68v8.16l-5.34-.06h-.42a.89.89,0,0,1-.42.06h-2.52l-5.34.06v-8.16c2.64,1,3.78-.54,3.78-4a11.31,11.31,0,0,1,.48-3.48c1.2-4.44,6-4,6,3.42C779.05,103.59,780.19,105.15,782.83,104.13ZM771.55,88.71A4.32,4.32,0,1,1,775.87,93,4.3,4.3,0,0,1,771.55,88.71Z"/><path class="cls-2" d="M804.49,112.29h-13c0-23.4,7-24.12,23-24.12l1.08.84C803.35,88.47,804.49,93.93,804.49,112.29Zm23.22-36.84V78a5.35,5.35,0,0,1-5.34,5.34H797.11A5.35,5.35,0,0,1,791.77,78V75.45a5.2,5.2,0,0,1,5.34-5.16h25.26A5.2,5.2,0,0,1,827.71,75.45ZM817.69,99c0-6.6,6.3-7.32,6.3,1.2,0,3.42,1.08,8.76,3.66,8a5.4,5.4,0,0,1-5.22,4.14H805.81v-1.08C812.65,111.21,817.69,106.59,817.69,99Zm-1.26-10.14a4.32,4.32,0,1,1,4.32,4.26A4.3,4.3,0,0,1,816.43,88.83Z"/><path class="cls-2" d="M858.31,75.45V78A5.35,5.35,0,0,1,853,83.31H833.71A5.35,5.35,0,0,1,828.37,78V75.45a5.2,5.2,0,0,1,5.34-5.16H853A5.2,5.2,0,0,1,858.31,75.45Zm-8,28.68v8.16l-5.34-.06h-.42a.89.89,0,0,1-.42.06h-2.52l-5.34.06v-8.16c2.64,1,3.78-.54,3.78-4a11.31,11.31,0,0,1,.48-3.48c1.2-4.44,6-4,6,3.42C846.49,103.59,847.63,105.15,850.27,104.13ZM839,88.71A4.32,4.32,0,1,1,843.31,93,4.3,4.3,0,0,1,839,88.71Z"/><path class="cls-2" d="M873,104.13v8.16h-14v-8.1c2.64,1,3.78-.54,3.78-4a11.31,11.31,0,0,1,.48-3.48c1.2-4.44,6-4,6,3.42C869.17,103.59,870.31,105.15,873,104.13ZM859.63,87.69V85.17A5.2,5.2,0,0,1,865,80h1.92a5.2,5.2,0,0,1,5.34,5.16v2.52A5.35,5.35,0,0,1,866.89,93H865A5.35,5.35,0,0,1,859.63,87.69Zm2.1-13.08a4.32,4.32,0,1,1,4.32,4.26A4.3,4.3,0,0,1,861.73,74.61Z"/><path class="cls-2" d="M911.89,104.19V107a5.35,5.35,0,0,1-5.34,5.34H878.89a5.35,5.35,0,0,1-5.34-5.34v-2.76c2.64,1,3.78-.54,3.78-4,0-8.52,6.3-7.8,6.3-1.2,0,8.1,4.08,12.6,9.12,12.6s9.06-4.5,9.06-12.6c0-6.6,6.3-7.32,6.3,1.2C908.11,103.65,909.25,105.21,911.89,104.19ZM876,78V75.45a5.2,5.2,0,0,1,5.34-5.16h22.8a5.2,5.2,0,0,1,5.34,5.16V78a5.35,5.35,0,0,1-5.34,5.34h-22.8A5.35,5.35,0,0,1,876,78Zm4.62,6.54a4.29,4.29,0,1,1-4.32,4.32A4.3,4.3,0,0,1,880.57,84.51Zm24.3,0a4.29,4.29,0,1,1-4.32,4.32A4.3,4.3,0,0,1,904.87,84.51Z"/><path class="cls-2" d="M919.45,70.29a5.2,5.2,0,0,1,5.34,5.16V78a5.35,5.35,0,0,1-5.34,5.34h-1.62A5.35,5.35,0,0,1,912.49,78V75.45a5.2,5.2,0,0,1,5.34-5.16Zm14.94,42H917.77a5.4,5.4,0,0,1-5.22-4.14c2.58.78,3.66-4.56,3.66-8,0-8.52,6.3-7.8,6.3-1.2,0,7.62,5,12.24,11.88,12.24ZM915.13,88.83a4.32,4.32,0,1,1,4.32,4.26A4.3,4.3,0,0,1,915.13,88.83Zm9.24-18.72c16,0,24.36,2.16,24.36,42.18h-13c0-18.36-.24-41.88-12.42-41.34Z"/><path class="cls-2" d="M960.61,97.47c0-5.88,1.14-8.1,5.28-10,3.3-1.56,4-2.22,4-3.9s-1.32-2.82-3.24-2.82c-2.64,0-3.84,1.5-3.9,4.86H951c.54-9,6.24-14.1,15.72-14.1,8.94,0,15,4.86,15,12.06a8.1,8.1,0,0,1-1.8,5.46c-1,1.14-1.74,1.62-4.74,3.3-3.54,2-4,2.58-4.2,5.16Zm10.92,3.24v11.58H960V100.71Z"/><path class="cls-2" d="M269.32,208.19h-3.74V194.73h-5v-3.19h13.83v3.19h-5.05Z"/><path class="cls-2" d="M286.62,202.25a6.4,6.4,0,1,1-6.41-6.45A6.12,6.12,0,0,1,286.62,202.25Zm-9.23-.1c0,2.27,1,3.54,2.84,3.54s2.82-1.27,2.82-3.47-1-3.59-2.84-3.59S277.39,199.9,277.39,202.15Z"/><path class="cls-2" d="M296.65,199.92c.23-2.77,2-4.12,5.34-4.12a6.2,6.2,0,0,1,4.17,1.25c.88.78,1.2,1.75,1.2,3.52v5.54c0,1.3.05,1.48.45,2.08h-3.62a9.48,9.48,0,0,1-.27-.95,4.71,4.71,0,0,1-3.45,1.27c-2.67,0-4.44-1.5-4.44-3.77s1.42-3.44,4.79-4l1.92-.33c.8-.12,1.08-.32,1.08-.82,0-.68-.7-1.1-1.85-1.1-1.3,0-2,.45-2.15,1.42Zm7.27,2.53a8.62,8.62,0,0,1-1.3.37l-1.27.27c-1.28.3-1.83.73-1.83,1.45s.68,1.28,1.8,1.28a2.78,2.78,0,0,0,2.6-1.53Z"/><path class="cls-2" d="M314,196.13v1.17a4.26,4.26,0,0,1,3.29-1.52c2.63,0,4.22,1.75,4.22,4.59v7.82h-3.54v-6.57a3.57,3.57,0,0,0-.38-2.15,1.69,1.69,0,0,0-1.44-.69,2,2,0,0,0-1.53.64,2.67,2.67,0,0,0-.52,2v6.77H310.5V196.13Z"/><path class="cls-2" d="M331.15,199.75c-.15-.9-.88-1.37-2-1.37s-1.7.4-1.7,1,.35.68,1.47.93l2.23.47a4.84,4.84,0,0,1,2.74,1.18,3.32,3.32,0,0,1,.9,2.42c0,2.54-2.07,4.14-5.42,4.14s-5.41-1.57-5.61-4.24H327c.2,1.15,1,1.67,2.37,1.67,1.12,0,1.85-.45,1.85-1.17s-.4-.88-1.35-1.1l-2.2-.5c-2.64-.58-3.67-1.55-3.67-3.47,0-2.42,1.92-3.9,5.14-3.9s5,1.4,5.3,3.95Z"/><path class="cls-2" d="M339.23,208.19l-3.59-12.06h3.59l1,3.94c.27,1.08.64,2.9.79,3.9.35-1.8.65-3.2.83-3.9l1-3.94H346l1.08,3.94c.44,1.85.67,2.9.84,3.9.2-1.25.43-2.35.78-3.9l.95-3.94h3.67l-3.42,12.06h-3.4L345.35,204c-.35-1.45-.58-2.47-.9-4.05-.35,1.68-.65,3-.9,4.05l-1,4.22Z"/><path class="cls-2" d="M357.82,203.19a2.61,2.61,0,0,0,2.73,2.55,2.25,2.25,0,0,0,2.09-1.07h3.6c-.68,2.34-2.92,3.84-5.79,3.84-3.72,0-6.19-2.55-6.19-6.34s2.52-6.37,6.16-6.37a5.45,5.45,0,0,1,5.37,3.55,9.85,9.85,0,0,1,.6,3.84Zm4.92-2.49a2.18,2.18,0,0,0-2.34-2.2,2.43,2.43,0,0,0-2.55,2.2Z"/><path class="cls-2" d="M372.4,196.13l-.1,2.15c.7-1.95,1.6-2.5,4.17-2.48v3.35a6.2,6.2,0,0,0-.9-.05,2.73,2.73,0,0,0-2.62,1.45,11.09,11.09,0,0,0-.47,4.24v3.4h-3.55V196.13Z"/><path class="cls-2" d="M392,198.78h-2.17v4.69c0,1.9.07,2.05.89,2.05H392v2.67h-2.17c-1.55,0-2.33-.23-2.85-.8s-.7-1.25-.7-3.12v-5.49h-1.7v-2.5h1.7v-3.82h3.55v3.82H392Z"/><path class="cls-2" d="M398,197.15a4.29,4.29,0,0,1,3.19-1.35,4.11,4.11,0,0,1,3.1,1.3,5,5,0,0,1,1.07,3.67v7.42h-3.54v-6.77a3.15,3.15,0,0,0-.4-2,1.72,1.72,0,0,0-1.4-.62,2.25,2.25,0,0,0-1.55.6c-.4.42-.47.77-.47,2v6.77h-3.55V191.54H398Z"/><path class="cls-2" d="M408.46,199.92c.23-2.77,2-4.12,5.35-4.12a6.19,6.19,0,0,1,4.16,1.25c.88.78,1.2,1.75,1.2,3.52v5.54c0,1.3.05,1.48.45,2.08H416a9.48,9.48,0,0,1-.27-.95,4.71,4.71,0,0,1-3.45,1.27c-2.67,0-4.44-1.5-4.44-3.77s1.42-3.44,4.79-4l1.92-.33c.8-.12,1.08-.32,1.08-.82,0-.68-.7-1.1-1.85-1.1s-2,.45-2.15,1.42Zm7.27,2.53a8.62,8.62,0,0,1-1.3.37l-1.27.27c-1.28.3-1.83.73-1.83,1.45s.68,1.28,1.8,1.28a2.77,2.77,0,0,0,2.6-1.53Z"/><path class="cls-2" d="M428.46,198.78h-2.18v4.69c0,1.9.08,2.05.9,2.05h1.28v2.67h-2.18c-1.54,0-2.32-.23-2.84-.8s-.7-1.25-.7-3.12v-5.49H421v-2.5h1.7v-3.82h3.54v3.82h2.18Z"/><path class="cls-2" d="M434.42,204.69v3a4.22,4.22,0,0,1-3.62,4.49v-1.4a2.81,2.81,0,0,0,1.85-2.59h-1.72v-3.5Z"/><path class="cls-2" d="M447.07,208.19l-3.59-12.06h3.59l1,3.94c.27,1.08.65,2.9.8,3.9.35-1.8.64-3.2.82-3.9l1-3.94h3.07l1.08,3.94c.45,1.85.67,2.9.85,3.9.2-1.25.42-2.35.77-3.9l.95-3.94h3.67l-3.42,12.06h-3.4L453.19,204c-.35-1.45-.57-2.47-.9-4.05-.35,1.68-.65,3-.9,4.05l-1,4.22Z"/><path class="cls-2" d="M465.67,203.19a2.6,2.6,0,0,0,2.72,2.55,2.26,2.26,0,0,0,2.1-1.07h3.59c-.67,2.34-2.92,3.84-5.79,3.84-3.72,0-6.19-2.55-6.19-6.34s2.52-6.37,6.16-6.37a5.45,5.45,0,0,1,5.37,3.55,9.85,9.85,0,0,1,.6,3.84Zm4.91-2.49a2.18,2.18,0,0,0-2.34-2.2,2.44,2.44,0,0,0-2.55,2.2Z"/><path class="cls-2" d="M490.43,198.78h-2.3v9.41h-3.55v-9.41h-1.67v-2.5h1.67v-.87c0-2.6,1.28-3.87,3.9-3.87h1.95v2.82h-1.05c-.83,0-1.25.37-1.25,1.07v.85h2.3Z"/><path class="cls-2" d="M495.82,194.46h-3.55v-2.92h3.55Zm0,13.73h-3.55V196.13h3.55Z"/><path class="cls-2" d="M502.4,196.13l-.1,2.15c.7-1.95,1.6-2.5,4.17-2.48v3.35a6.2,6.2,0,0,0-.9-.05,2.73,2.73,0,0,0-2.62,1.45,11.09,11.09,0,0,0-.47,4.24v3.4h-3.55V196.13Z"/><path class="cls-2" d="M515.21,199.75c-.15-.9-.88-1.37-2.05-1.37-1,0-1.7.4-1.7,1s.35.68,1.48.93l2.22.47A4.84,4.84,0,0,1,517.9,202a3.32,3.32,0,0,1,.9,2.42c0,2.54-2.07,4.14-5.41,4.14s-5.42-1.57-5.62-4.24h3.32c.2,1.15.95,1.67,2.37,1.67,1.12,0,1.85-.45,1.85-1.17s-.4-.88-1.35-1.1l-2.2-.5c-2.64-.58-3.67-1.55-3.67-3.47,0-2.42,1.93-3.9,5.15-3.9s5,1.4,5.29,3.95Z"/><path class="cls-2" d="M527.44,198.78h-2.18v4.69c0,1.9.08,2.05.9,2.05h1.28v2.67h-2.18c-1.54,0-2.32-.23-2.84-.8s-.7-1.25-.7-3.12v-5.49H520v-2.5h1.7v-3.82h3.54v3.82h2.18Z"/><path class="cls-2" d="M540.41,196.13v1.45c1.13-1.38,1.88-1.78,3.32-1.78a3.49,3.49,0,0,1,3.35,1.95c1.3-1.47,2.2-1.95,3.74-1.95a4.06,4.06,0,0,1,3,1.13,4.44,4.44,0,0,1,.95,3.24v8h-3.55v-6.64c0-1.85-.55-2.68-1.77-2.68s-1.8.83-1.8,2.68v6.64h-3.54v-6.64c0-1.85-.55-2.68-1.8-2.68s-1.8.83-1.8,2.68v6.64H537V196.13Z"/><path class="cls-2" d="M568.82,208.19h-3.37v-1.33a3.44,3.44,0,0,1-3.2,1.65,4.47,4.47,0,0,1-3.19-1.25,4.53,4.53,0,0,1-1.15-3.57v-7.56h3.54v6.79c0,1.17,0,1.47.38,1.9a1.86,1.86,0,0,0,1.55.7,1.83,1.83,0,0,0,1.52-.7c.32-.43.37-.7.37-1.9v-6.79h3.55Z"/><path class="cls-2" d="M578.52,199.75c-.15-.9-.87-1.37-2-1.37s-1.7.4-1.7,1,.35.68,1.47.93l2.22.47a4.84,4.84,0,0,1,2.75,1.18,3.37,3.37,0,0,1,.9,2.42c0,2.54-2.07,4.14-5.42,4.14s-5.42-1.57-5.61-4.24h3.32c.2,1.15.94,1.67,2.37,1.67,1.12,0,1.84-.45,1.84-1.17s-.39-.88-1.34-1.1l-2.2-.5c-2.65-.58-3.67-1.55-3.67-3.47,0-2.42,1.92-3.9,5.14-3.9s5,1.4,5.29,3.95Z"/><path class="cls-2" d="M590.75,198.78h-2.17v4.69c0,1.9.08,2.05.9,2.05h1.27v2.67h-2.17c-1.55,0-2.32-.23-2.84-.8s-.7-1.25-.7-3.12v-5.49h-1.7v-2.5H585v-3.82h3.54v3.82h2.17Z"/><path class="cls-2" d="M611.19,208.19h-3.37v-1.33a3.43,3.43,0,0,1-3.19,1.65,4.5,4.5,0,0,1-3.2-1.25,4.56,4.56,0,0,1-1.14-3.57v-7.56h3.54v6.79c0,1.17,0,1.47.38,1.9a2,2,0,0,0,3.07,0c.32-.43.37-.7.37-1.9v-6.79h3.54Z"/><path class="cls-2" d="M617.78,196.13v1.17a4.27,4.27,0,0,1,3.3-1.52c2.62,0,4.22,1.75,4.22,4.59v7.82h-3.55v-6.57a3.59,3.59,0,0,0-.37-2.15,1.7,1.7,0,0,0-1.45-.69,2,2,0,0,0-1.52.64,2.67,2.67,0,0,0-.53,2v6.77h-3.54V196.13Z"/><path class="cls-2" d="M639.82,208.19h-3.39v-1.3a3.74,3.74,0,0,1-3.32,1.62c-3.17,0-5.3-2.52-5.3-6.34s2.15-6.39,5.4-6.39a3.92,3.92,0,0,1,3.07,1.25v-5.49h3.54Zm-8.51-6c0,2.12,1,3.49,2.55,3.49s2.54-1.4,2.54-3.44-1-3.55-2.54-3.55S631.31,200,631.31,202.15Z"/><path class="cls-2" d="M645.91,203.19a2.6,2.6,0,0,0,2.72,2.55,2.26,2.26,0,0,0,2.1-1.07h3.59c-.67,2.34-2.92,3.84-5.79,3.84-3.72,0-6.19-2.55-6.19-6.34a6,6,0,0,1,6.17-6.37,5.45,5.45,0,0,1,5.36,3.55,9.67,9.67,0,0,1,.6,3.84Zm4.92-2.49a2.19,2.19,0,0,0-2.35-2.2,2.44,2.44,0,0,0-2.55,2.2Z"/><path class="cls-2" d="M660.49,196.13l-.11,2.15c.7-1.95,1.6-2.5,4.17-2.48v3.35a6.2,6.2,0,0,0-.9-.05,2.73,2.73,0,0,0-2.62,1.45,11.09,11.09,0,0,0-.47,4.24v3.4H657V196.13Z"/><path class="cls-2" d="M673.29,199.75c-.15-.9-.88-1.37-2-1.37s-1.7.4-1.7,1,.35.68,1.48.93l2.22.47A4.84,4.84,0,0,1,676,202a3.32,3.32,0,0,1,.9,2.42c0,2.54-2.07,4.14-5.41,4.14s-5.42-1.57-5.62-4.24h3.32c.2,1.15,1,1.67,2.37,1.67,1.12,0,1.85-.45,1.85-1.17s-.4-.88-1.35-1.1l-2.2-.5c-2.64-.58-3.67-1.55-3.67-3.47,0-2.42,1.93-3.9,5.15-3.9s5,1.4,5.29,3.95Z"/><path class="cls-2" d="M685.52,198.78h-2.18v4.69c0,1.9.08,2.05.9,2.05h1.28v2.67h-2.18c-1.54,0-2.32-.23-2.84-.8s-.7-1.25-.7-3.12v-5.49h-1.7v-2.5h1.7v-3.82h3.54v3.82h2.18Z"/><path class="cls-2" d="M687.76,199.92c.23-2.77,2-4.12,5.34-4.12a6.22,6.22,0,0,1,4.17,1.25c.88.78,1.2,1.75,1.2,3.52v5.54c0,1.3,0,1.48.45,2.08H695.3a9.48,9.48,0,0,1-.27-.95,4.72,4.72,0,0,1-3.45,1.27c-2.67,0-4.44-1.5-4.44-3.77s1.42-3.44,4.79-4l1.92-.33c.8-.12,1.08-.32,1.08-.82,0-.68-.7-1.1-1.85-1.1-1.3,0-2,.45-2.15,1.42Zm7.27,2.53a8.62,8.62,0,0,1-1.3.37l-1.28.27c-1.27.3-1.82.73-1.82,1.45s.68,1.28,1.8,1.28a2.78,2.78,0,0,0,2.6-1.53Z"/><path class="cls-2" d="M705.06,196.13v1.17a4.26,4.26,0,0,1,3.29-1.52c2.62,0,4.22,1.75,4.22,4.59v7.82H709v-6.57a3.57,3.57,0,0,0-.38-2.15,1.69,1.69,0,0,0-1.45-.69,2,2,0,0,0-1.52.64,2.67,2.67,0,0,0-.52,2v6.77h-3.55V196.13Z"/><path class="cls-2" d="M727.1,208.19h-3.4v-1.3a3.73,3.73,0,0,1-3.32,1.62c-3.17,0-5.29-2.52-5.29-6.34s2.15-6.39,5.39-6.39a3.9,3.9,0,0,1,3.07,1.25v-5.49h3.55Zm-8.51-6c0,2.12,1,3.49,2.54,3.49s2.55-1.4,2.55-3.44-1-3.55-2.55-3.55S718.59,200,718.59,202.15Z"/><path class="cls-2" d="M741.25,197.15a4.29,4.29,0,0,1,3.19-1.35,4.11,4.11,0,0,1,3.1,1.3,5,5,0,0,1,1.07,3.67v7.42h-3.54v-6.77a3.15,3.15,0,0,0-.4-2,1.72,1.72,0,0,0-1.4-.62,2.25,2.25,0,0,0-1.55.6c-.4.42-.47.77-.47,2v6.77H737.7V191.54h3.55Z"/><path class="cls-2" d="M763.94,202.25a6.41,6.41,0,1,1-6.42-6.45A6.13,6.13,0,0,1,763.94,202.25Zm-9.24-.1c0,2.27,1,3.54,2.85,3.54s2.82-1.27,2.82-3.47-1-3.59-2.85-3.59S754.7,199.9,754.7,202.15Z"/><path class="cls-2" d="M768.5,208.19l-3.59-12.06h3.59l1,3.94c.27,1.08.64,2.9.79,3.9.35-1.8.65-3.2.83-3.9l1-3.94h3.07l1.08,3.94c.44,1.85.67,2.9.84,3.9.2-1.25.43-2.35.78-3.9l.95-3.94h3.67l-3.42,12.06h-3.4L774.62,204c-.35-1.45-.58-2.47-.9-4.05-.35,1.68-.65,3-.9,4.05l-1,4.22Z"/><path class="cls-2" d="M794.63,203.19a2.61,2.61,0,0,0,2.72,2.55,2.25,2.25,0,0,0,2.1-1.07H803c-.67,2.34-2.92,3.84-5.79,3.84-3.72,0-6.19-2.55-6.19-6.34a6,6,0,0,1,6.17-6.37,5.46,5.46,0,0,1,5.37,3.55,9.87,9.87,0,0,1,.59,3.84Zm4.92-2.49a2.19,2.19,0,0,0-2.35-2.2,2.43,2.43,0,0,0-2.54,2.2Z"/><path class="cls-2" d="M809.33,208.19h-3.54V191.54h3.54Z"/><path class="cls-2" d="M815.42,203.19a2.61,2.61,0,0,0,2.72,2.55,2.25,2.25,0,0,0,2.1-1.07h3.59c-.67,2.34-2.92,3.84-5.79,3.84-3.72,0-6.19-2.55-6.19-6.34A6,6,0,0,1,818,195.8a5.46,5.46,0,0,1,5.37,3.55,9.87,9.87,0,0,1,.59,3.84Zm4.92-2.49a2.19,2.19,0,0,0-2.35-2.2,2.43,2.43,0,0,0-2.54,2.2Z"/><path class="cls-2" d="M834.19,200.47a2,2,0,0,0-2.2-1.79c-1.62,0-2.49,1.22-2.49,3.42s.87,3.54,2.52,3.54c1.27,0,2-.65,2.25-2.07l3.44.17c-.5,3-2.6,4.77-5.79,4.77-3.67,0-6-2.45-6-6.31s2.3-6.4,6.11-6.4c3.15,0,5.3,1.8,5.52,4.67Z"/><path class="cls-2" d="M846.22,198.78h-2.17v4.69c0,1.9.07,2.05.9,2.05h1.27v2.67h-2.17c-1.55,0-2.32-.23-2.85-.8s-.7-1.25-.7-3.12v-5.49h-1.69v-2.5h1.69v-3.82h3.55v3.82h2.17Z"/><path class="cls-2" d="M852.08,196.13l-.1,2.15c.7-1.95,1.6-2.5,4.17-2.48v3.35a6.2,6.2,0,0,0-.9-.05,2.73,2.73,0,0,0-2.62,1.45,11.09,11.09,0,0,0-.47,4.24v3.4h-3.55V196.13Z"/><path class="cls-2" d="M861.62,194.46h-3.55v-2.92h3.55Zm0,13.73h-3.55V196.13h3.55Z"/><path class="cls-2" d="M872.4,200.47a2,2,0,0,0-2.2-1.79c-1.62,0-2.49,1.22-2.49,3.42s.87,3.54,2.52,3.54c1.27,0,2-.65,2.25-2.07l3.44.17c-.5,3-2.6,4.77-5.79,4.77-3.67,0-6-2.45-6-6.31s2.29-6.4,6.11-6.4c3.15,0,5.3,1.8,5.52,4.67Z"/><path class="cls-2" d="M881.66,194.46h-3.55v-2.92h3.55Zm0,13.73h-3.55V196.13h3.55Z"/><path class="cls-2" d="M890.89,198.78h-2.17v4.69c0,1.9.08,2.05.9,2.05h1.27v2.67h-2.17c-1.55,0-2.32-.23-2.84-.8s-.7-1.25-.7-3.12v-5.49h-1.7v-2.5h1.7v-3.82h3.54v3.82h2.17Z"/><path class="cls-2" d="M904.27,196.13l-4.19,12.16c-.68,2-1.08,2.67-1.7,3.12a4.41,4.41,0,0,1-2.7.6h-2.07v-2.68h1c1.25,0,1.82-.47,1.82-1.52,0-.42,0-.5-.45-1.55l-4-10.13h3.79l1.77,5.52c.35,1.12.35,1.14.63,2.14l.15.48c.15-.8.34-1.63.62-2.7l1.57-5.44Z"/><path class="cls-2" d="M916.85,196.13v1.45c1.12-1.38,1.87-1.78,3.32-1.78a3.46,3.46,0,0,1,3.34,1.95c1.3-1.47,2.2-1.95,3.75-1.95a4,4,0,0,1,3,1.13,4.4,4.4,0,0,1,1,3.24v8h-3.54v-6.64c0-1.85-.55-2.68-1.77-2.68s-1.8.83-1.8,2.68v6.64h-3.55v-6.64c0-1.85-.55-2.68-1.79-2.68s-1.8.83-1.8,2.68v6.64H913.4V196.13Z"/><path class="cls-2" d="M946.55,202.25a6.41,6.41,0,1,1-6.41-6.45A6.12,6.12,0,0,1,946.55,202.25Zm-9.24-.1c0,2.27,1,3.54,2.85,3.54s2.82-1.27,2.82-3.47-1-3.59-2.84-3.59S937.31,199.9,937.31,202.15Z"/><path class="cls-2" d="M951.69,208.19l-4.32-12.06h3.72l1.35,4.62c.25.85.55,2,.95,3.47.27-1.35.57-2.75.75-3.47l1.22-4.62h3.79l-4.09,12.06Z"/><path class="cls-2" d="M963.55,203.19a2.6,2.6,0,0,0,2.72,2.55,2.24,2.24,0,0,0,2.09-1.07H972c-.68,2.34-2.92,3.84-5.79,3.84-3.72,0-6.19-2.55-6.19-6.34s2.52-6.37,6.16-6.37a5.45,5.45,0,0,1,5.37,3.55,9.85,9.85,0,0,1,.6,3.84Zm4.91-2.49a2.18,2.18,0,0,0-2.34-2.2,2.44,2.44,0,0,0-2.55,2.2Z"/><path class="cls-2" d="M981.27,199.75c-.15-.9-.88-1.37-2-1.37s-1.7.4-1.7,1,.35.68,1.47.93l2.23.47A4.84,4.84,0,0,1,984,202a3.32,3.32,0,0,1,.9,2.42c0,2.54-2.07,4.14-5.42,4.14s-5.41-1.57-5.61-4.24h3.32c.2,1.15,1,1.67,2.37,1.67,1.12,0,1.85-.45,1.85-1.17s-.4-.88-1.35-1.1l-2.2-.5c-2.64-.58-3.67-1.55-3.67-3.47,0-2.42,1.92-3.9,5.14-3.9s5,1.4,5.3,3.95Z"/><path class="cls-2" d="M323.58,228.73h-2.3v9.41h-3.54v-9.41h-1.67v-2.5h1.67v-.87c0-2.6,1.27-3.87,3.89-3.87h1.95v2.82h-1.05c-.82,0-1.25.37-1.25,1.07v.85h2.3Z"/><path class="cls-2" d="M328.72,226.08l-.1,2.15c.7-1.95,1.6-2.5,4.17-2.48v3.35a6.2,6.2,0,0,0-.9,0,2.73,2.73,0,0,0-2.62,1.45,11.09,11.09,0,0,0-.47,4.24v3.4h-3.55V226.08Z"/><path class="cls-2" d="M346.92,232.2a6.41,6.41,0,1,1-6.42-6.45A6.13,6.13,0,0,1,346.92,232.2Zm-9.24-.1c0,2.27,1,3.54,2.85,3.54s2.82-1.27,2.82-3.47-1-3.59-2.85-3.59S337.68,229.85,337.68,232.1Z"/><path class="cls-2" d="M352.88,226.08v1.45c1.12-1.38,1.87-1.78,3.32-1.78a3.49,3.49,0,0,1,3.35,1.95c1.29-1.47,2.19-1.95,3.74-1.95a4.06,4.06,0,0,1,3,1.13,4.44,4.44,0,0,1,.95,3.24v8h-3.55V231.5c0-1.85-.55-2.67-1.77-2.67s-1.8.82-1.8,2.67v6.64h-3.55V231.5c0-1.85-.54-2.67-1.79-2.67s-1.8.82-1.8,2.67v6.64h-3.54V226.08Z"/><path class="cls-2" d="M377.89,229.87c.22-2.77,1.94-4.12,5.34-4.12A6.24,6.24,0,0,1,387.4,227c.87.78,1.2,1.75,1.2,3.52v5.54c0,1.3,0,1.48.45,2.08h-3.62c-.15-.43-.15-.5-.28-.95a4.68,4.68,0,0,1-3.44,1.27c-2.67,0-4.45-1.5-4.45-3.77s1.43-3.44,4.8-4l1.92-.33c.8-.12,1.07-.32,1.07-.82,0-.68-.7-1.1-1.85-1.1s-2,.45-2.14,1.42Zm7.26,2.53a8.28,8.28,0,0,1-1.3.37l-1.27.27c-1.27.3-1.82.73-1.82,1.45s.67,1.28,1.8,1.28a2.75,2.75,0,0,0,2.59-1.53Z"/><path class="cls-2" d="M399.15,229v-3a4.22,4.22,0,0,1,3.62-4.49v1.39a2.82,2.82,0,0,0-1.85,2.6h1.73V229Zm4.92,0v-3a4.22,4.22,0,0,1,3.62-4.49v1.39a2.82,2.82,0,0,0-1.85,2.6h1.72V229Z"/><path class="cls-2" d="M422.26,226.15V237c0,2-.27,2.84-1.12,3.67a6.7,6.7,0,0,1-4.82,1.62c-3.37,0-5.39-1.37-5.64-3.84h3.67c.25.75.95,1.12,2.12,1.12a2.75,2.75,0,0,0,1.68-.48c.52-.42.67-.87.67-2.09v-.8a4.25,4.25,0,0,1-3.25,1.3c-3.17,0-5.44-2.42-5.44-5.82s2.3-5.92,5.34-5.92a3.85,3.85,0,0,1,3.52,1.88l-.07-1.48Zm-8.76,5.47a2.71,2.71,0,0,0,2.67,3c1.65,0,2.67-1.18,2.67-3.05a2.66,2.66,0,0,0-2.67-2.94A2.69,2.69,0,0,0,413.5,231.62Z"/><path class="cls-2" d="M428.45,233.14a2.61,2.61,0,0,0,2.72,2.55,2.25,2.25,0,0,0,2.1-1.07h3.59c-.67,2.34-2.92,3.84-5.79,3.84-3.72,0-6.19-2.54-6.19-6.34a6,6,0,0,1,6.17-6.37,5.46,5.46,0,0,1,5.37,3.55,9.87,9.87,0,0,1,.59,3.84Zm4.92-2.49a2.19,2.19,0,0,0-2.35-2.2,2.43,2.43,0,0,0-2.54,2.2Z"/><path class="cls-2" d="M443,226.08v1.17a4.27,4.27,0,0,1,3.3-1.52c2.62,0,4.22,1.75,4.22,4.59v7.82H447v-6.57a3.59,3.59,0,0,0-.37-2.15,1.7,1.7,0,0,0-1.45-.69,2,2,0,0,0-1.52.64,2.67,2.67,0,0,0-.53,2v6.77h-3.54V226.08Z"/><path class="cls-2" d="M456.6,233.14a2.61,2.61,0,0,0,2.73,2.55,2.25,2.25,0,0,0,2.09-1.07H465c-.68,2.34-2.92,3.84-5.79,3.84-3.72,0-6.2-2.54-6.2-6.34a6,6,0,0,1,6.17-6.37,5.45,5.45,0,0,1,5.37,3.55,9.85,9.85,0,0,1,.6,3.84Zm4.92-2.49a2.18,2.18,0,0,0-2.34-2.2,2.43,2.43,0,0,0-2.55,2.2Z"/><path class="cls-2" d="M471.18,226.08l-.1,2.15c.7-1.95,1.6-2.5,4.17-2.48v3.35a6.27,6.27,0,0,0-.9,0,2.73,2.73,0,0,0-2.62,1.45,11,11,0,0,0-.48,4.24v3.4h-3.54V226.08Z"/><path class="cls-2" d="M477.14,229.87c.23-2.77,1.95-4.12,5.35-4.12a6.19,6.19,0,0,1,4.16,1.25c.88.78,1.2,1.75,1.2,3.52v5.54c0,1.3,0,1.48.45,2.08h-3.62a9.48,9.48,0,0,1-.27-.95,4.69,4.69,0,0,1-3.45,1.27c-2.67,0-4.44-1.5-4.44-3.77s1.42-3.44,4.79-4l1.93-.33c.79-.12,1.07-.32,1.07-.82,0-.68-.7-1.1-1.85-1.1s-2,.45-2.15,1.42Zm7.27,2.53a8.62,8.62,0,0,1-1.3.37l-1.27.27c-1.28.3-1.82.73-1.82,1.45s.67,1.28,1.79,1.28a2.77,2.77,0,0,0,2.6-1.53Z"/><path class="cls-2" d="M497.14,228.73H495v4.69c0,1.9.08,2.05.9,2.05h1.28v2.67H495c-1.54,0-2.32-.23-2.84-.8s-.7-1.25-.7-3.12v-5.49h-1.7v-2.5h1.7v-3.82H495v3.82h2.18Z"/><path class="cls-2" d="M503.08,224.41h-3.55v-2.92h3.55Zm0,13.73h-3.55V226.08h3.55Z"/><path class="cls-2" d="M518.4,232.2a6.4,6.4,0,1,1-6.41-6.45A6.12,6.12,0,0,1,518.4,232.2Zm-9.23-.1c0,2.27,1,3.54,2.84,3.54s2.82-1.27,2.82-3.47-1-3.59-2.84-3.59S509.17,229.85,509.17,232.1Z"/><path class="cls-2" d="M524.37,226.08v1.17a4.24,4.24,0,0,1,3.29-1.52c2.62,0,4.22,1.75,4.22,4.59v7.82h-3.55v-6.57a3.59,3.59,0,0,0-.37-2.15,1.69,1.69,0,0,0-1.45-.69,2,2,0,0,0-1.52.64,2.67,2.67,0,0,0-.52,2v6.77h-3.55V226.08Z"/><path class="cls-2" d="M549.05,229.7c-.15-.9-.87-1.37-2-1.37-1,0-1.69.4-1.69,1s.34.68,1.47.93l2.22.47a4.91,4.91,0,0,1,2.75,1.18,3.36,3.36,0,0,1,.89,2.42c0,2.54-2.07,4.14-5.41,4.14s-5.42-1.57-5.62-4.24h3.32c.2,1.15,1,1.67,2.37,1.67,1.13,0,1.85-.45,1.85-1.17s-.4-.88-1.35-1.1l-2.19-.5c-2.65-.58-3.67-1.55-3.67-3.47,0-2.42,1.92-3.9,5.14-3.9s5,1.4,5.29,3.95Z"/><path class="cls-2" d="M561.28,228.73h-2.17v4.69c0,1.9.07,2.05.9,2.05h1.27v2.67h-2.17c-1.55,0-2.32-.23-2.85-.8s-.7-1.25-.7-3.12v-5.49h-1.7v-2.5h1.7v-3.82h3.55v3.82h2.17Z"/><path class="cls-2" d="M563.52,229.87c.23-2.77,2-4.12,5.34-4.12A6.2,6.2,0,0,1,573,227c.88.78,1.2,1.75,1.2,3.52v5.54c0,1.3,0,1.48.45,2.08h-3.62a9.48,9.48,0,0,1-.27-.95,4.71,4.71,0,0,1-3.45,1.27c-2.67,0-4.44-1.5-4.44-3.77s1.42-3.44,4.79-4l1.92-.33c.8-.12,1.08-.32,1.08-.82,0-.68-.7-1.1-1.85-1.1-1.3,0-2,.45-2.15,1.42Zm7.27,2.53a8.62,8.62,0,0,1-1.3.37l-1.27.27c-1.28.3-1.83.73-1.83,1.45s.68,1.28,1.8,1.28a2.78,2.78,0,0,0,2.6-1.53Z"/><path class="cls-2" d="M583.52,228.73h-2.18v4.69c0,1.9.08,2.05.9,2.05h1.28v2.67h-2.18c-1.54,0-2.32-.23-2.84-.8s-.7-1.25-.7-3.12v-5.49h-1.7v-2.5h1.7v-3.82h3.54v3.82h2.18Z"/><path class="cls-2" d="M589.45,224.41h-3.54v-2.92h3.54Zm0,13.73h-3.54V226.08h3.54Z"/><path class="cls-2" d="M604.78,232.2a6.4,6.4,0,1,1-6.41-6.45A6.12,6.12,0,0,1,604.78,232.2Zm-9.24-.1c0,2.27,1,3.54,2.85,3.54s2.82-1.27,2.82-3.47-1-3.59-2.84-3.59S595.54,229.85,595.54,232.1Z"/><path class="cls-2" d="M610.74,226.08v1.17a4.27,4.27,0,0,1,3.3-1.52c2.62,0,4.22,1.75,4.22,4.59v7.82h-3.55v-6.57a3.59,3.59,0,0,0-.37-2.15,1.69,1.69,0,0,0-1.45-.69,2,2,0,0,0-1.52.64,2.67,2.67,0,0,0-.53,2v6.77H607.3V226.08Z"/><path class="cls-2" d="M624.9,221.49v3a4.24,4.24,0,0,1-3.62,4.5v-1.4a2.81,2.81,0,0,0,1.84-2.6H621.4v-3.49Zm4.91,0v3a4.23,4.23,0,0,1-3.62,4.5v-1.4A2.81,2.81,0,0,0,628,225h-1.72v-3.49Z"/><path class="cls-2" d="M643.91,224.41h-3.54v-2.92h3.54Zm0,13.73h-3.54V226.08h3.54Z"/><path class="cls-2" d="M650.48,226.08v1.17a4.26,4.26,0,0,1,3.29-1.52c2.62,0,4.22,1.75,4.22,4.59v7.82h-3.54v-6.57a3.57,3.57,0,0,0-.38-2.15,1.69,1.69,0,0,0-1.45-.69,2,2,0,0,0-1.52.64,2.67,2.67,0,0,0-.52,2v6.77H647V226.08Z"/><path class="cls-2" d="M667.23,228.73h-2.18v4.69c0,1.9.08,2.05.9,2.05h1.28v2.67h-2.18c-1.54,0-2.32-.23-2.84-.8s-.7-1.25-.7-3.12v-5.49h-1.7v-2.5h1.7v-3.82h3.54v3.82h2.18Z"/><path class="cls-2" d="M681.45,232.2a6.4,6.4,0,1,1-6.41-6.45A6.12,6.12,0,0,1,681.45,232.2Zm-9.23-.1c0,2.27,1,3.54,2.84,3.54s2.82-1.27,2.82-3.47-1-3.59-2.84-3.59S672.22,229.85,672.22,232.1Z"/><path class="cls-2" d="M697.57,228.73H695.4v4.69c0,1.9.08,2.05.9,2.05h1.27v2.67H695.4c-1.55,0-2.32-.23-2.84-.8s-.7-1.25-.7-3.12v-5.49h-1.7v-2.5h1.7v-3.82h3.54v3.82h2.17Z"/><path class="cls-2" d="M703.51,227.1a4.31,4.31,0,0,1,3.2-1.35,4.09,4.09,0,0,1,3.09,1.3c.78.85,1.08,1.87,1.08,3.67v7.42h-3.55v-6.77a3.15,3.15,0,0,0-.4-2,1.71,1.71,0,0,0-1.39-.62,2.23,2.23,0,0,0-1.55.6c-.4.42-.48.77-.48,2v6.77H700V221.49h3.54Z"/><path class="cls-2" d="M717,233.14a2.6,2.6,0,0,0,2.72,2.55,2.24,2.24,0,0,0,2.09-1.07h3.6c-.68,2.34-2.92,3.84-5.79,3.84-3.72,0-6.19-2.54-6.19-6.34s2.52-6.37,6.16-6.37a5.45,5.45,0,0,1,5.37,3.55,9.85,9.85,0,0,1,.6,3.84Zm4.91-2.49a2.18,2.18,0,0,0-2.34-2.2,2.44,2.44,0,0,0-2.55,2.2Z"/><path class="cls-2" d="M739,226.08l-.1,1.42a3.86,3.86,0,0,1,3.39-1.75c3.17,0,5.32,2.55,5.32,6.32s-2.12,6.39-5.29,6.39a4.34,4.34,0,0,1-3.25-1.3V242h-3.54V226.08Zm0,6c0,2.14,1,3.49,2.59,3.49s2.58-1.35,2.58-3.44-1-3.52-2.6-3.52S739,230,739,232.1Z"/><path class="cls-2" d="M753.7,238.14h-3.54V221.49h3.54Z"/><path class="cls-2" d="M756.85,229.87c.22-2.77,1.95-4.12,5.34-4.12a6.24,6.24,0,0,1,4.17,1.25c.87.78,1.2,1.75,1.2,3.52v5.54c0,1.3.05,1.48.45,2.08h-3.62c-.15-.43-.15-.5-.28-.95a4.68,4.68,0,0,1-3.44,1.27c-2.67,0-4.45-1.5-4.45-3.77s1.43-3.44,4.8-4l1.92-.33c.8-.12,1.07-.32,1.07-.82,0-.68-.7-1.1-1.84-1.1-1.3,0-2,.45-2.15,1.42Zm7.26,2.53a8.28,8.28,0,0,1-1.3.37l-1.27.27c-1.27.3-1.82.73-1.82,1.45s.67,1.28,1.8,1.28a2.75,2.75,0,0,0,2.59-1.53Z"/><path class="cls-2" d="M778.36,230.42a2,2,0,0,0-2.19-1.79c-1.63,0-2.5,1.22-2.5,3.42s.87,3.54,2.52,3.54c1.28,0,2-.65,2.25-2.07l3.44.17c-.5,3.05-2.59,4.77-5.79,4.77-3.67,0-6-2.45-6-6.31s2.3-6.4,6.12-6.4c3.14,0,5.29,1.8,5.51,4.67Z"/><path class="cls-2" d="M787.12,233.14a2.61,2.61,0,0,0,2.72,2.55,2.25,2.25,0,0,0,2.1-1.07h3.59c-.67,2.34-2.92,3.84-5.79,3.84-3.72,0-6.19-2.54-6.19-6.34a6,6,0,0,1,6.17-6.37,5.46,5.46,0,0,1,5.37,3.55,9.87,9.87,0,0,1,.59,3.84Zm4.92-2.49a2.19,2.19,0,0,0-2.35-2.2,2.43,2.43,0,0,0-2.54,2.2Z"/><path class="cls-2" d="M804.84,229.7c-.15-.9-.87-1.37-2-1.37s-1.7.4-1.7,1,.35.68,1.47.93l2.22.47a4.88,4.88,0,0,1,2.75,1.18,3.37,3.37,0,0,1,.9,2.42c0,2.54-2.07,4.14-5.42,4.14s-5.42-1.57-5.62-4.24h3.32c.2,1.15.95,1.67,2.38,1.67,1.12,0,1.84-.45,1.84-1.17s-.4-.88-1.35-1.1l-2.19-.5c-2.65-.58-3.67-1.55-3.67-3.47,0-2.42,1.92-3.9,5.14-3.9s5,1.4,5.29,3.95Z"/><path class="cls-2" d="M820.42,238.14l-3.6-12.06h3.6l1,3.94c.27,1.08.65,2.9.8,3.9.35-1.8.65-3.2.82-3.9l1-3.94h3.08l1.07,3.94c.45,1.85.67,2.9.85,3.9.2-1.25.42-2.35.77-3.9l.95-3.94h3.67l-3.42,12.06h-3.4l-1.12-4.22c-.35-1.45-.57-2.47-.9-4-.35,1.68-.65,3-.9,4l-1,4.22Z"/><path class="cls-2" d="M839,233.14a2.6,2.6,0,0,0,2.72,2.55,2.26,2.26,0,0,0,2.1-1.07h3.59c-.67,2.34-2.92,3.84-5.79,3.84-3.72,0-6.19-2.54-6.19-6.34a6,6,0,0,1,6.17-6.37A5.45,5.45,0,0,1,847,229.3a9.67,9.67,0,0,1,.6,3.84Zm4.92-2.49a2.19,2.19,0,0,0-2.35-2.2,2.44,2.44,0,0,0-2.55,2.2Z"/><path class="cls-2" d="M861.15,238.14H857.6V221.49h3.55Z"/><path class="cls-2" d="M867.81,224.41h-3.54v-2.92h3.54Zm0,13.73h-3.54V226.08h3.54Z"/><path class="cls-2" d="M873.85,238.14l-4.32-12.06h3.72l1.35,4.62c.25.85.55,2,.95,3.47.27-1.35.57-2.75.75-3.47l1.22-4.62h3.8l-4.1,12.06Z"/><path class="cls-2" d="M885.71,233.14a2.6,2.6,0,0,0,2.72,2.55,2.24,2.24,0,0,0,2.09-1.07h3.6c-.68,2.34-2.92,3.84-5.79,3.84-3.72,0-6.19-2.54-6.19-6.34s2.52-6.37,6.16-6.37a5.45,5.45,0,0,1,5.37,3.55,9.85,9.85,0,0,1,.6,3.84Zm4.91-2.49a2.18,2.18,0,0,0-2.34-2.2,2.44,2.44,0,0,0-2.55,2.2Z"/><path class="cls-2" d="M907.84,224.41H904.3v-2.92h3.54Zm0,13.73H904.3V226.08h3.54Z"/><path class="cls-2" d="M914.41,226.08v1.17a4.25,4.25,0,0,1,3.29-1.52c2.62,0,4.22,1.75,4.22,4.59v7.82h-3.54v-6.57a3.57,3.57,0,0,0-.38-2.15,1.69,1.69,0,0,0-1.45-.69,2,2,0,0,0-1.52.64,2.67,2.67,0,0,0-.52,2v6.77H911V226.08Z"/><path class="cls-2" d="M928.71,238.14h-3.5v-3.5h3.5Z"/></g></svg>