<svg xmlns="http://www.w3.org/2000/svg" xmlns:xlink="http://www.w3.org/1999/xlink" viewBox="0 0 1226.68 991.89"><defs><style>.cls-1,.cls-9{fill:none;}.cls-2{fill:#ffe9d3;}.cls-3{clip-path:url(#clip-path);}.cls-4{clip-path:url(#clip-path-2);}.cls-10,.cls-5{fill:#fff;}.cls-5{opacity:0.3;}.cls-6{opacity:0.8;}.cls-7{clip-path:url(#clip-path-3);}.cls-8{fill:#6b93c3;}.cls-9{stroke:#000;stroke-miterlimit:10;stroke-width:4px;}</style><clipPath id="clip-path"><rect class="cls-1" x="57.44" y="34.02" width="1115.95" height="916.45"/></clipPath><clipPath id="clip-path-2"><rect class="cls-1" x="-145.45" y="-21.27" width="1522.51" height="971.75"/></clipPath><clipPath id="clip-path-3"><rect class="cls-1" x="-117.08" y="-21.27" width="1494.14" height="654.22"/></clipPath></defs><g id="bg"><rect class="cls-2" x="2.14" y="-4156.53" width="1224.54" height="5369.9"/></g><g id="Landing_page_Text" data-name="Landing page Text"><g class="cls-3"><g class="cls-4"><image width="3840" height="2160" transform="translate(-444.18 -120.18) scale(0.64 0.64)" xlink:href="../../refeerence%20ddrawings/210427%20Google%20Earth%20Satellite%20Zoom.jpg"/><rect class="cls-5" x="-193.04" y="-48.56" width="1628.26" height="1058.46"/></g><g class="cls-6"><g class="cls-7"><polyline class="cls-8" points="1733.68 -286.5 1733.59 -286.6 1733.36 -286.87 1732.93 -287.38 1732.55 -287.88 1732.36 -288.13 1732.18 -288.38 1731.83 -288.9 1731.66 -289.17 1731.5 -289.44 1731.35 -289.72 1731.19 -290.02 1731.05 -290.31 1730.78 -290.92 1730.53 -291.54 1730.42 -291.86 1730.31 -292.19 1730.11 -292.88 1729.94 -293.57 1729.78 -294.27 1729.66 -294.93 1729.61 -295.25 1729.53 -295.87 1729.46 -296.5 1729.44 -296.84 1729.4 -297.53 1729.38 -298.22 1729.3 -301 1729.26 -302.03 1729.22 -302.72 1729.2 -303.07 1729.1 -304.1 1729.02 -304.79 1728.92 -305.47 1728.8 -306.15 1728.61 -307.17 1728.47 -307.85 1728.32 -308.48 1728.15 -309.12 1727.97 -309.7 1727.88 -310 1727.77 -310.28 1727.65 -310.58 1727.52 -310.87 1727.38 -311.16 1727.23 -311.44 1727.07 -311.72 1726.91 -311.97 1726.75 -312.22 1726.58 -312.45 1726.39 -312.69 1726.2 -312.92 1726.01 -313.14 1725.8 -313.36 1725.59 -313.57 1725.37 -313.78 1725.15 -313.98 1724.92 -314.18 1724.69 -314.36 1724.45 -314.55 1724.21 -314.73 1723.97 -314.9 1723.72 -315.06 1723.26 -315.33 1723.03 -315.46 1722.77 -315.6 1722.5 -315.73 1722.23 -315.85 1721.95 -315.97 1721.65 -316.08 1721.34 -316.19 1721.03 -316.28 1720.72 -316.37 1720.41 -316.45 1720.09 -316.52 1719.81 -316.57 1719.54 -316.61 1719.26 -316.64 1718.98 -316.66 1718.7 -316.67 1718.42 -316.67 1718.14 -316.65 1717.86 -316.63 1717.58 -316.6 1717.3 -316.56 1717.02 -316.5 1716.74 -316.44 1716.44 -316.36 1716.14 -316.28 1715.84 -316.18 1715.54 -316.08 1715.25 -315.97 1714.93 -315.84 1714.61 -315.7 1713.99 -315.41 1713.37 -315.1 1713.06 -314.94 1712.8 -314.79 1712.28 -314.49 1712.02 -314.33 1711.44 -313.96 1710.01 -313.01 1709.42 -312.65 1709.13 -312.47 1708.83 -312.31 1708.52 -312.16 1708.21 -312.02 1707.89 -311.89 1707.57 -311.78 1707.26 -311.69 1706.93 -311.6 1706.61 -311.52 1706.29 -311.46 1705.97 -311.41 1705.64 -311.36 1705.32 -311.32 1703.36 -311.15 1700.88 -310.89 1700.18 -310.83 1699.6 -310.79 1699.32 -310.78 1699.03 -310.78 1698.69 -310.78 1698.36 -310.8 1698.02 -310.82 1697.69 -310.84 1697.35 -310.88 1697.02 -310.93 1696.68 -310.99 1696.34 -311.06 1696 -311.14 1695.66 -311.23 1695.33 -311.32 1695 -311.43 1694.72 -311.53 1694.17 -311.74 1693.63 -311.98 1693.31 -312.12 1692.68 -312.42 1690.48 -313.48 1689.85 -313.77 1689.3 -314.01 1688.46 -314.36 1687.86 -314.58 1687.21 -314.8 1686.89 -314.91 1686.23 -315.1 1685.57 -315.26 1685.23 -315.33 1684.56 -315.46 1684.22 -315.52 1683.63 -315.61 1682.75 -315.72 1681.84 -315.8 1680.91 -315.86 1680.3 -315.89 1678.59 -315.95 1677.91 -315.99 1677.36 -316.04 1677.08 -316.08 1676.8 -316.12 1676.54 -316.16 1676.27 -316.22 1676 -316.28 1675.74 -316.35 1675.48 -316.42 1675.23 -316.51 1674.98 -316.6 1674.73 -316.7 1674.4 -316.85 1674.09 -317 1673.78 -317.17 1673.47 -317.35 1673.18 -317.55 1672.9 -317.75 1672.63 -317.97 1672.37 -318.2 1672.13 -318.45 1671.89 -318.71 1671.66 -318.99 1671.45 -319.27 1671.29 -319.5 1670.99 -319.96 1670.69 -320.49 1670.53 -320.79 1670.21 -321.38 1669.45 -322.89 1668.97 -323.79 1668.64 -324.37 1667.81 -325.83 1667.46 -326.42 1666.96 -327.35 1666.63 -327.98 1666.31 -328.61 1666.16 -328.92 1665.88 -329.55 1665.47 -330.51 1665.2 -331.17 1664.7 -332.51 1664.21 -333.87 1663.98 -334.55 1663.88 -334.89 1663.69 -335.56 1663.6 -335.89 1663.53 -336.23 1663.46 -336.56 1663.4 -336.9 1663.34 -337.23 1663.3 -337.57 1663.27 -337.93 1663.24 -338.29 1663.23 -338.65 1663.23 -339.01 1663.23 -339.38 1663.25 -339.72 1663.28 -340.06 1663.32 -340.41 1663.36 -340.75 1663.47 -341.42 1663.54 -341.76 1663.68 -342.43 1663.85 -343.09 1663.95 -343.42 1664.05 -343.75 1664.28 -344.41 1664.4 -344.74 1664.53 -345.06 1664.66 -345.39 1664.93 -345.98 1665.22 -346.56 1665.37 -346.85 1665.67 -347.4 1665.97 -347.92 1666.28 -348.42 1666.65 -348.99 1667.02 -349.55 1667.59 -350.38 1667.98 -350.93 1668.4 -351.5 1669.04 -352.35 1671.83 -356.02 1672.71 -357.15 1674.93 -359.97 1675.82 -361.1 1676.49 -361.92 1676.94 -362.45 1677.39 -362.98 1678.08 -363.75 1679.01 -364.75 1679.72 -365.49 1680.48 -366.23 1681.5 -367.2 1682.27 -367.92 1683.07 -368.61 1683.87 -369.28 1684.42 -369.72 1684.7 -369.93 1685.23 -370.31 1685.51 -370.49 1685.78 -370.67 1686.06 -370.84 1686.35 -371 1686.65 -371.15 1686.94 -371.29 1687.55 -371.56 1687.85 -371.69 1688.16 -371.81 1688.46 -371.91 1689.08 -372.1 1689.71 -372.27 1690.02 -372.34 1690.34 -372.4 1690.66 -372.46 1690.98 -372.5 1691.31 -372.54 1691.63 -372.57 1691.96 -372.58 1692.28 -372.59 1692.61 -372.58 1692.93 -372.57 1693.26 -372.54 1693.58 -372.51 1693.9 -372.46 1694.23 -372.41 1694.56 -372.34 1694.89 -372.27 1695.22 -372.19 1695.54 -372.1 1695.87 -372 1696.2 -371.9 1696.85 -371.67 1697.43 -371.44 1698.29 -371.07 1698.88 -370.8 1699.78 -370.35 1700.38 -370.03 1700.98 -369.7 1701.27 -369.53 1701.81 -369.2 1702.55 -368.73 1703.07 -368.37 1703.62 -367.97 1703.9 -367.77 1704.43 -367.35 1704.95 -366.92 1705.2 -366.7 1705.45 -366.47 1705.7 -366.24 1705.94 -366 1706.42 -365.51 1707.12 -364.76 1707.56 -364.27 1709.11 -362.51 1709.78 -361.79 1710.22 -361.33 1710.66 -360.88 1711.12 -360.45 1711.36 -360.24 1711.58 -360.05 1712.03 -359.68 1712.54 -359.29 1713.41 -358.67 1719.6 -346.43 1719.6 -346.3 1719.65 -345.6 1719.72 -344.91 1719.77 -344.56 1719.82 -344.22 1719.94 -343.56 1720.08 -342.9 1720.23 -342.25 1720.4 -341.6 1720.49 -341.27 1720.69 -340.62 1720.9 -339.99 1721.24 -339.07 1721.47 -338.47 1721.71 -337.87 1721.96 -337.29 1722.33 -336.47 1722.47 -336.19 1722.78 -335.58 1723.76 -333.75 1724.39 -332.52 1724.72 -331.92 1724.88 -331.65 1725.04 -331.38 1725.2 -331.12 1725.37 -330.88 1725.54 -330.65 1725.71 -330.44 1725.91 -330.22 1726.11 -330.03 1726.32 -329.85 1726.51 -329.73 1726.7 -329.62 1726.9 -329.55 1727.12 -329.49 1727.35 -329.48 1727.56 -329.5 1727.77 -329.56 1727.98 -329.67 1728.19 -329.81 1728.41 -330.01 1728.62 -330.24 1728.83 -330.51 1729.03 -330.81 1729.22 -331.11 1729.41 -331.43 1730.13 -332.67 1730.48 -333.27 1730.85 -333.87 1731.22 -334.45 1731.41 -334.74 1731.61 -335.02 1732.02 -335.57 1732.23 -335.84 1732.46 -336.11 1732.68 -336.36 1732.91 -336.6 1733.15 -336.83 1733.39 -337.06 1733.64 -337.28 1733.9 -337.49 1734.14 -337.68 1734.39 -337.87 1734.65 -338.04 1734.91 -338.21 1735.18 -338.38 1735.46 -338.53 1735.73 -338.68 1736.02 -338.83 1736.6 -339.1 1737.19 -339.35 1738.15 -339.73 1739.76 -340.32 1741.7 -341.03 1745.04 -342.2 1746.04 -342.56 1746.98 -342.91 1747.91 -343.28 1748.53 -343.55 1749.14 -343.82 1750.67 -344.52 1751.28 -344.81 1751.88 -345.11 1752.18 -345.27 1752.78 -345.6 1753.38 -345.93 1753.67 -346.11 1753.96 -346.29 1754.55 -346.66 1755.42 -347.25 1755.99 -347.66 1756.54 -348.08 1757.37 -348.72 1757.89 -349.14 1760.45 -351.31 1760.96 -351.74 1761.51 -352.18 1762.32 -352.82 1762.88 -353.25 1763.43 -353.67 1764 -354.08 1764.57 -354.48 1765.16 -354.87 1765.68 -355.2 1766.22 -355.51 1766.76 -355.82 1767.31 -356.12 1768.15 -356.54 1768.73 -356.82 1769.61 -357.22 1770.23 -357.48 1770.87 -357.73 1771.84 -358.09 1772.49 -358.31 1773.49 -358.63 1774.5 -358.92 1775.49 -359.19 1776.14 -359.35 1776.79 -359.49 1777.44 -359.62 1778.43 -359.79 1779.09 -359.89 1779.76 -359.97 1780.42 -360.04 1781.43 -360.11 1782.1 -360.15 1782.43 -360.16 1783.09 -360.17 1783.74 -360.16 1784.4 -360.15 1784.73 -360.13 1785.35 -360.09 1785.98 -360.04 1786.91 -359.94 1787.22 -359.9 1787.89 -359.8 1788.56 -359.68 1789.23 -359.55 1789.9 -359.42 1790.57 -359.27 1791.23 -359.1 1791.56 -359.01 1791.89 -358.91 1792.21 -358.8 1792.53 -358.69 1792.85 -358.57 1793.17 -358.44 1793.48 -358.3 1793.79 -358.16 1794.4 -357.85 1795.01 -357.51 1795.6 -357.15 1795.9 -356.96 1796.48 -356.56 1796.77 -356.36 1797.31 -355.95 1797.83 -355.54 1798.09 -355.32 1798.34 -355.1 1798.84 -354.64 1799.32 -354.17 1799.54 -353.93 1799.98 -353.44 1800.4 -352.94 1800.6 -352.68 1800.78 -352.44 1801.13 -351.95 1801.47 -351.46 1801.64 -351.18 1801.82 -350.9 1802.15 -350.33 1802.63 -349.47 1802.93 -348.88 1803.23 -348.29 1803.79 -347.11 1804.18 -346.27 1804.58 -345.34 1805.81 -342.41 1806.23 -341.44 1806.5 -340.82 1806.92 -339.9 1807.21 -339.29 1807.51 -338.68 1807.84 -338.06 1808.01 -337.75 1808.2 -337.45 1808.39 -337.15 1808.6 -336.88 1808.81 -336.61 1809.04 -336.36 1809.28 -336.12 1809.53 -335.89 1809.8 -335.68 1810.07 -335.48 1810.36 -335.3 1810.66 -335.14 1810.97 -335 1811.26 -334.89 1811.55 -334.79 1811.84 -334.71 1812.14 -334.64 1812.44 -334.59 1812.75 -334.56 1813.07 -334.54 1813.38 -334.53 1813.7 -334.54 1814.01 -334.57 1814.33 -334.61 1814.64 -334.67 1814.94 -334.74 1815.25 -334.82 1815.55 -334.92 1815.81 -335.01 1816.06 -335.12 1816.3 -335.24 1816.54 -335.37 1816.78 -335.5 1817.02 -335.65 1817.25 -335.8 1817.47 -335.96 1817.69 -336.14 1817.9 -336.31 1818.11 -336.5 1818.32 -336.69 1818.52 -336.89 1818.71 -337.1 1818.89 -337.31 1819.08 -337.52 1819.26 -337.76 1819.45 -338.01 1819.62 -338.26 1819.96 -338.77 1820.13 -339.04 1820.46 -339.58 1820.77 -340.14 1821.08 -340.7 1821.54 -341.6 1822.91 -344.39 1823.22 -345.01 1823.54 -345.63 1824.18 -346.84 1825.16 -348.65 1825.66 -349.54 1826.18 -350.45 1826.89 -351.66 1829.05 -355.27 1829.59 -356.18 1830.15 -357.07 1830.54 -357.67 1831.13 -358.56 1834.13 -363.01 1835.12 -364.5 1836.07 -365.98 1838.15 -369.25 1838.9 -370.44 1839.46 -371.34 1839.82 -371.95 1840.35 -372.88 1841.04 -374.14 1841.9 -375.71 1842.57 -376.98 1844.07 -379.85 1844.57 -380.8 1845.07 -381.67 1845.55 -382.49 1846.23 -383.56 1846.79 -384.42 1847.78 -385.89 1850.97 -390.59 1851.99 -392.06 1855.3 -396.74 1855.91 -397.63 1856.51 -398.52 1857.27 -399.74 1859.72 -403.7 1860.49 -404.92 1860.88 -405.51 1861.27 -406.1 1863.26 -409.03 1863.65 -409.63 1864.02 -410.23 1864.35 -410.8 1864.65 -411.38 1864.98 -412.04 1865.59 -413.35 1865.89 -413.97 1866.03 -414.23 1866.17 -414.47 1866.3 -414.69 1866.42 -414.86 1866.53 -414.98 1866.59 -415.02 1866.64 -415.02 1866.69 -414.99 1866.73 -414.93 1866.78 -414.79 1866.92 -414.41 1867 -414.23 1867.09 -414.06 1867.19 -413.92 1867.3 -413.81 1867.43 -413.71 1867.58 -413.64 1867.75 -413.6 1867.93 -413.58 1868.1 -413.61 1868.25 -413.67 1868.41 -413.79 1868.48 -413.86 1868.6 -414.06 1868.68 -414.29 1868.71 -414.53 1868.71 -414.78 1868.67 -415.02 1868.61 -415.22 1868.53 -415.4 1868.41 -415.59 1868.34 -415.67 1868.21 -415.79 1868.07 -415.9 1867.78 -416.08 1867.67 -416.15 1867.59 -416.23 1867.56 -416.3 1867.54 -416.43 1867.56 -416.58 1867.62 -416.75 1867.71 -416.94 1867.85 -417.18 1868.01 -417.43 1868.18 -417.69 1868.57 -418.22 1869.37 -419.29 -1023.51 -419.29 -1023.51 280.11 -1012.1 281.45 -1000.95 284.11 -998.85 293.15 -1009.79 296.7 -1017.06 303.54 -1006.55 307.77 -995.57 310.75 -988.25 319.75 -978.01 324.25 -968.08 319.12 -960.81 310.06 -953.31 301.19 -946.02 292.19 -937.26 285.43 -926.11 286.77 -918.42 295.3 -913.22 305.75 -907.86 316.11 -902.38 326.4 -894.29 334.58 -883.58 338.57 -872.14 338.83 -860.67 338.47 -849.26 339.81 -838.04 342.3 -827.11 345.89 -816.26 349.69 -804.88 350.12 -796.98 342.22 -794.53 330.83 -793.96 319.12 -792.97 307.45 -791.64 295.8 -788.66 285.05 -781.25 292.8 -778.48 304.17 -776.75 315.76 -775.55 327.41 -775.23 339.13 -774.94 350.85 -773.92 362.52 -771.62 374 -768.04 385.13 -763.81 396.02 -756.4 404.6 -745.47 408.13 -734.21 410.44 -722.86 412.23 -711.49 413.83 -700.38 411.38 -689.67 407.16 -678.34 405.37 -666.86 405.18 -655.39 405.66 -643.92 406.36 -632.47 407.21 -621.02 408.25 -609.55 408.42 -598.06 408.48 -586.59 409.11 -575.15 410.16 -563.68 410.74 -552.21 411.02 -541.23 407.81 -532.09 400.73 -522.01 395.14 -513.66 387.4 -508.73 376.82 -504.6 365.88 -502.04 354.46 -500.64 342.83 -499.98 331.13 -500.47 319.42 -500.7 307.7 -500.74 295.99 -498.11 284.62 -494.05 273.66 -491.86 262.27 -489.45 250.89 -485.95 261.14 -483.89 272.66 -480.57 283.89 -476.4 294.79 -470.5 304.84 -464.23 314.67 -457.73 324.33 -453.25 335.07 -450.49 346.45 -444.04 355.83 -433.93 361.37 -423.87 367.03 -413.98 372.99 -404.68 379.82 -396.84 388.39 -388.1 395.98 -379.08 403.23 -371.16 411.69 -367.13 422.53 -362.94 433.42 -354.95 441.61 -344 444.99 -332.64 446.7 -321.2 446.17 -309.81 447.49 -298.37 447.38 -286.92 448 -275.48 447.99 -264.02 447.72 -252.59 448.81 -241.15 448.55 -229.84 450.05 -234.65 455.88 -243.15 463.63 -240.82 473.8 -230.25 478.13 -218.89 479.83 -207.64 482.13 -196.92 486.3 -187.62 492.49 -182.15 502.76 -174.35 510.71 -163.14 513.24 -152.27 516.85 -141.48 520.25 -130.07 519.04 -121.36 525.42 -117.08 535.51 -105.9 537.79 -94.83 540.66 -85.51 545.2 -82.3 534.19 -75.34 530.97 -66.64 538.53 -56.51 543.82 -45.4 546.73 -33.99 548.03 -22.53 548.8 -11.43 551.25 -1.53 557.07 9.65 559.68 20.67 562.96 31.55 566.41 42.73 564.08 53.96 562.56 64.53 566.98 71.08 560.22 71.75 548.56 74.33 538.57 85.67 537.19 97.11 538.18 108.59 538.09 120.07 538.21 131.51 539.1 142.65 541.93 153.97 540.94 163.68 534.93 171.16 526.09 181.87 523.95 189.32 515.39 200.51 513.63 211.47 511.23 221.93 506.39 229.37 497.99 235.53 488.82 246.87 487.54 258.36 487.67 269.84 487.48 281.32 487.63 292.81 487.79 304.29 487.9 315.77 487.44 327.25 487.5 338.73 486.99 350.21 486.79 361.7 486.79 373.18 487.06 384.66 487.26 396.08 488.36 406.15 493.64 412.69 503.18 416.6 514.17 418.38 525.75 420.04 537.35 421.39 548.99 423.38 560.53 426.59 571.77 431.98 582.11 441.39 587.74 452.27 586.83 456.29 576.08 462.95 571.47 468.18 581.86 476.14 589.46 487.6 589.79 499.07 589.42 508.85 585.88 501.73 576.76 498.92 565.53 501.23 554.14 507.19 544.15 514.43 535.06 515.63 523.72 510.89 513.12 512.63 501.56 509.57 490.71 498.22 491.59 486.78 491.88 475.47 493.94 464.05 494.99 454.19 489.76 447.82 480.01 442.06 469.87 435.18 460.52 427.61 451.79 424.7 440.48 422.87 428.91 420.26 417.52 415.6 424.67 413.09 436.08 405.42 444.2 394.1 445.7 382.64 444.9 371.39 442.62 363.15 435.09 358.34 424.58 349.37 428.41 341.53 436.94 331.68 442.8 320.38 444.57 308.9 444.44 297.41 444.13 285.93 444.05 274.44 444.01 262.95 443.96 251.47 443.66 240.01 443 229.51 438.84 225.03 428.27 223.69 416.64 224.44 404.97 229.05 394.41 237.7 386.72 239.98 377.24 231.22 369.77 228.58 359.04 237.25 352.56 242.52 342.24 245.99 331.12 247.75 319.57 255.38 311.28 266.49 312.59 273.56 306.19 273.36 294.47 273.46 282.75 275.3 271.22 279.79 260.45 285.95 250.57 293.86 242.1 303.32 235.52 314.03 231.38 325.33 229.34 336.8 229.17 348.11 231.06 358.8 235.27 368.21 241.94 376.09 250.45 383.54 259.37 392.27 266.93 396.9 277.36 398.76 288.92 399.91 300.59 401.68 312.17 403.99 323.65 407.14 334.91 412.13 345.46 417.23 355.96 423.34 365.88 430.04 375.4 436.36 385.19 443.72 394.15 452.4 401.83 461.18 409.38 470.3 416.51 479.34 423.74 488.66 430.59 497.32 438.26 505.08 446.89 515.41 451.23 526.87 450.56 538.3 449.4 549.71 448.12 561.03 449.78 572.43 450.57 583.86 449.45 595.34 449.28 606.82 449.4 618.22 450.74 629.17 454.21 640.26 457.19 651.63 458.83 663.1 459.23 674.58 459.68 686.04 460.32 697.51 459.77 708.99 459.84 720.42 460.76 731.23 464.56 741.08 470.59 749.14 478.8 754.93 488.91 758.85 499.91 762.89 510.87 768.17 521.28 773.38 531.72 778.64 542.12 780.8 553.61 782.21 565.24 784.48 576.73 788.9 587.49 795.03 597.39 799.25 608.28 802.41 619.55 806.12 630.64 810.49 641.48 816.3 651.55 825.42 658.5 836.61 660.7 847.78 658.22 858.64 654.39 869.79 651.58 880.9 652.71 887.53 662 898.88 662.5 910.36 661.97 915.06 653.18 914.71 641.52 915.01 629.93 915.22 618.22 914.74 606.52 911.73 595.24 907.48 584.35 902.59 573.74 897.33 563.32 892.2 552.85 888.45 541.77 885.07 530.56 883.22 519.02 885.13 507.58 894.29 503.99 901.84 512.72 908.27 522.43 914.07 532.55 919.87 542.66 926.95 551.82 937.18 556.99 948.41 558.26 958.42 552.67 967.77 545.87 977.2 539.2 986.32 532.1 988.79 521.34 996.97 513.47 1006.66 507.39 1017.74 508.93 1029.07 509.59 1040.49 510.01 1051.33 507.24 1059.37 498.97 1065.07 488.84 1069.53 478.06 1076.54 468.85 1086.12 462.45 1096.82 458.3 1108.16 456.56 1119.64 456.41 1130.88 458.6 1140.94 464.13 1149.55 471.87 1156.62 481.08 1160.91 491.9 1163.12 503.4 1168.02 511.88 1176.44 504.01 1183.08 494.63 1180.57 483.6 1176.95 472.69 1183.97 464.59 1193.6 459.55 1192.16 448.21 1186.57 438.02 1177.95 430.38 1169.51 422.53 1163.8 412.39 1159.3 401.61 1154.33 391.05 1150.21 380.1 1144.42 370.06 1134.48 365.32 1123.38 368.13 1112.77 372.61 1102.3 377.43 1091.75 382.07 1081.14 386.55 1070.45 390.82 1059.22 393.14 1047.75 393.18 1036.53 390.85 1026.19 385.81 1016.37 379.74 1007.08 372.85 998.2 365.42 989.97 357.27 983.59 347.56 979.36 336.68 975.98 325.47 972.39 314.33 968.63 303.26 961.99 294.26 950.75 294.94 940.16 299.44 929.66 304.19 919.01 308.59 909.18 314.52 902.6 324.05 897.21 334.4 891.02 344.27 882.79 352.2 872.82 349.07 870.4 337.81 869.14 326.17 868.41 314.54 872.3 303.63 880.42 295.5 890.72 290.36 901.47 286.23 912.17 281.98 922.67 277.25 931.72 270.16 936.62 259.66 937.96 248.07 936.71 236.42 935.46 224.77 935.98 213.12 941.24 202.75 943.65 191.35 943.89 179.64 943.2 167.94 942.94 156.22 944.02 144.56 946.43 133.16 955.3 132.45 958.13 143.69 958.76 155.39 959.31 167.1 960.29 178.78 962.22 190.33 964.65 201.79 966.9 213.28 969.25 224.76 971.9 236.16 974.16 247.66 976.47 259.14 979.75 270.37 982.99 281.62 986.59 292.75 990.54 303.76 994.63 314.71 999.14 325.49 1004.6 335.79 1012.02 344.72 1020.28 352.87 1029.16 360.29 1038.62 366.94 1047.91 373.83 1058.11 379.07 1069.39 378.12 1080.18 374.1 1090.83 369.71 1101.57 365.55 1112.14 360.99 1122.68 356.33 1131.75 349.31 1133.36 338.07 1129.55 327.03 1124.87 316.32 1119.92 305.75 1115.08 295.11 1110.34 284.44 1105.57 273.77 1100.36 263.33 1095.3 252.8 1090.52 242.14 1085.65 231.52 1080.86 220.87 1075.8 210.35 1070.7 199.84 1066.06 189.12 1061.44 178.39 1056.74 167.69 1051.55 157.24 1046.71 146.61 1041.68 136.07 1036.56 125.57 1031.45 115.07 1027.04 104.26 1030.55 96.36 1037.24 105.82 1042.02 116.48 1046.89 127.1 1051.83 137.68 1056.82 148.24 1061.65 158.88 1066.46 169.52 1071.25 180.18 1075.94 190.88 1081.22 201.29 1086.1 211.9 1090.77 222.61 1096.35 232.83 1106.09 238.11 1116.46 233.47 1125.2 225.87 1134.08 218.44 1142.98 211.03 1151.62 203.3 1160.39 195.73 1168.99 187.96 1177.87 180.53 1187.19 173.7 1197.06 167.82 1207.03 163.84 1212.54 173.88 1217.21 184.58 1220.99 195.65 1219.48 204.26 1214.28 193.91 1209.57 183.22 1201.77 175.35 1191.55 179.95 1182.71 187.44 1174.02 195.1 1165.39 202.84 1156.82 210.64 1148.19 218.37 1139.19 225.66 1130.25 233.02 1120.73 239.56 1113.37 248.39 1110.54 259.49 1113.72 270.72 1118.6 281.33 1123.35 292 1128.3 302.58 1133.26 313.16 1138.36 323.66 1143.22 334.28 1148.01 344.94 1151.82 355.99 1155.78 366.99 1160.39 377.73 1165.08 388.43 1169.85 399.1 1175.89 409 1186.18 412.35 1195.85 406.19 1203.93 397.86 1211.25 388.83 1218.75 379.96 1226.35 371.16 1233.7 362.16 1240.91 353.03 1248.07 343.87 1256.24 335.68 1262.76 326.08 1264.53 314.66 1271.14 310.78 1277.52 319.6 1273.22 330.27 1264.45 337.81 1256.36 346.12 1248.93 355.06 1241.64 364.11 1234.27 373.11 1226.58 381.81 1219.07 390.68 1211.6 399.59 1204.14 408.5 1197.54 418.02 1197.49 429.51 1201.18 440.6 1205.95 451.27 1211.17 461.71 1216.6 472.04 1221.8 482.49 1226.88 493 1231.94 503.53 1237.35 513.87 1244.68 522.8 1255.23 521.76 1263.72 513.88 1271.5 505.26 1278.81 496.22 1286.42 487.44 1293.88 478.52 1301.73 469.97 1309.58 461.41 1316.22 451.87 1320.05 440.89 1324.22 430.55 1335.48 430.1 1344.38 422.78 1352.45 414.44 1360.13 405.73 1367.18 396.47 1371.51 385.88 1368.24 374.74 1363.17 364.22 1358.31 353.6 1353.53 342.94 1348.51 332.39 1343.39 321.9 1338.05 311.52 1332.03 301.54 1325.24 292.11 1321.12 281.18 1322.32 270.68 1331.44 276.76 1337.51 286.71 1342.71 297.16 1348 307.56 1353.36 317.93 1359.5 327.83 1364.15 338.51 1368.97 349.14 1375.89 358.39 1386.48 361.68 1395.71 354.91 1403.34 346.15 1410.57 337.04 1417.96 328.07 1425.65 319.37 1433.32 310.63 1440.54 301.52 1448.04 292.65 1455.68 283.9 1463.26 275.1 1470.51 266 1477.95 257.07 1485.18 247.97 1491.92 238.47 1498.58 228.93 1504.17 218.71 1507.11 207.44 1503.99 196.32 1497.44 186.7 1491.13 176.9 1484.66 167.22 1478.05 157.63 1470.82 148.52 1463.34 139.63 1455.89 130.71 1449.19 121.19 1442.8 111.45 1434.72 103.25 1423.93 99.32 1413.3 94.97 1405.19 86.77 1402.58 75.51 1401.96 63.8 1398.36 52.77 1388.56 48.44 1379.47 55.45 1371.58 63.97 1363.95 72.73 1356.35 81.52 1348.51 90.09 1340.92 98.89 1333.41 107.76 1325.75 116.49 1318.27 125.39 1310.4 133.93 1302.76 142.68 1295.18 151.48 1287.33 160.04 1279.86 168.95 1272.35 177.74 1268.43 172.42 1275.17 162.93 1282.41 153.83 1289.9 144.97 1297.95 136.61 1305.63 127.89 1313.29 119.16 1321.19 110.64 1329.12 102.17 1336.75 93.41 1344.39 84.66 1351.88 75.77 1359.29 66.82 1367.3 58.43 1375.41 50.14 1382.16 40.66 1385.29 29.53 1384.15 17.87 1381.04 6.61 1378.36 -4.69 1387.67 -7.68 1396.59 -0.46 1401.41 10.07 1397.83 21.06 1400.49 31.98 1407.67 41.13 1415.15 50.02 1422.07 59.38 1429.52 68.3 1436.95 77.24 1443.69 86.73 1450.27 96.34 1456.96 105.87 1463.85 115.25 1470.98 124.44 1478.23 133.53 1484.53 143.33 1490.57 153.3 1497.34 162.76 1504.91 171.58 1512.52 180.36 1522.91 182.28 1524.98 171.53 1523.86 160.41 1535 157.88 1546.17 155.21 1556.24 149.81 1561.4 139.51 1559.71 127.97 1566.05 118.28 1573.22 109.13 1580.04 99.7 1584.66 103.94 1582.21 115.38 1578.87 126.58 1574.12 137.25 1568.96 147.71 1574.21 147.56 1581.94 138.91 1590.73 131.36 1600.06 124.71 1606.21 131.01 1605.38 142.7 1607.48 149.57 1614.53 140.35 1622.95 132.44 1633.16 127.12 1639.75 117.75 1641.68 106.31 1651.02 104.51 1661.76 108.67 1672.43 113 1683.3 116.8 1694.21 120.46 1705.09 124.23 1715.79 128.47 1726.44 132.87 1737.33 136.59 1748.25 140.23 1758.12 145.96 1762.06 156.64 1761.52 168.32 1758.53 179.62 1752.01 189.23 1746.63 199.53 1742.92 210.62 1738.11 221.27 1732.97 231.75 1727.9 242.27 1722.38 252.54 1716.32 262.49 1710.6 272.65 1704.36 282.49 1697.7 292.04 1690.58 301.24 1684.15 310.95 1677.59 320.56 1670.88 330.08 1663.92 339.4 1656.74 348.55 1650.27 358.23 1643.64 367.8 1636.52 377 1630.26 386.81 1625.31 397.38 1620.49 408.01 1614.46 417.98 1608.15 427.77 1602.52 437.98 1595.95 447.58 1588.45 456.42 1578.69 462.52 1569.7 469.72 1561.99 478.41 1553.96 486.79 1545.68 494.92 1537.95 503.55 1530.91 512.82 1523.67 521.92 1516.47 531.05 1508.97 539.92 1501.29 548.59 1494.36 557.94 1487.18 567.09 1479.2 575.51 1471.37 584.08 1464.32 593.34 1457.26 602.58 1450.12 611.76 1442.76 620.76 1434.91 629.32 1426.98 637.8 1419.51 646.7 1412.59 656.05 1405.09 664.93 1397.25 673.49 1389.91 682.5 1383.04 691.89 1375.51 700.75 1367.7 709.34 1360.4 718.38 1353.75 727.94 1347.51 737.78 1340.63 747.16 1333.52 756.37 1326.43 765.6 1318.97 774.5 1311.24 783.17 1303.3 791.64 1295.65 800.38 1288.44 809.5 1281.49 818.83 1277.01 829.53 1279.89 839.55 1290.76 836.94 1301.39 832.49 1311.78 827.49 1321.53 821.35 1330.51 814.05 1337.92 805.12 1346.07 796.87 1354.72 789.16 1362.64 780.67 1370.69 772.31 1377.78 763.1 1384.85 753.86 1392.15 744.81 1399.75 736.03 1407.28 727.18 1414.68 718.21 1422.14 709.29 1429.01 699.91 1435.95 690.57 1443.24 681.52 1450.74 672.64 1457.89 663.47 1465.08 654.33 1473.03 645.87 1480.79 637.22 1488.41 628.45 1496.07 619.72 1503.43 610.71 1510.97 601.88 1518.33 592.87 1525.92 584.08 1533.38 575.16 1540.82 566.23 1547.85 556.96 1554.72 547.57 1562.1 538.59 1569.66 529.76 1576.87 520.64 1584.05 511.5 1591.09 502.23 1597.97 492.85 1605.13 483.7 1612.57 474.79 1619.28 465.27 1626.72 456.35 1634.41 447.64 1641.98 438.82 1649.63 430.08 1656.75 420.88 1662.78 410.92 1669.98 401.78 1677.18 392.65 1684.19 383.36 1691.38 374.22 1699.37 365.8 1706.55 356.69 1712.2 346.48 1717.82 336.27 1723.3 325.96 1729.38 316.04 1737.23 307.48 1742.95 297.37 1747.12 286.45 1750.56 275.3 1754.61 264.37 1760.35 254.22 1765.31 243.65 1768.69 232.45 1772.29 221.35 1777.51 210.92 1782.91 200.58 1788.48 190.33 1793.77 179.92 1799.25 169.63 1804.86 159.4 1808.29 148.23 1811.32 136.92 1813.38 125.39 1816.15 114.01 1817.58 102.4 1820.01 90.94 1823.26 79.7 1826.4 68.42 1829.89 57.26 1833.68 46.19 1837.32 35.07 1841 23.97 1844.4 12.77 1848.19 1.7 1852.04 -9.35 1855.35 -20.57 1858.78 -31.76 1862.04 -43 1864.67 -54.41 1864.8 -66.06 1868.57 -76.25 1871.19 -87.07 1865.06 -96.88 1865.23 -108.39 1873.24 -116.51 1881.88 -123.73 1885.95 -134.65 1887.78 -146.19 1886.24 -157.72 1878.38 -156.55 1870.25 -148.35 1859.18 -145.65 1854.21 -136.04 1849.29 -125.53 1843.81 -115.36 1839.73 -104.44 1838.18 -92.84 1834.81 -81.63 1832.36 -70.18 1830.4 -58.64 1834.63 -49.13 1843.31 -47.9 1840.72 -36.52 1836.38 -25.68 1829.75 -16.14 1822.66 -6.91 1813.18 -2.02 1802.41 -2.47 1791.45 -4.28 1789.69 -14.46 1785.79 -25.46 1784.32 -37.04 1779.69 -47.32 1779.94 -58.55 1783.29 -69.75 1782.68 -81.29 1780.6 -92.69 1782.38 -104.17 1781.76 -115.84 1779.11 -127.25 1777.57 -138.85 1776.64 -150.53 1774.36 -162 1767.72 -171.26 1757.05 -175.37 1745.74 -177.04 1735.22 -180.33 1731.26 -191.14 1732.13 -202.69 1741.58 -207.18 1752.88 -205.19 1762.48 -199.24 1768.95 -189.56 1774.61 -191.37 1772.06 -202.73 1765.38 -212.24 1761.47 -223.23 1756.84 -233.94 1755.64 -245.17 1764.75 -251.5 1774.88 -255.46 1770.74 -265.76 1759.69 -267.48 1748.56 -267.49 1731.83 -288.9"/></g></g><polyline class="cls-9" points="574.79 585.79 573.14 487.04 510.92 487.04"/><polygon class="cls-9" points="464.24 621.98 531.37 621.98 538.28 585.79 574.79 585.79 795.06 592.37 748.31 404.76 738.21 412.53 735.19 414.69 692.12 416.13 638.24 411.47 606.34 406.25 572.88 401.1 524.4 399.01 496.13 394.58 510.92 487.04 477.42 487.04 448.89 490.32 464.24 621.98"/></g><path class="cls-9" d="M57.44,950.47h1116V34H57.44V950.47Z"/><path class="cls-10" d="M268.68,101.67h-9.37c0-16.84,5-17.36,16.54-17.36l.78.6C267.86,84.52,268.68,88.45,268.68,101.67Zm16.71-26.52V77a3.85,3.85,0,0,1-3.84,3.84H263.37A3.85,3.85,0,0,1,259.53,77V75.15a3.74,3.74,0,0,1,3.84-3.71h18.18A3.74,3.74,0,0,1,285.39,75.15Zm-7.21,16.93c0-4.75,4.54-5.27,4.54.86,0,2.46.77,6.31,2.63,5.75a3.89,3.89,0,0,1-3.76,3h-12v-.78C274.56,100.89,278.18,97.56,278.18,92.08Zm-.9-7.3a3.11,3.11,0,1,1,3.1,3.07A3.09,3.09,0,0,1,277.28,84.78Z"/><path class="cls-10" d="M337.64,75.15V77a3.86,3.86,0,0,1-3.85,3.84H315.61A3.85,3.85,0,0,1,311.77,77V75.15a3.74,3.74,0,0,1,3.84-3.71h18.18A3.75,3.75,0,0,1,337.64,75.15ZM311.77,97.82v-2c1.9.73,2.72-.39,2.72-2.9,0-6.13,4.54-5.61,4.54-.86v7.13c0,1.46-.52,2.41-1.6,2.46h-1.82A3.86,3.86,0,0,1,311.77,97.82Zm1.94-13a3.11,3.11,0,1,1,3.11,3.07A3.1,3.1,0,0,1,313.71,84.78Zm19.78-1.16v1.16c0,1.34-1.42,2.42-3.19,2.42h-6.39c-1.77,0-3.24-1.08-3.24-2.42V83.62c0-1.3,1.47-2.34,3.24-2.34h6.39C332.07,81.28,333.49,82.32,333.49,83.62Z"/><path class="cls-10" d="M347.44,101.67h-9.37c0-16.84,5-17.36,16.54-17.36l.77.6C346.62,84.52,347.44,88.45,347.44,101.67Zm16.71-26.52V77a3.85,3.85,0,0,1-3.84,3.84H342.13A3.86,3.86,0,0,1,338.28,77V75.15a3.75,3.75,0,0,1,3.85-3.71h18.18A3.74,3.74,0,0,1,364.15,75.15Zm-7.21,16.93c0-4.75,4.53-5.27,4.53.86,0,2.46.78,6.31,2.64,5.75a3.9,3.9,0,0,1-3.76,3h-12v-.78C353.31,100.89,356.94,97.56,356.94,92.08Zm-.91-7.3a3.11,3.11,0,1,1,3.11,3.07A3.09,3.09,0,0,1,356,84.78Z"/><path class="cls-10" d="M364.62,82.84V75.28a3.74,3.74,0,0,1,3.71-3.84h1.82A3.85,3.85,0,0,1,374,75.28v7.56a3.85,3.85,0,0,1-3.84,3.84h-1.82A3.74,3.74,0,0,1,364.62,82.84Zm8.85,18.48,0,.35h-8.81V99.81c0,.65,1.55,1.86,1.55-.86,0-4.75,4.54-5.27,4.54.86C370.8,101.28,371.83,101.67,373.47,101.32Zm-8.2-9.67a3.11,3.11,0,1,1,3.11,3.06A3.09,3.09,0,0,1,365.27,91.65Zm12.87,10C384.53,88,373.73,87.59,366.56,88l.78-.61c11,1.13,22.15.69,22.15,14.3Zm-5.7-29.89.47-.3c6.39,0,14.29-.26,14.73,3.93a39,39,0,0,1,0,8.08c-.52,4.75-9.72,3.88-16.11,3.88l-.48-.3c3.37.22,8.55.39,9.59-3.19a22.7,22.7,0,0,0,.17-4.45c0-1.6,0-3.11-.17-4.41C380.3,71.44,375.8,71.61,372.44,71.78Z"/><path class="cls-10" d="M441.69,75.15V77a3.85,3.85,0,0,1-3.84,3.84H419.67A3.85,3.85,0,0,1,415.83,77V75.15a3.74,3.74,0,0,1,3.84-3.71h18.18A3.74,3.74,0,0,1,441.69,75.15ZM415.83,97.82v-2c1.9.73,2.72-.39,2.72-2.9,0-6.13,4.53-5.61,4.53-.86v7.13c0,1.46-.52,2.41-1.6,2.46h-1.81A3.85,3.85,0,0,1,415.83,97.82Zm1.94-13a3.11,3.11,0,1,1,3.11,3.07A3.09,3.09,0,0,1,417.77,84.78Zm19.78-1.16v1.16c0,1.34-1.43,2.42-3.2,2.42H428c-1.77,0-3.24-1.08-3.24-2.42V83.62c0-1.3,1.47-2.34,3.24-2.34h6.39C436.12,81.28,437.55,82.32,437.55,83.62Z"/><path class="cls-10" d="M442.12,82.84V75.28a3.75,3.75,0,0,1,3.72-3.84h1.81a3.85,3.85,0,0,1,3.84,3.84v7.56a3.85,3.85,0,0,1-3.84,3.84h-1.81A3.75,3.75,0,0,1,442.12,82.84ZM451,101.32l0,.35h-8.81V99.81c0,.65,1.56,1.86,1.56-.86,0-4.75,4.53-5.27,4.53.86C448.3,101.28,449.33,101.67,451,101.32Zm-8.2-9.67a3.11,3.11,0,1,1,3.11,3.06A3.09,3.09,0,0,1,442.77,91.65Zm12.87,10C462,88,451.23,87.59,444.07,88l.77-.61c11,1.13,22.16.69,22.16,14.3Zm-5.7-29.89.47-.3c6.39,0,14.3-.26,14.73,3.93a39,39,0,0,1,0,8.08c-.52,4.75-9.72,3.88-16.11,3.88l-.47-.3c3.36.22,8.55.39,9.58-3.19a22.58,22.58,0,0,0,.18-4.45c0-1.6-.05-3.11-.18-4.41C457.8,71.44,453.31,71.61,449.94,71.78Z"/><path class="cls-10" d="M495,95.84v2a3.86,3.86,0,0,1-3.85,3.85h-19.9a3.86,3.86,0,0,1-3.85-3.85v-2c1.9.73,2.72-.39,2.72-2.9,0-6.13,4.54-5.61,4.54-.86,0,5.83,2.93,9.07,6.56,9.07s6.52-3.24,6.52-9.07c0-4.75,4.54-5.27,4.54.86C492.3,95.45,493.12,96.57,495,95.84ZM469.15,77V75.15A3.74,3.74,0,0,1,473,71.44H489.4a3.75,3.75,0,0,1,3.85,3.71V77a3.86,3.86,0,0,1-3.85,3.84H473A3.85,3.85,0,0,1,469.15,77Zm3.33,4.7a3.09,3.09,0,1,1-3.11,3.11A3.1,3.1,0,0,1,472.48,81.67Zm17.48,0a3.09,3.09,0,1,1-3.1,3.11A3.09,3.09,0,0,1,490,81.67Z"/><path class="cls-10" d="M500.45,71.44a3.75,3.75,0,0,1,3.85,3.71V77a3.86,3.86,0,0,1-3.85,3.84h-1.16A3.85,3.85,0,0,1,495.45,77V75.15a3.74,3.74,0,0,1,3.84-3.71Zm10.76,30.23h-12a3.89,3.89,0,0,1-3.76-3c1.86.56,2.63-3.29,2.63-5.75,0-6.13,4.54-5.61,4.54-.86,0,5.48,3.62,8.81,8.55,8.81ZM497.35,84.78a3.11,3.11,0,1,1,3.1,3.07A3.09,3.09,0,0,1,497.35,84.78ZM504,71.31c11.53,0,17.53,1.55,17.53,30.36h-9.37c0-13.22-.18-30.15-8.94-29.76Zm10.79,0c11.53,0,17.53,1.55,17.53,30.36h-8.81c0-13.22-.73-30.15-9.5-29.76Z"/><path class="cls-10" d="M558.66,82.84V75.28a3.74,3.74,0,0,1,3.71-3.84h1.81A3.86,3.86,0,0,1,568,75.28v7.56a3.86,3.86,0,0,1-3.85,3.84h-1.81A3.74,3.74,0,0,1,558.66,82.84Zm8.85,18.48,0,.35h-8.81V98.56c0,.65,1.55,1.85,1.55-.87,0-4.75,4.54-5.27,4.54.87C564.75,100.67,565.87,101.67,567.51,101.32Zm-5.1-14.08a3.09,3.09,0,1,1-3.11,3.11A3.1,3.1,0,0,1,562.41,87.24Zm19.48-7.81a37.65,37.65,0,0,1-.22,4.06c-.52,4.75-9.71,3.88-16.1,3.88l-.48-.3c3.37.22,8.55.39,9.59-3.19a22.7,22.7,0,0,0,.17-4.45c0-1.6,0-3.11-.17-4.41-.35-3.58-4.84-3.41-8.21-3.24l.48-.3c6.39,0,14.29-.26,14.72,3.93A37.46,37.46,0,0,1,581.89,79.43Z"/><path class="cls-10" d="M608.23,75.15V77a3.86,3.86,0,0,1-3.85,3.84H586.2A3.85,3.85,0,0,1,582.36,77V75.15a3.74,3.74,0,0,1,3.84-3.71h18.18A3.75,3.75,0,0,1,608.23,75.15Zm0,15v7.68a3.86,3.86,0,0,1-3.85,3.85H586.2a3.86,3.86,0,0,1-3.84-3.85v-2c1.9.73,2.72-.39,2.72-2.9,0-6.13,4.54-5.61,4.54-.86,0,11.4,15.37,10.45,17.57,5.4,2.38-5.44-4.45-5.66-9-7.56-1-.43-1.56-1.17,0-1.17h8.55A1.45,1.45,0,0,1,608.23,90.14Zm-3.59-6.52v1.16c0,1.34-1.42,2.42-3.19,2.42H586.2c-1.77,0-3.24-1.08-3.24-2.42V83.62c0-1.3,1.47-2.34,3.24-2.34h15.25C603.22,81.28,604.64,82.32,604.64,83.62Z"/><path class="cls-10" d="M608.66,82.84V75.28a3.74,3.74,0,0,1,3.71-3.84h1.81A3.86,3.86,0,0,1,618,75.28v7.56a3.86,3.86,0,0,1-3.85,3.84h-1.81A3.74,3.74,0,0,1,608.66,82.84Zm8.85,18.48,0,.35h-8.8V99.81c0,.65,1.55,1.86,1.55-.86,0-4.75,4.53-5.27,4.53.86C614.83,101.28,615.87,101.67,617.51,101.32Zm-8.21-9.67a3.11,3.11,0,1,1,3.11,3.06A3.1,3.1,0,0,1,609.3,91.65Zm12.87,10C628.56,88,617.77,87.59,610.6,88l.78-.61c11,1.13,22.15.69,22.15,14.3Zm-5.7-29.89.48-.3c6.39,0,14.29-.26,14.72,3.93a37.2,37.2,0,0,1,0,8.08c-.52,4.75-9.71,3.88-16.11,3.88l-.47-.3c3.37.22,8.55.39,9.59-3.19a22.7,22.7,0,0,0,.17-4.45c0-1.6,0-3.11-.17-4.41C624.33,71.44,619.84,71.61,616.47,71.78Z"/><path class="cls-10" d="M659.82,75.15V77A3.85,3.85,0,0,1,656,80.81H637.8A3.85,3.85,0,0,1,634,77V75.15a3.74,3.74,0,0,1,3.84-3.71H656A3.74,3.74,0,0,1,659.82,75.15ZM634,97.82v-2c1.9.73,2.72-.39,2.72-2.9,0-6.13,4.53-5.61,4.53-.86v7.13c0,1.46-.52,2.41-1.6,2.46H637.8A3.85,3.85,0,0,1,634,97.82Zm1.94-13A3.11,3.11,0,1,1,639,87.85,3.09,3.09,0,0,1,635.9,84.78Zm19.78-1.16v1.16c0,1.34-1.43,2.42-3.2,2.42h-6.39c-1.77,0-3.24-1.08-3.24-2.42V83.62c0-1.3,1.47-2.34,3.24-2.34h6.39C654.25,81.28,655.68,82.32,655.68,83.62Z"/><path class="cls-10" d="M686.12,75.15V77a3.86,3.86,0,0,1-3.85,3.84H664.09A3.85,3.85,0,0,1,660.25,77V75.15a3.74,3.74,0,0,1,3.84-3.71h18.18A3.75,3.75,0,0,1,686.12,75.15Zm0,15v7.68a3.86,3.86,0,0,1-3.85,3.85H664.09a3.86,3.86,0,0,1-3.84-3.85v-2c1.9.73,2.72-.39,2.72-2.9,0-6.13,4.54-5.61,4.54-.86,0,11.4,15.37,10.45,17.57,5.4,2.38-5.44-4.45-5.66-9-7.56-1-.43-1.55-1.17,0-1.17h8.55A1.45,1.45,0,0,1,686.12,90.14Zm-3.59-6.52v1.16c0,1.34-1.42,2.42-3.19,2.42H664.09c-1.77,0-3.23-1.08-3.23-2.42V83.62c0-1.3,1.46-2.34,3.23-2.34h15.25C681.11,81.28,682.53,82.32,682.53,83.62Z"/><path class="cls-10" d="M712.41,75.15V77a3.85,3.85,0,0,1-3.84,3.84H690.39A3.85,3.85,0,0,1,686.55,77V75.15a3.74,3.74,0,0,1,3.84-3.71h18.18A3.74,3.74,0,0,1,712.41,75.15Zm0,15v7.68a3.85,3.85,0,0,1-3.84,3.85H690.39a3.85,3.85,0,0,1-3.84-3.85v-2c1.9.73,2.72-.39,2.72-2.9,0-6.13,4.53-5.61,4.53-.86,0,11.4,15.37,10.45,17.58,5.4,2.37-5.44-4.45-5.66-9-7.56-1-.43-1.55-1.17,0-1.17h8.55A1.45,1.45,0,0,1,712.41,90.14Zm-23.92-5.36a3.11,3.11,0,1,1,3.11,3.07A3.09,3.09,0,0,1,688.49,84.78Z"/><path class="cls-10" d="M734.39,75.15V77a3.85,3.85,0,0,1-3.84,3.84H716.68A3.85,3.85,0,0,1,712.84,77V75.15a3.74,3.74,0,0,1,3.84-3.71h13.87A3.74,3.74,0,0,1,734.39,75.15ZM728.6,95.79v5.88l-3.84,0h-.3a.6.6,0,0,1-.31,0h-1.81l-3.84,0V95.84c1.9.73,2.72-.39,2.72-2.9a8.34,8.34,0,0,1,.34-2.5c.87-3.2,4.32-2.89,4.32,2.46C725.88,95.4,726.7,96.53,728.6,95.79ZM720.48,84.7a3.11,3.11,0,1,1,3.11,3.06A3.1,3.1,0,0,1,720.48,84.7Z"/><path class="cls-10" d="M775.28,75.15V77a3.86,3.86,0,0,1-3.85,3.84h-6.86A3.86,3.86,0,0,1,760.72,77V75.15a3.75,3.75,0,0,1,3.85-3.71h6.86A3.75,3.75,0,0,1,775.28,75.15ZM783,89.06v8.76a3.86,3.86,0,0,1-3.85,3.85H764.57a3.86,3.86,0,0,1-3.85-3.85v-2c1.9.73,2.72-.39,2.72-2.9,0-6.13,4.54-5.61,4.54-.86,0,11.4,14.25,11.27,14.25,4.19,0-5.31-7.39-6.18-10.06-7.21-.78-.26,0-.69.82-.69h9.24A.73.73,0,0,1,783,89.06Zm-20.34-4.28a3.11,3.11,0,1,1,3.11,3.07A3.09,3.09,0,0,1,762.67,84.78Z"/><path class="cls-10" d="M811,95.84v2a3.86,3.86,0,0,1-3.85,3.85h-19.9a3.86,3.86,0,0,1-3.85-3.85v-2c1.9.73,2.72-.39,2.72-2.9,0-6.13,4.54-5.61,4.54-.86,0,5.83,2.94,9.07,6.56,9.07s6.52-3.24,6.52-9.07c0-4.75,4.54-5.27,4.54.86C808.31,95.45,809.13,96.57,811,95.84ZM785.16,77V75.15A3.74,3.74,0,0,1,789,71.44h16.41a3.75,3.75,0,0,1,3.85,3.71V77a3.86,3.86,0,0,1-3.85,3.84H789A3.85,3.85,0,0,1,785.16,77Zm3.33,4.7a3.09,3.09,0,1,1-3.11,3.11A3.1,3.1,0,0,1,788.49,81.67Zm17.49,0a3.09,3.09,0,1,1-3.11,3.11A3.09,3.09,0,0,1,806,81.67Z"/><path class="cls-10" d="M837.32,75.15V77a3.85,3.85,0,0,1-3.84,3.84H815.3A3.85,3.85,0,0,1,811.46,77V75.15a3.74,3.74,0,0,1,3.84-3.71h18.18A3.74,3.74,0,0,1,837.32,75.15Zm0,15v7.68a3.86,3.86,0,0,1-3.84,3.85H815.3a3.85,3.85,0,0,1-3.84-3.85v-2c1.9.73,2.72-.39,2.72-2.9,0-6.13,4.53-5.61,4.53-.86,0,11.4,15.37,10.45,17.58,5.4,2.37-5.44-4.45-5.66-9-7.56-1-.43-1.55-1.17,0-1.17h8.55A1.45,1.45,0,0,1,837.32,90.14ZM813.4,84.78a3.11,3.11,0,1,1,3.11,3.07A3.09,3.09,0,0,1,813.4,84.78Z"/><path class="cls-10" d="M847.12,101.67h-9.37c0-16.84,5-17.36,16.54-17.36l.78.6C846.3,84.52,847.12,88.45,847.12,101.67Zm16.71-26.52V77A3.85,3.85,0,0,1,860,80.81H841.81A3.85,3.85,0,0,1,838,77V75.15a3.74,3.74,0,0,1,3.84-3.71H860A3.74,3.74,0,0,1,863.83,75.15Zm-7.21,16.93c0-4.75,4.53-5.27,4.53.86,0,2.46.78,6.31,2.64,5.75a3.89,3.89,0,0,1-3.76,3h-12v-.78C853,100.89,856.62,97.56,856.62,92.08Zm-.91-7.3a3.11,3.11,0,1,1,3.11,3.07A3.1,3.1,0,0,1,855.71,84.78Z"/><path class="cls-10" d="M885.85,75.15V77A3.85,3.85,0,0,1,882,80.81H868.15A3.86,3.86,0,0,1,864.3,77V75.15a3.75,3.75,0,0,1,3.85-3.71H882A3.74,3.74,0,0,1,885.85,75.15Zm-5.78,20.64v5.88l-3.85,0h-.3a.56.56,0,0,1-.3,0H873.8l-3.84,0V95.84c1.9.73,2.72-.39,2.72-2.9a8,8,0,0,1,.35-2.5c.86-3.2,4.31-2.89,4.31,2.46C877.34,95.4,878.17,96.53,880.07,95.79ZM872,84.7a3.11,3.11,0,1,1,3.11,3.06A3.09,3.09,0,0,1,872,84.7Z"/><path class="cls-10" d="M896.38,95.79v5.88h-10.1V95.84c1.9.73,2.72-.39,2.72-2.9a8,8,0,0,1,.35-2.5c.86-3.2,4.31-2.89,4.31,2.46C893.66,95.4,894.49,96.53,896.38,95.79ZM886.8,84V82.15a3.75,3.75,0,0,1,3.84-3.72H892a3.75,3.75,0,0,1,3.85,3.72V84A3.85,3.85,0,0,1,892,87.8h-1.38A3.85,3.85,0,0,1,886.8,84Zm1.51-9.41a3.11,3.11,0,1,1,3.11,3.06A3.09,3.09,0,0,1,888.31,74.55Z"/><path class="cls-10" d="M924.41,95.84v2a3.86,3.86,0,0,1-3.84,3.85H900.66a3.85,3.85,0,0,1-3.84-3.85v-2c1.89.73,2.72-.39,2.72-2.9,0-6.13,4.53-5.61,4.53-.86,0,5.83,2.94,9.07,6.56,9.07s6.52-3.24,6.52-9.07c0-4.75,4.54-5.27,4.54.86C921.69,95.45,922.51,96.57,924.41,95.84ZM898.54,77V75.15a3.75,3.75,0,0,1,3.85-3.71H918.8a3.74,3.74,0,0,1,3.84,3.71V77a3.85,3.85,0,0,1-3.84,3.84H902.39A3.86,3.86,0,0,1,898.54,77Zm3.33,4.7a3.09,3.09,0,1,1-3.11,3.11A3.1,3.1,0,0,1,901.87,81.67Zm17.49,0a3.09,3.09,0,1,1-3.11,3.11A3.1,3.1,0,0,1,919.36,81.67Z"/><path class="cls-10" d="M929.85,71.44a3.74,3.74,0,0,1,3.84,3.71V77a3.85,3.85,0,0,1-3.84,3.84h-1.17A3.85,3.85,0,0,1,924.84,77V75.15a3.74,3.74,0,0,1,3.84-3.71Zm10.75,30.23h-12a3.89,3.89,0,0,1-3.76-3c1.86.56,2.63-3.29,2.63-5.75,0-6.13,4.54-5.61,4.54-.86,0,5.48,3.63,8.81,8.55,8.81ZM926.74,84.78a3.11,3.11,0,1,1,3.11,3.07A3.09,3.09,0,0,1,926.74,84.78Zm6.65-13.47c11.53,0,17.53,1.55,17.53,30.36h-9.37c0-13.22-.17-30.15-8.94-29.76Z"/><path class="cls-10" d="M957.48,85a1.77,1.77,0,0,1-1.9,1.9,1.8,1.8,0,0,1-1.94-1.9,1.84,1.84,0,0,1,1.94-2A1.81,1.81,0,0,1,957.48,85Zm0,15.15a1.76,1.76,0,0,1-1.9,1.9,1.8,1.8,0,0,1-1.94-1.9,1.83,1.83,0,0,1,1.94-1.94A1.81,1.81,0,0,1,957.48,100.15Z"/><path class="cls-10" d="M412.57,147.61v5.87H402.46v-5.83c1.9.73,2.73-.39,2.73-2.89a8.36,8.36,0,0,1,.34-2.51c.86-3.19,4.32-2.89,4.32,2.46C409.85,147.22,410.67,148.34,412.57,147.61ZM403,135.77V134a3.74,3.74,0,0,1,3.85-3.71h1.38a3.74,3.74,0,0,1,3.84,3.71v1.81a3.86,3.86,0,0,1-3.84,3.85h-1.38A3.86,3.86,0,0,1,403,135.77Zm1.51-9.41a3.11,3.11,0,1,1,3.11,3.07A3.1,3.1,0,0,1,404.49,126.36Z"/><path class="cls-10" d="M418,123.25a3.74,3.74,0,0,1,3.84,3.71v1.82a3.85,3.85,0,0,1-3.84,3.84h-1.17a3.85,3.85,0,0,1-3.84-3.84V127a3.74,3.74,0,0,1,3.84-3.71Zm10.75,30.23h-12a3.9,3.9,0,0,1-3.76-3c1.86.56,2.64-3.28,2.64-5.74,0-6.14,4.53-5.62,4.53-.87,0,5.49,3.63,8.81,8.55,8.81ZM414.9,136.59a3.11,3.11,0,1,1,3.11,3.07A3.09,3.09,0,0,1,414.9,136.59Zm6.65-13.47c11.53,0,17.53,1.56,17.53,30.36h-9.37c0-13.22-.17-30.14-8.94-29.75Z"/><path class="cls-10" d="M487,127v1.82a3.85,3.85,0,0,1-3.84,3.84H469.26a3.85,3.85,0,0,1-3.84-3.84V127a3.74,3.74,0,0,1,3.84-3.71h13.86A3.74,3.74,0,0,1,487,127Zm-5.78,20.65v5.87l-3.85,0H477a.66.66,0,0,1-.3,0h-1.81l-3.85,0v-5.87c1.9.73,2.72-.39,2.72-2.89a8,8,0,0,1,.35-2.51c.86-3.19,4.32-2.89,4.32,2.46C478.46,147.22,479.28,148.34,481.18,147.61Zm-8.12-11.1a3.11,3.11,0,1,1,3.11,3.06A3.09,3.09,0,0,1,473.06,136.51Z"/><path class="cls-10" d="M487.39,128.78V127a3.75,3.75,0,0,1,3.85-3.71h1.38a3.74,3.74,0,0,1,3.84,3.71v1.82a3.85,3.85,0,0,1-3.84,3.84h-1.38A3.86,3.86,0,0,1,487.39,128.78Zm10.11,20.86.08,3.84H487.39v-5.83c1.9.73,2.72-.39,2.72-2.89,0-3.11,1.17-4.54,2.34-4.54s2.33,1.43,2.33,4.54c0,2.5.82,3.62,2.72,2.89Zm-1.95-13a3.11,3.11,0,1,1-3.1-3.1A3.08,3.08,0,0,1,495.55,136.59Zm5.23,3.24h-1.25c-1.77,0-3.24-1.08-3.24-2.41v-1.17c0-1.3,1.47-2.33,3.24-2.33h1.25c1.77,0,3.2,1,3.2,2.33v1.17C504,138.75,502.55,139.83,500.78,139.83Zm12,13.61h-4.23a.68.68,0,0,1-.3,0h-5.66v-5.83c1.9.73,2.72-.39,2.72-2.89a8,8,0,0,1,.35-2.51c.86-3.19,4.31-2.89,4.31,2.46,0,2.51.83,3.63,2.72,2.9v2Zm0-26.48v1.82a3.85,3.85,0,0,1-3.84,3.84h-1.38a3.86,3.86,0,0,1-3.85-3.84V127a3.75,3.75,0,0,1,3.85-3.71h1.38A3.74,3.74,0,0,1,512.74,127Zm-8.16,9.63a3.11,3.11,0,1,1,3.11,3.07A3.09,3.09,0,0,1,504.58,136.59Z"/><path class="cls-10" d="M539.17,127v1.82a3.86,3.86,0,0,1-3.85,3.84H517.14a3.85,3.85,0,0,1-3.84-3.84V127a3.74,3.74,0,0,1,3.84-3.71h18.18A3.75,3.75,0,0,1,539.17,127Zm0,15v7.69a3.86,3.86,0,0,1-3.85,3.84H517.14a3.85,3.85,0,0,1-3.84-3.84v-2c1.9.73,2.72-.39,2.72-2.89,0-6.14,4.53-5.62,4.53-.87,0,11.4,15.38,10.45,17.58,5.4,2.37-5.44-4.45-5.66-9-7.56-1-.43-1.56-1.16,0-1.16h8.55A1.45,1.45,0,0,1,539.17,142Zm-3.59-6.52v1.16c0,1.34-1.42,2.42-3.19,2.42H517.14c-1.77,0-3.24-1.08-3.24-2.42v-1.16c0-1.3,1.47-2.33,3.24-2.33h15.25C534.16,133.1,535.58,134.13,535.58,135.43Z"/><path class="cls-10" d="M591.37,127v1.82a3.86,3.86,0,0,1-3.85,3.84H569.34a3.85,3.85,0,0,1-3.84-3.84V127a3.74,3.74,0,0,1,3.84-3.71h18.18A3.75,3.75,0,0,1,591.37,127ZM565.5,149.64v-2c1.9.73,2.72-.39,2.72-2.89,0-6.14,4.53-5.62,4.53-.87V151c0,1.47-.51,2.42-1.59,2.46h-1.82A3.85,3.85,0,0,1,565.5,149.64Zm1.94-13a3.11,3.11,0,1,1,3.11,3.07A3.09,3.09,0,0,1,567.44,136.59Zm19.78-1.16v1.16c0,1.34-1.42,2.42-3.19,2.42h-6.4c-1.77,0-3.23-1.08-3.23-2.42v-1.16c0-1.3,1.46-2.33,3.23-2.33H584C585.8,133.1,587.22,134.13,587.22,135.43Z"/><path class="cls-10" d="M606.35,127v1.82a3.86,3.86,0,0,1-3.85,3.84h-6.86a3.86,3.86,0,0,1-3.85-3.84V127a3.75,3.75,0,0,1,3.85-3.71h6.86A3.75,3.75,0,0,1,606.35,127Zm7.73,13.91v8.77a3.86,3.86,0,0,1-3.85,3.84H595.64a3.86,3.86,0,0,1-3.85-3.84v-2c1.9.73,2.72-.39,2.72-2.89,0-6.14,4.54-5.62,4.54-.87,0,11.4,14.25,11.27,14.25,4.19,0-5.31-7.39-6.17-10.06-7.21-.78-.26,0-.69.82-.69h9.24A.73.73,0,0,1,614.08,140.87Zm-20.34-4.28a3.11,3.11,0,1,1,3.11,3.07A3.09,3.09,0,0,1,593.74,136.59Z"/><path class="cls-10" d="M642.1,147.65v2a3.85,3.85,0,0,1-3.84,3.84H618.35a3.85,3.85,0,0,1-3.84-3.84v-2c1.89.73,2.72-.39,2.72-2.89,0-6.14,4.53-5.62,4.53-.87,0,5.83,2.94,9.07,6.56,9.07s6.52-3.24,6.52-9.07c0-4.75,4.54-5.27,4.54.87C639.38,147.26,640.2,148.38,642.1,147.65Zm-25.87-18.87V127a3.75,3.75,0,0,1,3.85-3.71h16.41a3.74,3.74,0,0,1,3.84,3.71v1.82a3.85,3.85,0,0,1-3.84,3.84H620.08A3.86,3.86,0,0,1,616.23,128.78Zm3.33,4.71a3.09,3.09,0,1,1-3.11,3.1A3.1,3.1,0,0,1,619.56,133.49Zm17.49,0a3.09,3.09,0,1,1-3.11,3.1A3.1,3.1,0,0,1,637.05,133.49Z"/><path class="cls-10" d="M670.12,147.65v2a3.85,3.85,0,0,1-3.84,3.84H646.37a3.85,3.85,0,0,1-3.84-3.84v-2c1.9.73,2.72-.39,2.72-2.89,0-6.14,4.53-5.62,4.53-.87,0,5.83,2.94,9.07,6.56,9.07s6.52-3.24,6.52-9.07c0-4.75,4.54-5.27,4.54.87C667.4,147.26,668.22,148.38,670.12,147.65Zm-25.87-18.87V127a3.75,3.75,0,0,1,3.85-3.71h16.41a3.74,3.74,0,0,1,3.84,3.71v1.82a3.85,3.85,0,0,1-3.84,3.84H648.1A3.86,3.86,0,0,1,644.25,128.78Zm3.33,4.71a3.09,3.09,0,1,1-3.11,3.1A3.09,3.09,0,0,1,647.58,133.49Zm17.49,0a3.09,3.09,0,1,1-3.11,3.1A3.1,3.1,0,0,1,665.07,133.49Z"/><path class="cls-10" d="M696.41,128.78v20.86a3.85,3.85,0,0,1-3.84,3.84H674.39a3.85,3.85,0,0,1-3.84-3.84v-2c1.9.73,2.72-.39,2.72-2.89,0-6.14,4.53-5.62,4.53-.87,0,11.4,17.84,12.61,17.84.09,0-6.65.3-11.36-7.43-11.36H674.39a3.85,3.85,0,0,1-3.84-3.84V127a3.74,3.74,0,0,1,3.84-3.71h18.18a3.74,3.74,0,0,1,3.84,3.71Zm-23.92,7.81a3.11,3.11,0,1,1,3.11,3.07A3.09,3.09,0,0,1,672.49,136.59Z"/><path class="cls-10" d="M744.77,123.25a3.74,3.74,0,0,1,3.84,3.71v1.82a3.85,3.85,0,0,1-3.84,3.84H726.59a3.85,3.85,0,0,1-3.84-3.84V127a3.74,3.74,0,0,1,3.84-3.71Zm-5.4,10.49c-3.49,0-8.55-.25-10.84.87-3.06,1.51-5,4.36-5,9.37,0,6.82,17.83,11.31,17.83-.09,0-4.75,4.53-5.27,4.53.87,0,2.5.82,3.62,2.72,2.89v2a3.85,3.85,0,0,1-3.84,3.84H726.59a3.85,3.85,0,0,1-3.84-3.84V144c0-4.19,1.9-8.47,5.78-10.24,1.43-.64,2.55-.69,10-.69C739.37,133.05,740.15,133.74,739.37,133.74Zm1.08,2.85a3.11,3.11,0,1,1,3.11,3.07A3.09,3.09,0,0,1,740.45,136.59Z"/><path class="cls-10" d="M776.64,147.65v2a3.86,3.86,0,0,1-3.85,3.84h-19.9a3.86,3.86,0,0,1-3.85-3.84v-2c1.9.73,2.72-.39,2.72-2.89,0-6.14,4.54-5.62,4.54-.87,0,5.83,2.93,9.07,6.56,9.07s6.52-3.24,6.52-9.07c0-4.75,4.54-5.27,4.54.87C773.92,147.26,774.74,148.38,776.64,147.65Zm-25.87-18.87V127a3.74,3.74,0,0,1,3.84-3.71H771a3.75,3.75,0,0,1,3.85,3.71v1.82a3.86,3.86,0,0,1-3.85,3.84H754.61A3.85,3.85,0,0,1,750.77,128.78Zm3.33,4.71a3.09,3.09,0,1,1-3.11,3.1A3.09,3.09,0,0,1,754.1,133.49Zm17.48,0a3.09,3.09,0,1,1-3.1,3.1A3.09,3.09,0,0,1,771.58,133.49Z"/><path class="cls-10" d="M782.07,123.25a3.75,3.75,0,0,1,3.85,3.71v1.82a3.86,3.86,0,0,1-3.85,3.84h-1.16a3.86,3.86,0,0,1-3.85-3.84V127a3.75,3.75,0,0,1,3.85-3.71Zm10.76,30.23h-12a3.89,3.89,0,0,1-3.75-3c1.85.56,2.63-3.28,2.63-5.74,0-6.14,4.54-5.62,4.54-.87,0,5.49,3.62,8.81,8.55,8.81ZM779,136.59a3.11,3.11,0,1,1,3.11,3.07A3.1,3.1,0,0,1,779,136.59Zm6.65-13.47c11.53,0,17.54,1.56,17.54,30.36h-9.37c0-13.22-.18-30.14-8.94-29.75Z"/><path class="cls-10" d="M829.44,127v1.82a3.85,3.85,0,0,1-3.84,3.84H807.42a3.85,3.85,0,0,1-3.84-3.84V127a3.74,3.74,0,0,1,3.84-3.71H825.6A3.74,3.74,0,0,1,829.44,127Zm0,15v7.69a3.85,3.85,0,0,1-3.84,3.84H807.42a3.85,3.85,0,0,1-3.84-3.84v-2c1.9.73,2.72-.39,2.72-2.89,0-6.14,4.53-5.62,4.53-.87,0,11.4,15.37,10.45,17.58,5.4,2.37-5.44-4.45-5.66-9-7.56-1-.43-1.55-1.16,0-1.16H828A1.45,1.45,0,0,1,829.44,142Zm-3.58-6.52v1.16c0,1.34-1.43,2.42-3.2,2.42H807.42c-1.77,0-3.24-1.08-3.24-2.42v-1.16c0-1.3,1.47-2.33,3.24-2.33h15.24C824.43,133.1,825.86,134.13,825.86,135.43Z"/><path class="cls-10" d="M832.07,121.48c1.43,0,2.25.13,2.25.39,0,8.42-1.64,14.38-1.64,22.8h-1.13c0-8.42-1.68-14.38-1.68-22.8C829.87,121.65,830.6,121.48,832.07,121.48ZM834,152a1.81,1.81,0,0,1-1.95,1.9,1.77,1.77,0,0,1-1.9-1.9,1.8,1.8,0,0,1,1.9-1.95A1.85,1.85,0,0,1,834,152Z"/><path class="cls-10" d="M868,129.12a.28.28,0,0,1-.09.22l-.52.52c-.17.17-1.86-1.86-2.94-3,.13,1.68.57,4.53.26,4.53l-.73.05a.3.3,0,0,1-.26-.09s-.09-.09,0-.22l.47-4.23c-1,1.08-2.68,3.11-2.89,2.94l-.52-.52a.28.28,0,0,1-.09-.22.17.17,0,0,1,.09-.17l3.11-2.2-3.11-2.2a.24.24,0,0,1-.09-.22.29.29,0,0,1,.09-.22l.52-.51c.21-.22,1.86,1.9,2.94,3-.13-1.69-.57-4.58-.26-4.58l.77,0a.24.24,0,0,1,.22.09c.09,0,.09.08.09.21l-.57,4.28c1.08-1.08,2.77-3.2,2.94-3l.52.51a.29.29,0,0,1,.09.22.24.24,0,0,1-.09.22l-3.11,2.2,3.11,2.2A.17.17,0,0,1,868,129.12Z"/><path class="cls-10" d="M455.27,241.15c0,.85-1.81.26-1.81.73,0,.21.73,1.14.73,1.58s-1.11.79-1.24.79c-.51,0-.7-1.72-1.06-1.72s-1.17,1.19-1.58,1.19-.93-.8-.93-1c0-.59,1.32-1.1,1.32-1.43s-1.41-.45-1.41-1.07c0-.22.41-1.13.75-1.13s1.22.74,1.43.74.23-.59.25-.71c0-.39,0-1,.56-1,.34,0,1.07.08,1.07.54s-.29,1.12-.29,1.41a.16.16,0,0,0,.16.14c.37,0,1.09-.22,1.48-.22s.49.34.52.71Z"/><path class="cls-10" d="M471.32,238.2c-1.41,0-2.21,2.53-2.45,3.62a27,27,0,0,0-.68,5c0,1.42.21,3.45,2,3.45.47,0,.93-.13,1.41-.13s.49.32.49.66c0,1.06-1.36,1-2.11,1-4,0-5.3-3-5.3-6.56a9.89,9.89,0,0,1,1.41-5.54,6.05,6.05,0,0,1,4.83-3.07c.7,0,1.85.17,1.85,1.08a.52.52,0,0,1-.49.58C472,238.33,471.7,238.2,471.32,238.2Z"/><path class="cls-10" d="M481.15,246.17c.61,0,.71.54.71,1,0,.92-.52,3.74-1.82,3.74a.57.57,0,0,1-.57-.39c-.06-.08-.11-.22-.19-.27a3,3,0,0,0-.85-.07h-3.67c-.62,0-2,.16-2-.8a1.41,1.41,0,0,1,.54-1c.9-.82,4.29-3.73,4.29-5.17a.71.71,0,0,0-.75-.75c-1.07,0-1.92,1.31-2.64,1.31a1,1,0,0,1-.88-1c.13-1.49,3.55-2.84,5.37-2.84,1.33,0,3,.55,3,2.14A2.85,2.85,0,0,1,481,244c-.66.9-2.55,2.42-2.62,2.87s.51.34.79.34c.49,0,.73.05,1.05-.27S480.67,246.17,481.15,246.17Z"/><path class="cls-10" d="M483,246c0-3.08,2-6,5.32-6,2.46,0,3.91,1.77,3.91,4.34,0,3.07-2,6-5.32,6C484.46,250.33,483,248.56,483,246Zm4.84,1.85a27,27,0,0,0,.7-5.15c0-.41,0-1-.58-1-.29,0-.63.2-.76.74a22.66,22.66,0,0,0-.68,5.15c0,.41,0,1,.56,1C487.39,248.6,487.73,248.39,487.86,247.85Z"/><path class="cls-10" d="M497.91,251.74c-.19.41-.27.63-.78.63s-2.69-.73-2.69-1.48a1.25,1.25,0,0,1,.26-.63l3.24-5.62a3.22,3.22,0,0,0,.48-1.09c0-.59-1.43-.46-1.78-.46-.85,0-1.14-.05-1.43.63-.22.46-.31.73-.89.73s-.86-.53-.91-1.1c-.07-.82.85-3.56,1.9-3.63.54,0,.32.36,1.51.36h3.83c.37,0,.74-.07,1.12-.07s1.05.09,1.05.68a3.27,3.27,0,0,1-.37,1.09Z"/><path class="cls-10" d="M503.08,246c0-3.08,2-6,5.32-6,2.46,0,3.91,1.77,3.91,4.34,0,3.07-2,6-5.32,6C504.52,250.33,503.08,248.56,503.08,246Zm4.84,1.85a27,27,0,0,0,.7-5.15c0-.41,0-1-.58-1-.29,0-.63.2-.76.74a22.66,22.66,0,0,0-.68,5.15c0,.41,0,1,.56,1C507.45,248.6,507.79,248.39,507.92,247.85Z"/><path class="cls-10" d="M521.42,251.78c-1.07,0-3.38-.33-3.38-1.75,0-.33.25-.77.61-.77s1,.56,2.07.56a2,2,0,0,0,2.25-2c0-1.1-.53-1.12-1.21-1.08-.85.05-1.12-.06-1.12-1,0-.43,0-.65.44-.79.75-.22,1.65-.78,1.65-1.66a.75.75,0,0,0-.82-.8c-1.17,0-1.71,1.19-2.34,1.19a1,1,0,0,1-.83-1c0-.86,1.17-1.54,1.85-1.9a6.71,6.71,0,0,1,3.18-.87c1.37,0,2.89.62,2.89,2.21,0,1.31-1,2-1,2.26,0,.48,1.39.7,1.39,2.38C527,250,524.38,251.78,521.42,251.78Z"/><path class="cls-10" d="M534.61,239.45a.6.6,0,0,1-.2.34,8.71,8.71,0,0,0-1.8,2.65c-.16.46,0,.52.08.5a3.78,3.78,0,0,1,1.89-.56c1.72,0,2.62,1.41,2.62,3a4.84,4.84,0,0,1-4.83,4.94c-2.45,0-3.84-2-3.84-4.3a9.09,9.09,0,0,1,1.39-4.55c.51-.82,2.18-2.76,3.2-2.76C533.39,238.72,534.61,239.11,534.61,239.45ZM532,247.1c0,.44,0,1.55.66,1.55.87,0,1.2-2.13,1.2-2.75,0-.45,0-1.57-.66-1.57C532.34,244.33,532,246.47,532,247.1Z"/><path class="cls-10" d="M539.08,239.89a1.68,1.68,0,0,1,1.82-1.83c1.38,0,2,1,2,2.29,0,1.86-1.89,4.51-2.71,4.51a1.17,1.17,0,0,1-.86-.82.61.61,0,0,1,.17-.39,3.46,3.46,0,0,0,.85-1.6C540.38,241.37,539.08,241.59,539.08,239.89Zm4.44,0a1.68,1.68,0,0,1,1.82-1.83c1.38,0,2,1,2,2.29,0,1.86-1.88,4.51-2.7,4.51a1.17,1.17,0,0,1-.87-.82.66.66,0,0,1,.17-.39,3.46,3.46,0,0,0,.85-1.6C544.81,241.37,543.52,241.59,543.52,239.89Z"/><path class="cls-10" d="M552.67,247.07a5.61,5.61,0,0,1,5.78-5.65c2.12,0,3.87,1.14,3.87,3.37a5.6,5.6,0,0,1-5.78,5.64C554.42,250.43,552.67,249.3,552.67,247.07Zm4.21-2.23a17,17,0,0,0-.34,3c0,.39.1.78.55.78.71,0,.85-1,.95-1.53a18.5,18.5,0,0,0,.41-3c0-.39-.09-.83-.56-.83C557.17,243.23,557,244.31,556.88,244.84Z"/><path class="cls-10" d="M569.56,244.43c0,.48,0,.56-.45.56s-.53.16-.62.65l-.66,5.24c0,.68.1,1.25-.53,1.68a5.91,5.91,0,0,1-2.56.7c-.65,0-1.57-.24-1.57-1a.78.78,0,0,1,.31-.63c.42-.39.36-.55.49-1.14a28.73,28.73,0,0,0,.8-5.07c0-.51-.42-.42-.8-.42-.56,0-.68,0-.68-.33,0-.1,0-.3,0-.51l0-.56c0-.3,0-.51.37-.49s.87.09.87-.2-.77-.67-.77-2c0-1.89,1.94-2.85,3.61-2.85,1.07,0,2.34.56,2.34,1.8a1.38,1.38,0,0,1-1.36,1.48,2.08,2.08,0,0,1-1.46-.67c-.17-.13-.41-.39-.64-.39a.46.46,0,0,0-.45.48.94.94,0,0,0,.77.83,2.5,2.5,0,0,1,1.92,1.26c.12.32.12.27.49.27.56,0,.6,0,.55.58Z"/><path class="cls-10" d="M575,246.85c0-.84.41-1.58,1.33-1.58s1.12.8,1.37,1.46.82,1.61,1.74,1.61a1,1,0,0,0,1.14-1c0-1.49-4.05-2.12-4.05-5.37,0-2.55,2.28-3.94,4.63-3.94a9.19,9.19,0,0,1,1.71.29c.22,0,.53-.29,1-.29,1,0,1.83,1.55,1.83,2.43a1.38,1.38,0,0,1-1.32,1.44c-1.25,0-1.6-1.76-2.74-1.76a.71.71,0,0,0-.8.71c0,.63.56,1,1,1.22,1.75,1,3.42,1.79,3.42,4.05,0,3-3.06,4.32-5.64,4.32C577.45,250.47,575,249.41,575,246.85Z"/><path class="cls-10" d="M595.28,243.45c0,2.05-2.29,3.65-4.21,3.65-.24,0-.66,0-.66.36s.61.76,1,.76c1.23,0,2.16-1,2.71-1a.76.76,0,0,1,.68.72c0,.9-1.14,1.46-1.84,1.78a6.89,6.89,0,0,1-2.94.68c-2.07,0-3.88-.9-3.79-3.18.15-3.53,3.45-5.83,6.54-5.83C594.15,241.42,595.28,242,595.28,243.45Zm-4.91,1.78c0,.21.07.48.31.48.47,0,1.31-1.26,1.26-2.08,0-.22-.12-.52-.39-.52C590.85,243.11,590.37,244.69,590.37,245.23Z"/><path class="cls-10" d="M605.54,242.16c-.07,1-.38,2.55-.51,4.38a3.32,3.32,0,0,0,0,1.09c.07.2.19.19.38.2s.42.16.42.43c0,1.1-2.48,2.09-3.42,2.09-1.51,0-.78-1.45-1.32-1.45s-1.28,1.53-3,1.53c-1.56,0-2.21-1.37-2.14-2.75.14-3.06,2-5.92,4.66-6.15,1.19-.12,1.67.69,2.16.69a1.65,1.65,0,0,0,.64-.27,3.18,3.18,0,0,1,1.45-.44C605.31,241.51,605.57,241.68,605.54,242.16Zm-3.45,1.8c0-.22-.07-.56-.34-.55-.91.07-2,2.6-2,3.69,0,.26,0,.7.39.66C601,247.7,602.12,244.81,602.09,244Z"/><path class="cls-10" d="M613.9,250.21s-.25,0-.54,0-.63,0-1,0c-.65,0-1.21-.25-1.21-1,0-1,1-.58,1.4-1.61a37.7,37.7,0,0,0,1-6.94c0-.73-1.23-.41-1.23-1.38s1.24-1.17,4.47-1.17c2.14,0,2.48.41,2.48,1,0,1.53-1.54-.21-1.78,2.6l-.41,5a2.58,2.58,0,0,0,0,1c.19.44,1,.38,1.41.38,2.16,0,1.78-2.08,3-2.08.73,0,1,.48,1,1.17,0,.91-.6,3.15-1.76,3.15a1.74,1.74,0,0,1-.61-.1,2.49,2.49,0,0,0-.69-.09Z"/><path class="cls-10" d="M631.78,243.45c0,2.05-2.29,3.65-4.21,3.65-.24,0-.67,0-.67.36s.62.76,1,.76c1.23,0,2.16-1,2.7-1a.75.75,0,0,1,.68.72c0,.9-1.13,1.46-1.83,1.78a6.89,6.89,0,0,1-2.94.68c-2.08,0-3.88-.9-3.79-3.18.15-3.53,3.45-5.83,6.54-5.83C630.64,241.42,631.78,242,631.78,243.45Zm-4.91,1.78c0,.21.07.48.31.48.47,0,1.31-1.26,1.25-2.08,0-.22-.11-.52-.39-.52C627.35,243.11,626.87,244.69,626.87,245.23Z"/><path class="cls-10" d="M637,245.84c-.1.74-.51,2.45.72,2.45,1.42,0,2-2,2-3.21s-.91-1.89-.91-2.58.85-1,1.47-1c1.16,0,1.48.85,1.48,1.88,0,3.39-1.76,7-5.59,7-1.55,0-3.18-.8-3.18-2.55,0-1.12.51-3.07.51-3.58,0-.31-.13-.44-.44-.46s-.61,0-.61-.48c0-1.34,2.8-1.85,3.81-1.85.69,0,1.15.24,1.15,1A24.42,24.42,0,0,1,637,245.84Z"/><path class="cls-10" d="M651.42,243.45c0,2.05-2.3,3.65-4.22,3.65-.24,0-.66,0-.66.36s.61.76,1,.76c1.22,0,2.16-1,2.7-1a.75.75,0,0,1,.68.72c0,.9-1.14,1.46-1.84,1.78a6.89,6.89,0,0,1-2.94.68c-2.07,0-3.87-.9-3.79-3.18.16-3.53,3.45-5.83,6.55-5.83C650.28,241.42,651.42,242,651.42,243.45Zm-4.91,1.78c0,.21.06.48.3.48.48,0,1.31-1.26,1.26-2.08,0-.22-.12-.52-.39-.52C647,243.11,646.51,244.69,646.51,245.23Z"/><path class="cls-10" d="M656.54,247.1c0,.21,0,.6.28.6s.34,0,.51,0,.38.29.38.52c0,1.41-2.77,2.16-3.88,2.16-.91,0-1.48-.42-1.37-1.65.23-2.75.76-5.88,1-7.87,0-.27,0-.4-.32-.4s-.27,0-.41,0c-.34,0-.53-.15-.53-.49,0-.85.79-1.13,1.47-1.35a10.13,10.13,0,0,1,2.82-.54c.59,0,1,.15,1,.82Z"/><path class="cls-10" d="M668.61,247.66c0,.46,0,.65.4.87s.56.27.56.66c0,1.21-2.58,1.16-3.38,1.16s-3.21.08-3.21-1.19a.62.62,0,0,1,.51-.65c.54-.18.54-.25.8-.85a25.17,25.17,0,0,0,.9-7.15c-.05-.29-.19-.31-.44-.38-.45-.12-.68-.17-.68-.69,0-1,1-1.13,1.73-1.16h5.59c1.94-.05,3.52.61,3.67,2.62.16,2.19-1.75,2.56-1.75,3,0,.24.17.31.34.44.36.26.6.39.75.83.31.94.17,2.15.41,2.93a.57.57,0,0,0,.44.44c.29.12.66.22.66.58,0,1-1.68,1.24-2.41,1.24-3.59,0-2.68-2.87-3.3-4.74a.86.86,0,0,0-.91-.55c-.43,0-.48.05-.53.48Zm.45-4.94c0,.37-.06.59.41.59,1,0,1.19-1.44,1.19-2.21s-.17-1.12-.9-1.12c-.49,0-.44.46-.49.85Z"/><path class="cls-10" d="M677.72,245.39a7.25,7.25,0,0,0,.15-.94c0-.22-.08-.34-.37-.34s-.67,0-.67-.59.79-1.06,1.35-1.3a9,9,0,0,1,3-.71.68.68,0,0,1,.77.78,22,22,0,0,1-.29,2.42c0,.18-.34,2.14-.42,2.8,0,.32.18.32.45.32s.57,0,.57.43c0,1.29-2.69,2.07-3.66,2.07-.65,0-1.38-.39-1.38-1.1a5,5,0,0,1,.11-.95Zm-.1-5.51c0-1.36,2.43-2.06,3.51-2.06.62,0,1.43.24,1.42,1,0,1.24-2.4,2.09-3.42,2C678.55,240.78,677.62,240.63,677.62,239.88Z"/><path class="cls-10" d="M689.41,244.09c-.68,0-.68-1-1.32-1a.5.5,0,0,0-.53.49c0,1.11,2.43,1.92,2.43,4s-2.48,2.87-4.2,2.87c-1.09,0-3.09-.3-3.09-1.73,0-.51.32-1.21.9-1.21s.59,1.14,1.44,1.14c.34,0,.74-.18.74-.56,0-.9-2.13-1.78-2.13-3.69s2.33-3,4.08-3c.88,0,2.58.29,2.58,1.43C690.31,243.36,690,244.09,689.41,244.09Z"/><path class="cls-10" d="M699.92,243.45c0,2.05-2.3,3.65-4.22,3.65-.24,0-.66,0-.66.36s.61.76,1,.76c1.22,0,2.16-1,2.7-1a.75.75,0,0,1,.68.72c0,.9-1.14,1.46-1.84,1.78a6.89,6.89,0,0,1-2.94.68c-2.07,0-3.87-.9-3.79-3.18.16-3.53,3.45-5.83,6.55-5.83C698.78,241.42,699.92,242,699.92,243.45ZM695,245.23c0,.21.06.48.3.48.48,0,1.31-1.26,1.26-2.08,0-.22-.12-.52-.39-.52C695.48,243.11,695,244.69,695,245.23Z"/><path class="cls-10" d="M704.37,248.51a2,2,0,0,1-2,2,1.83,1.83,0,0,1-1.85-2,2,2,0,0,1,2-1.88A1.77,1.77,0,0,1,704.37,248.51Z"/><path class="cls-10" d="M709.39,248.51a2,2,0,0,1-2,2,1.84,1.84,0,0,1-1.85-2,2,2,0,0,1,2-1.88A1.77,1.77,0,0,1,709.39,248.51Z"/><path class="cls-10" d="M714.4,248.51a2,2,0,0,1-2,2,1.83,1.83,0,0,1-1.85-2,2,2,0,0,1,2-1.88A1.77,1.77,0,0,1,714.4,248.51Z"/><path class="cls-10" d="M450.09,267.79c-.85.07-1,.31-1,.75s1,.15,1,1.07c0,.6-.25,1.14-3.16,1.14-.83,0-2.12,0-2.12-1.12s.81-.33,1.54-1.53c1.53-2.55,3.69-5.58,4.29-8.26.25-1.18.91-1.38,2-1.38,1.56,0,2.21.85,2.7,2.23s1.5,5.95,1.79,7.2,1.24.51,1.24,1.65c0,1.33-2.74,1.21-3.59,1.21s-2.65.12-2.65-1,1.09-.56,1.09-1.36c0-.52-.41-.59-.8-.61Zm2-2c.49,0,.56-.17.56-.45,0-.69-.54-2.38-.83-2.38s-1.34,2.25-1.34,2.54.25.25.51.29Z"/><path class="cls-10" d="M470.54,265.22c0-.3-.15-.54-.48-.54-1.24,0-1.46,2.58-1.56,3.62-.17,1.87-.54,2.31-2.74,2.43-.61,0-1.24-.13-1.24-.88s.78-3.4.73-4.88c0-.34-.12-.54-.47-.54h-.17c-.34,0-.48-.21-.48-.55s.5-.81.87-1a8.13,8.13,0,0,1,3.09-.93c1,0,.58,1.49,1.11,1.49s1.82-1.51,3.3-1.51a1.75,1.75,0,0,1,1.93,1.65c0,1.21-.59,3.25-.59,4.28,0,.68.81.26.81.92,0,1.24-2.56,2-3.53,2a1.07,1.07,0,0,1-1.23-1.14,20.55,20.55,0,0,1,.45-2.85Z"/><path class="cls-10" d="M485.28,266.77a4.27,4.27,0,0,0-.1.78c0,.38.18.51.52.51s.6,0,.6.46c0,1.31-2.84,2.21-3.88,2.21s-.57-1.51-1.17-1.51c-.37,0-1.82,1.58-3.59,1.51-1,0-1.48-.64-1.51-1.75a33.15,33.15,0,0,1,.49-3.52c.05-.44.17-.83-.39-.9-.34,0-.71-.08-.71-.52,0-.68.95-1.18,1.46-1.42a6.73,6.73,0,0,1,2.74-.69c.64,0,.86.34.86,1a30.09,30.09,0,0,1-.49,3.16c0,.22-.46,1.9.27,1.9.55,0,.94-.68,1.13-1.09.69-1.59.37-3.74,1.13-4.37a4.38,4.38,0,0,1,2.32-.59c.52,0,1,.15,1,.73,0,.22-.07.63-.08.85Z"/><path class="cls-10" d="M497.18,263.12c0,.12,0,.32.19.32s1.46-1.53,3.28-1.53a1.6,1.6,0,0,1,1.7,1.7c0,1-.56,3.38-.56,4.15s.9.15.9.9c0,1.26-2.55,2-3.47,2.07s-1.17-.47-1.26-1.2c0-1.48.56-2.93.56-4.29,0-.3-.08-.54-.42-.54-1.31,0-1.33,2.41-1.41,3.21a4.88,4.88,0,0,1-.5,2.07,3.74,3.74,0,0,1-2.53.75c-.71,0-1-.22-1-1,0-1.34.65-3,.65-4.43,0-.36,0-.63-.46-.63-1.19,0-1.35,2.89-1.4,3.65-.15,1.67,0,2.2-2.89,2.4-.66.05-1.12-.17-1.12-.92s.68-3.36.68-4.79c0-.33-.05-.56-.41-.56s-.81,0-.81-.53.85-1,1.32-1.24a6.29,6.29,0,0,1,2.64-.8c.61,0,.87.41.92,1,0,.15,0,.56.25.56.41,0,1.79-1.53,3.38-1.53A1.78,1.78,0,0,1,497.18,263.12Z"/><path class="cls-10" d="M508.55,261c-.05.58-.17,1.19-.17,1.79,0,.13.05.3.21.3.32,0,1.05-1.27,2.43-1.27,1.7,0,2.36,1.55,2.28,3-.21,3.36-2.32,6-6.14,6-1.4,0-3.13-.51-3.13-2.19a21.67,21.67,0,0,1,.39-2.85,28.07,28.07,0,0,0,.43-4.19c0-.47,0-.64-.51-.68s-.72-.06-.72-.66.67-1,1.26-1.17a11.62,11.62,0,0,1,2.94-.63c1,0,.92.49.85,1.44Zm-.85,7.46c0,.24.07.58.38.58,1.05,0,1.41-3.31,1.39-3.6s0-.95-.48-.95C508,264.48,507.65,268.17,507.7,268.45Z"/><path class="cls-10" d="M522.76,263.85c0,2-2.29,3.65-4.21,3.65-.24,0-.66,0-.66.36s.61.76,1,.76c1.23,0,2.16-1,2.71-1a.74.74,0,0,1,.67.71c0,.9-1.13,1.46-1.83,1.78a6.89,6.89,0,0,1-2.94.68c-2.08,0-3.88-.9-3.79-3.17.15-3.54,3.45-5.83,6.54-5.83C521.63,261.83,522.76,262.35,522.76,263.85Zm-4.91,1.78c0,.21.07.48.31.48.47,0,1.31-1.26,1.26-2.07,0-.23-.12-.53-.4-.53C518.33,263.51,517.85,265.09,517.85,265.63Z"/><path class="cls-10" d="M528.29,268.35c.1,1.65-.61,2.3-2.94,2.4-.63,0-1.31-.14-1.31-.9,0-1,.68-3.15.71-4.73,0-.46,0-.59-.49-.59s-.8-.14-.8-.75c0-.92,1.38-1.19,2-1.51a3.52,3.52,0,0,1,1.57-.44c1,0,.58,1.61,1.12,1.61s.44-1.63,2-1.63a1.92,1.92,0,0,1,1.86,2c0,1-.51,2-1.67,2a1.15,1.15,0,0,1-1.14-.73c0-.1-.2-.41-.34-.41s-.34.72-.36.87Z"/><path class="cls-10" d="M544.18,269.39c-.25,0-1.56,1.44-3.6,1.44a2.32,2.32,0,0,1-2.46-2.53c0-1.09.49-3,.49-3.52s-.14-.42-.51-.46-.48-.28-.48-.62c0-.69.58-.92,1.14-1.13a10.36,10.36,0,0,1,2.93-.66c.73,0,.9.46.9,1.12,0,1.07-.5,2.72-.63,3.89-.07.77,0,1.52.47,1.52,1.53,0,1.86-3.45,1.87-4.44,0-1.82,1.33-2,3.1-2.07.63,0,.93.15.93.83,0,1.48-.73,3.23-.76,4.45,0,.89.13,1.48.78,1.48,1.39,0,2.06-1.94,2.06-3.09,0-1.43-.82-2-.82-2.81,0-.64.7-.88,1.24-.88,1.29,0,1.58.93,1.61,2.07.12,3.51-1.75,6.85-5.32,6.85A4,4,0,0,1,544.18,269.39Z"/><path class="cls-10" d="M561.85,263.85c0,2-2.3,3.65-4.22,3.65-.24,0-.66,0-.66.36s.61.76,1,.76c1.22,0,2.15-1,2.7-1a.75.75,0,0,1,.68.71c0,.9-1.14,1.46-1.84,1.78a6.89,6.89,0,0,1-2.94.68c-2.07,0-3.87-.9-3.79-3.17.15-3.54,3.45-5.83,6.54-5.83C560.71,261.83,561.85,262.35,561.85,263.85Zm-4.92,1.78c0,.21.07.48.31.48.48,0,1.31-1.26,1.26-2.07,0-.23-.12-.53-.39-.53C557.41,263.51,556.93,265.09,556.93,265.63Z"/><path class="cls-10" d="M577.11,262.56c-.07,1-.37,2.55-.51,4.38a3.62,3.62,0,0,0,0,1.09c.07.2.19.19.37.2s.43.16.43.43c0,1.1-2.48,2.09-3.42,2.09-1.51,0-.78-1.45-1.32-1.45s-1.28,1.53-3,1.53c-1.56,0-2.21-1.37-2.14-2.75.13-3.06,2-5.91,4.66-6.15,1.19-.12,1.66.69,2.15.69a1.7,1.7,0,0,0,.65-.27,3.18,3.18,0,0,1,1.45-.44C576.89,261.91,577.15,262.08,577.11,262.56Zm-3.45,1.8c0-.22-.07-.56-.34-.55-.9.07-2,2.61-2,3.69,0,.26.05.7.39.67C572.59,268.1,573.7,265.21,573.66,264.36Z"/><path class="cls-10" d="M583.1,268.35c.1,1.65-.62,2.3-2.94,2.4-.63,0-1.31-.14-1.31-.9,0-1,.68-3.15.71-4.73,0-.46,0-.59-.49-.59s-.8-.14-.8-.75c0-.92,1.38-1.19,2-1.51a3.52,3.52,0,0,1,1.57-.44c1,0,.57,1.61,1.12,1.61s.44-1.63,2-1.63a1.91,1.91,0,0,1,1.85,2c0,1-.51,2-1.66,2a1.15,1.15,0,0,1-1.14-.73c0-.1-.21-.41-.34-.41s-.34.72-.36.87Z"/><path class="cls-10" d="M596,263.85c0,2-2.3,3.65-4.22,3.65-.24,0-.66,0-.66.36s.61.76,1,.76c1.22,0,2.16-1,2.7-1a.74.74,0,0,1,.68.71c0,.9-1.14,1.46-1.84,1.78a6.89,6.89,0,0,1-2.94.68c-2.07,0-3.87-.9-3.79-3.17.15-3.54,3.45-5.83,6.55-5.83C594.81,261.83,596,262.35,596,263.85ZM591,265.63c0,.21.06.48.3.48.48,0,1.31-1.26,1.26-2.07,0-.23-.12-.53-.39-.53C591.51,263.51,591,265.09,591,265.63Z"/><path class="cls-10" d="M608.38,269.39c-.26,0-1.57,1.44-3.61,1.44a2.32,2.32,0,0,1-2.46-2.53c0-1.09.49-3,.49-3.52s-.14-.42-.51-.46-.48-.28-.48-.62c0-.69.58-.92,1.14-1.13a10.36,10.36,0,0,1,2.93-.66c.73,0,.9.46.9,1.12,0,1.07-.5,2.72-.63,3.89-.07.77,0,1.52.47,1.52,1.53,0,1.86-3.45,1.87-4.44,0-1.82,1.33-2,3.1-2.07.63,0,.93.15.93.83,0,1.48-.73,3.23-.76,4.45,0,.89.13,1.48.78,1.48,1.39,0,2.06-1.94,2.06-3.09,0-1.43-.82-2-.82-2.81,0-.64.7-.88,1.24-.88,1.29,0,1.58.93,1.62,2.07.12,3.51-1.75,6.85-5.32,6.85A3.93,3.93,0,0,1,608.38,269.39Z"/><path class="cls-10" d="M618.15,265.79a7.25,7.25,0,0,0,.15-.94c0-.22-.08-.34-.37-.34s-.66,0-.66-.59.78-1.06,1.34-1.3a9,9,0,0,1,3-.71.68.68,0,0,1,.76.78,19.78,19.78,0,0,1-.29,2.42c0,.18-.34,2.14-.42,2.8,0,.32.19.32.46.32s.56,0,.56.43c0,1.29-2.69,2.07-3.66,2.07-.64,0-1.37-.39-1.37-1.1a6,6,0,0,1,.1-.95Zm-.1-5.51c0-1.36,2.43-2.06,3.52-2.06.61,0,1.43.24,1.41,1,0,1.24-2.4,2.09-3.42,2C619,261.18,618.05,261,618.05,260.28Z"/><path class="cls-10" d="M627.84,267.5c0,.21,0,.6.29.6s.34-.05.51-.05.37.29.37.52c0,1.41-2.77,2.16-3.87,2.16-.92,0-1.48-.42-1.38-1.65.24-2.75.77-5.88,1-7.87,0-.27,0-.4-.33-.4l-.4,0c-.34,0-.53-.15-.53-.49,0-.85.78-1.13,1.46-1.35a10.13,10.13,0,0,1,2.82-.54c.6,0,1,.15,1,.82Z"/><path class="cls-10" d="M634.23,267.5c0,.21,0,.6.29.6s.34-.05.51-.05.37.29.37.52c0,1.41-2.77,2.16-3.87,2.16-.92,0-1.48-.42-1.38-1.65.24-2.75.77-5.88,1-7.87,0-.27,0-.4-.32-.4s-.28,0-.41,0c-.34,0-.53-.15-.53-.49,0-.85.78-1.13,1.46-1.35a10.2,10.2,0,0,1,2.82-.54c.6,0,1,.15,1,.82Z"/><path class="cls-10" d="M648,268.71c1.16,0,2.14.59,2.14,1.85,0,2.38-3.07,3.1-5,3.1-1.21,0-4-.26-4-1.92,0-.63.48-.74.48-1s-.63-.5-.63-1.35a1.77,1.77,0,0,1,1.24-1.56c.17-.07.37-.1.37-.32s-.08-.21-.2-.31a2.17,2.17,0,0,1-.9-1.84c0-2.43,2.72-3.53,4.78-3.53a6.36,6.36,0,0,1,.86.07,8.5,8.5,0,0,0,.87.07c.92,0,.93-1.11,1.58-1.11a1.39,1.39,0,0,1,1.14,1.21c0,.51-.36.78-.36.95a2.37,2.37,0,0,1,.46,1.46c-.22,2.74-2.7,3.49-4.83,3.49a11.82,11.82,0,0,1-1.54-.16.38.38,0,0,0-.39.39c0,.62,1.1.55,1.47.55Zm-1.32,3a.29.29,0,0,0-.38-.27,13,13,0,0,1-3-.16c-.14,0-.14.22-.14.31,0,.73,1.31.83,1.82.83S646.68,272.33,646.68,271.72Zm.4-7.8c0-.38-.08-.67-.52-.67-1,0-1.09,1.94-1.14,2.64,0,.39.1.63.54.63C646.9,266.52,647,264.63,647.08,263.92Z"/><path class="cls-10" d="M660.46,263.85c0,2-2.29,3.65-4.21,3.65-.24,0-.67,0-.67.36s.62.76,1,.76c1.22,0,2.16-1,2.7-1a.74.74,0,0,1,.68.71c0,.9-1.14,1.46-1.83,1.78a6.89,6.89,0,0,1-2.94.68c-2.08,0-3.88-.9-3.79-3.17.15-3.54,3.45-5.83,6.54-5.83C659.32,261.83,660.46,262.35,660.46,263.85Zm-4.91,1.78c0,.21.07.48.31.48.47,0,1.3-1.26,1.25-2.07,0-.23-.12-.53-.39-.53C656,263.51,655.55,265.09,655.55,265.63Z"/><path class="cls-10" d="M665.6,266.84c-.17.75,0,1.21.47,1.21s.72-.33,1-.33.46.33.46.62c0,1.32-3.23,2.41-4.22,2.41s-1.7-.49-1.7-1.58a10.85,10.85,0,0,1,.17-1.62l.51-3c.12-.66.07-.75-.61-.75-.41,0-.63-.11-.63-.57a1.07,1.07,0,0,1,1.07-1.21c.55-.07.6-.24.84-1a1.77,1.77,0,0,1,.8-1.22,5.25,5.25,0,0,1,2.12-.38c.43,0,.65.19.65.63s-.16,1.31-.16,1.58c0,.51.56.34,1.07.34.23,0,.43.05.43.31a5.82,5.82,0,0,1-.08.73c-.06.37-.06.73-.52.73-1.17,0-1.17-.05-1.42,1.43Z"/><path class="cls-10" d="M677.8,266.84c-.17.75.05,1.21.48,1.21s.71-.33,1-.33.46.33.46.62c0,1.32-3.23,2.41-4.22,2.41s-1.7-.49-1.7-1.58a10.85,10.85,0,0,1,.17-1.62l.51-3c.12-.66.07-.75-.61-.75-.41,0-.63-.11-.63-.57A1.07,1.07,0,0,1,674.3,262c.54-.07.6-.24.83-1a1.81,1.81,0,0,1,.8-1.22,5.3,5.3,0,0,1,2.13-.38c.42,0,.64.19.64.63s-.15,1.31-.15,1.58c0,.51.56.34,1.07.34.22,0,.43.05.43.31a5.82,5.82,0,0,1-.09.73c-.05.37-.05.73-.51.73-1.17,0-1.17-.05-1.43,1.43Z"/><path class="cls-10" d="M680.51,267.47a5.6,5.6,0,0,1,5.77-5.64c2.13,0,3.88,1.13,3.88,3.36a5.6,5.6,0,0,1-5.78,5.64C682.26,270.83,680.51,269.7,680.51,267.47Zm4.21-2.23a16.14,16.14,0,0,0-.34,3c0,.39.1.78.54.78.72,0,.86-1,1-1.53a18.48,18.48,0,0,0,.4-3c0-.39-.08-.83-.56-.83C685,263.63,684.84,264.71,684.72,265.24Z"/><path class="cls-10" d="M700.84,261c-.05.58-.17,1.19-.17,1.79,0,.13.05.3.2.3.32,0,1-1.27,2.43-1.27,1.7,0,2.36,1.55,2.28,3-.2,3.36-2.31,6-6.14,6-1.39,0-3.12-.51-3.12-2.19a20.11,20.11,0,0,1,.39-2.85,29.45,29.45,0,0,0,.42-4.19c0-.47,0-.64-.51-.68s-.71-.06-.71-.66.66-1,1.26-1.17a11.52,11.52,0,0,1,2.94-.63c1,0,.91.49.85,1.44Zm-.85,7.46c0,.24.06.58.37.58,1,0,1.41-3.31,1.39-3.6s0-.95-.47-.95C700.31,264.48,699.94,268.17,700,268.45Z"/><path class="cls-10" d="M715.05,263.85c0,2-2.3,3.65-4.22,3.65-.24,0-.66,0-.66.36s.61.76,1,.76c1.22,0,2.16-1,2.7-1a.74.74,0,0,1,.68.71c0,.9-1.14,1.46-1.84,1.78a6.89,6.89,0,0,1-2.94.68c-2.07,0-3.87-.9-3.79-3.17.15-3.54,3.45-5.83,6.55-5.83C713.91,261.83,715.05,262.35,715.05,263.85Zm-4.91,1.78c0,.21.06.48.3.48.48,0,1.31-1.26,1.26-2.07,0-.23-.12-.53-.39-.53C710.61,263.51,710.14,265.09,710.14,265.63Z"/><path class="cls-10" d="M722.21,264.83c0,.48,0,.56-.46.56s-.53.16-.62.65l-.66,5.24c0,.68.1,1.25-.53,1.68a5.91,5.91,0,0,1-2.56.7c-.65,0-1.57-.24-1.57-1a.78.78,0,0,1,.31-.63c.43-.39.36-.55.49-1.14a28.73,28.73,0,0,0,.8-5.07c0-.51-.42-.42-.8-.42-.56,0-.68,0-.68-.33,0-.1,0-.3,0-.5l0-.57c.05-.3,0-.51.37-.49s.87.09.87-.2-.77-.67-.77-2c0-1.89,1.94-2.85,3.61-2.85,1.07,0,2.34.56,2.34,1.8a1.38,1.38,0,0,1-1.36,1.48,2.08,2.08,0,0,1-1.46-.67c-.17-.13-.41-.39-.64-.39a.46.46,0,0,0-.45.48.94.94,0,0,0,.77.83c.75.21,1.61.46,1.92,1.26.12.32.12.27.49.27.56,0,.6,0,.55.58Z"/><path class="cls-10" d="M723,267.47a5.6,5.6,0,0,1,5.78-5.64c2.13,0,3.88,1.13,3.88,3.36a5.6,5.6,0,0,1-5.78,5.64C724.77,270.83,723,269.7,723,267.47Zm4.22-2.23a16.14,16.14,0,0,0-.34,3c0,.39.1.78.54.78.72,0,.85-1,.95-1.53a18.5,18.5,0,0,0,.41-3c0-.39-.08-.83-.56-.83C727.53,263.63,727.36,264.71,727.24,265.24Z"/><path class="cls-10" d="M738.29,268.35c.1,1.65-.61,2.3-2.94,2.4-.63,0-1.31-.14-1.31-.9,0-1,.68-3.15.71-4.73,0-.46,0-.59-.49-.59s-.8-.14-.8-.75c0-.92,1.38-1.19,2-1.51a3.52,3.52,0,0,1,1.57-.44c1,0,.57,1.61,1.12,1.61s.44-1.63,2-1.63a1.91,1.91,0,0,1,1.85,2c0,1-.51,2-1.66,2a1.15,1.15,0,0,1-1.14-.73c0-.1-.2-.41-.34-.41s-.34.72-.36.87Z"/><path class="cls-10" d="M751.14,263.85c0,2-2.3,3.65-4.22,3.65-.23,0-.66,0-.66.36s.61.76,1,.76c1.22,0,2.16-1,2.7-1a.74.74,0,0,1,.68.71c0,.9-1.14,1.46-1.84,1.78a6.89,6.89,0,0,1-2.94.68c-2.07,0-3.87-.9-3.79-3.17.16-3.54,3.45-5.83,6.55-5.83C750,261.83,751.14,262.35,751.14,263.85Zm-4.91,1.78c0,.21.06.48.3.48.48,0,1.31-1.26,1.26-2.07,0-.23-.12-.53-.39-.53C746.7,263.51,746.23,265.09,746.23,265.63Z"/><path class="cls-10" d="M765.11,266.57c.61,0,.72.54.72,1,0,.92-.53,3.74-1.82,3.74a.58.58,0,0,1-.58-.39c0-.08-.1-.22-.19-.27a3,3,0,0,0-.85-.07h-3.67c-.61,0-2,.16-2-.8a1.42,1.42,0,0,1,.55-1c.9-.82,4.28-3.73,4.28-5.17a.71.71,0,0,0-.75-.75c-1.07,0-1.92,1.31-2.63,1.31a1,1,0,0,1-.89-1c.14-1.49,3.56-2.84,5.38-2.84,1.32,0,3,.55,3,2.14a2.84,2.84,0,0,1-.71,1.89c-.67.9-2.55,2.42-2.62,2.87s.51.34.78.34c.49,0,.73.06,1.05-.27S764.64,266.57,765.11,266.57Z"/><path class="cls-10" d="M767,266.4c0-3.08,2-6,5.32-6,2.47,0,3.91,1.77,3.91,4.34,0,3.07-2,6-5.32,6C768.43,270.73,767,269,767,266.4Zm4.85,1.85a27,27,0,0,0,.7-5.15c0-.41,0-1-.58-1-.29,0-.63.2-.77.74a23.25,23.25,0,0,0-.68,5.16c0,.4,0,1,.56,1C771.35,269,771.69,268.8,771.83,268.25Z"/><path class="cls-10" d="M781.88,272.14c-.19.41-.28.63-.79.63s-2.68-.73-2.68-1.48a1.24,1.24,0,0,1,.25-.63l3.25-5.62a3.19,3.19,0,0,0,.47-1.09c0-.59-1.42-.46-1.78-.46-.85.05-1.14-.05-1.43.63-.22.46-.3.73-.88.73s-.87-.53-.92-1.1c-.07-.82.85-3.56,1.9-3.62.55,0,.33.35,1.52.35h3.82c.38,0,.75-.07,1.12-.07s1.06.09,1.06.68a3.08,3.08,0,0,1-.38,1.09Z"/><path class="cls-10" d="M787,266.4c0-3.08,2-6,5.32-6,2.47,0,3.91,1.77,3.91,4.34,0,3.07-2,6-5.32,6C788.49,270.73,787,269,787,266.4Zm4.85,1.85a26.06,26.06,0,0,0,.69-5.15c0-.41,0-1-.57-1-.29,0-.63.2-.77.74a23.25,23.25,0,0,0-.68,5.16c.05.4,0,1,.56,1C791.41,269,791.75,268.8,791.89,268.25Z"/><path class="cls-10" d="M800.73,268.91a2,2,0,0,1-2,2,1.84,1.84,0,0,1-1.86-2,2,2,0,0,1,2-1.88A1.77,1.77,0,0,1,800.73,268.91Z"/><path class="cls-10" d="M805.74,268.91a2,2,0,0,1-2,2,1.83,1.83,0,0,1-1.85-2,2,2,0,0,1,2-1.88A1.77,1.77,0,0,1,805.74,268.91Z"/><path class="cls-10" d="M810.76,268.91a2,2,0,0,1-2,2,1.84,1.84,0,0,1-1.86-2,2,2,0,0,1,2-1.88A1.77,1.77,0,0,1,810.76,268.91Z"/><path class="cls-10" d="M454.17,279.1a5.32,5.32,0,0,0,1.21-.1,1.85,1.85,0,0,1,.56-.11c1,0,1.65,1.86,1.65,2.67s-.45,1.7-1.42,1.7c-1.29,0-1.07-2.11-1.81-2.11-.55,0-.56.72-.7,1.94-.1,1-.46,3.66-.46,5.1s1.29.72,1.29,1.73c0,.51-.61,1.23-4.15,1.23-3.06,0-3.11-.8-3.11-1.16,0-1,1.21-.51,1.52-1.32a58.84,58.84,0,0,0,1-7c0-.25-.1-.56-.41-.56-.85,0-.64,2.11-2.16,2.11A1.15,1.15,0,0,1,446,282c0-1.07,1-3.1,2.24-3.1a1.45,1.45,0,0,1,.49.11,2.29,2.29,0,0,0,.61.1Z"/><path class="cls-10" d="M462.36,283c-.05.25-.18.78.05.78s1.67-1.52,3.22-1.52a1.7,1.7,0,0,1,1.93,1.79c0,1.27-.56,3.13-.57,4.1s.91.11.86.95c-.08,1.2-2.65,2.14-3.63,2.07s-1.24-.42-1.24-1.29c0-1.1.71-3.26.71-4.13,0-.34-.12-.71-.49-.71-1.28,0-1.6,3.41-1.69,4.08a2.26,2.26,0,0,1-.39,1.3,3.58,3.58,0,0,1-2.11.79c-.69,0-1.47-.19-1.47-1a17.5,17.5,0,0,1,.3-1.81,63.58,63.58,0,0,0,1-6.63c0-.35,0-.56-.45-.57s-.77,0-.77-.53c0-.77,1-1.11,1.56-1.29a8.42,8.42,0,0,1,2.52-.46c.65,0,1.14.1,1.14.81a19.27,19.27,0,0,1-.31,2.23Z"/><path class="cls-10" d="M478.16,283c-.07,1-.38,2.54-.51,4.38a3.32,3.32,0,0,0,0,1.09c.07.2.19.19.38.2s.42.16.42.43c0,1.1-2.48,2.09-3.41,2.09-1.52,0-.79-1.45-1.33-1.45s-1.28,1.53-3,1.53c-1.56,0-2.21-1.37-2.14-2.75.14-3.06,2-5.92,4.66-6.15,1.19-.12,1.67.69,2.16.69a1.65,1.65,0,0,0,.64-.27,3.18,3.18,0,0,1,1.45-.44C477.93,282.31,478.19,282.48,478.16,283Zm-3.45,1.8c0-.22-.07-.56-.34-.55-.91.07-2,2.6-2,3.69,0,.26.05.7.39.67C473.63,288.5,474.74,285.61,474.71,284.76Z"/><path class="cls-10" d="M483.75,287.24c-.17.75.05,1.21.48,1.21s.71-.33,1-.33.46.33.46.62c0,1.32-3.23,2.41-4.21,2.41s-1.7-.49-1.7-1.58a9.67,9.67,0,0,1,.17-1.62l.51-3c.12-.66.07-.75-.61-.75-.41,0-.63-.12-.63-.57a1.07,1.07,0,0,1,1.07-1.21c.54-.07.59-.24.83-1a1.82,1.82,0,0,1,.8-1.23,5.42,5.42,0,0,1,2.12-.37c.43,0,.65.19.65.63s-.15,1.31-.15,1.58c0,.51.56.34,1.07.34.22,0,.42.05.42.31a5.82,5.82,0,0,1-.08.73c-.05.37-.05.73-.51.73-1.17,0-1.17-.05-1.43,1.43Z"/><path class="cls-10" d="M497.35,282.73c.32,0,.44-1.05.44-1.27s-.1-.37-.32-.37l-.36,0a.47.47,0,0,1-.51-.53c0-.75.77-1,1.38-1.24a12.06,12.06,0,0,1,2.77-.51.72.72,0,0,1,.78.82l-.07.73-.41,2.94-.32,2.31-.22,2.36c0,.48,0,.57.49.62.29,0,.48.15.5.47.06,1.07-2.84,2-3.57,2.06s-.89-.43-1-1.11c0-.17-.1-.44-.32-.44s-1.34,1.63-3.1,1.63-2.09-1.2-2.12-2.66c0-2.45,1.53-6.26,4.49-6.35C496.75,282.21,497.11,282.73,497.35,282.73Zm.1,2c0-.23-.05-.59-.44-.59-1,0-1.82,2.89-1.8,3.82,0,.29.08.55.39.53C496.6,288.46,497.47,285.62,497.45,284.72Z"/><path class="cls-10" d="M502.16,287.87a5.61,5.61,0,0,1,5.78-5.65c2.12,0,3.88,1.14,3.88,3.37a5.6,5.6,0,0,1-5.78,5.64C503.91,291.23,502.16,290.09,502.16,287.87Zm4.22-2.23a16,16,0,0,0-.34,3c0,.39.1.78.54.78.71,0,.85-1,.95-1.53a18.5,18.5,0,0,0,.41-3c0-.39-.09-.83-.56-.83C506.66,284,506.49,285.11,506.38,285.64Z"/><path class="cls-10" d="M521.51,284.25c0,2.05-2.3,3.65-4.22,3.65-.24,0-.66,0-.66.36s.61.76,1,.76c1.23,0,2.16-1,2.71-1a.76.76,0,0,1,.68.72c0,.9-1.14,1.46-1.84,1.78a6.89,6.89,0,0,1-2.94.68c-2.07,0-3.88-.9-3.79-3.18.15-3.53,3.45-5.83,6.54-5.83C520.37,282.22,521.51,282.75,521.51,284.25ZM516.59,286c0,.21.07.48.31.48.48,0,1.31-1.26,1.26-2.08,0-.22-.12-.52-.39-.52C517.07,283.91,516.59,285.49,516.59,286Z"/><path class="cls-10" d="M528.63,284.89c-.68,0-.68-1-1.33-1a.49.49,0,0,0-.52.49c0,1.1,2.43,1.92,2.43,4s-2.49,2.87-4.2,2.87c-1.09,0-3.1-.3-3.1-1.73,0-.51.33-1.21.91-1.21s.59,1.14,1.44,1.14c.34,0,.73-.18.73-.56,0-.9-2.12-1.78-2.12-3.69s2.32-3,4.08-3c.88,0,2.58.29,2.58,1.43C529.53,284.16,529.22,284.89,528.63,284.89Z"/><path class="cls-10" d="M536.65,285.62c0-.3-.15-.54-.47-.54-1.24,0-1.47,2.58-1.57,3.62-.17,1.87-.54,2.31-2.73,2.43-.62,0-1.25-.13-1.25-.88s.79-3.4.74-4.88c0-.34-.12-.54-.48-.54h-.17c-.34,0-.48-.21-.48-.55s.5-.81.87-1a8.13,8.13,0,0,1,3.09-.93c1,0,.58,1.49,1.11,1.49s1.82-1.51,3.3-1.51a1.76,1.76,0,0,1,1.94,1.65c0,1.21-.6,3.25-.6,4.28,0,.68.82.26.82.92,0,1.24-2.57,2-3.54,2A1.07,1.07,0,0,1,536,290a20.51,20.51,0,0,1,.44-2.85Z"/><path class="cls-10" d="M542.59,280.69a1.68,1.68,0,0,1,1.81-1.83c1.38,0,2,1,2,2.29,0,1.86-1.89,4.51-2.71,4.51a1.17,1.17,0,0,1-.86-.82.61.61,0,0,1,.17-.39,3.46,3.46,0,0,0,.85-1.6C543.88,282.17,542.59,282.39,542.59,280.69Z"/><path class="cls-10" d="M551.22,287.24c-.17.75,0,1.21.48,1.21s.71-.33,1-.33.46.33.46.62c0,1.32-3.23,2.41-4.22,2.41s-1.7-.49-1.7-1.58a10.85,10.85,0,0,1,.17-1.62l.51-3c.12-.66.07-.75-.61-.75-.41,0-.63-.12-.63-.57a1.07,1.07,0,0,1,1.07-1.21c.54-.07.59-.24.83-1a1.85,1.85,0,0,1,.8-1.23,5.47,5.47,0,0,1,2.13-.37c.42,0,.64.19.64.63S552,281.75,552,282c0,.51.56.34,1.07.34.22,0,.43.05.43.31a5.82,5.82,0,0,1-.09.73c0,.37,0,.73-.51.73-1.17,0-1.17-.05-1.43,1.43Z"/><path class="cls-10" d="M566.44,288.07c.44,0,.66.56.66.94,0,.61-.77,1.08-1.24,1.34a6.5,6.5,0,0,1-3.28.88c-2.09,0-3.71-.93-3.71-3.21a6,6,0,0,1,5.93-5.8c1.38,0,2.81.68,2.86,2.27a2.1,2.1,0,0,1-2,2.09c-.56,0-1.26-.38-1.26-1,0-.46.29-.85.29-1.14a.3.3,0,0,0-.3-.31c-1.06,0-1.36,2.76-1.36,3.52,0,.54.11,1.39.85,1.39a3.41,3.41,0,0,0,1.71-.59A1.8,1.8,0,0,1,566.44,288.07Z"/><path class="cls-10" d="M568.29,287.87a5.61,5.61,0,0,1,5.78-5.65c2.12,0,3.87,1.14,3.87,3.37a5.6,5.6,0,0,1-5.78,5.64C570,291.23,568.29,290.09,568.29,287.87Zm4.21-2.23a16.92,16.92,0,0,0-.34,3c0,.39.11.78.55.78.71,0,.85-1,.95-1.53a18.5,18.5,0,0,0,.41-3c0-.39-.09-.83-.56-.83C572.79,284,572.62,285.11,572.5,285.64Z"/><path class="cls-10" d="M585.15,285.62c0-.3-.15-.54-.47-.54-1.24,0-1.47,2.58-1.57,3.62-.17,1.87-.54,2.31-2.73,2.43-.62,0-1.24-.13-1.24-.88s.78-3.4.73-4.88c0-.34-.12-.54-.48-.54h-.17c-.34,0-.48-.21-.48-.55s.5-.81.87-1a8.18,8.18,0,0,1,3.1-.93c1,0,.57,1.49,1.1,1.49s1.82-1.51,3.3-1.51a1.76,1.76,0,0,1,1.94,1.65c0,1.21-.6,3.25-.6,4.28,0,.68.82.26.82.92,0,1.24-2.57,2-3.54,2a1.07,1.07,0,0,1-1.22-1.14,20.51,20.51,0,0,1,.44-2.85Z"/><path class="cls-10" d="M596.51,284.89c-.68,0-.68-1-1.33-1a.49.49,0,0,0-.52.49c0,1.1,2.43,1.92,2.43,4s-2.49,2.87-4.2,2.87c-1.09,0-3.1-.3-3.1-1.73,0-.51.33-1.21.91-1.21s.59,1.14,1.44,1.14c.34,0,.73-.18.73-.56,0-.9-2.12-1.78-2.12-3.69s2.32-3,4.08-3c.88,0,2.58.29,2.58,1.43C597.41,284.16,597.1,284.89,596.51,284.89Z"/><path class="cls-10" d="M599.13,286.19c.06-.4.15-.72.15-.94s-.09-.34-.37-.34-.67,0-.67-.59.78-1.06,1.35-1.3a8.91,8.91,0,0,1,2.95-.71.68.68,0,0,1,.77.78,21.45,21.45,0,0,1-.29,2.41c0,.19-.34,2.15-.43,2.81,0,.32.19.32.46.32s.56,0,.56.43c0,1.29-2.68,2.07-3.65,2.07-.65,0-1.38-.39-1.38-1.1a6,6,0,0,1,.1-.95Zm-.11-5.51c0-1.36,2.44-2.06,3.52-2.06.62,0,1.43.24,1.41,1,0,1.24-2.39,2.09-3.41,2C600,281.58,599,281.43,599,280.68Z"/><path class="cls-10" d="M610.23,282.73c.32,0,.44-1.05.44-1.27s-.1-.37-.32-.37l-.36,0a.47.47,0,0,1-.51-.53c0-.75.76-1,1.38-1.24a12.06,12.06,0,0,1,2.77-.51.72.72,0,0,1,.78.82l-.07.73-.41,2.94-.32,2.31-.22,2.36c0,.48,0,.57.49.62.29,0,.48.15.49.47.07,1.07-2.83,2-3.56,2.06s-.89-.43-1-1.11c0-.17-.1-.44-.32-.44s-1.35,1.63-3.1,1.63-2.09-1.2-2.12-2.66c0-2.45,1.53-6.26,4.49-6.35C609.63,282.21,610,282.73,610.23,282.73Zm.1,2c0-.23-.05-.59-.44-.59-1,0-1.82,2.89-1.8,3.82,0,.29.08.55.39.53C609.48,288.46,610.35,285.62,610.33,284.72Z"/><path class="cls-10" d="M624,284.25c0,2.05-2.3,3.65-4.22,3.65-.24,0-.66,0-.66.36s.61.76,1,.76c1.22,0,2.15-1,2.7-1a.76.76,0,0,1,.68.72c0,.9-1.14,1.46-1.84,1.78a6.89,6.89,0,0,1-2.94.68c-2.07,0-3.87-.9-3.79-3.18.15-3.53,3.45-5.83,6.54-5.83C622.86,282.22,624,282.75,624,284.25ZM619.08,286c0,.21.07.48.31.48.48,0,1.31-1.26,1.26-2.08,0-.22-.12-.52-.39-.52C619.56,283.91,619.08,285.49,619.08,286Z"/><path class="cls-10" d="M629.52,288.75c.1,1.65-.61,2.3-2.94,2.4-.63,0-1.31-.14-1.31-.9,0-1,.68-3.15.72-4.73,0-.46,0-.59-.5-.59s-.8-.14-.8-.75c0-.92,1.38-1.19,2-1.51a3.52,3.52,0,0,1,1.56-.45c1,0,.58,1.62,1.12,1.62s.45-1.63,2-1.63a1.92,1.92,0,0,1,1.85,2c0,1-.51,2-1.67,2a1.15,1.15,0,0,1-1.14-.73c-.05-.1-.2-.41-.34-.41s-.34.71-.35.87Z"/><path class="cls-10" d="M645.13,284.89c-.68,0-.68-1-1.33-1a.49.49,0,0,0-.52.49c0,1.1,2.43,1.92,2.43,4s-2.49,2.87-4.2,2.87c-1.09,0-3.1-.3-3.1-1.73,0-.51.33-1.21.9-1.21.72,0,.6,1.14,1.45,1.14.34,0,.73-.18.73-.56,0-.9-2.12-1.78-2.12-3.69s2.32-3,4.07-3c.89,0,2.59.29,2.59,1.43C646,284.16,645.72,284.89,645.13,284.89Z"/><path class="cls-10" d="M651.16,287.24c-.17.75.05,1.21.48,1.21s.71-.33,1-.33.46.33.46.62c0,1.32-3.23,2.41-4.22,2.41s-1.7-.49-1.7-1.58a10.85,10.85,0,0,1,.17-1.62l.51-3c.12-.66.07-.75-.61-.75-.41,0-.63-.12-.63-.57a1.07,1.07,0,0,1,1.07-1.21c.55-.07.6-.24.83-1a1.85,1.85,0,0,1,.8-1.23,5.5,5.5,0,0,1,2.13-.37c.42,0,.64.19.64.63s-.15,1.31-.15,1.58c0,.51.56.34,1.07.34.22,0,.43.05.43.31a4.41,4.41,0,0,1-.09.73c-.05.37-.05.73-.51.73-1.17,0-1.17-.05-1.43,1.43Z"/><path class="cls-10" d="M653.87,287.87a5.61,5.61,0,0,1,5.78-5.65c2.12,0,3.87,1.14,3.87,3.37a5.6,5.6,0,0,1-5.78,5.64C655.62,291.23,653.87,290.09,653.87,287.87Zm4.21-2.23a16,16,0,0,0-.34,3c0,.39.1.78.55.78.71,0,.85-1,1-1.53a18.5,18.5,0,0,0,.41-3c0-.39-.09-.83-.57-.83C658.37,284,658.2,285.11,658.08,285.64Z"/><path class="cls-10" d="M669.13,288.75c.1,1.65-.61,2.3-2.94,2.4-.63,0-1.31-.14-1.31-.9,0-1,.68-3.15.72-4.73,0-.46,0-.59-.5-.59s-.8-.14-.8-.75c0-.92,1.38-1.19,2-1.51a3.52,3.52,0,0,1,1.56-.45c1,0,.58,1.62,1.12,1.62s.44-1.63,2-1.63a1.92,1.92,0,0,1,1.85,2c0,1-.51,2-1.67,2a1.15,1.15,0,0,1-1.14-.73c-.05-.1-.2-.41-.34-.41s-.34.71-.35.87Z"/><path class="cls-10" d="M683.73,283.52c0,.12,0,.32.19.32s1.46-1.53,3.28-1.53a1.6,1.6,0,0,1,1.7,1.7c0,1-.56,3.38-.56,4.15s.9.15.9.9c0,1.26-2.55,2-3.47,2.07s-1.17-.47-1.25-1.21c0-1.47.56-2.92.56-4.28,0-.3-.09-.54-.43-.54-1.31,0-1.32,2.41-1.41,3.21a4.76,4.76,0,0,1-.49,2.07,3.79,3.79,0,0,1-2.54.75c-.71,0-1-.22-1-1,0-1.34.65-3,.65-4.43,0-.36,0-.63-.46-.63-1.19,0-1.34,2.89-1.39,3.65-.15,1.67,0,2.19-2.89,2.4-.66.05-1.12-.17-1.12-.92s.68-3.36.68-4.79c0-.33,0-.56-.41-.56s-.82,0-.82-.53.85-1,1.33-1.24a6.29,6.29,0,0,1,2.63-.8c.62,0,.87.41.92,1,0,.15,0,.56.26.56.4,0,1.78-1.53,3.38-1.53A1.76,1.76,0,0,1,683.73,283.52Z"/><path class="cls-10" d="M701.67,284.89c-.68,0-.68-1-1.33-1a.49.49,0,0,0-.52.49c0,1.1,2.43,1.92,2.43,4s-2.49,2.87-4.2,2.87c-1.09,0-3.1-.3-3.1-1.73,0-.51.33-1.21.91-1.21s.59,1.14,1.44,1.14c.34,0,.73-.18.73-.56,0-.9-2.12-1.78-2.12-3.69s2.33-3,4.08-3c.88,0,2.58.29,2.58,1.43C702.57,284.16,702.26,284.89,701.67,284.89Z"/><path class="cls-10" d="M713.08,287.17a3.57,3.57,0,0,0-.11.78c0,.38.19.51.53.51s.6,0,.6.46c0,1.31-2.84,2.21-3.88,2.21s-.58-1.51-1.17-1.51c-.38,0-1.82,1.58-3.59,1.51-1,0-1.48-.64-1.51-1.75a28.67,28.67,0,0,1,.49-3.52c0-.44.17-.83-.39-.9-.34,0-.71-.08-.71-.53,0-.68.95-1.17,1.46-1.41a6.72,6.72,0,0,1,2.73-.69c.65,0,.87.34.87,1a30.09,30.09,0,0,1-.49,3.16c0,.22-.46,1.9.27,1.9.54,0,.93-.68,1.12-1.09.7-1.6.38-3.74,1.14-4.37a4.35,4.35,0,0,1,2.31-.59c.53,0,1,.15,1,.73,0,.22-.07.63-.09.85Z"/><path class="cls-10" d="M719.67,288.75c.1,1.65-.61,2.3-2.94,2.4-.63,0-1.31-.14-1.31-.9,0-1,.68-3.15.72-4.73,0-.46,0-.59-.5-.59s-.8-.14-.8-.75c0-.92,1.38-1.19,2-1.51a3.52,3.52,0,0,1,1.56-.45c1,0,.58,1.62,1.12,1.62s.44-1.63,2-1.63a1.92,1.92,0,0,1,1.85,2c0,1-.51,2-1.67,2a1.15,1.15,0,0,1-1.14-.73c0-.1-.2-.41-.34-.41s-.34.71-.35.87Z"/><path class="cls-10" d="M730.76,289.11c1.15,0,2.14.59,2.14,1.85,0,2.38-3.08,3.1-5,3.1-1.2,0-4-.26-4-1.93,0-.62.47-.73.47-1s-.63-.5-.63-1.35a1.77,1.77,0,0,1,1.24-1.56c.17-.07.38-.1.38-.32s-.09-.21-.21-.31a2.17,2.17,0,0,1-.9-1.84c0-2.43,2.72-3.53,4.78-3.53a6.38,6.38,0,0,1,.87.07,8.28,8.28,0,0,0,.86.06c.92,0,.94-1.1,1.58-1.1a1.39,1.39,0,0,1,1.14,1.21c0,.51-.35.78-.35.95a2.44,2.44,0,0,1,.46,1.46c-.23,2.74-2.71,3.48-4.83,3.48a12.84,12.84,0,0,1-1.55-.15.38.38,0,0,0-.39.39c0,.62,1.1.55,1.48.55Zm-1.33,3a.28.28,0,0,0-.37-.27,13.06,13.06,0,0,1-3-.16c-.14,0-.14.22-.14.31,0,.73,1.31.83,1.82.83S729.43,292.73,729.43,292.12Zm.41-7.8c0-.38-.09-.67-.53-.67-1,0-1.09,1.94-1.14,2.64,0,.39.1.63.55.63C729.65,286.92,729.75,285,729.84,284.32Z"/><path class="cls-10" d="M743.22,284.25c0,2.05-2.3,3.65-4.22,3.65-.24,0-.66,0-.66.36s.61.76,1,.76c1.23,0,2.16-1,2.71-1a.76.76,0,0,1,.68.72c0,.9-1.14,1.46-1.84,1.78a6.89,6.89,0,0,1-2.94.68c-2.07,0-3.87-.9-3.79-3.18.15-3.53,3.45-5.83,6.54-5.83C742.08,282.22,743.22,282.75,743.22,284.25ZM738.3,286c0,.21.07.48.31.48.48,0,1.31-1.26,1.26-2.08,0-.22-.12-.52-.39-.52C738.78,283.91,738.3,285.49,738.3,286Z"/><path class="cls-10" d="M750.34,284.89c-.68,0-.68-1-1.33-1a.49.49,0,0,0-.52.49c0,1.1,2.43,1.92,2.43,4s-2.49,2.87-4.2,2.87c-1.09,0-3.1-.3-3.1-1.73,0-.51.33-1.21.91-1.21s.59,1.14,1.44,1.14c.34,0,.73-.18.73-.56,0-.9-2.12-1.78-2.12-3.69s2.32-3,4.08-3c.88,0,2.58.29,2.58,1.43C751.24,284.16,750.93,284.89,750.34,284.89Z"/><path class="cls-10" d="M753,291.11c1.41,0,2.21-2.53,2.45-3.62a27,27,0,0,0,.68-5c0-1.41-.21-3.45-2-3.45-.47,0-.93.13-1.41.13s-.49-.32-.49-.66c0-1.06,1.36-1,2.11-1,4,0,5.3,3,5.3,6.57a9.89,9.89,0,0,1-1.41,5.54,6.05,6.05,0,0,1-4.83,3.07c-.69,0-1.85-.17-1.85-1.08A.52.52,0,0,1,752,291C752.31,291,752.63,291.11,753,291.11Z"/></g></svg>