<svg xmlns="http://www.w3.org/2000/svg" viewBox="0 0 284.87 190.58"><defs><style>.cls-1{fill:#ffe9d3;}.cls-2{fill:#83809f;}.cls-3{fill:none;stroke:#83809f;stroke-miterlimit:10;stroke-width:6px;}</style></defs><g id="Layer_6" data-name="Layer 6"><rect class="cls-1" x="-622.15" y="-1.64" width="1551.13" height="193.74"/></g><g id="Layer_4" data-name="Layer 4"><path class="cls-2" d="M61.78,87.38V85.62A3.64,3.64,0,0,1,65.51,82h1.35a3.64,3.64,0,0,1,3.74,3.61v1.76a3.75,3.75,0,0,1-3.74,3.74H65.51A3.75,3.75,0,0,1,61.78,87.38Zm9.83,20.29.08,3.74H61.78v-5.67c1.84.71,2.64-.38,2.64-2.82,0-3,1.14-4.41,2.27-4.41S69,99.9,69,102.92c0,2.44.8,3.53,2.65,2.82ZM69.71,95a3,3,0,1,1-3-3A3,3,0,0,1,69.71,95Zm5.09,3.15H73.58c-1.72,0-3.15-1-3.15-2.36V94.65c0-1.26,1.43-2.27,3.15-2.27H74.8c1.72,0,3.11,1,3.11,2.27v1.13C77.91,97.09,76.52,98.14,74.8,98.14Zm11.63,13.23H82.32a.68.68,0,0,1-.3,0h-5.5v-5.67c1.85.71,2.65-.38,2.65-2.82a7.92,7.92,0,0,1,.33-2.43c.84-3.11,4.2-2.82,4.2,2.39,0,2.44.8,3.53,2.65,2.82v1.93Zm0-25.75v1.76a3.75,3.75,0,0,1-3.74,3.74H81.35a3.75,3.75,0,0,1-3.74-3.74V85.62A3.64,3.64,0,0,1,81.35,82h1.34A3.64,3.64,0,0,1,86.43,85.62ZM78.49,95a3,3,0,1,1,3,3A3,3,0,0,1,78.49,95Z"/><path class="cls-2" d="M96.8,105.7v5.71H87v-5.67c1.85.71,2.65-.38,2.65-2.82a7.89,7.89,0,0,1,.34-2.43c.84-3.11,4.2-2.82,4.2,2.39C94.16,105.32,95,106.41,96.8,105.7ZM87.48,94.19V92.42a3.64,3.64,0,0,1,3.74-3.61h1.34a3.64,3.64,0,0,1,3.74,3.61v1.77a3.75,3.75,0,0,1-3.74,3.74H91.22A3.75,3.75,0,0,1,87.48,94.19ZM89,85a3,3,0,1,1,3,3A3,3,0,0,1,89,85Z"/><path class="cls-2" d="M122.43,99.48v8.19a3.75,3.75,0,0,1-3.74,3.74H101a3.75,3.75,0,0,1-3.74-3.74v-7.14a1.41,1.41,0,0,1,1.43-1.34H107c1.51,0,1,.71,0,1.13-4.41,1.85-11,1.72-8.74,7,1.68,3.78,15.08,6.72,15.08-2.86v-5a3.64,3.64,0,0,1,3.61-3.74h1.77A3.75,3.75,0,0,1,122.43,99.48Zm.46-13.74v7.48a1.42,1.42,0,0,1-1.43,1.35h-8.32c-1.51,0-1-.72,0-1.14,4.41-1.85,11-2.06,8.74-7.35-2.14-4.91-17.1-4.37-17.1,6.47,0,4.62-4.41,5.12-4.41-.84,0-2.44-.8-3.57-2.64-2.86V85.74A3.74,3.74,0,0,1,101.46,82h17.69A3.75,3.75,0,0,1,122.89,85.74ZM108.31,98.39a3,3,0,1,1,3-3A3,3,0,0,1,108.31,98.39Z"/><path class="cls-2" d="M144.06,85.62v1.76a3.75,3.75,0,0,1-3.74,3.74H126.83a3.75,3.75,0,0,1-3.74-3.74V85.62A3.64,3.64,0,0,1,126.83,82h13.49A3.64,3.64,0,0,1,144.06,85.62Zm-5.63,20.08v5.71l-3.74,0h-.3a.62.62,0,0,1-.29,0h-1.77l-3.73,0v-5.71c1.84.71,2.64-.38,2.64-2.82a7.89,7.89,0,0,1,.34-2.43c.84-3.11,4.2-2.82,4.2,2.39C135.78,105.32,136.58,106.41,138.43,105.7Zm-7.9-10.8a3,3,0,1,1,3,3A3,3,0,0,1,130.53,94.9Z"/><path class="cls-2" d="M171.31,105.74v1.93a3.75,3.75,0,0,1-3.73,3.74H148.21a3.75,3.75,0,0,1-3.74-3.74v-1.93c1.85.71,2.65-.38,2.65-2.82,0-6,4.41-5.46,4.41-.84,0,5.68,2.86,8.83,6.38,8.83s6.35-3.15,6.35-8.83c0-4.62,4.41-5.12,4.41.84C168.67,105.36,169.47,106.45,171.31,105.74ZM146.15,87.38V85.62A3.64,3.64,0,0,1,149.89,82h16a3.64,3.64,0,0,1,3.74,3.61v1.76a3.75,3.75,0,0,1-3.74,3.74h-16A3.75,3.75,0,0,1,146.15,87.38ZM149.39,92a3,3,0,1,1-3,3A3,3,0,0,1,149.39,92Zm17,0a3,3,0,1,1-3,3A3,3,0,0,1,166.4,92Z"/><path class="cls-2" d="M171.73,93.09V85.74A3.64,3.64,0,0,1,175.34,82h1.77a3.74,3.74,0,0,1,3.73,3.73v7.35a3.75,3.75,0,0,1-3.73,3.74h-1.77A3.64,3.64,0,0,1,171.73,93.09Zm8.61,18,0,.34h-8.57V109.6c0,.63,1.51,1.81,1.51-.84,0-4.62,4.41-5.12,4.41.84C177.74,111,178.74,111.41,180.34,111.07Zm-8-9.41a3,3,0,1,1,3,3A3,3,0,0,1,172.36,101.66Zm12.52,9.75c6.21-13.27-4.29-13.69-11.26-13.32l.76-.58c10.71,1.09,21.55.67,21.55,13.9Zm-5.55-29.07.46-.29c6.22,0,13.91-.25,14.33,3.82a36.88,36.88,0,0,1,0,7.86c-.51,4.62-9.45,3.78-15.67,3.78l-.46-.3c3.28.21,8.32.38,9.32-3.11a21.39,21.39,0,0,0,.17-4.32c0-1.56,0-3-.17-4.29C187,82,182.61,82.17,179.33,82.34Z"/><path class="cls-2" d="M214.19,82h8.49c0,11.59-15.12,31.67-25.79,28.27l-.55-.8C204.32,112.46,214.19,96.5,214.19,82Zm-11.55,0h1.77a3.75,3.75,0,0,1,3.74,3.73v8.49A3.75,3.75,0,0,1,204.41,98h-1.77A3.64,3.64,0,0,1,199,94.23V85.74A3.64,3.64,0,0,1,202.64,82Z"/><rect class="cls-3" x="40.46" y="34.39" width="198.95" height="128.23" rx="38"/></g></svg>