<svg xmlns="http://www.w3.org/2000/svg" viewBox="0 0 284.87 190.58"><defs><style>.cls-1{fill:#ffe9d3;}.cls-2{fill:none;stroke:#c38788;stroke-miterlimit:10;stroke-width:6px;}.cls-3{fill:#c38788;}</style></defs><g id="Layer_6" data-name="Layer 6"><rect class="cls-1" x="-1268.58" y="-1.64" width="1551.13" height="193.74"/></g><g id="Layer_4" data-name="Layer 4"><rect class="cls-2" x="43.27" y="34.39" width="197.45" height="121.67" rx="38"/><path class="cls-3" d="M103.78,82.34V84.1a3.84,3.84,0,0,1-3.91,3.74H81.37a3.84,3.84,0,0,1-3.91-3.74V82.34a3.73,3.73,0,0,1,3.91-3.61h18.5A3.73,3.73,0,0,1,103.78,82.34Zm-26.32,22v-1.93c1.93.71,2.77-.38,2.77-2.81,0-6,4.61-5.47,4.61-.85v6.94c0,1.42-.52,2.35-1.62,2.39H81.37A3.84,3.84,0,0,1,77.46,104.39Zm2-12.68a3.17,3.17,0,1,1,3.16,3A3.09,3.09,0,0,1,79.44,91.71Zm20.12-1.14v1.14c0,1.3-1.45,2.35-3.25,2.35h-6.5c-1.8,0-3.3-1-3.3-2.35V90.57c0-1.26,1.5-2.27,3.3-2.27h6.5C98.11,88.3,99.56,89.31,99.56,90.57Z"/><path class="cls-3" d="M113.75,108.13h-9.53c0-16.38,5.09-16.89,16.82-16.89l.79.59C112.91,91.45,113.75,95.28,113.75,108.13Zm17-25.79V84.1a3.84,3.84,0,0,1-3.91,3.74H108.35a3.83,3.83,0,0,1-3.91-3.74V82.34a3.73,3.73,0,0,1,3.91-3.61h18.49A3.73,3.73,0,0,1,130.75,82.34ZM123.41,98.8c0-4.62,4.62-5.12,4.62.85,0,2.39.79,6.13,2.68,5.58a3.93,3.93,0,0,1-3.83,2.9H114.72v-.76C119.72,107.37,123.41,104.14,123.41,98.8Zm-.92-7.09a3.17,3.17,0,1,1,3.16,3A3.09,3.09,0,0,1,122.49,91.71Z"/><path class="cls-3" d="M157.55,82.34V84.1a3.84,3.84,0,0,1-3.91,3.74h-18.5a3.84,3.84,0,0,1-3.91-3.74V82.34a3.73,3.73,0,0,1,3.91-3.61h18.5A3.73,3.73,0,0,1,157.55,82.34Zm0,14.57v7.48a3.84,3.84,0,0,1-3.91,3.74h-18.5a3.84,3.84,0,0,1-3.91-3.74v-1.93c1.94.71,2.77-.38,2.77-2.81,0-6,4.61-5.47,4.61-.85,0,11.09,15.64,10.17,17.88,5.26,2.42-5.3-4.52-5.51-9.13-7.36-1.06-.42-1.59-1.13,0-1.13h8.69A1.45,1.45,0,0,1,157.55,96.91Zm-24.34-5.2a3.17,3.17,0,1,1,3.16,3A3.09,3.09,0,0,1,133.21,91.71Z"/><path class="cls-3" d="M179.91,82.34V84.1A3.84,3.84,0,0,1,176,87.84H161.9A3.83,3.83,0,0,1,158,84.1V82.34a3.73,3.73,0,0,1,3.91-3.61H176A3.73,3.73,0,0,1,179.91,82.34ZM174,102.42v5.71l-3.91,0h-.3a.73.73,0,0,1-.31,0h-1.85l-3.91,0v-5.71c1.94.71,2.77-.38,2.77-2.81a7.6,7.6,0,0,1,.35-2.44c.88-3.11,4.39-2.82,4.39,2.39C171.25,102,172.09,103.13,174,102.42Zm-8.26-10.8a3.17,3.17,0,1,1,3.17,3A3.08,3.08,0,0,1,165.76,91.62Z"/><path class="cls-3" d="M206.71,96.2v8.19a3.84,3.84,0,0,1-3.91,3.74H184.26a3.83,3.83,0,0,1-3.91-3.74V97.25a1.44,1.44,0,0,1,1.49-1.34h8.7c1.58,0,1.05.71,0,1.13-4.61,1.85-11.55,1.72-9.14,7,1.76,3.78,15.77,6.72,15.77-2.86v-5A3.72,3.72,0,0,1,201,92.46h1.85A3.84,3.84,0,0,1,206.71,96.2Zm.48-13.74v7.48a1.45,1.45,0,0,1-1.49,1.35H197c-1.58,0-1.06-.72,0-1.14,4.61-1.85,11.55-2.06,9.14-7.35-2.25-4.92-17.88-4.37-17.88,6.47,0,4.62-4.62,5.12-4.62-.84,0-2.44-.83-3.57-2.76-2.86V82.46a3.83,3.83,0,0,1,3.9-3.73h18.5A3.84,3.84,0,0,1,207.19,82.46ZM192,95.11a3,3,0,1,1,3.16-3A3.08,3.08,0,0,1,192,95.11Z"/></g></svg>