<svg xmlns="http://www.w3.org/2000/svg" viewBox="0 0 284.87 190.58"><defs><style>.cls-1{fill:#ffe9d3;}.cls-2{fill:none;stroke:#b76824;stroke-miterlimit:10;stroke-width:6px;}.cls-3{fill:#b76824;}</style></defs><g id="Layer_6" data-name="Layer 6"><rect class="cls-1" x="-943.02" y="-1.64" width="1551.13" height="193.74"/></g><g id="Layer_4" data-name="Layer 4"><rect class="cls-2" x="40.42" y="33.39" width="200.67" height="129.34" rx="38"/><path class="cls-3" d="M67.45,92.65V85.3a3.64,3.64,0,0,1,3.61-3.74h1.76a3.75,3.75,0,0,1,3.74,3.74v7.35a3.75,3.75,0,0,1-3.74,3.74H71.06A3.64,3.64,0,0,1,67.45,92.65Zm8.61,18,0,.33H67.45v-3c0,.63,1.51,1.81,1.51-.84,0-4.62,4.41-5.12,4.41.84C73.37,110,74.46,111,76.06,110.63Zm-5-13.7a3,3,0,1,1-3,3A3,3,0,0,1,71.1,96.93Zm19-7.6a38.48,38.48,0,0,1-.21,4c-.51,4.62-9.46,3.78-15.67,3.78l-.46-.29C77,97,82,97.14,83,93.66a22.23,22.23,0,0,0,.17-4.33c0-1.55,0-3-.17-4.28-.33-3.49-4.7-3.32-8-3.15l.46-.3c6.22,0,13.91-.25,14.33,3.82A38.3,38.3,0,0,1,90.05,89.33Z"/><path class="cls-3" d="M115.67,85.17v1.77a3.75,3.75,0,0,1-3.74,3.74H94.24a3.75,3.75,0,0,1-3.74-3.74V85.17a3.64,3.64,0,0,1,3.74-3.61h17.69A3.64,3.64,0,0,1,115.67,85.17Zm0,14.58v7.48a3.75,3.75,0,0,1-3.74,3.73H94.24a3.75,3.75,0,0,1-3.74-3.73v-1.94c1.85.72,2.65-.37,2.65-2.81,0-6,4.41-5.46,4.41-.84,0,11.09,15,10.17,17.1,5.25,2.31-5.29-4.33-5.5-8.74-7.35-1-.42-1.51-1.14,0-1.14h8.32A1.42,1.42,0,0,1,115.67,99.75Zm-3.49-6.34v1.13c0,1.3-1.38,2.35-3.11,2.35H94.24c-1.72,0-3.15-1-3.15-2.35V93.41c0-1.26,1.43-2.27,3.15-2.27h14.83C110.8,91.14,112.18,92.15,112.18,93.41Z"/><path class="cls-3" d="M142.93,105.29v1.94a3.75,3.75,0,0,1-3.74,3.73H119.82a3.75,3.75,0,0,1-3.74-3.73v-1.94c1.85.72,2.65-.37,2.65-2.81,0-6,4.41-5.46,4.41-.84,0,5.67,2.86,8.82,6.39,8.82s6.34-3.15,6.34-8.82c0-4.62,4.41-5.13,4.41.84C140.28,104.92,141.08,106,142.93,105.29ZM117.76,86.94V85.17a3.64,3.64,0,0,1,3.74-3.61h16a3.64,3.64,0,0,1,3.73,3.61v1.77a3.75,3.75,0,0,1-3.73,3.74h-16A3.75,3.75,0,0,1,117.76,86.94ZM121,91.52a3,3,0,1,1-3,3A3,3,0,0,1,121,91.52Zm17,0a3,3,0,1,1-3,3A3,3,0,0,1,138,91.52Z"/><path class="cls-3" d="M143.34,92.65V85.3A3.64,3.64,0,0,1,147,81.56h1.77a3.75,3.75,0,0,1,3.74,3.74v7.35a3.75,3.75,0,0,1-3.74,3.74H147A3.64,3.64,0,0,1,143.34,92.65Zm8.61,18,0,.33h-8.57v-3c0,.63,1.51,1.81,1.51-.84,0-4.62,4.41-5.12,4.41.84C149.26,110,150.36,111,152,110.63Zm-5-13.7a3,3,0,1,1-3,3A3,3,0,0,1,147,96.93Zm18.95-7.6a35.84,35.84,0,0,1-.21,4c-.5,4.62-9.45,3.78-15.67,3.78l-.46-.29c3.28.21,8.32.37,9.33-3.11a22.35,22.35,0,0,0,.16-4.33c0-1.55,0-3-.16-4.28-.34-3.49-4.71-3.32-8-3.15l.47-.3c6.21,0,13.9-.25,14.32,3.82A35.63,35.63,0,0,1,165.94,89.33Z"/><path class="cls-3" d="M180.55,85.17v1.77a3.74,3.74,0,0,1-3.73,3.74h-6.68a3.75,3.75,0,0,1-3.74-3.74V85.17a3.64,3.64,0,0,1,3.74-3.61h6.68A3.63,3.63,0,0,1,180.55,85.17Zm7.52,13.53v8.53a3.74,3.74,0,0,1-3.73,3.73h-14.2a3.75,3.75,0,0,1-3.74-3.73v-1.94c1.85.72,2.65-.37,2.65-2.81,0-6,4.41-5.46,4.41-.84,0,11.09,13.86,11,13.86,4.07,0-5.16-7.19-6-9.79-7-.76-.25,0-.67.8-.67h9A.7.7,0,0,1,188.07,98.7Zm-19.78-4.16a3,3,0,1,1,3,3A3,3,0,0,1,168.29,94.54Z"/><path class="cls-3" d="M213.65,85.17v1.77a3.75,3.75,0,0,1-3.74,3.74H192.23a3.75,3.75,0,0,1-3.74-3.74V85.17a3.64,3.64,0,0,1,3.74-3.61h17.68A3.64,3.64,0,0,1,213.65,85.17Zm0,14.58v7.48a3.75,3.75,0,0,1-3.74,3.73H192.23a3.75,3.75,0,0,1-3.74-3.73v-1.94c1.85.72,2.65-.37,2.65-2.81,0-6,4.41-5.46,4.41-.84,0,11.09,14.95,10.17,17.09,5.25,2.32-5.29-4.32-5.5-8.73-7.35-1-.42-1.52-1.14,0-1.14h8.31A1.42,1.42,0,0,1,213.65,99.75Zm-3.48-6.34v1.13c0,1.3-1.39,2.35-3.11,2.35H192.23c-1.72,0-3.15-1-3.15-2.35V93.41c0-1.26,1.43-2.27,3.15-2.27h14.83C208.78,91.14,210.17,92.15,210.17,93.41Z"/></g></svg>